G04*
G04 #@! TF.GenerationSoftware,Altium Limited,Altium Designer,23.5.1 (21)*
G04*
G04 Layer_Physical_Order=2*
G04 Layer_Color=16711680*
%FSLAX44Y44*%
%MOMM*%
G71*
G04*
G04 #@! TF.SameCoordinates,19FF910F-FD56-46C1-A6BE-D3D33EAEA19E*
G04*
G04*
G04 #@! TF.FilePolarity,Positive*
G04*
G01*
G75*
%ADD10C,0.3000*%
%ADD12C,0.4000*%
%ADD13C,0.2000*%
%ADD15C,0.2540*%
%ADD40R,1.4000X1.7000*%
%ADD41R,1.7000X1.0000*%
%ADD47R,1.7000X1.4000*%
%ADD98C,1.0000*%
%ADD99C,0.5000*%
%ADD100C,2.0000*%
%ADD101C,0.6000*%
%ADD103C,6.0000*%
%ADD104C,2.6250*%
%ADD105R,2.6250X2.6250*%
%ADD106C,0.7800*%
%ADD107O,2.3160X1.1580*%
%ADD108O,2.1160X1.0580*%
%ADD109C,0.8400*%
%ADD110C,1.8000*%
%ADD111C,1.7250*%
%ADD112C,0.5000*%
%ADD113C,1.0000*%
%ADD114C,1.5000*%
%ADD115R,1.0000X1.7000*%
%ADD116R,1.2700X2.1000*%
%ADD117R,2.1000X1.2700*%
%ADD118R,1.8000X1.8400*%
%ADD119R,1.8400X1.8000*%
%ADD120C,0.9000*%
G36*
X1019086Y1396741D02*
X1018928Y1396612D01*
X1016986Y1394245D01*
X1016847Y1393984D01*
X667240D01*
X666759Y1394465D01*
X665105Y1395150D01*
X663315D01*
X661661Y1394465D01*
X660395Y1393199D01*
X659710Y1391545D01*
Y1389755D01*
X658680Y1388214D01*
X545410D01*
X544134Y1387960D01*
X543052Y1387238D01*
X513404Y1357589D01*
X510760Y1358115D01*
X507780D01*
X504858Y1357534D01*
X502106Y1356394D01*
X499628Y1354738D01*
X497522Y1352632D01*
X495866Y1350154D01*
X494726Y1347402D01*
X494145Y1344480D01*
Y1341500D01*
X494726Y1338578D01*
X495866Y1335826D01*
X497522Y1333348D01*
X499628Y1331242D01*
X502106Y1329586D01*
X504858Y1328446D01*
X507780Y1327865D01*
X510760D01*
X513682Y1328446D01*
X516434Y1329586D01*
X518912Y1331242D01*
X521018Y1333348D01*
X522674Y1335826D01*
X523814Y1338578D01*
X524395Y1341500D01*
Y1344480D01*
X523814Y1347402D01*
X522674Y1350154D01*
X521018Y1352632D01*
X519448Y1354202D01*
X546791Y1381546D01*
X597685D01*
X598223Y1380979D01*
X599146Y1379006D01*
X598750Y1378050D01*
Y1376260D01*
X597720Y1374719D01*
X563665D01*
X562389Y1374465D01*
X561307Y1373743D01*
X546912Y1359348D01*
X546190Y1358266D01*
X545936Y1356990D01*
Y1337748D01*
X544858Y1337534D01*
X542106Y1336394D01*
X539628Y1334738D01*
X537522Y1332632D01*
X535866Y1330154D01*
X534726Y1327402D01*
X534145Y1324480D01*
Y1321500D01*
X534726Y1318578D01*
X535866Y1315826D01*
X537522Y1313348D01*
X539628Y1311242D01*
X542106Y1309586D01*
X544858Y1308446D01*
X547780Y1307865D01*
X550760D01*
X553682Y1308446D01*
X556434Y1309586D01*
X557924Y1310582D01*
X560429Y1309769D01*
X560735Y1309473D01*
X560840Y1308942D01*
X550013Y1298115D01*
X547780D01*
X544858Y1297534D01*
X542106Y1296394D01*
X539628Y1294738D01*
X537522Y1292632D01*
X535866Y1290154D01*
X534726Y1287402D01*
X534145Y1284480D01*
Y1281500D01*
X534726Y1278578D01*
X535866Y1275826D01*
X537522Y1273348D01*
X539628Y1271242D01*
X542106Y1269586D01*
X543849Y1268864D01*
X543344Y1266324D01*
X524028D01*
X523814Y1267402D01*
X522674Y1270154D01*
X521018Y1272632D01*
X518912Y1274738D01*
X516434Y1276394D01*
X513682Y1277534D01*
X510760Y1278115D01*
X507780D01*
X504858Y1277534D01*
X502106Y1276394D01*
X499628Y1274738D01*
X497522Y1272632D01*
X495866Y1270154D01*
X494726Y1267402D01*
X494145Y1264480D01*
Y1261500D01*
X494726Y1258578D01*
X495866Y1255826D01*
X497522Y1253348D01*
X499628Y1251242D01*
X502106Y1249586D01*
X504858Y1248446D01*
X507780Y1247865D01*
X510760D01*
X513682Y1248446D01*
X516434Y1249586D01*
X518912Y1251242D01*
X521018Y1253348D01*
X522674Y1255826D01*
X523814Y1258578D01*
X524028Y1259656D01*
X543344D01*
X543850Y1257116D01*
X542106Y1256394D01*
X539628Y1254738D01*
X537522Y1252632D01*
X535866Y1250154D01*
X534726Y1247402D01*
X534145Y1244480D01*
Y1241500D01*
X534726Y1238578D01*
X535866Y1235826D01*
X537522Y1233348D01*
X539628Y1231242D01*
X542106Y1229586D01*
X544858Y1228446D01*
X547780Y1227865D01*
X550760D01*
X553682Y1228446D01*
X555259Y1229100D01*
X584478Y1199880D01*
X583709Y1197058D01*
X582106Y1196394D01*
X579628Y1194738D01*
X577522Y1192632D01*
X575866Y1190154D01*
X574726Y1187402D01*
X574145Y1184480D01*
Y1181500D01*
X574726Y1178578D01*
X575866Y1175826D01*
X577522Y1173348D01*
X579628Y1171242D01*
X582106Y1169586D01*
X584858Y1168446D01*
X587483Y1167924D01*
X587233Y1165384D01*
X580501D01*
X561158Y1184727D01*
X560076Y1185450D01*
X558800Y1185704D01*
X552915D01*
X552665Y1188244D01*
X553682Y1188446D01*
X556434Y1189586D01*
X558912Y1191242D01*
X561018Y1193348D01*
X562674Y1195826D01*
X563814Y1198578D01*
X564395Y1201500D01*
Y1204480D01*
X563814Y1207402D01*
X562674Y1210154D01*
X561018Y1212632D01*
X558912Y1214738D01*
X556434Y1216394D01*
X553682Y1217534D01*
X550760Y1218115D01*
X547780D01*
X544858Y1217534D01*
X542106Y1216394D01*
X539628Y1214738D01*
X537522Y1212632D01*
X535866Y1210154D01*
X534726Y1207402D01*
X534145Y1204480D01*
Y1201500D01*
X534726Y1198578D01*
X535866Y1195826D01*
X537522Y1193348D01*
X539628Y1191242D01*
X542106Y1189586D01*
X544858Y1188446D01*
X545875Y1188244D01*
X545625Y1185704D01*
X538591D01*
X517158Y1207137D01*
X517036Y1207550D01*
X517553Y1210334D01*
X518912Y1211242D01*
X521018Y1213348D01*
X522674Y1215826D01*
X523814Y1218578D01*
X524395Y1221500D01*
Y1224480D01*
X523814Y1227402D01*
X522674Y1230154D01*
X521018Y1232632D01*
X518912Y1234738D01*
X516434Y1236394D01*
X513682Y1237534D01*
X510760Y1238115D01*
X507780D01*
X504858Y1237534D01*
X502106Y1236394D01*
X499628Y1234738D01*
X497522Y1232632D01*
X495866Y1230154D01*
X494726Y1227402D01*
X494145Y1224480D01*
Y1221500D01*
X494726Y1218578D01*
X495866Y1215826D01*
X497522Y1213348D01*
X499628Y1211242D01*
X502106Y1209586D01*
X504858Y1208446D01*
X507780Y1207865D01*
X508703D01*
Y1207543D01*
X508957Y1206267D01*
X509680Y1205185D01*
X515218Y1199647D01*
X513780Y1197493D01*
X513682Y1197534D01*
X510760Y1198115D01*
X507780D01*
X504858Y1197534D01*
X502106Y1196394D01*
X499628Y1194738D01*
X497522Y1192632D01*
X495866Y1190154D01*
X494726Y1187402D01*
X494145Y1184480D01*
Y1181500D01*
X494726Y1178578D01*
X495866Y1175826D01*
X496548Y1174806D01*
X495366Y1172003D01*
X494641Y1171702D01*
X490329Y1169060D01*
X486484Y1165776D01*
X483200Y1161931D01*
X480829Y1158062D01*
X479297Y1158203D01*
X478289Y1158669D01*
Y1350520D01*
Y1353716D01*
X479123Y1360053D01*
X480778Y1366227D01*
X483224Y1372133D01*
X486420Y1377668D01*
X490311Y1382739D01*
X494831Y1387259D01*
X499902Y1391150D01*
X505437Y1394346D01*
X511343Y1396792D01*
X517517Y1398447D01*
X523854Y1399281D01*
X1018177D01*
X1019086Y1396741D01*
D02*
G37*
G36*
X1434983Y1398447D02*
X1441157Y1396792D01*
X1447063Y1394346D01*
X1452598Y1391150D01*
X1457669Y1387259D01*
X1462189Y1382739D01*
X1466080Y1377668D01*
X1469276Y1372133D01*
X1471722Y1366227D01*
X1473377Y1360053D01*
X1474211Y1353716D01*
Y1350520D01*
Y452120D01*
Y448924D01*
X1473377Y442587D01*
X1471722Y436413D01*
X1469276Y430507D01*
X1466080Y424972D01*
X1462189Y419901D01*
X1457669Y415381D01*
X1452598Y411490D01*
X1447063Y408294D01*
X1441157Y405848D01*
X1434983Y404193D01*
X1428646Y403359D01*
X1204261D01*
X1204061Y403728D01*
X1203601Y405899D01*
X1205599Y407431D01*
X1256969Y458801D01*
X1258892Y461308D01*
X1260101Y464227D01*
X1260514Y467360D01*
X1260101Y470493D01*
X1258892Y473412D01*
X1256969Y475919D01*
X1254462Y477842D01*
X1251543Y479051D01*
X1248410Y479464D01*
X1245277Y479051D01*
X1242358Y477842D01*
X1239852Y475919D01*
X1192027Y428094D01*
X1107486D01*
X1107097Y428450D01*
X1105998Y430634D01*
X1106330Y431435D01*
Y433225D01*
X1105645Y434879D01*
X1104379Y436145D01*
X1102725Y436830D01*
X1101379D01*
X1099412Y438797D01*
X1098330Y439520D01*
X1097862Y439613D01*
X1096995Y441589D01*
X1096971Y442314D01*
X1152829Y498172D01*
X1154752Y500678D01*
X1155961Y503597D01*
X1156374Y506730D01*
X1155961Y509863D01*
X1154752Y512782D01*
X1152829Y515289D01*
X1150322Y517212D01*
X1147403Y518421D01*
X1144270Y518834D01*
X1141137Y518421D01*
X1138218Y517212D01*
X1135712Y515289D01*
X1082236Y461814D01*
X875689D01*
X874717Y464160D01*
X883473Y472916D01*
X1007110D01*
X1008386Y473170D01*
X1009467Y473893D01*
X1119958Y584383D01*
X1120680Y585464D01*
X1120934Y586740D01*
Y656100D01*
X1121415Y656581D01*
X1122100Y658235D01*
Y660025D01*
X1121415Y661679D01*
X1120149Y662945D01*
X1118495Y663630D01*
X1116705D01*
X1115051Y662945D01*
X1113785Y661679D01*
X1113100Y660025D01*
Y658235D01*
X1113785Y656581D01*
X1114266Y656100D01*
Y588121D01*
X1005729Y479584D01*
X882092D01*
X880816Y479330D01*
X879734Y478607D01*
X867441Y466314D01*
X855453D01*
X854401Y468854D01*
X859458Y473912D01*
X861382Y476418D01*
X862591Y479337D01*
X863004Y482470D01*
X862591Y485603D01*
X861382Y488522D01*
X859458Y491029D01*
X856952Y492952D01*
X854033Y494161D01*
X851148Y494541D01*
X850656Y495265D01*
X850037Y497022D01*
X878817Y525803D01*
X886485Y533470D01*
X901500D01*
Y534760D01*
X943140D01*
X944967Y535000D01*
X946670Y535705D01*
X948132Y536828D01*
X948602Y537298D01*
X948884Y537665D01*
X949211Y537992D01*
X949443Y538393D01*
X949725Y538760D01*
X949902Y539187D01*
X950133Y539588D01*
X950253Y540035D01*
X950430Y540463D01*
X950490Y540922D01*
X950610Y541368D01*
Y541831D01*
X950670Y542290D01*
X950610Y542749D01*
Y543212D01*
X950490Y543658D01*
X950430Y544117D01*
X950253Y544545D01*
X950133Y544992D01*
X949902Y545393D01*
X949725Y545820D01*
X949443Y546187D01*
X949211Y546588D01*
X948884Y546915D01*
X948602Y547282D01*
X948235Y547564D01*
X947908Y547891D01*
X947507Y548123D01*
X947140Y548405D01*
X946713Y548582D01*
X946312Y548813D01*
X945865Y548933D01*
X945437Y549110D01*
X944978Y549170D01*
X944532Y549290D01*
X944069D01*
X943610Y549350D01*
X943151Y549290D01*
X942688D01*
X942242Y549170D01*
X941783Y549110D01*
X941355Y548933D01*
X941160Y548880D01*
X901500D01*
Y550170D01*
X876500D01*
Y543455D01*
X873825Y540780D01*
X862242Y552362D01*
X861972Y552570D01*
X861546Y553003D01*
X861384Y555129D01*
X861411Y555349D01*
X861596Y555896D01*
X862368Y557233D01*
X862399Y557350D01*
X863377Y559074D01*
X864895Y559246D01*
X911830D01*
X913106Y559500D01*
X914187Y560223D01*
X1006087Y652122D01*
X1009040Y651631D01*
X1010306Y650365D01*
X1011960Y649680D01*
X1013306D01*
X1013566Y649419D01*
X1014648Y648697D01*
X1015924Y648443D01*
X1016199D01*
X1016476Y648165D01*
Y641690D01*
X1010810D01*
Y620690D01*
X1024095D01*
X1027722Y617062D01*
X1028804Y616340D01*
X1030080Y616086D01*
X1051024D01*
X1052300Y616340D01*
X1053382Y617062D01*
X1062105Y625786D01*
X1072080D01*
Y620770D01*
X1097080D01*
Y637470D01*
X1072080D01*
Y632454D01*
X1060724D01*
X1059449Y632200D01*
X1058367Y631478D01*
X1054017Y627127D01*
X1051670Y628099D01*
Y641690D01*
X1050153D01*
X1049687Y642600D01*
X1049374Y644230D01*
X1050295Y645151D01*
X1050980Y646805D01*
Y648595D01*
X1050295Y650249D01*
X1049029Y651515D01*
X1047375Y652200D01*
X1045585D01*
X1043931Y651515D01*
X1042665Y650249D01*
X1041980Y648595D01*
Y647525D01*
X1040312Y645857D01*
X1039590Y644776D01*
X1039336Y643500D01*
Y641690D01*
X1033670D01*
Y623553D01*
X1031130Y623085D01*
X1028810Y625405D01*
Y641690D01*
X1023144D01*
Y649546D01*
X1022890Y650822D01*
X1022168Y651904D01*
X1019937Y654134D01*
X1018855Y654857D01*
X1017579Y655111D01*
X1017340D01*
X1016670Y656729D01*
X1015404Y657995D01*
X1015228Y659052D01*
X1017336Y661496D01*
X1028316D01*
X1029591Y661750D01*
X1030673Y662473D01*
X1048127Y679926D01*
X1109490D01*
X1109971Y679445D01*
X1111625Y678760D01*
X1113415D01*
X1115069Y679445D01*
X1115550Y679926D01*
X1220359D01*
X1226130Y674155D01*
Y673475D01*
X1226815Y671821D01*
X1228081Y670555D01*
X1229735Y669870D01*
X1231525D01*
X1233179Y670555D01*
X1234445Y671821D01*
X1235130Y673475D01*
Y675265D01*
X1234445Y676919D01*
X1233179Y678185D01*
X1231525Y678870D01*
X1230845D01*
X1224098Y685618D01*
X1223016Y686340D01*
X1221740Y686594D01*
X1115854D01*
Y848422D01*
X1118201Y849394D01*
X1243512Y724082D01*
X1244594Y723360D01*
X1245870Y723106D01*
X1333389D01*
X1393372Y663122D01*
X1394454Y662400D01*
X1395730Y662146D01*
X1430955D01*
X1431200Y661234D01*
X1432648Y658726D01*
X1434696Y656678D01*
X1437204Y655230D01*
X1440002Y654480D01*
X1442898D01*
X1445696Y655230D01*
X1448204Y656678D01*
X1450252Y658726D01*
X1451700Y661234D01*
X1452450Y664032D01*
Y666928D01*
X1451700Y669726D01*
X1450252Y672234D01*
X1448204Y674282D01*
X1445696Y675730D01*
X1442898Y676480D01*
X1440002D01*
X1437204Y675730D01*
X1434696Y674282D01*
X1432648Y672234D01*
X1431200Y669726D01*
X1430955Y668814D01*
X1397111D01*
X1337128Y728798D01*
X1336046Y729520D01*
X1334770Y729774D01*
X1247251D01*
X1027879Y949146D01*
Y997486D01*
X1035045D01*
Y1011486D01*
X1037421Y1011882D01*
X1040879D01*
X1043255Y1011486D01*
X1043255Y1009342D01*
Y997486D01*
X1046695D01*
Y986830D01*
X1032598Y972732D01*
X1031476Y971270D01*
X1030770Y969567D01*
X1030530Y967740D01*
X1030770Y965913D01*
X1031476Y964210D01*
X1032598Y962748D01*
X1034060Y961626D01*
X1035763Y960920D01*
X1037590Y960680D01*
X1039417Y960920D01*
X1041120Y961626D01*
X1042582Y962748D01*
X1058747Y978913D01*
X1059869Y980375D01*
X1060575Y982078D01*
X1060815Y983905D01*
Y997486D01*
X1064255D01*
Y1009734D01*
X1064727Y1011532D01*
X1065967Y1012858D01*
X1066150Y1013042D01*
X1077427Y1024318D01*
X1079949Y1023347D01*
X1080141Y1021656D01*
X1075273Y1016788D01*
X1074550Y1015706D01*
X1074296Y1014430D01*
Y909920D01*
X1074550Y908644D01*
X1075273Y907562D01*
X1248593Y734242D01*
X1249674Y733520D01*
X1250950Y733266D01*
X1361329D01*
X1407343Y687253D01*
X1408424Y686530D01*
X1409700Y686276D01*
X1431407D01*
X1432648Y684126D01*
X1434696Y682078D01*
X1437204Y680630D01*
X1440002Y679880D01*
X1442898D01*
X1445696Y680630D01*
X1448204Y682078D01*
X1450252Y684126D01*
X1451700Y686634D01*
X1452450Y689432D01*
Y692328D01*
X1451700Y695126D01*
X1450252Y697634D01*
X1448204Y699682D01*
X1445696Y701130D01*
X1442898Y701880D01*
X1440002D01*
X1437204Y701130D01*
X1434696Y699682D01*
X1432648Y697634D01*
X1431200Y695126D01*
X1430615Y692944D01*
X1411081D01*
X1365067Y738958D01*
X1363986Y739680D01*
X1362710Y739934D01*
X1252331D01*
X1245029Y747236D01*
X1246081Y749776D01*
X1380379D01*
X1416232Y713923D01*
X1417314Y713200D01*
X1418590Y712946D01*
X1430955D01*
X1431200Y712034D01*
X1432648Y709526D01*
X1434696Y707478D01*
X1437204Y706030D01*
X1440002Y705280D01*
X1442898D01*
X1445696Y706030D01*
X1448204Y707478D01*
X1450252Y709526D01*
X1451700Y712034D01*
X1452450Y714832D01*
Y717728D01*
X1451700Y720526D01*
X1450252Y723034D01*
X1448204Y725082D01*
X1445696Y726530D01*
X1442898Y727280D01*
X1440002D01*
X1437204Y726530D01*
X1434696Y725082D01*
X1432648Y723034D01*
X1431200Y720526D01*
X1430955Y719614D01*
X1419971D01*
X1384117Y755468D01*
X1383036Y756190D01*
X1381760Y756444D01*
X1341797D01*
X1341631Y758984D01*
X1341677Y758990D01*
X1343380Y759696D01*
X1344842Y760818D01*
X1379373Y795348D01*
X1380495Y796810D01*
X1381200Y798513D01*
X1381440Y800340D01*
Y851130D01*
X1385380D01*
Y873530D01*
X1373365D01*
X1319729Y927166D01*
X1319703Y927262D01*
X1319471Y927663D01*
X1319294Y928090D01*
X1319013Y928457D01*
X1318781Y928858D01*
X1318454Y929185D01*
X1318172Y929552D01*
X1317805Y929834D01*
X1317478Y930161D01*
X1317077Y930393D01*
X1316710Y930675D01*
X1316283Y930852D01*
X1315882Y931083D01*
X1315435Y931203D01*
X1315007Y931380D01*
X1314549Y931440D01*
X1314102Y931560D01*
X1313639D01*
X1313180Y931620D01*
X1312721Y931560D01*
X1312258D01*
X1311811Y931440D01*
X1311353Y931380D01*
X1310925Y931203D01*
X1310478Y931083D01*
X1310077Y930852D01*
X1309650Y930675D01*
X1309283Y930393D01*
X1308882Y930161D01*
X1308555Y929834D01*
X1308188Y929552D01*
X1307906Y929185D01*
X1307579Y928858D01*
X1307347Y928457D01*
X1307065Y928090D01*
X1306888Y927663D01*
X1306657Y927262D01*
X1306537Y926815D01*
X1306360Y926387D01*
X1306300Y925929D01*
X1306180Y925482D01*
Y925019D01*
X1306120Y924560D01*
Y923730D01*
X1306360Y921903D01*
X1307065Y920200D01*
X1308188Y918738D01*
X1363380Y863545D01*
Y851130D01*
X1367320D01*
Y803264D01*
X1334858Y770802D01*
X1333736Y769340D01*
X1333030Y767637D01*
X1332790Y765810D01*
X1333030Y763983D01*
X1333736Y762280D01*
X1334858Y760818D01*
X1336320Y759696D01*
X1338023Y758990D01*
X1338069Y758984D01*
X1337903Y756444D01*
X1273831D01*
X1271960Y758565D01*
Y760355D01*
X1271275Y762009D01*
X1270794Y762490D01*
Y1045210D01*
X1270540Y1046486D01*
X1269818Y1047568D01*
X1188706Y1128680D01*
X1187624Y1129402D01*
X1186348Y1129656D01*
X1182822D01*
X1181205Y1131967D01*
X1181264Y1132990D01*
X1182375Y1134101D01*
X1183060Y1135755D01*
Y1137545D01*
X1183755Y1139770D01*
X1185409Y1140455D01*
X1186675Y1141721D01*
X1187360Y1143375D01*
Y1145165D01*
X1186675Y1146819D01*
X1185409Y1148085D01*
X1184216Y1148579D01*
X1183522Y1150249D01*
X1183355Y1151310D01*
X1237750Y1205706D01*
X1258570D01*
X1259846Y1205960D01*
X1260928Y1206683D01*
X1314665Y1260420D01*
X1315345D01*
X1316999Y1261105D01*
X1318265Y1262371D01*
X1318950Y1264025D01*
Y1265815D01*
X1318265Y1267469D01*
X1316999Y1268735D01*
X1315345Y1269420D01*
X1313555D01*
X1311901Y1268735D01*
X1310635Y1267469D01*
X1309950Y1265815D01*
Y1265135D01*
X1257189Y1212374D01*
X1238461D01*
X1237409Y1214914D01*
X1284185Y1261690D01*
X1284865D01*
X1286519Y1262375D01*
X1287785Y1263641D01*
X1288470Y1265295D01*
Y1267085D01*
X1287785Y1268739D01*
X1286519Y1270005D01*
X1284865Y1270690D01*
X1283075D01*
X1281421Y1270005D01*
X1280155Y1268739D01*
X1279470Y1267085D01*
Y1266405D01*
X1144453Y1131387D01*
X1143730Y1130306D01*
X1143476Y1129030D01*
Y1088145D01*
X1143730Y1086870D01*
X1144453Y1085788D01*
X1158130Y1072110D01*
Y1071034D01*
X1158815Y1069380D01*
X1160081Y1068114D01*
X1161735Y1067429D01*
X1163525D01*
X1165179Y1068114D01*
X1166445Y1069380D01*
X1167130Y1071034D01*
Y1072824D01*
X1166445Y1074478D01*
X1165179Y1075744D01*
X1164925Y1075849D01*
X1164730Y1076367D01*
X1166526Y1078810D01*
X1166755D01*
X1168409Y1079495D01*
X1169675Y1080761D01*
X1170360Y1082415D01*
Y1084205D01*
X1170171Y1084662D01*
X1172324Y1086101D01*
X1229256Y1029169D01*
Y925730D01*
X1226829Y924565D01*
X1225175Y925250D01*
X1223385D01*
X1221731Y924565D01*
X1220465Y923299D01*
X1219780Y921645D01*
Y920965D01*
X1202872Y904057D01*
X1202150Y902976D01*
X1201896Y901700D01*
Y845820D01*
X1202150Y844544D01*
X1202872Y843463D01*
X1205810Y840525D01*
Y839845D01*
X1206495Y838191D01*
X1207761Y836925D01*
X1209415Y836240D01*
X1211205D01*
X1212859Y836925D01*
X1214125Y838191D01*
X1214810Y839845D01*
Y841635D01*
X1214125Y843289D01*
X1212859Y844555D01*
X1211205Y845240D01*
X1210525D01*
X1208564Y847201D01*
Y900319D01*
X1218490Y910245D01*
X1218820Y910202D01*
X1220946Y909109D01*
Y813290D01*
X1220465Y812809D01*
X1219780Y811155D01*
Y809365D01*
X1220465Y807711D01*
X1221731Y806445D01*
X1223385Y805760D01*
X1225175D01*
X1226829Y806445D01*
X1229256Y805280D01*
Y780350D01*
X1228085Y779179D01*
X1227400Y777525D01*
Y776650D01*
X1224957Y775501D01*
X1089184Y911274D01*
Y926989D01*
X1135198Y973002D01*
X1135920Y974084D01*
X1136174Y975360D01*
Y1012490D01*
X1135920Y1013766D01*
X1135198Y1014847D01*
X1134686Y1015359D01*
X1135097Y1016823D01*
X1135758Y1017879D01*
X1137207Y1018070D01*
X1138910Y1018775D01*
X1139561Y1019275D01*
X1139680Y1019196D01*
X1140460Y1019041D01*
X1184910D01*
X1185690Y1019196D01*
X1186352Y1019638D01*
X1186393Y1019700D01*
X1186520D01*
Y1019890D01*
X1186794Y1020300D01*
X1186949Y1021080D01*
Y1042851D01*
X1186899Y1043102D01*
X1186885Y1043357D01*
X1186822Y1043489D01*
X1186794Y1043632D01*
X1186652Y1043844D01*
X1186541Y1044075D01*
X1186433Y1044172D01*
X1186352Y1044293D01*
X1186139Y1044435D01*
X1185949Y1044606D01*
X1185811Y1044654D01*
X1185690Y1044735D01*
X1185440Y1044785D01*
X1185198Y1044870D01*
X1168688Y1047229D01*
X1168543Y1047221D01*
X1168400Y1047249D01*
X1153160D01*
X1153160Y1047249D01*
X1152380Y1047094D01*
X1151718Y1046652D01*
X1151718Y1046652D01*
X1142766Y1037700D01*
X1140120D01*
Y1035054D01*
X1139018Y1033952D01*
X1138890Y1033760D01*
X1137190D01*
X1135363Y1033520D01*
X1133660Y1032814D01*
X1132198Y1031693D01*
X1131818Y1031313D01*
X1129665Y1032752D01*
X1129720Y1032885D01*
Y1034675D01*
X1129035Y1036329D01*
X1127769Y1037595D01*
X1126115Y1038280D01*
X1124325D01*
X1122671Y1037595D01*
X1121405Y1036329D01*
X1120720Y1034675D01*
Y1032885D01*
X1118656Y1031230D01*
X1107100D01*
Y1017230D01*
X1123385D01*
X1129506Y1011109D01*
Y976741D01*
X1083504Y930739D01*
X1083454Y930740D01*
X1080964Y931516D01*
Y1013049D01*
X1085145Y1017230D01*
X1101430D01*
Y1031230D01*
X1097494D01*
X1095430Y1032885D01*
Y1034675D01*
X1094745Y1036329D01*
X1093887Y1037187D01*
X1093472Y1038612D01*
X1093461Y1040352D01*
X1136468Y1083359D01*
X1137190Y1084440D01*
X1137444Y1085716D01*
Y1150812D01*
X1138408Y1151369D01*
X1139711Y1152672D01*
X1140633Y1154268D01*
X1141110Y1156048D01*
Y1157892D01*
X1140633Y1159672D01*
X1139711Y1161268D01*
X1138408Y1162571D01*
X1136812Y1163493D01*
X1135032Y1163970D01*
X1133188D01*
X1131408Y1163493D01*
X1129812Y1162571D01*
X1128509Y1161268D01*
X1127587Y1159672D01*
X1127110Y1157892D01*
Y1156048D01*
X1127587Y1154268D01*
X1128509Y1152672D01*
X1129812Y1151369D01*
X1130776Y1150812D01*
Y1100153D01*
X1130280Y1099583D01*
X1129346Y1099577D01*
X1127180Y1101878D01*
Y1101985D01*
X1126495Y1103639D01*
X1125229Y1104905D01*
X1123575Y1105590D01*
X1121785D01*
X1120131Y1104905D01*
X1119650Y1104424D01*
X1113250D01*
X1111974Y1104170D01*
X1110892Y1103447D01*
X1078333Y1070888D01*
X1077674Y1070821D01*
X1075083Y1071230D01*
X1074429Y1071885D01*
X1072775Y1072570D01*
X1071096D01*
X1069998Y1073724D01*
X1069459Y1074687D01*
X1070030Y1076065D01*
Y1077855D01*
X1069345Y1079509D01*
X1068079Y1080775D01*
X1066425Y1081460D01*
X1066077D01*
X1014262Y1133275D01*
X1015234Y1135621D01*
X1025335D01*
X1026387Y1133081D01*
X1026155Y1132849D01*
X1025470Y1131195D01*
Y1129405D01*
X1026155Y1127751D01*
X1027421Y1126485D01*
X1029075Y1125800D01*
X1029755D01*
X1054680Y1100875D01*
Y1100195D01*
X1055365Y1098541D01*
X1056631Y1097275D01*
X1058285Y1096590D01*
X1060075D01*
X1061729Y1097275D01*
X1062995Y1098541D01*
X1063680Y1100195D01*
Y1101985D01*
X1062995Y1103639D01*
X1061729Y1104905D01*
X1060075Y1105590D01*
X1059395D01*
X1034470Y1130515D01*
Y1131195D01*
X1033785Y1132849D01*
X1033552Y1133081D01*
X1034605Y1135621D01*
X1043385D01*
X1046790Y1132217D01*
X1047948Y1131443D01*
X1049313Y1131171D01*
X1081175D01*
X1081421Y1130925D01*
X1083075Y1130240D01*
X1084865D01*
X1086519Y1130925D01*
X1086670Y1131076D01*
X1089210Y1130023D01*
Y1113165D01*
X1085279Y1109235D01*
X1084429Y1110085D01*
X1082775Y1110770D01*
X1080985D01*
X1079331Y1110085D01*
X1078065Y1108819D01*
X1077380Y1107165D01*
Y1106280D01*
X1070270D01*
Y1088280D01*
X1091270D01*
Y1095256D01*
X1101263Y1105248D01*
X1102384Y1106710D01*
X1103090Y1108413D01*
X1103330Y1110240D01*
Y1135875D01*
X1103090Y1137702D01*
X1102384Y1139405D01*
X1101263Y1140867D01*
X1092897Y1149232D01*
X1091435Y1150354D01*
X1089732Y1151060D01*
X1087905Y1151300D01*
X1077410D01*
Y1166486D01*
X1082964Y1172040D01*
X1083850D01*
X1084309Y1172100D01*
X1096350D01*
Y1174040D01*
X1100750D01*
Y1172100D01*
X1121750D01*
Y1174040D01*
X1126129D01*
Y1174000D01*
X1131213Y1174400D01*
X1136172Y1175591D01*
X1140884Y1177542D01*
X1145232Y1180207D01*
X1149110Y1183519D01*
X1149082Y1183547D01*
X1151375Y1185840D01*
X1160890D01*
Y1206840D01*
X1158950D01*
Y1219964D01*
X1159497Y1220495D01*
X1161490Y1221437D01*
X1162425Y1221050D01*
X1164215D01*
X1165869Y1221735D01*
X1166350Y1222216D01*
X1192419D01*
X1198190Y1216445D01*
Y1215765D01*
X1198875Y1214111D01*
X1200141Y1212845D01*
X1201795Y1212160D01*
X1203585D01*
X1205239Y1212845D01*
X1206505Y1214111D01*
X1207190Y1215765D01*
Y1217555D01*
X1206505Y1219209D01*
X1205239Y1220475D01*
X1203585Y1221160D01*
X1202905D01*
X1196158Y1227907D01*
X1195076Y1228630D01*
X1193800Y1228884D01*
X1166350D01*
X1165869Y1229365D01*
X1164215Y1230050D01*
X1162425D01*
X1161490Y1229663D01*
X1159497Y1230605D01*
X1158950Y1231136D01*
Y1314680D01*
X1159713Y1315550D01*
X1206500D01*
X1206959Y1315610D01*
X1217000D01*
Y1329610D01*
X1206959D01*
X1206500Y1329670D01*
X1140002D01*
X1137547Y1329948D01*
X1137547Y1329948D01*
X1137394Y1329963D01*
X1134704Y1330779D01*
X1133708Y1332060D01*
X1133646Y1332332D01*
X1135502Y1334610D01*
X1150960D01*
Y1343895D01*
X1155115Y1348050D01*
X1156595D01*
X1158249Y1348735D01*
X1159515Y1350001D01*
X1160200Y1351655D01*
Y1353445D01*
X1159848Y1354296D01*
X1160886Y1356407D01*
X1161336Y1356836D01*
X1164000D01*
X1165052Y1354296D01*
X1164585Y1353829D01*
X1163900Y1352175D01*
Y1350769D01*
X1162980Y1348610D01*
X1162980Y1348610D01*
X1162980Y1348610D01*
Y1334610D01*
X1183980D01*
Y1348610D01*
X1174914D01*
X1172900Y1350385D01*
Y1352175D01*
X1172215Y1353829D01*
X1171748Y1354296D01*
X1172800Y1356836D01*
X1207180D01*
X1208232Y1354296D01*
X1207765Y1353829D01*
X1207080Y1352175D01*
Y1350385D01*
X1205066Y1348610D01*
X1196000D01*
Y1334610D01*
X1217000D01*
Y1348610D01*
X1217000D01*
X1216080Y1350769D01*
Y1352175D01*
X1215395Y1353829D01*
X1214928Y1354296D01*
X1215980Y1356836D01*
X1224229D01*
X1239730Y1341335D01*
Y1340655D01*
X1240415Y1339001D01*
X1241681Y1337735D01*
X1243335Y1337050D01*
X1245125D01*
X1246779Y1337735D01*
X1248045Y1339001D01*
X1248730Y1340655D01*
Y1342445D01*
X1248045Y1344099D01*
X1246779Y1345365D01*
X1245125Y1346050D01*
X1244445D01*
X1229849Y1360646D01*
X1230901Y1363186D01*
X1250260D01*
Y1363085D01*
X1250945Y1361431D01*
X1252211Y1360165D01*
X1253865Y1359480D01*
X1255655D01*
X1257309Y1360165D01*
X1258575Y1361431D01*
X1259260Y1363085D01*
Y1364875D01*
X1258575Y1366529D01*
X1258108Y1366996D01*
X1259160Y1369536D01*
X1266970D01*
X1267451Y1369055D01*
X1269105Y1368370D01*
X1270895D01*
X1272549Y1369055D01*
X1273815Y1370321D01*
X1274500Y1371975D01*
Y1373765D01*
X1273815Y1375419D01*
X1273348Y1375886D01*
X1274400Y1378426D01*
X1277509D01*
X1280740Y1375195D01*
Y1374515D01*
X1281425Y1372861D01*
X1282691Y1371595D01*
X1284345Y1370910D01*
X1286135D01*
X1287789Y1371595D01*
X1289055Y1372861D01*
X1289740Y1374515D01*
Y1376305D01*
X1289055Y1377959D01*
X1287789Y1379225D01*
X1286135Y1379910D01*
X1285455D01*
X1281248Y1384117D01*
X1280166Y1384840D01*
X1278890Y1385094D01*
X1051889D01*
X1045027Y1391956D01*
X1043325Y1393846D01*
Y1393846D01*
X1043325D01*
X1041737Y1395728D01*
X1041012Y1396612D01*
X1040854Y1396741D01*
X1041763Y1399281D01*
X1428646D01*
X1434983Y1398447D01*
D02*
G37*
G36*
X834280Y1349025D02*
Y1344563D01*
X831740Y1342970D01*
X831475Y1343080D01*
X829685D01*
X828031Y1342395D01*
X826765Y1341129D01*
X826080Y1339475D01*
Y1337685D01*
X826765Y1336031D01*
X828031Y1334765D01*
X829685Y1334080D01*
X831475D01*
X831740Y1334190D01*
X834280Y1332597D01*
Y1328080D01*
X834280D01*
X834985Y1325540D01*
X834970Y1325505D01*
Y1323715D01*
X835655Y1322061D01*
X836921Y1320795D01*
X838575Y1320110D01*
X838923D01*
X857267Y1301767D01*
X858424Y1300993D01*
X859790Y1300721D01*
X867202D01*
X876913Y1291010D01*
X876828Y1290101D01*
X876099Y1288232D01*
X875021Y1287785D01*
X874170Y1286934D01*
X842130D01*
X842019Y1287045D01*
X840365Y1287730D01*
X838575D01*
X837270Y1289773D01*
Y1299320D01*
X821362D01*
X821040Y1299384D01*
X812640D01*
X811539Y1300485D01*
X809885Y1301170D01*
X808095D01*
X807479Y1300915D01*
X805077Y1302225D01*
X804939Y1302403D01*
Y1319275D01*
X805185Y1319521D01*
X805870Y1321175D01*
Y1322965D01*
X805185Y1324619D01*
X803919Y1325885D01*
X802265Y1326570D01*
X800475D01*
X798821Y1325885D01*
X797555Y1324619D01*
X796870Y1322965D01*
Y1321175D01*
X797555Y1319521D01*
X797801Y1319275D01*
Y1295270D01*
X798073Y1293905D01*
X798847Y1292747D01*
X813448Y1278145D01*
X812476Y1275799D01*
X809508D01*
X761420Y1323887D01*
Y1324235D01*
X761405Y1324270D01*
X763103Y1326810D01*
X771000D01*
Y1338851D01*
X771060Y1339310D01*
Y1346546D01*
X773814Y1349300D01*
X834006D01*
X834280Y1349025D01*
D02*
G37*
G36*
X932363Y1359082D02*
X933444Y1358360D01*
X934720Y1358106D01*
X971439D01*
X1009402Y1320143D01*
X1010484Y1319420D01*
X1011760Y1319166D01*
X1020618D01*
X1021670Y1316626D01*
X1021168Y1316124D01*
X1019720Y1313616D01*
X1018970Y1310818D01*
Y1307922D01*
X1019720Y1305124D01*
X1021168Y1302616D01*
X1023216Y1300568D01*
X1025724Y1299120D01*
X1028522Y1298370D01*
X1031418D01*
X1034216Y1299120D01*
X1036724Y1300568D01*
X1038772Y1302616D01*
X1040220Y1305124D01*
X1040970Y1307922D01*
Y1310818D01*
X1040220Y1313616D01*
X1038772Y1316124D01*
X1038270Y1316626D01*
X1039323Y1319166D01*
X1056530D01*
X1057806Y1319420D01*
X1060445Y1319521D01*
X1061711Y1318255D01*
X1062126Y1318083D01*
X1062858Y1315223D01*
X1060632Y1312997D01*
X1059910Y1311916D01*
X1059656Y1310640D01*
Y1267950D01*
X1059175Y1267469D01*
X1058490Y1265815D01*
Y1264025D01*
X1058679Y1263568D01*
X1056526Y1262129D01*
X1039748Y1278907D01*
X1040220Y1279724D01*
X1040970Y1282522D01*
Y1285418D01*
X1040220Y1288216D01*
X1038772Y1290724D01*
X1036724Y1292772D01*
X1034216Y1294220D01*
X1031418Y1294970D01*
X1028522D01*
X1025724Y1294220D01*
X1023216Y1292772D01*
X1021168Y1290724D01*
X1019720Y1288216D01*
X1018970Y1285418D01*
Y1282522D01*
X1019720Y1279724D01*
X1021168Y1277216D01*
X1023216Y1275168D01*
X1025724Y1273720D01*
X1028522Y1272970D01*
X1031418D01*
X1034216Y1273720D01*
X1035033Y1274192D01*
X1058092Y1251133D01*
X1059174Y1250410D01*
X1060450Y1250156D01*
X1125800D01*
Y1250055D01*
X1126485Y1248401D01*
X1127751Y1247135D01*
X1129405Y1246450D01*
X1131195D01*
X1132849Y1247135D01*
X1134115Y1248401D01*
X1134800Y1250055D01*
Y1251845D01*
X1134115Y1253499D01*
X1132849Y1254765D01*
X1131195Y1255450D01*
X1130337D01*
X1129940Y1255847D01*
X1128858Y1256570D01*
X1127582Y1256824D01*
X1073431D01*
X1073236Y1257147D01*
X1072652Y1259364D01*
X1073446Y1260157D01*
X1074131Y1261811D01*
Y1262491D01*
X1084398Y1272758D01*
X1085120Y1273840D01*
X1085374Y1275116D01*
Y1320610D01*
X1085120Y1321886D01*
X1084398Y1322968D01*
X1078167Y1329198D01*
X1077086Y1329920D01*
X1075810Y1330174D01*
X1072511D01*
X1071459Y1332714D01*
X1095581Y1356836D01*
X1150064D01*
X1150514Y1356407D01*
X1151552Y1354296D01*
X1151285Y1353650D01*
X1146245Y1348610D01*
X1129960D01*
Y1339544D01*
X1127420Y1338291D01*
X1126810Y1338759D01*
X1124181Y1339848D01*
X1124203Y1339912D01*
X1123059Y1340583D01*
X1121750Y1342580D01*
Y1351390D01*
X1100750D01*
Y1333390D01*
X1110265D01*
X1113078Y1330577D01*
X1113079Y1330554D01*
X1113078Y1330552D01*
X1115633Y1328455D01*
X1117400Y1327511D01*
X1118587Y1326876D01*
X1119653Y1326433D01*
X1119653Y1326433D01*
X1119668Y1326427D01*
X1119895Y1326087D01*
X1120925Y1324286D01*
X1123049Y1321698D01*
X1125638Y1319573D01*
X1127174Y1318752D01*
X1127376Y1318597D01*
X1127940Y1318343D01*
X1129960Y1317012D01*
Y1315610D01*
X1136501D01*
X1136960Y1315550D01*
X1141036Y1315550D01*
X1144830Y1311756D01*
Y1208604D01*
X1142290Y1207974D01*
X1141787Y1208923D01*
X1141735Y1209049D01*
X1140469Y1210315D01*
X1138815Y1211000D01*
X1137025D01*
X1135371Y1210315D01*
X1134890Y1209834D01*
X1084705D01*
X1083429Y1209580D01*
X1082347Y1208857D01*
X1070902Y1197412D01*
X1069084Y1197774D01*
X1067819Y1199039D01*
X1066165Y1199724D01*
X1065816D01*
X1046357Y1219183D01*
X1045200Y1219957D01*
X1043834Y1220229D01*
X1011128D01*
X923049Y1308308D01*
Y1320545D01*
X923295Y1320791D01*
X923980Y1322445D01*
Y1324235D01*
X923439Y1325540D01*
X924003Y1326997D01*
X924696Y1328080D01*
X934830D01*
Y1349080D01*
X930890D01*
Y1350502D01*
X930650Y1352330D01*
X929945Y1354032D01*
X928822Y1355495D01*
X922965Y1361352D01*
X921502Y1362475D01*
X919799Y1363180D01*
X917972Y1363420D01*
X849868D01*
X848040Y1363180D01*
X846338Y1362475D01*
X844875Y1361352D01*
X843399Y1359876D01*
X841922Y1361352D01*
X840460Y1362475D01*
X838757Y1363180D01*
X836930Y1363420D01*
X770890D01*
X769063Y1363180D01*
X767360Y1362475D01*
X765898Y1361352D01*
X764000Y1359455D01*
X761912Y1361542D01*
X760450Y1362664D01*
X758747Y1363370D01*
X756920Y1363610D01*
X692772D01*
X690678Y1365704D01*
X691650Y1368051D01*
X923394D01*
X932363Y1359082D01*
D02*
G37*
G36*
X676674Y1355448D02*
X677582Y1353515D01*
X677170Y1352520D01*
X676930Y1350692D01*
Y1347810D01*
X672990D01*
Y1340879D01*
X671971D01*
X670606Y1340607D01*
X669448Y1339833D01*
X668885Y1339270D01*
X668395D01*
X666741Y1338585D01*
X665475Y1337319D01*
X664790Y1335665D01*
Y1333875D01*
X665475Y1332221D01*
X666741Y1330955D01*
X668395Y1330270D01*
X670185D01*
X670450Y1330380D01*
X672990Y1328787D01*
Y1326810D01*
X690990D01*
Y1338851D01*
X691050Y1339310D01*
Y1347768D01*
X692772Y1349490D01*
X751156D01*
X753000Y1347810D01*
Y1341566D01*
X751465Y1340540D01*
X749675D01*
X748021Y1339855D01*
X746755Y1338589D01*
X746070Y1336935D01*
Y1335145D01*
X746755Y1333491D01*
X748021Y1332225D01*
X749675Y1331540D01*
X751465D01*
X753000Y1330514D01*
Y1326810D01*
X753000Y1326810D01*
X752517Y1324470D01*
X752420Y1324235D01*
Y1322445D01*
X753105Y1320791D01*
X754371Y1319525D01*
X756025Y1318840D01*
X756373D01*
X790449Y1284764D01*
X789397Y1282224D01*
X762490D01*
X762009Y1282705D01*
X760355Y1283390D01*
X758565D01*
X757717Y1283039D01*
X755990Y1284765D01*
Y1298050D01*
X734990D01*
Y1280954D01*
X690100D01*
X689619Y1281435D01*
X687965Y1282120D01*
X686175D01*
X684521Y1281435D01*
X684040Y1280954D01*
X681061D01*
X675980Y1286035D01*
Y1299320D01*
X654980D01*
Y1281320D01*
X671265D01*
X677322Y1275263D01*
X678404Y1274540D01*
X679680Y1274286D01*
X684040D01*
X684521Y1273805D01*
X686175Y1273120D01*
X687965D01*
X689619Y1273805D01*
X690100Y1274286D01*
X695405D01*
X695854Y1273857D01*
X696892Y1271746D01*
X696540Y1270895D01*
Y1270215D01*
X685219Y1258894D01*
X684496Y1257812D01*
X684243Y1256537D01*
Y1221095D01*
X682330Y1219580D01*
X681703Y1219580D01*
X677704D01*
Y1222520D01*
X678185Y1223001D01*
X678870Y1224655D01*
Y1226445D01*
X678185Y1228099D01*
X676919Y1229365D01*
X675265Y1230050D01*
X673475D01*
X671821Y1229365D01*
X670555Y1228099D01*
X669870Y1226445D01*
Y1224655D01*
X670555Y1223001D01*
X671036Y1222520D01*
Y1219580D01*
X661330D01*
Y1205580D01*
X679023D01*
X680075Y1203040D01*
X677615Y1200580D01*
X661330D01*
Y1186580D01*
X672306D01*
Y1179050D01*
X671825Y1178569D01*
X671140Y1176915D01*
Y1175125D01*
X670882Y1174739D01*
X667901Y1174504D01*
X659820Y1182585D01*
Y1183265D01*
X659135Y1184919D01*
X657869Y1186185D01*
X656215Y1186870D01*
X654425D01*
X652771Y1186185D01*
X651910Y1185324D01*
X649071Y1185174D01*
X638774Y1195471D01*
Y1207330D01*
X638520Y1208606D01*
X637798Y1209688D01*
X603068Y1244417D01*
X601986Y1245140D01*
X600710Y1245394D01*
X591357D01*
X591107Y1247934D01*
X593682Y1248446D01*
X596434Y1249586D01*
X598912Y1251242D01*
X601018Y1253348D01*
X602674Y1255826D01*
X603814Y1258578D01*
X604395Y1261500D01*
Y1264480D01*
X603814Y1267402D01*
X602674Y1270154D01*
X601018Y1272632D01*
X598912Y1274738D01*
X596434Y1276394D01*
X593682Y1277534D01*
X590760Y1278115D01*
X587780D01*
X584858Y1277534D01*
X582106Y1276394D01*
X579628Y1274738D01*
X577522Y1272632D01*
X575866Y1270154D01*
X574726Y1267402D01*
X574145Y1264480D01*
Y1261500D01*
X574413Y1260154D01*
X572072Y1258903D01*
X565628Y1265348D01*
X564546Y1266070D01*
X563270Y1266324D01*
X555196D01*
X554691Y1268864D01*
X556434Y1269586D01*
X558912Y1271242D01*
X561018Y1273348D01*
X562674Y1275826D01*
X563814Y1278578D01*
X564395Y1281500D01*
Y1284480D01*
X563814Y1287402D01*
X562674Y1290154D01*
X562413Y1290545D01*
X571856Y1299988D01*
X574612Y1299152D01*
X574726Y1298578D01*
X575866Y1295826D01*
X577522Y1293348D01*
X579628Y1291242D01*
X582106Y1289586D01*
X584858Y1288446D01*
X587780Y1287865D01*
X590760D01*
X593682Y1288446D01*
X596434Y1289586D01*
X598912Y1291242D01*
X601018Y1293348D01*
X602674Y1295826D01*
X603814Y1298578D01*
X604395Y1301500D01*
Y1304480D01*
X603814Y1307402D01*
X602674Y1310154D01*
X601018Y1312632D01*
X598912Y1314738D01*
X596434Y1316394D01*
X593682Y1317534D01*
X590760Y1318115D01*
X587780D01*
X584858Y1317534D01*
X582106Y1316394D01*
X579628Y1314738D01*
X578995Y1314105D01*
X576455Y1315157D01*
Y1326715D01*
X577463Y1327865D01*
X604395D01*
Y1356055D01*
X676080D01*
X676674Y1355448D01*
D02*
G37*
G36*
X916770Y1347578D02*
Y1342679D01*
X915306Y1340556D01*
X914330Y1340540D01*
X913505D01*
X911851Y1339855D01*
X910585Y1338589D01*
X909900Y1336935D01*
Y1335145D01*
X910585Y1333491D01*
X911851Y1332225D01*
X913505Y1331540D01*
X915295D01*
X916830Y1330514D01*
Y1328080D01*
X916830D01*
X915760Y1325983D01*
X915665Y1325889D01*
X914980Y1324235D01*
Y1322445D01*
X915665Y1320791D01*
X915911Y1320545D01*
Y1306830D01*
X916183Y1305464D01*
X916957Y1304307D01*
X1007127Y1214137D01*
X1008284Y1213363D01*
X1009650Y1213091D01*
X1042356D01*
X1060119Y1195329D01*
X1059198Y1192788D01*
X1021727D01*
X1000884Y1213631D01*
X999803Y1214353D01*
X998527Y1214607D01*
X998327D01*
X997539Y1215395D01*
X995885Y1216080D01*
X994095D01*
X992441Y1215395D01*
X991175Y1214129D01*
X990490Y1212475D01*
Y1211213D01*
X989104Y1209961D01*
X988230Y1209504D01*
X987685Y1209730D01*
X985895D01*
X984241Y1209045D01*
X982975Y1207779D01*
X982290Y1206125D01*
Y1204335D01*
X982975Y1202681D01*
X984241Y1201415D01*
X985895Y1200730D01*
X986575D01*
X1006156Y1181149D01*
X1007237Y1180426D01*
X1008513Y1180173D01*
X1067535D01*
X1068618Y1178090D01*
X1068669Y1177714D01*
X1065358Y1174402D01*
X1064236Y1172940D01*
X1063530Y1171237D01*
X1063290Y1169410D01*
Y1148341D01*
X1063530Y1146513D01*
X1064236Y1144810D01*
X1065358Y1143348D01*
X1067857Y1140848D01*
X1066805Y1138308D01*
X1050791D01*
X1047387Y1141713D01*
X1046229Y1142487D01*
X1044863Y1142759D01*
X1014019D01*
X1013697Y1143241D01*
X1015054Y1145781D01*
X1050035D01*
X1050281Y1145535D01*
X1051935Y1144850D01*
X1053725D01*
X1055379Y1145535D01*
X1056645Y1146801D01*
X1057330Y1148455D01*
Y1150245D01*
X1056645Y1151899D01*
X1055379Y1153165D01*
X1053725Y1153850D01*
X1051935D01*
X1050281Y1153165D01*
X1050035Y1152919D01*
X1009137D01*
X1007191Y1154865D01*
X1008163Y1157211D01*
X1052575D01*
X1052821Y1156965D01*
X1054475Y1156280D01*
X1056265D01*
X1057919Y1156965D01*
X1059185Y1158231D01*
X1059870Y1159885D01*
Y1161675D01*
X1059185Y1163329D01*
X1057919Y1164595D01*
X1056265Y1165280D01*
X1054475D01*
X1052821Y1164595D01*
X1052575Y1164349D01*
X1004778D01*
X945246Y1223880D01*
Y1231292D01*
X944975Y1232658D01*
X944201Y1233816D01*
X897773Y1280243D01*
X898745Y1282590D01*
X911295D01*
X916505Y1277380D01*
X916935Y1276341D01*
X918201Y1275075D01*
X919855Y1274390D01*
X921645D01*
X923299Y1275075D01*
X924565Y1276341D01*
X925250Y1277995D01*
Y1279785D01*
X924565Y1281439D01*
X923299Y1282705D01*
X921645Y1283390D01*
X919925D01*
X916010Y1287305D01*
Y1300590D01*
X895010D01*
Y1286325D01*
X892663Y1285353D01*
X871203Y1306813D01*
X870046Y1307587D01*
X868680Y1307859D01*
X861268D01*
X843970Y1325157D01*
Y1325505D01*
X843956Y1325540D01*
X845653Y1328080D01*
X852280D01*
Y1340121D01*
X852340Y1340580D01*
Y1348848D01*
X852792Y1349300D01*
X915048D01*
X916770Y1347578D01*
D02*
G37*
G36*
X972935Y1157437D02*
X973191Y1156151D01*
X973965Y1154993D01*
X1037296Y1091662D01*
X1037163Y1090891D01*
X1036182Y1089184D01*
X1025380D01*
X1024899Y1089665D01*
X1023245Y1090350D01*
X1021455D01*
X1019801Y1089665D01*
X1018535Y1088399D01*
X1017850Y1086745D01*
Y1084955D01*
X1018535Y1083301D01*
X1019801Y1082035D01*
X1021455Y1081350D01*
X1023245D01*
X1024899Y1082035D01*
X1025380Y1082516D01*
X1035487D01*
X1038081Y1079921D01*
X1037581Y1076965D01*
X1037100Y1076484D01*
X945752D01*
X944476Y1076230D01*
X943395Y1075508D01*
X913891Y1046004D01*
X862391D01*
X846420Y1061975D01*
Y1074760D01*
X832420D01*
Y1058475D01*
X829960Y1056015D01*
X827420Y1057067D01*
Y1074760D01*
X823754D01*
Y1077740D01*
X824235Y1078221D01*
X824920Y1079875D01*
Y1081665D01*
X824235Y1083319D01*
X822969Y1084585D01*
X821315Y1085270D01*
X819525D01*
X817871Y1084585D01*
X816605Y1083319D01*
X815920Y1081665D01*
Y1079875D01*
X816605Y1078221D01*
X817086Y1077740D01*
Y1074760D01*
X813420D01*
Y1054894D01*
X806790D01*
Y1060560D01*
X799624D01*
Y1067470D01*
X806790D01*
Y1081470D01*
X788302D01*
X787666Y1084010D01*
X789752Y1085125D01*
X792957Y1086097D01*
X793843Y1086184D01*
X796290Y1086410D01*
X796290Y1086410D01*
X796749Y1086470D01*
X806790D01*
Y1100470D01*
X800878D01*
Y1163320D01*
X800837Y1163527D01*
X801218Y1167392D01*
X802405Y1171308D01*
X804334Y1174917D01*
X806930Y1178080D01*
X810093Y1180676D01*
X813344Y1182413D01*
X815570Y1183171D01*
X817932Y1183222D01*
X822960D01*
X823403Y1183310D01*
X823855D01*
X824273Y1183483D01*
X824716Y1183571D01*
X825092Y1183822D01*
X825509Y1183995D01*
X825828Y1184315D01*
X826204Y1184566D01*
X826455Y1184941D01*
X826775Y1185261D01*
X826948Y1185678D01*
X827199Y1186054D01*
X827287Y1186497D01*
X827460Y1186915D01*
Y1187367D01*
X827548Y1187810D01*
X828535Y1189524D01*
X829328Y1190128D01*
X829567Y1190246D01*
X920859D01*
X928950Y1182155D01*
Y1181475D01*
X929635Y1179821D01*
X930901Y1178555D01*
X932555Y1177870D01*
X934345D01*
X935999Y1178555D01*
X937265Y1179821D01*
X937950Y1181475D01*
Y1183265D01*
X937265Y1184919D01*
X937028Y1185156D01*
X936103Y1186433D01*
X936900Y1188346D01*
X937349Y1189431D01*
X939209Y1190158D01*
X940125Y1190247D01*
X972935Y1157437D01*
D02*
G37*
G36*
X660980Y1135165D02*
Y1134485D01*
X661665Y1132831D01*
X662931Y1131565D01*
X664585Y1130880D01*
X666375D01*
X668029Y1131565D01*
X669295Y1132831D01*
X669980Y1134485D01*
Y1134921D01*
X671575Y1136853D01*
X672327Y1137126D01*
X690390D01*
X690871Y1136645D01*
X692525Y1135960D01*
X694315D01*
X695969Y1136645D01*
X697235Y1137911D01*
X697920Y1139565D01*
Y1141355D01*
X697235Y1143009D01*
X695969Y1144275D01*
X694315Y1144960D01*
X692525D01*
X690871Y1144275D01*
X690390Y1143794D01*
X673181D01*
X661679Y1155296D01*
X662731Y1157836D01*
X718470D01*
X719746Y1158090D01*
X720827Y1158812D01*
X748595Y1186580D01*
X764880D01*
Y1190246D01*
X771462D01*
X772434Y1187899D01*
X573853Y989318D01*
X571550Y990608D01*
X572258Y993557D01*
X572607Y997990D01*
X572258Y1002423D01*
X571220Y1006747D01*
X569519Y1010855D01*
X567195Y1014646D01*
X564308Y1018027D01*
X560926Y1020915D01*
X559939Y1021520D01*
X557880Y1022878D01*
X556880Y1024210D01*
X556342Y1025398D01*
X556342D01*
X556330Y1025410D01*
Y1052178D01*
X556342Y1054580D01*
X557310Y1056719D01*
X558149Y1057280D01*
X558302Y1057310D01*
X558283Y1057363D01*
X561623Y1058747D01*
X565263Y1060978D01*
X568510Y1063751D01*
X571282Y1066997D01*
X572908Y1069650D01*
X575178Y1068493D01*
X574726Y1067402D01*
X574145Y1064480D01*
Y1061500D01*
X574726Y1058578D01*
X575866Y1055826D01*
X577522Y1053348D01*
X579628Y1051242D01*
X582106Y1049586D01*
X584858Y1048446D01*
X587780Y1047865D01*
X590760D01*
X593682Y1048446D01*
X596434Y1049586D01*
X598912Y1051242D01*
X601018Y1053348D01*
X602674Y1055826D01*
X603814Y1058578D01*
X604395Y1061500D01*
Y1064480D01*
X603814Y1067402D01*
X602674Y1070154D01*
X601018Y1072632D01*
X598912Y1074738D01*
X596434Y1076394D01*
X593682Y1077534D01*
X590760Y1078115D01*
X587780D01*
X584858Y1077534D01*
X582106Y1076394D01*
X579628Y1074738D01*
X577522Y1072632D01*
X576382Y1070926D01*
X574131Y1072130D01*
X575147Y1074582D01*
X576144Y1078734D01*
X576479Y1082990D01*
X576144Y1087246D01*
X575147Y1091398D01*
X574131Y1093850D01*
X576382Y1095054D01*
X577522Y1093348D01*
X579628Y1091242D01*
X582106Y1089586D01*
X584858Y1088446D01*
X587780Y1087865D01*
X590760D01*
X593682Y1088446D01*
X596434Y1089586D01*
X598912Y1091242D01*
X601018Y1093348D01*
X602674Y1095826D01*
X603814Y1098578D01*
X604395Y1101500D01*
Y1104480D01*
X603814Y1107402D01*
X602674Y1110154D01*
X601018Y1112632D01*
X598912Y1114738D01*
X596434Y1116394D01*
X593682Y1117534D01*
X590760Y1118115D01*
X587780D01*
X584858Y1117534D01*
X582106Y1116394D01*
X579628Y1114738D01*
X577522Y1112632D01*
X575866Y1110154D01*
X574726Y1107402D01*
X574145Y1104480D01*
Y1101500D01*
X574726Y1098578D01*
X575178Y1097486D01*
X572908Y1096330D01*
X571282Y1098983D01*
X568510Y1102230D01*
X565263Y1105002D01*
X561623Y1107233D01*
X559068Y1108291D01*
X558634Y1110318D01*
X558912Y1111242D01*
X561018Y1113348D01*
X562674Y1115826D01*
X563814Y1118578D01*
X564395Y1121500D01*
Y1124480D01*
X563814Y1127402D01*
X562674Y1130154D01*
X561018Y1132632D01*
X558912Y1134738D01*
X556434Y1136394D01*
X553682Y1137534D01*
X550760Y1138115D01*
X547780D01*
X544858Y1137534D01*
X542106Y1136394D01*
X539628Y1134738D01*
X537522Y1132632D01*
X535866Y1130154D01*
X534726Y1127402D01*
X534145Y1124480D01*
Y1121500D01*
X534726Y1118578D01*
X535866Y1115826D01*
X537522Y1113348D01*
X539628Y1111242D01*
X542106Y1109586D01*
X542378Y1109473D01*
X542516Y1108074D01*
X543488Y1104870D01*
X545067Y1101916D01*
X546302Y1100411D01*
X545377Y1097637D01*
X544858Y1097534D01*
X542106Y1096394D01*
X539628Y1094738D01*
X537522Y1092632D01*
X535866Y1090154D01*
X534726Y1087402D01*
X534145Y1084480D01*
Y1081500D01*
X534726Y1078578D01*
X535866Y1075826D01*
X537522Y1073348D01*
X539628Y1071242D01*
X542106Y1069586D01*
X544858Y1068446D01*
X545377Y1068343D01*
X546302Y1065569D01*
X545067Y1064064D01*
X543488Y1061110D01*
X542516Y1057906D01*
X542192Y1054612D01*
X542196D01*
X542210Y1054596D01*
Y1025382D01*
X542196Y1025366D01*
X542192D01*
X542516Y1022072D01*
X543488Y1018867D01*
X545067Y1015914D01*
X547191Y1013326D01*
X549028Y1011818D01*
X549780Y1011201D01*
X550824Y1010602D01*
X550919Y1010529D01*
X551074Y1010458D01*
X553059Y1009048D01*
X554343Y1008063D01*
X556606Y1005112D01*
X558030Y1001677D01*
X558515Y997990D01*
X558030Y994303D01*
X556606Y990868D01*
X554343Y987917D01*
X551392Y985654D01*
X551079Y985524D01*
X550926Y985455D01*
X550828Y985380D01*
X549780Y984779D01*
X547191Y982654D01*
X545067Y980066D01*
X543488Y977112D01*
X542516Y973908D01*
X542192Y970614D01*
X542196D01*
X542210Y970598D01*
Y958128D01*
X540950Y956110D01*
X524250D01*
X522386Y957742D01*
X520630Y960029D01*
X519250Y963363D01*
X518815Y966662D01*
X518852Y966940D01*
Y1028512D01*
X518867Y1028530D01*
X518884Y1028530D01*
X518415Y1033287D01*
X517015Y1037906D01*
X514740Y1042162D01*
X511984Y1045519D01*
X512198Y1047007D01*
X512787Y1048268D01*
X513682Y1048446D01*
X516434Y1049586D01*
X518912Y1051242D01*
X521018Y1053348D01*
X522674Y1055826D01*
X523814Y1058578D01*
X524395Y1061500D01*
Y1064480D01*
X523814Y1067402D01*
X522674Y1070154D01*
X521018Y1072632D01*
X518912Y1074738D01*
X516434Y1076394D01*
X513682Y1077534D01*
X510760Y1078115D01*
X507780D01*
X504858Y1077534D01*
X503880Y1077128D01*
X503082Y1077490D01*
X501621Y1078942D01*
X502020Y1082990D01*
X501621Y1087038D01*
X503082Y1088490D01*
X503880Y1088852D01*
X504858Y1088446D01*
X507780Y1087865D01*
X510760D01*
X513682Y1088446D01*
X516434Y1089586D01*
X518912Y1091242D01*
X521018Y1093348D01*
X522674Y1095826D01*
X523814Y1098578D01*
X524395Y1101500D01*
Y1104480D01*
X523814Y1107402D01*
X522674Y1110154D01*
X521018Y1112632D01*
X518912Y1114738D01*
X516434Y1116394D01*
X513682Y1117534D01*
X510760Y1118115D01*
X507780D01*
X504858Y1117534D01*
X503880Y1117128D01*
X503082Y1117490D01*
X501621Y1118942D01*
X502020Y1122990D01*
X501546Y1127793D01*
X500145Y1132411D01*
X499372Y1133857D01*
X498546Y1135422D01*
X498415Y1135738D01*
X498218Y1136041D01*
X497168Y1138242D01*
X496606Y1139597D01*
X496160Y1142990D01*
X496606Y1146383D01*
X497916Y1149545D01*
X500000Y1152260D01*
X501970Y1153772D01*
X502023Y1153802D01*
X504101Y1154918D01*
X505064Y1155451D01*
X505094Y1155474D01*
X506162Y1156072D01*
X507947Y1157026D01*
X511678Y1160088D01*
X514740Y1163818D01*
X517015Y1168074D01*
X517737Y1170457D01*
X518912Y1171242D01*
X521018Y1173348D01*
X522674Y1175826D01*
X523814Y1178578D01*
X524395Y1181500D01*
Y1184480D01*
X523814Y1187402D01*
X523773Y1187500D01*
X525927Y1188938D01*
X534852Y1180013D01*
X535934Y1179290D01*
X537210Y1179036D01*
X541847D01*
X542353Y1176496D01*
X542106Y1176394D01*
X539628Y1174738D01*
X537522Y1172632D01*
X535866Y1170154D01*
X534726Y1167402D01*
X534145Y1164480D01*
Y1161500D01*
X534726Y1158578D01*
X535866Y1155826D01*
X537522Y1153348D01*
X539628Y1151242D01*
X542106Y1149586D01*
X544858Y1148446D01*
X547780Y1147865D01*
X550760D01*
X553682Y1148446D01*
X556434Y1149586D01*
X558912Y1151242D01*
X561018Y1153348D01*
X562674Y1155826D01*
X563814Y1158578D01*
X564395Y1161500D01*
Y1164480D01*
X563814Y1167402D01*
X562674Y1170154D01*
X562603Y1170260D01*
X564576Y1171879D01*
X576763Y1159693D01*
X577844Y1158970D01*
X579120Y1158716D01*
X614569D01*
X625420Y1147865D01*
Y1147185D01*
X626105Y1145531D01*
X627371Y1144265D01*
X629025Y1143580D01*
X630815D01*
X632469Y1144265D01*
X633735Y1145531D01*
X634420Y1147185D01*
Y1148975D01*
X633735Y1150629D01*
X632469Y1151895D01*
X630815Y1152580D01*
X630135D01*
X618307Y1164408D01*
X617226Y1165130D01*
X615950Y1165384D01*
X591307D01*
X591057Y1167924D01*
X593682Y1168446D01*
X596434Y1169586D01*
X598912Y1171242D01*
X601018Y1173348D01*
X602674Y1175826D01*
X603814Y1178578D01*
X604395Y1181500D01*
Y1184480D01*
X603814Y1187402D01*
X602868Y1189685D01*
X605021Y1191124D01*
X660980Y1135165D01*
D02*
G37*
G36*
X785790Y1079344D02*
Y1067470D01*
X792956D01*
Y1060560D01*
X785790D01*
Y1042560D01*
X806790D01*
Y1048226D01*
X830220D01*
X831496Y1048480D01*
X832578Y1049202D01*
X837135Y1053760D01*
X845205D01*
X858652Y1040312D01*
X859734Y1039590D01*
X861010Y1039336D01*
X915272D01*
X916548Y1039590D01*
X917630Y1040312D01*
X947133Y1069816D01*
X1037100D01*
X1037581Y1069335D01*
X1039235Y1068650D01*
X1041025D01*
X1042679Y1069335D01*
X1043945Y1070601D01*
X1046901Y1071101D01*
X1054562Y1063441D01*
X1053590Y1061094D01*
X1024660D01*
X1020836Y1064918D01*
X1019754Y1065640D01*
X1018479Y1065894D01*
X957275D01*
X955999Y1065640D01*
X954918Y1064918D01*
X906868Y1016868D01*
X906145Y1015786D01*
X905891Y1014510D01*
Y994742D01*
X898957Y987807D01*
X896610Y988779D01*
Y1002370D01*
X892944D01*
Y1003294D01*
X892690Y1004570D01*
X892230Y1005259D01*
Y1006735D01*
X891545Y1008389D01*
X890279Y1009655D01*
X888625Y1010340D01*
X886835D01*
X885181Y1009655D01*
X883915Y1008389D01*
X883230Y1006735D01*
Y1004945D01*
X883244Y1004910D01*
X882610Y1002370D01*
X882610D01*
Y983114D01*
X877610D01*
Y1002370D01*
X868325D01*
X866308Y1004388D01*
X865226Y1005110D01*
X863950Y1005364D01*
X856320D01*
Y1012300D01*
X835320D01*
Y994300D01*
X842486D01*
Y986780D01*
X835320D01*
Y972780D01*
X856320D01*
Y976446D01*
X868579D01*
X869084Y973906D01*
X868960Y973855D01*
X867498Y972732D01*
X862606Y967840D01*
X822711D01*
Y967880D01*
X817627Y967480D01*
X812668Y966290D01*
X807956Y964338D01*
X803608Y961673D01*
X799730Y958361D01*
X799758Y958333D01*
X796034Y954609D01*
X793978Y954811D01*
X790533Y955856D01*
X787359Y957553D01*
X784576Y959837D01*
X782293Y962619D01*
X780596Y965793D01*
X779551Y969238D01*
X779208Y972725D01*
X779220Y972820D01*
Y1069340D01*
X779211Y1069408D01*
X779533Y1072673D01*
X780505Y1075878D01*
X782084Y1078832D01*
X783250Y1080253D01*
X785790Y1079344D01*
D02*
G37*
G36*
X1127904Y1087818D02*
X1128916Y1085238D01*
X1066602Y1022923D01*
X1064255Y1023895D01*
Y1030486D01*
X1043255D01*
Y1026820D01*
X1035045D01*
Y1030486D01*
X1014045D01*
Y1026820D01*
X979510D01*
Y1033890D01*
X958510D01*
Y1015890D01*
X964333D01*
X964510Y1015625D01*
Y1013835D01*
X965195Y1012181D01*
X966461Y1010915D01*
X968115Y1010230D01*
X969905D01*
X971559Y1010915D01*
X972825Y1012181D01*
X973510Y1013835D01*
Y1015625D01*
X973687Y1015890D01*
X979510D01*
Y1020152D01*
X1014045D01*
Y1016825D01*
X1010417Y1013198D01*
X1009695Y1012116D01*
X1009441Y1010840D01*
Y953114D01*
X1009695Y951839D01*
X1010417Y950757D01*
X1094787Y866387D01*
X1094426Y864570D01*
X1093160Y863304D01*
X1093085Y863124D01*
X962660D01*
X961384Y862870D01*
X960303Y862148D01*
X910375Y812220D01*
X909695D01*
X908041Y811535D01*
X906775Y810269D01*
X906090Y808615D01*
Y806825D01*
X906775Y805171D01*
X908041Y803905D01*
X909695Y803220D01*
X911485D01*
X911965Y803419D01*
X913909Y801475D01*
X913710Y800995D01*
Y799205D01*
X914395Y797551D01*
X915661Y796285D01*
X917315Y795600D01*
X917000Y793190D01*
X866800D01*
X866599Y793164D01*
X863184Y793614D01*
X859814Y795009D01*
X856920Y797230D01*
X855690Y798833D01*
X856320Y800110D01*
X856320D01*
Y814110D01*
X846279D01*
X845820Y814170D01*
X845361Y814110D01*
X835320D01*
Y800110D01*
X834179Y798043D01*
X833061Y797184D01*
X830296Y796040D01*
X827449Y795665D01*
X827330Y795680D01*
X782684D01*
X775750Y802614D01*
X775656Y802686D01*
X773410Y805423D01*
X771709Y808605D01*
X770662Y812058D01*
X770318Y815548D01*
X770330Y815640D01*
X770330Y815663D01*
X770330Y815667D01*
X770330Y815671D01*
Y916579D01*
X770318Y916674D01*
X770661Y920161D01*
X771706Y923606D01*
X773403Y926780D01*
X775626Y929489D01*
X775702Y929547D01*
X781143Y934988D01*
X781201Y935064D01*
X783910Y937287D01*
X787084Y938984D01*
X790529Y940029D01*
X794016Y940372D01*
X794111Y940360D01*
X797055D01*
X797560Y940320D01*
Y940360D01*
X798830D01*
X799289Y940420D01*
X809330D01*
Y947935D01*
X809743Y948348D01*
X809801Y948424D01*
X812510Y950647D01*
X815684Y952344D01*
X819129Y953389D01*
X822616Y953732D01*
X822711Y953720D01*
X847356D01*
X848328Y951373D01*
X824087Y927132D01*
X823364Y926050D01*
X823135Y924900D01*
X816010D01*
Y910114D01*
X809330D01*
Y915780D01*
X802164D01*
Y921420D01*
X809330D01*
Y935420D01*
X788330D01*
Y921420D01*
X795496D01*
Y915780D01*
X788330D01*
Y897780D01*
X809330D01*
Y903446D01*
X818890D01*
X820166Y903700D01*
X820466Y903900D01*
X830010D01*
Y923625D01*
X835107Y928723D01*
X836925Y928361D01*
X837846Y927440D01*
X837533Y925810D01*
X837067Y924900D01*
X835010D01*
Y903900D01*
X849010D01*
Y924900D01*
X845344D01*
Y928974D01*
X845171Y929847D01*
X845240Y930015D01*
Y931805D01*
X844555Y933459D01*
X843289Y934725D01*
X842927Y936542D01*
X855561Y949176D01*
X874795D01*
X876071Y949430D01*
X877152Y950153D01*
X916123Y989122D01*
X916845Y990204D01*
X917099Y991480D01*
Y1011248D01*
X960536Y1054686D01*
X1015217D01*
X1019041Y1050863D01*
X1020122Y1050140D01*
X1021398Y1049886D01*
X1087712D01*
X1088988Y1050140D01*
X1090069Y1050863D01*
X1127056Y1087849D01*
X1127904Y1087818D01*
D02*
G37*
G36*
X1184910Y1042851D02*
Y1021080D01*
X1140460D01*
Y1032510D01*
X1153160Y1045210D01*
X1168400D01*
X1184910Y1042851D01*
D02*
G37*
G36*
X799319Y1183166D02*
X797426Y1180949D01*
X794967Y1176936D01*
X793166Y1172588D01*
X792067Y1168012D01*
X791698Y1163320D01*
X791702D01*
Y1100470D01*
X785790D01*
Y1098686D01*
X782114Y1097163D01*
X777936Y1094603D01*
X774210Y1091420D01*
X771027Y1087694D01*
X768467Y1083516D01*
X766592Y1078989D01*
X765448Y1074225D01*
X765064Y1069340D01*
X765100D01*
Y972820D01*
X765060D01*
X765460Y967736D01*
X766650Y962777D01*
X768602Y958065D01*
X771267Y953717D01*
X773912Y950620D01*
X774459Y949469D01*
X773731Y947223D01*
X771130Y945001D01*
X771158Y944973D01*
X765717Y939532D01*
X765689Y939560D01*
X762377Y935682D01*
X759712Y931334D01*
X757760Y926622D01*
X756570Y921663D01*
X756170Y916579D01*
X756210D01*
Y818172D01*
X756170Y815648D01*
X756170Y815648D01*
X756363Y813188D01*
X756570Y810557D01*
X757762Y805592D01*
X759717Y800874D01*
X762385Y796520D01*
X764130Y794476D01*
X765701Y792637D01*
X765750Y792595D01*
X767562Y790832D01*
X774767Y783628D01*
X776229Y782505D01*
X777932Y781800D01*
X779760Y781560D01*
X827330D01*
Y781497D01*
X832327Y781989D01*
X837132Y783446D01*
X841560Y785813D01*
X845441Y788999D01*
X846361Y787958D01*
X846954Y787264D01*
X850303Y784404D01*
X854058Y782103D01*
X858127Y780417D01*
X862409Y779389D01*
X866800Y779044D01*
Y779070D01*
X981639D01*
X983467Y779310D01*
X985170Y780015D01*
X986619Y777975D01*
X956199Y747554D01*
X841228D01*
X841137Y747690D01*
X842495Y750230D01*
X850280D01*
Y771230D01*
X846976D01*
X846764Y773770D01*
X847095Y774101D01*
X847780Y775755D01*
Y777545D01*
X847095Y779199D01*
X845829Y780465D01*
X844175Y781150D01*
X842385D01*
X840731Y780465D01*
X839465Y779199D01*
X838780Y777545D01*
Y775755D01*
X839465Y774101D01*
X839796Y773770D01*
X839584Y771230D01*
X836280D01*
Y753537D01*
X833740Y752485D01*
X831280Y754945D01*
Y756771D01*
X831340Y757230D01*
X831280Y757689D01*
Y760271D01*
X831340Y760730D01*
Y764230D01*
X831280Y764689D01*
Y771230D01*
X824739D01*
X824280Y771290D01*
X813185D01*
X811870Y772605D01*
Y776620D01*
X805329D01*
X804870Y776680D01*
X801370D01*
X800911Y776620D01*
X790870D01*
Y762620D01*
X800911D01*
X801370Y762560D01*
X801945D01*
X804875Y759630D01*
X804540Y758101D01*
X803893Y757090D01*
X803370D01*
X802911Y757030D01*
X790870D01*
Y739030D01*
X811870D01*
Y742970D01*
X817080D01*
X818907Y743210D01*
X820610Y743915D01*
X822072Y745038D01*
X826915Y749880D01*
X834932Y741862D01*
X836014Y741140D01*
X837290Y740886D01*
X957580D01*
X958856Y741140D01*
X958967Y741214D01*
X960586Y739241D01*
X957469Y736124D01*
X864870D01*
X863594Y735870D01*
X862512Y735147D01*
X845599Y718234D01*
X800975D01*
X799699Y717980D01*
X798617Y717258D01*
X738053Y656693D01*
X737330Y655611D01*
X737076Y654335D01*
Y646300D01*
X736595Y645819D01*
X735910Y644165D01*
Y642375D01*
X736595Y640721D01*
X737546Y639770D01*
X736595Y638819D01*
X735910Y637165D01*
Y635375D01*
X736595Y633721D01*
X737861Y632455D01*
X739515Y631770D01*
X741305D01*
X742959Y632455D01*
X744225Y633721D01*
X744682Y634825D01*
X745157Y635143D01*
X768515Y658500D01*
X769238Y659582D01*
X769492Y660858D01*
Y672281D01*
X786523Y689313D01*
X788870Y688341D01*
Y679050D01*
X813870D01*
Y680340D01*
X846432D01*
X847438Y680070D01*
X849282D01*
X851062Y680547D01*
X851125Y680583D01*
X852820Y681285D01*
X854282Y682408D01*
X869254Y697380D01*
X882850D01*
Y682740D01*
X886208D01*
X887260Y680200D01*
X848498Y641438D01*
X785612D01*
X785381Y641838D01*
X784078Y643141D01*
X782482Y644063D01*
X780702Y644540D01*
X778858D01*
X777078Y644063D01*
X775482Y643141D01*
X774179Y641838D01*
X773257Y640242D01*
X772780Y638462D01*
Y636618D01*
X773257Y634838D01*
X774179Y633242D01*
X775482Y631939D01*
X777078Y631017D01*
X778858Y630540D01*
X780702D01*
X782482Y631017D01*
X784078Y631939D01*
X784401Y632262D01*
X850398D01*
X852154Y632611D01*
X853643Y633606D01*
X894899Y674862D01*
X942644D01*
X943657Y673849D01*
X944957Y673098D01*
X945383Y672017D01*
X945644Y670193D01*
X879475Y604023D01*
X877650Y604284D01*
X876570Y604710D01*
X875819Y606011D01*
X874516Y607314D01*
X872919Y608236D01*
X871139Y608713D01*
X869296D01*
X867516Y608236D01*
X865919Y607314D01*
X864616Y606011D01*
X863695Y604414D01*
X863217Y602634D01*
Y600791D01*
X863275Y600576D01*
X858476Y595777D01*
X857481Y594288D01*
X857132Y592532D01*
Y578377D01*
X854785Y577405D01*
X844362Y587827D01*
X843281Y588550D01*
X842005Y588804D01*
X780270D01*
X779789Y589285D01*
X778135Y589970D01*
X776345D01*
X774691Y589285D01*
X773425Y588019D01*
X772740Y586365D01*
Y584575D01*
X773425Y582921D01*
X774691Y581655D01*
X776345Y580970D01*
X778135D01*
X779789Y581655D01*
X780270Y582136D01*
X840624D01*
X853561Y569199D01*
X853241Y567099D01*
X852868Y566299D01*
X851547Y565536D01*
X850243Y564233D01*
X849322Y562637D01*
X848845Y560856D01*
Y559013D01*
X849322Y557233D01*
X850243Y555637D01*
X851191Y554689D01*
X851564Y553875D01*
X851649Y551668D01*
X851417Y551267D01*
X851135Y550900D01*
X850958Y550473D01*
X850727Y550072D01*
X850607Y549625D01*
X850430Y549197D01*
X850370Y548739D01*
X850250Y548292D01*
Y547829D01*
X850190Y547370D01*
X850250Y546911D01*
Y546448D01*
X850370Y546001D01*
X850430Y545543D01*
X850607Y545115D01*
X850727Y544668D01*
X850958Y544267D01*
X851135Y543840D01*
X851417Y543473D01*
X851649Y543072D01*
X851976Y542745D01*
X852258Y542378D01*
X863840Y530795D01*
X840155Y507110D01*
X817680D01*
Y508400D01*
X802665D01*
X769745Y541320D01*
X773342Y544918D01*
X773624Y545285D01*
X773951Y545612D01*
X774183Y546013D01*
X774464Y546380D01*
X774641Y546807D01*
X774873Y547208D01*
X774993Y547655D01*
X775170Y548083D01*
X775230Y548541D01*
X775350Y548988D01*
Y549451D01*
X775410Y549910D01*
X775350Y550369D01*
Y550832D01*
X775230Y551279D01*
X775170Y551737D01*
X774993Y552165D01*
X774873Y552612D01*
X774641Y553013D01*
X774464Y553440D01*
X774183Y553807D01*
X773951Y554208D01*
X773624Y554535D01*
X773569Y554607D01*
X773323Y555248D01*
X773223Y557033D01*
X773551Y557900D01*
X773569Y557930D01*
X773951Y558312D01*
X774873Y559908D01*
X775350Y561688D01*
Y563532D01*
X774873Y565312D01*
X773951Y566908D01*
X772648Y568211D01*
X771052Y569133D01*
X769272Y569610D01*
X767428D01*
X765648Y569133D01*
X764052Y568211D01*
X762749Y566908D01*
X761827Y565312D01*
X761350Y563532D01*
Y561688D01*
X761827Y559908D01*
X762749Y558312D01*
X763131Y557930D01*
X763149Y557900D01*
X763476Y557033D01*
X763383Y555361D01*
X763088Y554632D01*
X759760Y551305D01*
X721290Y589775D01*
Y962422D01*
X721050Y964249D01*
X720344Y965952D01*
X719222Y967415D01*
X713365Y973272D01*
X711902Y974395D01*
X710200Y975100D01*
X708372Y975340D01*
X708123D01*
X707730Y976288D01*
Y979280D01*
X705213D01*
X703282Y980762D01*
X700363Y981971D01*
X697230Y982384D01*
X671830D01*
X668697Y981971D01*
X665778Y980762D01*
X663271Y978839D01*
X657926Y973494D01*
X600601D01*
Y973506D01*
X594732Y973044D01*
X589008Y971669D01*
X583569Y969417D01*
X578550Y966341D01*
X574073Y962518D01*
X574082Y962509D01*
X567683Y956110D01*
X563950D01*
Y952377D01*
X563741Y952169D01*
X561818Y949662D01*
X560609Y946743D01*
X560196Y943610D01*
X560609Y940477D01*
X561818Y937558D01*
X563741Y935051D01*
X563950Y934892D01*
Y931110D01*
X580650D01*
Y934892D01*
X580858Y935051D01*
X591199Y945392D01*
X591411Y945669D01*
X593907Y947584D01*
X597136Y948921D01*
X600255Y949332D01*
X600601Y949286D01*
X662940D01*
X666073Y949699D01*
X668992Y950908D01*
X671498Y952831D01*
X676843Y958176D01*
X697230D01*
X700363Y958589D01*
X703282Y959798D01*
X705135Y961220D01*
X705448D01*
X707170Y959498D01*
Y910735D01*
X704630Y909878D01*
X703282Y910912D01*
X700363Y912121D01*
X697230Y912534D01*
X678113D01*
X671498Y919148D01*
X668992Y921072D01*
X666073Y922281D01*
X662940Y922694D01*
X659807Y922281D01*
X656888Y921072D01*
X654381Y919148D01*
X653232Y917650D01*
X574670D01*
X574575Y917638D01*
X571088Y917981D01*
X567643Y919026D01*
X564469Y920723D01*
X561687Y923007D01*
X559403Y925789D01*
X557706Y928963D01*
X556661Y932408D01*
X556318Y935895D01*
X556330Y935990D01*
Y968180D01*
X556342Y970582D01*
X556881Y971773D01*
X557882Y973103D01*
Y973103D01*
X559940Y974460D01*
X560926Y975065D01*
X563190Y976998D01*
X565730Y975827D01*
Y975735D01*
X566415Y974081D01*
X567681Y972815D01*
X569335Y972130D01*
X571125D01*
X572779Y972815D01*
X574045Y974081D01*
X574730Y975735D01*
Y976144D01*
X575446Y976825D01*
X577007Y977714D01*
X578225Y977210D01*
X580015D01*
X581669Y977895D01*
X582935Y979161D01*
X583620Y980815D01*
Y981495D01*
X787831Y1185706D01*
X798148D01*
X799319Y1183166D01*
D02*
G37*
G36*
X1109186Y851989D02*
Y686594D01*
X1049667D01*
X1049162Y689134D01*
X1050299Y689605D01*
X1051565Y690871D01*
X1052250Y692525D01*
Y694315D01*
X1051565Y695969D01*
X1050299Y697235D01*
X1048645Y697920D01*
X1047965D01*
X1043915Y701970D01*
X1044553Y704510D01*
X1049130D01*
Y725510D01*
X1031130D01*
Y704510D01*
X1036796D01*
Y701040D01*
X1037050Y699764D01*
X1037773Y698682D01*
X1043250Y693205D01*
Y692525D01*
X1043935Y690871D01*
X1045201Y689605D01*
X1046542Y689050D01*
X1046644Y687819D01*
X1046644Y687611D01*
X1046470Y686539D01*
X1045470Y686340D01*
X1044388Y685618D01*
X1034155Y675384D01*
X1032054Y675704D01*
X1031255Y676076D01*
X1030491Y677398D01*
X1029188Y678701D01*
X1027592Y679623D01*
X1025812Y680100D01*
X1023968D01*
X1022472Y679699D01*
X1020613Y681559D01*
X1021239Y684343D01*
X1021346Y684417D01*
X1022838Y685279D01*
X1024141Y686582D01*
X1025063Y688178D01*
X1025540Y689958D01*
Y691802D01*
X1025063Y693582D01*
X1024141Y695178D01*
X1022838Y696481D01*
X1021242Y697403D01*
X1019462Y697880D01*
X1018808D01*
Y704510D01*
X1026270D01*
Y725510D01*
X1019720D01*
Y731720D01*
X1021010D01*
Y756720D01*
X1005057D01*
X1003790Y759044D01*
X1050401Y805656D01*
X1052340D01*
X1052821Y805175D01*
X1054475Y804490D01*
X1056265D01*
X1057919Y805175D01*
X1059185Y806441D01*
X1059870Y808095D01*
Y809885D01*
X1059185Y811539D01*
X1057919Y812805D01*
X1056265Y813490D01*
X1054475D01*
X1052821Y812805D01*
X1052340Y812324D01*
X1049020D01*
X1047744Y812070D01*
X1046662Y811348D01*
X963120Y727805D01*
X962101Y727975D01*
X961504Y729617D01*
X961436Y730661D01*
X1051671Y820896D01*
X1053610D01*
X1054091Y820415D01*
X1055745Y819730D01*
X1057535D01*
X1059189Y820415D01*
X1060455Y821681D01*
X1061140Y823335D01*
Y825125D01*
X1060455Y826779D01*
X1059189Y828045D01*
X1057535Y828730D01*
X1055745D01*
X1054091Y828045D01*
X1053610Y827564D01*
X1050290D01*
X1049014Y827310D01*
X1047933Y826588D01*
X1011629Y790284D01*
X1009656Y791903D01*
X1009730Y792014D01*
X1009984Y793290D01*
Y798950D01*
X1010465Y799431D01*
X1011150Y801085D01*
Y802875D01*
X1010465Y804529D01*
X1009199Y805795D01*
X1007545Y806480D01*
X1005755D01*
X1004101Y805795D01*
X1002835Y804529D01*
X1002150Y802875D01*
Y801085D01*
X1002835Y799431D01*
X1003316Y798950D01*
Y794671D01*
X989795Y781150D01*
X987754Y782600D01*
X988459Y784303D01*
X988700Y786130D01*
X988459Y787957D01*
X987754Y789660D01*
X986632Y791122D01*
X985170Y792244D01*
X983467Y792950D01*
X981639Y793190D01*
X919420D01*
X919105Y795600D01*
X920759Y796285D01*
X922025Y797551D01*
X922710Y799205D01*
Y799885D01*
X971661Y848836D01*
X1094250D01*
X1094731Y848355D01*
X1096385Y847670D01*
X1098175D01*
X1099829Y848355D01*
X1101095Y849621D01*
X1101780Y851275D01*
Y853065D01*
X1101095Y854719D01*
X1100858Y854956D01*
X1100648Y855268D01*
X1101620Y857596D01*
X1103260Y857915D01*
X1109186Y851989D01*
D02*
G37*
G36*
X1017890Y672746D02*
Y672178D01*
X1018285Y670704D01*
X1017983Y669875D01*
X1016724Y668164D01*
X1014080D01*
X1012804Y667910D01*
X1011722Y667188D01*
X910449Y565914D01*
X890681D01*
X889709Y568261D01*
X964634Y643186D01*
X965629Y644674D01*
X965978Y646430D01*
Y659239D01*
X966991Y660252D01*
X967913Y661848D01*
X968390Y663628D01*
Y665472D01*
X967913Y667252D01*
X966991Y668848D01*
X965688Y670151D01*
X964092Y671073D01*
X963305Y671284D01*
X962438Y673682D01*
X962458Y674029D01*
X966323Y677895D01*
X968670Y676923D01*
Y672990D01*
X989670D01*
Y677912D01*
X1012724D01*
X1017890Y672746D01*
D02*
G37*
G36*
X483200Y1044049D02*
X486484Y1040204D01*
X490329Y1036920D01*
X494181Y1034559D01*
X494641Y1034278D01*
X496452Y1033489D01*
X498346Y1032055D01*
X499331Y1030581D01*
X499710Y1028678D01*
X499688Y1028512D01*
Y966940D01*
X499669D01*
X500074Y961788D01*
X501280Y956764D01*
X503258Y951989D01*
X505958Y947583D01*
X509314Y943654D01*
X513243Y940298D01*
X517649Y937598D01*
X522424Y935620D01*
X524250Y935182D01*
Y931110D01*
X540950D01*
X542877Y929629D01*
X543760Y925947D01*
X545712Y921235D01*
X548377Y916887D01*
X551689Y913009D01*
X555567Y909697D01*
X559915Y907032D01*
X564627Y905080D01*
X569586Y903890D01*
X574670Y903490D01*
Y903530D01*
X653232D01*
X654381Y902031D01*
X664541Y891871D01*
X667048Y889948D01*
X669967Y888739D01*
X673100Y888326D01*
X685126D01*
Y819928D01*
X681990D01*
X681547Y819840D01*
X681095D01*
X680677Y819667D01*
X680234Y819579D01*
X679858Y819328D01*
X679441Y819155D01*
X679121Y818835D01*
X678746Y818584D01*
X678495Y818208D01*
X678175Y817889D01*
X678002Y817472D01*
X677751Y817096D01*
X677663Y816653D01*
X677490Y816235D01*
Y815783D01*
X677402Y815340D01*
X677490Y814897D01*
Y814445D01*
X677663Y814027D01*
X677751Y813584D01*
X678002Y813208D01*
X678175Y812791D01*
X678495Y812471D01*
X678746Y812096D01*
X679121Y811845D01*
X679441Y811525D01*
X679858Y811352D01*
X680234Y811101D01*
X680677Y811013D01*
X681095Y810840D01*
X681547D01*
X681990Y810752D01*
X685126D01*
Y564591D01*
X685172Y564245D01*
X684761Y561126D01*
X683424Y557897D01*
X681509Y555401D01*
X681232Y555189D01*
X674351Y548308D01*
X672004Y549280D01*
Y555070D01*
X671750Y556346D01*
X671028Y557427D01*
X665127Y563327D01*
X665489Y565145D01*
X666755Y566411D01*
X667440Y568065D01*
Y569855D01*
X666755Y571509D01*
X665803Y572461D01*
Y572911D01*
X665550Y574187D01*
X664827Y575268D01*
X602063Y638032D01*
X602674Y638946D01*
X603814Y641698D01*
X604395Y644620D01*
Y647600D01*
X603814Y650522D01*
X602674Y653274D01*
X601018Y655752D01*
X598912Y657858D01*
X596434Y659514D01*
X593682Y660654D01*
X590760Y661235D01*
X589516D01*
X588464Y663775D01*
X590645Y665956D01*
X661180D01*
X661661Y665475D01*
X663315Y664790D01*
X665105D01*
X666759Y665475D01*
X668025Y666741D01*
X668710Y668395D01*
Y670185D01*
X668025Y671839D01*
X666759Y673105D01*
X665105Y673790D01*
X663315D01*
X661661Y673105D01*
X661180Y672624D01*
X600766D01*
X599714Y675164D01*
X601018Y676468D01*
X602674Y678946D01*
X603814Y681698D01*
X604395Y684620D01*
Y687600D01*
X603814Y690522D01*
X602674Y693274D01*
X601018Y695752D01*
X598912Y697858D01*
X596434Y699514D01*
X593682Y700654D01*
X590760Y701235D01*
X587780D01*
X584858Y700654D01*
X582106Y699514D01*
X581192Y698903D01*
X576209Y703886D01*
Y710985D01*
X604395D01*
Y741235D01*
X576209D01*
Y856978D01*
X598418Y879187D01*
X599930Y879813D01*
X601196Y881079D01*
X601881Y882733D01*
Y884523D01*
X601196Y886177D01*
X599930Y887443D01*
X598276Y888128D01*
X596486D01*
X596071Y887956D01*
X594670Y887589D01*
X593095Y889009D01*
X591829Y890275D01*
X590175Y890960D01*
X588385D01*
X586731Y890275D01*
X585465Y889009D01*
X584780Y887355D01*
Y886675D01*
X559432Y861328D01*
X558710Y860246D01*
X558456Y858970D01*
Y756825D01*
X526935Y725304D01*
X524395Y726356D01*
Y727600D01*
X523814Y730522D01*
X522674Y733274D01*
X521018Y735752D01*
X518912Y737858D01*
X516434Y739514D01*
X513682Y740654D01*
X510760Y741235D01*
X507780D01*
X504858Y740654D01*
X502106Y739514D01*
X499628Y737858D01*
X497522Y735752D01*
X495866Y733274D01*
X494726Y730522D01*
X494145Y727600D01*
Y724620D01*
X494726Y721698D01*
X495866Y718946D01*
X497522Y716468D01*
X499628Y714362D01*
X502106Y712706D01*
X504858Y711566D01*
X507780Y710985D01*
X509024D01*
X510076Y708445D01*
X507034Y705403D01*
X506311Y704321D01*
X506057Y703045D01*
Y700892D01*
X504858Y700654D01*
X502106Y699514D01*
X499628Y697858D01*
X497522Y695752D01*
X495866Y693274D01*
X494726Y690522D01*
X494145Y687600D01*
Y684620D01*
X494726Y681698D01*
X495866Y678946D01*
X497522Y676468D01*
X499628Y674362D01*
X502106Y672706D01*
X504858Y671566D01*
X507780Y670985D01*
X510760D01*
X513682Y671566D01*
X516434Y672706D01*
X518912Y674362D01*
X521018Y676468D01*
X522674Y678946D01*
X523814Y681698D01*
X524395Y684620D01*
Y687600D01*
X523814Y690522D01*
X522674Y693274D01*
X521018Y695752D01*
X518912Y697858D01*
X516434Y699514D01*
X514831Y700178D01*
X514122Y702780D01*
X514195Y703133D01*
X564147Y753086D01*
X564870Y754168D01*
X565124Y755444D01*
Y857589D01*
X567214Y859678D01*
X569554Y858427D01*
X569541Y858359D01*
Y702505D01*
X569795Y701229D01*
X570518Y700147D01*
X576477Y694188D01*
X575866Y693274D01*
X574726Y690522D01*
X574145Y687600D01*
Y684620D01*
X574726Y681698D01*
X575866Y678946D01*
X577522Y676468D01*
X579628Y674362D01*
X582106Y672706D01*
X583709Y672042D01*
X584478Y669220D01*
X564703Y649444D01*
X555196D01*
X554691Y651984D01*
X556434Y652706D01*
X558912Y654362D01*
X561018Y656468D01*
X562674Y658946D01*
X563814Y661698D01*
X564395Y664620D01*
Y667600D01*
X563814Y670522D01*
X562674Y673274D01*
X561018Y675752D01*
X558912Y677858D01*
X556434Y679514D01*
X553682Y680654D01*
X550760Y681235D01*
X547780D01*
X544858Y680654D01*
X542106Y679514D01*
X539628Y677858D01*
X537522Y675752D01*
X535866Y673274D01*
X534726Y670522D01*
X534145Y667600D01*
Y664620D01*
X534726Y661698D01*
X535866Y658946D01*
X537522Y656468D01*
X539628Y654362D01*
X542106Y652706D01*
X543849Y651984D01*
X543344Y649444D01*
X524028D01*
X523814Y650522D01*
X522674Y653274D01*
X521018Y655752D01*
X518912Y657858D01*
X516434Y659514D01*
X513682Y660654D01*
X510760Y661235D01*
X507780D01*
X504858Y660654D01*
X502106Y659514D01*
X499628Y657858D01*
X497522Y655752D01*
X495866Y653274D01*
X494726Y650522D01*
X494145Y647600D01*
Y644620D01*
X494726Y641698D01*
X495866Y638946D01*
X497522Y636468D01*
X499628Y634362D01*
X502106Y632706D01*
X504858Y631566D01*
X507780Y630985D01*
X510760D01*
X513682Y631566D01*
X516434Y632706D01*
X518912Y634362D01*
X521018Y636468D01*
X522674Y638946D01*
X523814Y641698D01*
X524028Y642776D01*
X543344D01*
X543850Y640236D01*
X542106Y639514D01*
X539628Y637858D01*
X537522Y635752D01*
X535866Y633274D01*
X534726Y630522D01*
X534145Y627600D01*
Y624620D01*
X534726Y621698D01*
X535866Y618946D01*
X537522Y616468D01*
X539628Y614362D01*
X542106Y612706D01*
X544858Y611566D01*
X547780Y610985D01*
X550760D01*
X553682Y611566D01*
X556434Y612706D01*
X558912Y614362D01*
X561018Y616468D01*
X562674Y618946D01*
X563814Y621698D01*
X564395Y624620D01*
Y627600D01*
X563814Y630522D01*
X562674Y633274D01*
X561018Y635752D01*
X558912Y637858D01*
X556434Y639514D01*
X554690Y640236D01*
X555196Y642776D01*
X566084D01*
X567360Y643030D01*
X568442Y643753D01*
X571605Y646916D01*
X574145Y645864D01*
Y644620D01*
X574726Y641698D01*
X575866Y638946D01*
X577522Y636468D01*
X579628Y634362D01*
X582106Y632706D01*
X584858Y631566D01*
X587780Y630985D01*
X590760D01*
X593682Y631566D01*
X596434Y632706D01*
X596640Y632844D01*
X598381Y631449D01*
X597757Y629014D01*
X596891Y628655D01*
X595625Y627389D01*
X594940Y625735D01*
Y623945D01*
X595471Y622662D01*
X594766Y621510D01*
X593780Y620613D01*
X593682Y620654D01*
X590760Y621235D01*
X587780D01*
X584858Y620654D01*
X582106Y619514D01*
X579628Y617858D01*
X577522Y615752D01*
X575866Y613274D01*
X574726Y610522D01*
X574145Y607600D01*
Y604620D01*
X574726Y601698D01*
X575866Y598946D01*
X577522Y596468D01*
X579628Y594362D01*
X581787Y592919D01*
X581784Y591950D01*
X581114Y590379D01*
X577389D01*
X576114Y590125D01*
X575032Y589403D01*
X558679Y573049D01*
X543268D01*
X541992Y572795D01*
X540911Y572072D01*
X511449Y542611D01*
X510726Y541529D01*
X510668Y541235D01*
X507780D01*
X505548Y540791D01*
X503416Y542512D01*
X503496Y542777D01*
X503824Y546110D01*
X503496Y549443D01*
X503416Y549708D01*
X505548Y551429D01*
X507780Y550985D01*
X510760D01*
X513682Y551566D01*
X516434Y552706D01*
X518912Y554362D01*
X521018Y556468D01*
X522674Y558946D01*
X523814Y561698D01*
X524395Y564620D01*
Y567600D01*
X523814Y570522D01*
X522674Y573274D01*
X521018Y575752D01*
X518912Y577858D01*
X516434Y579514D01*
X513682Y580654D01*
X513164Y580757D01*
X512238Y583531D01*
X513473Y585036D01*
X515052Y587990D01*
X516024Y591194D01*
X516162Y592594D01*
X516434Y592706D01*
X518912Y594362D01*
X521018Y596468D01*
X522674Y598946D01*
X523814Y601698D01*
X524395Y604620D01*
Y607600D01*
X523814Y610522D01*
X522674Y613274D01*
X521018Y615752D01*
X518912Y617858D01*
X516434Y619514D01*
X513682Y620654D01*
X510760Y621235D01*
X507780D01*
X504858Y620654D01*
X502106Y619514D01*
X499628Y617858D01*
X497522Y615752D01*
X495866Y613274D01*
X494726Y610522D01*
X494145Y607600D01*
Y604620D01*
X494726Y601698D01*
X495866Y598946D01*
X497522Y596468D01*
X499628Y594362D01*
X499906Y593437D01*
X499472Y591411D01*
X496917Y590353D01*
X493277Y588122D01*
X490031Y585350D01*
X487258Y582103D01*
X485027Y578462D01*
X483393Y574518D01*
X482396Y570366D01*
X482061Y566110D01*
X482396Y561854D01*
X483393Y557702D01*
X485027Y553758D01*
X487258Y550117D01*
X488831Y548275D01*
X488975Y548088D01*
X488913Y548033D01*
X489448Y547231D01*
X489671Y546110D01*
X489448Y544989D01*
X488914Y544189D01*
X488976Y544134D01*
X488838Y543953D01*
X487258Y542103D01*
X485027Y538462D01*
X483393Y534518D01*
X482396Y530366D01*
X482061Y526110D01*
X482396Y521854D01*
X483393Y517702D01*
X485027Y513758D01*
X487258Y510117D01*
X488831Y508275D01*
X488975Y508088D01*
X488913Y508033D01*
X489448Y507231D01*
X489671Y506110D01*
X489448Y504989D01*
X488914Y504189D01*
X488976Y504134D01*
X488838Y503953D01*
X487258Y502103D01*
X485027Y498462D01*
X483393Y494518D01*
X482396Y490366D01*
X482061Y486110D01*
X482396Y481854D01*
X483393Y477702D01*
X485027Y473758D01*
X487258Y470117D01*
X488832Y468274D01*
X488975Y468088D01*
X488913Y468032D01*
X489448Y467231D01*
X489671Y466110D01*
X489448Y464989D01*
X488913Y464189D01*
X488976Y464133D01*
X488836Y463951D01*
X487258Y462103D01*
X485027Y458463D01*
X483393Y454518D01*
X482396Y450366D01*
X482061Y446110D01*
X482396Y441854D01*
X483393Y437702D01*
X485027Y433758D01*
X487258Y430117D01*
X490030Y426870D01*
X493277Y424098D01*
X496917Y421867D01*
X500862Y420233D01*
X505014Y419236D01*
X509270Y418901D01*
X513526Y419236D01*
X517678Y420233D01*
X519685Y420987D01*
X521943Y420972D01*
X521968Y421032D01*
X522174Y420958D01*
X522877Y420667D01*
X523039Y420646D01*
X523193Y420590D01*
X557780Y413011D01*
X558291Y411778D01*
X560214Y409272D01*
X562054Y407431D01*
X564051Y405899D01*
X563592Y403728D01*
X563391Y403359D01*
X523854D01*
X517517Y404193D01*
X511343Y405848D01*
X505437Y408294D01*
X499902Y411490D01*
X494831Y415381D01*
X490311Y419901D01*
X486420Y424972D01*
X483224Y430507D01*
X480778Y436413D01*
X479123Y442587D01*
X478289Y448924D01*
Y452120D01*
Y1047311D01*
X479299Y1047778D01*
X480829Y1047918D01*
X483200Y1044049D01*
D02*
G37*
G36*
X954656Y662635D02*
X954867Y661848D01*
X955789Y660252D01*
X956802Y659239D01*
Y648331D01*
X881738Y573267D01*
X879058Y573394D01*
X878294Y574413D01*
X877831Y575478D01*
X878220Y576928D01*
Y578772D01*
X877743Y580552D01*
X876821Y582148D01*
X875808Y583161D01*
Y587379D01*
X951911Y663482D01*
X952258Y663503D01*
X954656Y662635D01*
D02*
G37*
G36*
X535866Y538946D02*
X537522Y536468D01*
X539628Y534362D01*
X542106Y532706D01*
X544858Y531566D01*
X547780Y530985D01*
X550760D01*
X553682Y531566D01*
X556434Y532706D01*
X558912Y534362D01*
X561018Y536468D01*
X562674Y538946D01*
X562925Y539554D01*
X577732D01*
X578784Y537014D01*
X577522Y535752D01*
X575866Y533274D01*
X574726Y530522D01*
X574145Y527600D01*
Y524620D01*
X574726Y521698D01*
X575866Y518946D01*
X577522Y516468D01*
X579628Y514362D01*
X582106Y512706D01*
X584858Y511566D01*
X587780Y510985D01*
X590760D01*
X593682Y511566D01*
X596434Y512706D01*
X598912Y514362D01*
X601018Y516468D01*
X602674Y518946D01*
X603814Y521698D01*
X604395Y524620D01*
Y527600D01*
X603814Y530522D01*
X602674Y533274D01*
X601018Y535752D01*
X599756Y537014D01*
X600808Y539554D01*
X652169D01*
X654184Y537014D01*
X654157Y536898D01*
X652503Y536213D01*
X651237Y534947D01*
X650552Y533293D01*
Y531503D01*
X651237Y529849D01*
X652503Y528583D01*
X652855Y526812D01*
X605730Y479687D01*
X603577Y481126D01*
X603814Y481698D01*
X604395Y484620D01*
Y487600D01*
X603814Y490522D01*
X602674Y493274D01*
X601018Y495752D01*
X598912Y497858D01*
X596434Y499514D01*
X593682Y500654D01*
X590760Y501235D01*
X587780D01*
X584858Y500654D01*
X582106Y499514D01*
X579628Y497858D01*
X577522Y495752D01*
X575866Y493274D01*
X574726Y490522D01*
X574145Y487600D01*
Y484620D01*
X574726Y481698D01*
X575866Y478946D01*
X577522Y476468D01*
X579628Y474362D01*
X582106Y472706D01*
X584858Y471566D01*
X587780Y470985D01*
X590760D01*
X593682Y471566D01*
X594254Y471803D01*
X595693Y469650D01*
X587153Y461110D01*
X584858Y460654D01*
X582106Y459514D01*
X579628Y457858D01*
X577522Y455752D01*
X575866Y453274D01*
X574726Y450522D01*
X574145Y447600D01*
Y444620D01*
X574726Y441698D01*
X575866Y438946D01*
X577522Y436468D01*
X579628Y434362D01*
X582106Y432706D01*
X584858Y431566D01*
X587780Y430985D01*
X590760D01*
X593682Y431566D01*
X596434Y432706D01*
X598912Y434362D01*
X601018Y436468D01*
X602674Y438946D01*
X603814Y441698D01*
X604270Y443993D01*
X635191Y474914D01*
X637218Y473412D01*
X636009Y470493D01*
X635596Y467360D01*
X636009Y464227D01*
X637218Y461308D01*
X639142Y458801D01*
X641648Y456878D01*
X644567Y455669D01*
X647700Y455256D01*
X726507D01*
X739449Y442314D01*
X738397Y439774D01*
X725721D01*
X717596Y447899D01*
X716514Y448622D01*
X715238Y448876D01*
X649574D01*
X648298Y448622D01*
X647216Y447899D01*
X643836Y444519D01*
X643114Y443438D01*
X642860Y442162D01*
Y438279D01*
X642615Y438034D01*
X641930Y436380D01*
Y434590D01*
X642615Y432936D01*
X643881Y431670D01*
X645535Y430985D01*
X647325D01*
X648979Y431670D01*
X650245Y432936D01*
X650930Y434590D01*
Y435179D01*
X651069Y435272D01*
X652859D01*
X654513Y435957D01*
X656638Y434940D01*
X661138Y430440D01*
X660166Y428094D01*
X575109D01*
X574825Y428312D01*
X571905Y429521D01*
X568773Y429934D01*
X565640Y429521D01*
X562721Y428312D01*
X560767Y426812D01*
X526439Y434334D01*
X524134Y435034D01*
X520802Y435362D01*
X517469Y435034D01*
X515223Y434352D01*
X515162Y434344D01*
X514291Y434069D01*
X514256Y434106D01*
X513818Y433925D01*
X511943Y433352D01*
X509270Y433000D01*
X505877Y433447D01*
X502715Y434756D01*
X500000Y436840D01*
X497916Y439555D01*
X496606Y442717D01*
X496160Y446110D01*
X496606Y449503D01*
X497916Y452665D01*
X499531Y454770D01*
X499476Y454819D01*
X499586Y454964D01*
X500945Y456620D01*
X502524Y459573D01*
X503496Y462777D01*
X503824Y466110D01*
X503496Y469443D01*
X503415Y469708D01*
X505548Y471429D01*
X507780Y470985D01*
X510760D01*
X513682Y471566D01*
X516434Y472706D01*
X518912Y474362D01*
X521018Y476468D01*
X522674Y478946D01*
X523814Y481698D01*
X524395Y484620D01*
Y487600D01*
X523814Y490522D01*
X522674Y493274D01*
X522063Y494188D01*
X531711Y503836D01*
X532798Y503776D01*
X534426Y503209D01*
X534726Y501698D01*
X535866Y498946D01*
X537522Y496468D01*
X539628Y494362D01*
X542106Y492706D01*
X544858Y491566D01*
X547780Y490985D01*
X550760D01*
X553682Y491566D01*
X556434Y492706D01*
X558912Y494362D01*
X561018Y496468D01*
X562674Y498946D01*
X563814Y501698D01*
X564395Y504620D01*
Y507600D01*
X563814Y510522D01*
X562674Y513274D01*
X561018Y515752D01*
X558912Y517858D01*
X556434Y519514D01*
X553682Y520654D01*
X550760Y521235D01*
X547780D01*
X544858Y520654D01*
X542106Y519514D01*
X539628Y517858D01*
X537522Y515752D01*
X535866Y513274D01*
X535464Y512303D01*
X532924Y512808D01*
Y539412D01*
X535464Y539917D01*
X535866Y538946D01*
D02*
G37*
%LPC*%
G36*
X1426550Y1319570D02*
X1405550D01*
Y1318396D01*
X1404467Y1317703D01*
X1403010Y1317139D01*
X1401705Y1317680D01*
X1399915D01*
X1398261Y1316995D01*
X1396995Y1315729D01*
X1396310Y1314075D01*
Y1312285D01*
X1396995Y1310631D01*
X1398261Y1309365D01*
X1399915Y1308680D01*
X1401705D01*
X1403010Y1309220D01*
X1404467Y1308657D01*
X1405550Y1307964D01*
Y1305570D01*
X1426550D01*
Y1319570D01*
D02*
G37*
G36*
X1393107D02*
X1372107D01*
Y1316514D01*
X1369550D01*
X1369069Y1316995D01*
X1367415Y1317680D01*
X1365625D01*
X1363971Y1316995D01*
X1362705Y1315729D01*
X1362252Y1314634D01*
X1362020Y1314075D01*
X1359905Y1314472D01*
X1359663Y1316912D01*
Y1319570D01*
X1338663D01*
Y1316514D01*
X1335260D01*
X1334779Y1316995D01*
X1333125Y1317680D01*
X1331335D01*
X1329681Y1316995D01*
X1328760Y1316074D01*
X1327130Y1316387D01*
X1326220Y1316853D01*
Y1319570D01*
X1305220D01*
Y1315904D01*
X1301806D01*
X1300530Y1315650D01*
X1299448Y1314928D01*
X1297882Y1313361D01*
X1295409Y1313185D01*
X1293755Y1313870D01*
X1291965D01*
X1290311Y1313185D01*
X1289045Y1311919D01*
X1288360Y1310265D01*
Y1308475D01*
X1289045Y1306821D01*
X1290311Y1305555D01*
X1291965Y1304870D01*
X1293755D01*
X1295409Y1305555D01*
X1296361Y1306507D01*
X1299076D01*
X1300352Y1306760D01*
X1301434Y1307483D01*
X1302680Y1308729D01*
X1305220Y1308013D01*
Y1305570D01*
X1326220D01*
Y1309507D01*
X1327130Y1309973D01*
X1328760Y1310286D01*
X1329681Y1309365D01*
X1331335Y1308680D01*
X1333125D01*
X1334779Y1309365D01*
X1335260Y1309846D01*
X1338663D01*
Y1305570D01*
X1359663D01*
Y1309448D01*
X1359905Y1311888D01*
X1362020Y1312285D01*
X1362252Y1311726D01*
X1362705Y1310631D01*
X1363971Y1309365D01*
X1365625Y1308680D01*
X1367415D01*
X1369069Y1309365D01*
X1369550Y1309846D01*
X1372107D01*
Y1305570D01*
X1393107D01*
Y1319570D01*
D02*
G37*
G36*
X1192155Y1312600D02*
X1190365D01*
X1188711Y1311915D01*
X1187445Y1310649D01*
X1186760Y1308995D01*
Y1307205D01*
X1187445Y1305551D01*
X1188711Y1304285D01*
X1190365Y1303600D01*
X1191045D01*
X1203166Y1291479D01*
Y1238740D01*
X1202685Y1238259D01*
X1202000Y1236605D01*
Y1234815D01*
X1202685Y1233161D01*
X1203951Y1231895D01*
X1205605Y1231210D01*
X1207395D01*
X1209049Y1231895D01*
X1210315Y1233161D01*
X1211000Y1234815D01*
Y1236605D01*
X1210315Y1238259D01*
X1209834Y1238740D01*
Y1292860D01*
X1209580Y1294136D01*
X1208857Y1295217D01*
X1195760Y1308315D01*
Y1308995D01*
X1195075Y1310649D01*
X1193809Y1311915D01*
X1192155Y1312600D01*
D02*
G37*
G36*
X1180035Y1216080D02*
X1178245D01*
X1176591Y1215395D01*
X1175325Y1214129D01*
X1174640Y1212475D01*
Y1210685D01*
X1175325Y1209031D01*
X1176591Y1207765D01*
X1178245Y1207080D01*
X1180035D01*
X1181689Y1207765D01*
X1182170Y1208246D01*
X1188609D01*
X1195650Y1201205D01*
Y1200525D01*
X1196335Y1198871D01*
X1197601Y1197605D01*
X1199255Y1196920D01*
X1201045D01*
X1202699Y1197605D01*
X1203965Y1198871D01*
X1204650Y1200525D01*
Y1202315D01*
X1203965Y1203969D01*
X1202699Y1205235D01*
X1201045Y1205920D01*
X1200365D01*
X1192347Y1213938D01*
X1191266Y1214660D01*
X1189990Y1214914D01*
X1182170D01*
X1181689Y1215395D01*
X1180035Y1216080D01*
D02*
G37*
G36*
X1364875Y1268150D02*
X1363085D01*
X1361431Y1267465D01*
X1360165Y1266199D01*
X1359480Y1264545D01*
Y1262755D01*
X1360165Y1261101D01*
X1360646Y1260620D01*
Y1243441D01*
X1281229Y1164024D01*
X1215030D01*
X1214549Y1164505D01*
X1213773Y1164826D01*
X1213003Y1167194D01*
X1213029Y1167674D01*
X1225661Y1180306D01*
X1259840D01*
X1261116Y1180560D01*
X1262197Y1181283D01*
X1340065Y1259150D01*
X1340745D01*
X1342399Y1259835D01*
X1343665Y1261101D01*
X1344350Y1262755D01*
Y1264545D01*
X1343665Y1266199D01*
X1342399Y1267465D01*
X1340745Y1268150D01*
X1338955D01*
X1337301Y1267465D01*
X1336035Y1266199D01*
X1335350Y1264545D01*
Y1263865D01*
X1258459Y1186974D01*
X1224280D01*
X1223004Y1186720D01*
X1221923Y1185998D01*
X1200719Y1164794D01*
X1199996Y1163712D01*
X1199743Y1162437D01*
Y1154797D01*
X1199262Y1154316D01*
X1198577Y1152662D01*
Y1150872D01*
X1199262Y1149218D01*
X1200527Y1147952D01*
X1202181Y1147267D01*
X1203972D01*
X1205626Y1147952D01*
X1206891Y1149218D01*
X1207577Y1150872D01*
Y1152662D01*
X1207032Y1153977D01*
X1207112Y1155064D01*
X1207240Y1155494D01*
X1207918Y1155918D01*
X1210014Y1156642D01*
X1211105Y1156190D01*
X1212895D01*
X1214549Y1156875D01*
X1215030Y1157356D01*
X1282610D01*
X1283886Y1157610D01*
X1284968Y1158333D01*
X1366337Y1239703D01*
X1367060Y1240784D01*
X1367314Y1242060D01*
Y1260620D01*
X1367795Y1261101D01*
X1368480Y1262755D01*
Y1264545D01*
X1367795Y1266199D01*
X1366529Y1267465D01*
X1364875Y1268150D01*
D02*
G37*
G36*
X1409874Y1140470D02*
X1407526D01*
X1405358Y1139572D01*
X1403698Y1137912D01*
X1402800Y1135744D01*
Y1133396D01*
X1403698Y1131228D01*
X1405358Y1129568D01*
X1407526Y1128670D01*
X1409874D01*
X1412042Y1129568D01*
X1413702Y1131228D01*
X1414600Y1133396D01*
Y1135744D01*
X1413702Y1137912D01*
X1412042Y1139572D01*
X1409874Y1140470D01*
D02*
G37*
G36*
X1369050Y1131910D02*
X1355050D01*
Y1110910D01*
X1369050D01*
Y1118351D01*
X1383897D01*
X1396742Y1105507D01*
Y1104437D01*
X1397427Y1102783D01*
X1398326Y1101884D01*
X1397972Y1100149D01*
X1397548Y1099344D01*
X1382250D01*
X1381769Y1099825D01*
X1380115Y1100510D01*
X1378325D01*
X1376671Y1099825D01*
X1375405Y1098559D01*
X1374720Y1096905D01*
Y1095115D01*
X1375405Y1093461D01*
X1376671Y1092195D01*
X1378325Y1091510D01*
X1380115D01*
X1381769Y1092195D01*
X1382250Y1092676D01*
X1414114D01*
X1415390Y1092930D01*
X1416472Y1093652D01*
X1418139Y1095320D01*
X1419485D01*
X1421139Y1096005D01*
X1422405Y1097271D01*
X1423090Y1098925D01*
Y1100715D01*
X1422405Y1102369D01*
X1421139Y1103635D01*
X1419485Y1104320D01*
X1417695D01*
X1416041Y1103635D01*
X1414775Y1102369D01*
X1414090Y1100715D01*
Y1100701D01*
X1412733Y1099344D01*
X1404937D01*
X1404512Y1100149D01*
X1404158Y1101884D01*
X1405057Y1102783D01*
X1405742Y1104437D01*
Y1106227D01*
X1405057Y1107881D01*
X1403791Y1109147D01*
X1402137Y1109832D01*
X1401068D01*
X1387327Y1123573D01*
X1386335Y1124236D01*
X1385164Y1124469D01*
X1385164Y1124469D01*
X1369050D01*
Y1131910D01*
D02*
G37*
G36*
X1261450Y1111360D02*
X1240450D01*
Y1109565D01*
X1239258Y1108768D01*
X1237468D01*
X1235814Y1108083D01*
X1234548Y1106817D01*
X1233863Y1105163D01*
Y1103373D01*
X1234548Y1101719D01*
X1235814Y1100453D01*
X1237468Y1099768D01*
X1239258D01*
X1240450Y1098971D01*
Y1093360D01*
X1261450D01*
Y1111360D01*
D02*
G37*
G36*
X1275975Y1108780D02*
X1274185D01*
X1272531Y1108095D01*
X1271265Y1106829D01*
X1270580Y1105175D01*
Y1103385D01*
X1271265Y1101731D01*
X1272216Y1100780D01*
X1271265Y1099829D01*
X1270580Y1098175D01*
Y1096385D01*
X1271265Y1094731D01*
X1272531Y1093465D01*
X1274185Y1092780D01*
X1275975D01*
X1277629Y1093465D01*
X1278895Y1094731D01*
X1279073Y1095162D01*
X1284547D01*
X1286440Y1093095D01*
Y1091305D01*
X1287125Y1089651D01*
X1288391Y1088385D01*
X1290045Y1087700D01*
X1291835D01*
X1293489Y1088385D01*
X1294440Y1089336D01*
X1295391Y1088385D01*
X1297045Y1087700D01*
X1298835D01*
X1300489Y1088385D01*
X1301755Y1089651D01*
X1302440Y1091305D01*
Y1093095D01*
X1301755Y1094749D01*
X1300489Y1096015D01*
X1300058Y1096193D01*
Y1098649D01*
X1299805Y1099924D01*
X1299082Y1101006D01*
X1294666Y1105422D01*
X1293584Y1106144D01*
X1292309Y1106398D01*
X1279073D01*
X1278895Y1106829D01*
X1277629Y1108095D01*
X1275975Y1108780D01*
D02*
G37*
G36*
X1350710Y1105240D02*
X1336710D01*
Y1084240D01*
X1345487D01*
X1345510Y1084205D01*
Y1082415D01*
X1346195Y1080761D01*
X1347461Y1079495D01*
X1349115Y1078810D01*
X1350905D01*
X1352559Y1079495D01*
X1353825Y1080761D01*
X1354510Y1082415D01*
Y1084205D01*
X1353825Y1085859D01*
X1352559Y1087125D01*
X1351741Y1087464D01*
X1351599Y1087677D01*
X1351599Y1087677D01*
X1350710Y1088566D01*
Y1105240D01*
D02*
G37*
G36*
X1409933Y1068770D02*
X1407467D01*
X1405188Y1067826D01*
X1403444Y1066082D01*
X1402500Y1063803D01*
Y1061337D01*
X1403444Y1059058D01*
X1405188Y1057314D01*
X1407467Y1056370D01*
X1409933D01*
X1412212Y1057314D01*
X1413956Y1059058D01*
X1414900Y1061337D01*
Y1063803D01*
X1413956Y1066082D01*
X1412212Y1067826D01*
X1409933Y1068770D01*
D02*
G37*
G36*
X1354860Y1072480D02*
X1332460D01*
Y1050480D01*
X1354860D01*
Y1056267D01*
X1355860Y1058421D01*
X1357030Y1058654D01*
X1358023Y1059317D01*
X1358466Y1059760D01*
X1359795D01*
X1361449Y1060445D01*
X1362715Y1061711D01*
X1363400Y1063365D01*
Y1065155D01*
X1362715Y1066809D01*
X1361449Y1068075D01*
X1359795Y1068760D01*
X1358005D01*
X1357400Y1068509D01*
X1354988Y1069833D01*
X1354860Y1069997D01*
Y1072480D01*
D02*
G37*
G36*
X1324235Y1006530D02*
X1322445D01*
X1320791Y1005845D01*
X1319736Y1004790D01*
X1306256D01*
X1304980Y1004536D01*
X1303898Y1003813D01*
X1293703Y993617D01*
X1292980Y992536D01*
X1292726Y991260D01*
X1290452Y989670D01*
X1289060D01*
Y968670D01*
X1303060D01*
Y989670D01*
X1302504D01*
X1301532Y992017D01*
X1307637Y998122D01*
X1321016D01*
X1322445Y997530D01*
X1324235D01*
X1325889Y998215D01*
X1327155Y999481D01*
X1327840Y1001135D01*
Y1002925D01*
X1327155Y1004579D01*
X1325889Y1005845D01*
X1324235Y1006530D01*
D02*
G37*
G36*
X1354860Y1042480D02*
X1332460D01*
Y1020480D01*
X1337235D01*
Y1013800D01*
X1335930D01*
Y992800D01*
X1336600D01*
Y972820D01*
X1336660Y972361D01*
Y971898D01*
X1336780Y971451D01*
X1336840Y970993D01*
X1337017Y970565D01*
X1337137Y970118D01*
X1337368Y969717D01*
X1337545Y969290D01*
X1337827Y968923D01*
X1338059Y968522D01*
X1338386Y968195D01*
X1338668Y967828D01*
X1339035Y967546D01*
X1339362Y967219D01*
X1339763Y966987D01*
X1340130Y966705D01*
X1340557Y966528D01*
X1340958Y966297D01*
X1341405Y966177D01*
X1341833Y966000D01*
X1342291Y965940D01*
X1342738Y965820D01*
X1343201D01*
X1343660Y965760D01*
X1344119Y965820D01*
X1344582D01*
X1345029Y965940D01*
X1345487Y966000D01*
X1345915Y966177D01*
X1346362Y966297D01*
X1346763Y966528D01*
X1347190Y966705D01*
X1347557Y966987D01*
X1347958Y967219D01*
X1348285Y967546D01*
X1348652Y967828D01*
X1348934Y968195D01*
X1349261Y968522D01*
X1349493Y968923D01*
X1349774Y969290D01*
X1349951Y969717D01*
X1350183Y970118D01*
X1350303Y970565D01*
X1350480Y970993D01*
X1350540Y971451D01*
X1350660Y971898D01*
Y972361D01*
X1350720Y972820D01*
Y992800D01*
X1353930D01*
Y1013800D01*
X1351355D01*
Y1020480D01*
X1354860D01*
Y1042480D01*
D02*
G37*
G36*
X1178185Y972240D02*
X1176395D01*
X1174741Y971555D01*
X1173475Y970289D01*
X1173207Y969642D01*
X1127498Y923933D01*
X1127385Y923980D01*
X1125595D01*
X1123941Y923295D01*
X1122675Y922029D01*
X1121990Y920375D01*
Y918585D01*
X1122675Y916931D01*
X1123941Y915665D01*
X1125595Y914980D01*
X1127385D01*
X1129039Y915665D01*
X1130305Y916931D01*
X1130573Y917578D01*
X1176282Y963287D01*
X1176395Y963240D01*
X1178185D01*
X1179839Y963925D01*
X1181105Y965191D01*
X1181790Y966845D01*
Y968635D01*
X1181105Y970289D01*
X1179839Y971555D01*
X1178185Y972240D01*
D02*
G37*
G36*
X1168025Y981130D02*
X1166235D01*
X1164581Y980445D01*
X1163315Y979179D01*
X1162630Y977525D01*
Y976845D01*
X1104789Y919004D01*
X1100310D01*
X1099829Y919485D01*
X1098175Y920170D01*
X1096385D01*
X1094731Y919485D01*
X1093465Y918219D01*
X1092780Y916565D01*
Y914775D01*
X1093465Y913121D01*
X1094731Y911855D01*
X1096385Y911170D01*
X1098175D01*
X1099829Y911855D01*
X1100310Y912336D01*
X1106170D01*
X1107446Y912590D01*
X1108528Y913313D01*
X1167345Y972130D01*
X1168025D01*
X1169679Y972815D01*
X1170945Y974081D01*
X1171630Y975735D01*
Y977525D01*
X1170945Y979179D01*
X1169679Y980445D01*
X1168025Y981130D01*
D02*
G37*
G36*
X1202192Y954583D02*
X1200401D01*
X1198747Y953898D01*
X1197482Y952633D01*
X1196796Y950978D01*
Y949188D01*
X1197482Y947534D01*
X1198086Y946930D01*
Y942451D01*
X1183425Y927790D01*
X1182745D01*
X1181091Y927105D01*
X1179825Y925839D01*
X1179140Y924185D01*
Y922395D01*
X1179296Y922017D01*
X1179821Y919485D01*
X1178555Y918219D01*
X1177870Y916565D01*
Y914775D01*
X1178555Y913121D01*
X1179821Y911855D01*
X1181475Y911170D01*
X1183265D01*
X1184919Y911855D01*
X1186185Y913121D01*
X1186680Y914315D01*
X1187306Y914440D01*
X1188388Y915163D01*
X1210127Y936902D01*
X1210850Y937984D01*
X1211104Y939260D01*
Y944390D01*
X1211585Y944871D01*
X1212270Y946525D01*
Y948315D01*
X1211585Y949969D01*
X1210319Y951235D01*
X1208665Y951920D01*
X1206875D01*
X1205622Y951401D01*
X1205111Y952633D01*
X1203846Y953898D01*
X1202192Y954583D01*
D02*
G37*
G36*
X1415380Y873530D02*
X1393380D01*
Y851130D01*
X1400986D01*
X1401390Y850525D01*
Y848735D01*
X1402075Y847081D01*
X1403341Y845815D01*
X1404995Y845130D01*
X1406785D01*
X1408439Y845815D01*
X1409705Y847081D01*
X1410390Y848735D01*
Y850525D01*
X1410794Y851130D01*
X1415380D01*
Y873530D01*
D02*
G37*
G36*
X1282325Y884610D02*
X1280535D01*
X1278881Y883925D01*
X1277615Y882659D01*
X1276930Y881005D01*
Y879215D01*
X1277615Y877561D01*
X1278881Y876295D01*
X1280535Y875610D01*
X1282325D01*
X1283979Y876295D01*
X1284460Y876776D01*
X1313069D01*
X1346780Y843065D01*
Y842385D01*
X1347465Y840731D01*
X1348731Y839465D01*
X1350385Y838780D01*
X1352175D01*
X1353829Y839465D01*
X1355095Y840731D01*
X1355780Y842385D01*
Y844175D01*
X1355095Y845829D01*
X1353829Y847095D01*
X1352175Y847780D01*
X1351495D01*
X1316808Y882467D01*
X1315726Y883190D01*
X1314450Y883444D01*
X1284460D01*
X1283979Y883925D01*
X1282325Y884610D01*
D02*
G37*
G36*
X1442898Y803480D02*
X1440002D01*
X1437204Y802730D01*
X1434696Y801282D01*
X1432648Y799234D01*
X1431200Y796726D01*
X1430450Y793928D01*
Y791032D01*
X1431200Y788234D01*
X1432648Y785726D01*
X1434696Y783678D01*
X1437204Y782230D01*
X1440002Y781480D01*
X1442898D01*
X1445696Y782230D01*
X1448204Y783678D01*
X1450252Y785726D01*
X1451700Y788234D01*
X1452450Y791032D01*
Y793928D01*
X1451700Y796726D01*
X1450252Y799234D01*
X1448204Y801282D01*
X1445696Y802730D01*
X1442898Y803480D01*
D02*
G37*
G36*
Y752680D02*
X1440002D01*
X1437204Y751930D01*
X1434696Y750482D01*
X1432648Y748434D01*
X1431200Y745926D01*
X1430450Y743128D01*
Y740232D01*
X1431200Y737434D01*
X1432648Y734926D01*
X1434696Y732878D01*
X1437204Y731430D01*
X1440002Y730680D01*
X1442898D01*
X1445696Y731430D01*
X1448204Y732878D01*
X1450252Y734926D01*
X1451700Y737434D01*
X1452450Y740232D01*
Y743128D01*
X1451700Y745926D01*
X1450252Y748434D01*
X1448204Y750482D01*
X1445696Y751930D01*
X1442898Y752680D01*
D02*
G37*
G36*
X1456315Y559490D02*
X1454525D01*
X1452871Y558805D01*
X1451605Y557539D01*
X1450920Y555885D01*
Y555205D01*
X1444251Y548536D01*
X1441455Y548649D01*
X1440189Y549915D01*
X1438535Y550600D01*
X1436745D01*
X1435091Y549915D01*
X1433825Y548649D01*
X1433140Y546995D01*
Y546315D01*
X1346709Y459884D01*
X1331507D01*
X1331109Y460157D01*
X1330719Y460569D01*
X1330434Y461085D01*
X1329945Y462424D01*
X1329983Y462565D01*
X1330160Y462993D01*
X1330220Y463451D01*
X1330340Y463898D01*
Y464361D01*
X1330400Y464820D01*
X1330340Y465279D01*
Y465742D01*
X1330220Y466189D01*
X1330160Y466647D01*
X1329983Y467075D01*
X1329863Y467522D01*
X1329632Y467923D01*
X1329454Y468350D01*
X1329173Y468717D01*
X1328941Y469118D01*
X1328614Y469445D01*
X1328332Y469812D01*
X1327965Y470094D01*
X1327638Y470421D01*
X1327237Y470653D01*
X1326870Y470934D01*
X1326443Y471111D01*
X1326042Y471343D01*
X1325595Y471463D01*
X1325167Y471640D01*
X1324709Y471700D01*
X1324262Y471820D01*
X1323799D01*
X1323340Y471880D01*
X1319565D01*
X1315770Y475675D01*
Y476250D01*
X1315710Y476709D01*
Y486750D01*
X1301710D01*
Y476709D01*
X1301650Y476250D01*
Y472750D01*
X1301710Y472291D01*
Y465750D01*
X1305725D01*
X1309244Y462231D01*
X1308272Y459884D01*
X1284590D01*
X1283314Y459630D01*
X1282233Y458908D01*
X1250735Y427410D01*
X1250055D01*
X1248401Y426725D01*
X1247135Y425459D01*
X1246450Y423805D01*
Y422015D01*
X1247135Y420361D01*
X1248401Y419095D01*
X1250055Y418410D01*
X1251845D01*
X1253499Y419095D01*
X1254765Y420361D01*
X1255450Y422015D01*
Y422695D01*
X1285971Y453216D01*
X1288612D01*
X1289584Y450869D01*
X1268515Y429800D01*
X1267835D01*
X1266181Y429115D01*
X1264915Y427849D01*
X1264230Y426195D01*
Y424405D01*
X1264915Y422751D01*
X1266181Y421485D01*
X1267835Y420800D01*
X1269625D01*
X1271279Y421485D01*
X1272545Y422751D01*
X1273230Y424405D01*
Y425085D01*
X1296821Y448676D01*
X1352440D01*
X1353716Y448930D01*
X1354798Y449652D01*
X1455635Y550490D01*
X1456315D01*
X1457969Y551175D01*
X1459235Y552441D01*
X1459920Y554095D01*
Y555885D01*
X1459235Y557539D01*
X1457969Y558805D01*
X1456315Y559490D01*
D02*
G37*
G36*
X1125220Y548130D02*
X1123950D01*
X1123491Y548070D01*
X1113450D01*
Y534070D01*
X1118160D01*
Y528320D01*
X1118220Y527861D01*
Y527398D01*
X1118340Y526951D01*
X1118400Y526493D01*
X1118577Y526065D01*
X1118697Y525618D01*
X1118929Y525217D01*
X1119106Y524790D01*
X1119387Y524423D01*
X1119619Y524022D01*
X1119946Y523695D01*
X1120228Y523328D01*
X1120595Y523046D01*
X1120922Y522719D01*
X1121323Y522487D01*
X1121690Y522206D01*
X1122117Y522029D01*
X1122518Y521797D01*
X1122965Y521677D01*
X1123393Y521500D01*
X1123851Y521440D01*
X1124298Y521320D01*
X1124761D01*
X1125220Y521260D01*
X1125679Y521320D01*
X1126142D01*
X1126589Y521440D01*
X1127047Y521500D01*
X1127475Y521677D01*
X1127922Y521797D01*
X1128323Y522029D01*
X1128750Y522206D01*
X1129117Y522487D01*
X1129518Y522719D01*
X1129845Y523046D01*
X1130212Y523328D01*
X1130494Y523695D01*
X1130821Y524022D01*
X1131053Y524423D01*
X1131335Y524790D01*
X1131512Y525217D01*
X1131743Y525618D01*
X1131863Y526065D01*
X1132040Y526493D01*
X1132100Y526951D01*
X1132220Y527398D01*
Y527861D01*
X1132280Y528320D01*
Y534070D01*
X1134450D01*
Y548070D01*
X1125679D01*
X1125220Y548130D01*
D02*
G37*
G36*
X1366520Y539850D02*
X1365250D01*
X1364791Y539790D01*
X1356020D01*
Y525790D01*
X1358190D01*
Y518160D01*
X1358250Y517701D01*
Y517238D01*
X1358370Y516791D01*
X1358430Y516333D01*
X1358607Y515905D01*
X1358727Y515458D01*
X1358958Y515057D01*
X1359135Y514630D01*
X1359417Y514263D01*
X1359649Y513862D01*
X1359976Y513535D01*
X1360258Y513168D01*
X1360625Y512886D01*
X1360952Y512559D01*
X1361353Y512327D01*
X1361720Y512046D01*
X1362147Y511869D01*
X1362548Y511637D01*
X1362995Y511517D01*
X1363423Y511340D01*
X1363881Y511280D01*
X1364328Y511160D01*
X1364791D01*
X1365250Y511100D01*
X1365709Y511160D01*
X1366172D01*
X1366619Y511280D01*
X1367077Y511340D01*
X1367505Y511517D01*
X1367952Y511637D01*
X1368353Y511869D01*
X1368780Y512046D01*
X1369147Y512327D01*
X1369548Y512559D01*
X1369875Y512886D01*
X1370242Y513168D01*
X1370524Y513535D01*
X1370851Y513862D01*
X1371083Y514263D01*
X1371364Y514630D01*
X1371541Y515057D01*
X1371773Y515458D01*
X1371893Y515905D01*
X1372070Y516333D01*
X1372130Y516791D01*
X1372250Y517238D01*
Y517701D01*
X1372310Y518160D01*
Y525790D01*
X1377020D01*
Y539790D01*
X1366979D01*
X1366520Y539850D01*
D02*
G37*
G36*
X1242060Y609040D02*
X1241601Y608980D01*
X1241138D01*
X1240691Y608860D01*
X1240233Y608800D01*
X1239805Y608623D01*
X1239358Y608503D01*
X1238957Y608271D01*
X1238530Y608094D01*
X1238163Y607813D01*
X1237762Y607581D01*
X1237435Y607254D01*
X1237068Y606972D01*
X1236786Y606605D01*
X1236459Y606278D01*
X1236227Y605877D01*
X1235946Y605510D01*
X1235769Y605083D01*
X1235537Y604682D01*
X1235417Y604235D01*
X1235240Y603807D01*
X1235180Y603349D01*
X1235060Y602902D01*
Y602439D01*
X1235000Y601980D01*
Y598820D01*
X1231560D01*
Y584820D01*
X1235000D01*
Y579820D01*
X1231560D01*
Y565820D01*
X1231693D01*
X1232745Y563280D01*
X1177566Y508100D01*
X1171228D01*
X1171102Y508173D01*
X1170655Y508293D01*
X1170227Y508470D01*
X1169769Y508530D01*
X1169322Y508650D01*
X1168859D01*
X1168400Y508710D01*
X1167941Y508650D01*
X1167478D01*
X1167031Y508530D01*
X1166573Y508470D01*
X1166145Y508293D01*
X1165698Y508173D01*
X1165297Y507942D01*
X1164870Y507765D01*
X1164503Y507483D01*
X1164102Y507251D01*
X1163775Y506924D01*
X1163408Y506642D01*
X1163126Y506275D01*
X1162799Y505948D01*
X1162567Y505547D01*
X1162286Y505180D01*
X1162109Y504753D01*
X1161877Y504352D01*
X1161757Y503905D01*
X1161580Y503477D01*
X1161520Y503019D01*
X1161400Y502572D01*
Y502109D01*
X1161340Y501650D01*
X1161400Y501191D01*
Y500728D01*
X1161520Y500281D01*
X1161580Y499823D01*
X1161757Y499395D01*
X1161877Y498948D01*
X1162109Y498547D01*
X1162286Y498120D01*
X1162567Y497753D01*
X1162799Y497352D01*
X1163126Y497025D01*
X1163408Y496658D01*
X1164018Y496048D01*
X1165480Y494925D01*
X1167183Y494220D01*
X1169010Y493980D01*
X1173430D01*
Y467360D01*
X1173490Y466901D01*
Y456860D01*
X1187490D01*
Y466901D01*
X1187550Y467360D01*
Y498116D01*
X1247052Y557618D01*
X1248175Y559080D01*
X1248880Y560783D01*
X1249120Y562610D01*
Y565820D01*
X1252560D01*
Y579820D01*
X1249120D01*
Y584820D01*
X1252560D01*
Y598820D01*
X1249120D01*
Y601980D01*
X1249060Y602439D01*
Y602902D01*
X1248940Y603349D01*
X1248880Y603807D01*
X1248703Y604235D01*
X1248583Y604682D01*
X1248352Y605083D01*
X1248175Y605510D01*
X1247893Y605877D01*
X1247661Y606278D01*
X1247334Y606605D01*
X1247052Y606972D01*
X1246685Y607254D01*
X1246358Y607581D01*
X1245957Y607813D01*
X1245590Y608094D01*
X1245163Y608271D01*
X1244762Y608503D01*
X1244315Y608623D01*
X1243887Y608800D01*
X1243429Y608860D01*
X1242982Y608980D01*
X1242519D01*
X1242060Y609040D01*
D02*
G37*
G36*
X901500Y510470D02*
X876500D01*
Y493770D01*
X901500D01*
Y495860D01*
X927100D01*
X927559Y495920D01*
X928022D01*
X928469Y496040D01*
X928927Y496100D01*
X929355Y496277D01*
X929802Y496397D01*
X930203Y496628D01*
X930630Y496805D01*
X930997Y497087D01*
X931398Y497319D01*
X931725Y497646D01*
X932092Y497928D01*
X932374Y498295D01*
X932701Y498622D01*
X932933Y499023D01*
X933214Y499390D01*
X933391Y499817D01*
X933623Y500218D01*
X933743Y500665D01*
X933920Y501093D01*
X933980Y501551D01*
X934100Y501998D01*
Y502461D01*
X934160Y502920D01*
X934100Y503379D01*
Y503842D01*
X933980Y504289D01*
X933920Y504747D01*
X933743Y505175D01*
X933623Y505622D01*
X933391Y506023D01*
X933214Y506450D01*
X932933Y506817D01*
X932701Y507218D01*
X932374Y507545D01*
X932092Y507912D01*
X931725Y508194D01*
X931398Y508521D01*
X930997Y508753D01*
X930630Y509035D01*
X930203Y509212D01*
X929802Y509443D01*
X929355Y509563D01*
X928927Y509740D01*
X928469Y509800D01*
X928022Y509920D01*
X927559D01*
X927100Y509980D01*
X901500D01*
Y510470D01*
D02*
G37*
G36*
X1267460Y609040D02*
X1267001Y608980D01*
X1266538D01*
X1266091Y608860D01*
X1265633Y608800D01*
X1265205Y608623D01*
X1264758Y608503D01*
X1264357Y608271D01*
X1263930Y608094D01*
X1263563Y607813D01*
X1263162Y607581D01*
X1262835Y607254D01*
X1262468Y606972D01*
X1262186Y606605D01*
X1261859Y606278D01*
X1261627Y605877D01*
X1261346Y605510D01*
X1261169Y605083D01*
X1260937Y604682D01*
X1260817Y604235D01*
X1260640Y603807D01*
X1260580Y603349D01*
X1260460Y602902D01*
Y602439D01*
X1260400Y601980D01*
X1260460Y601521D01*
Y601059D01*
X1259487Y599570D01*
X1259150Y599249D01*
X1258464Y598833D01*
X1258430Y598820D01*
X1258230D01*
Y584820D01*
X1261670D01*
Y579820D01*
X1258230D01*
Y565820D01*
X1261670D01*
Y510540D01*
X1261910Y508713D01*
X1262616Y507010D01*
X1263738Y505548D01*
X1272628Y496658D01*
X1282650Y486636D01*
Y476250D01*
X1282710Y475791D01*
Y465750D01*
X1296710D01*
Y475791D01*
X1296770Y476250D01*
Y489560D01*
X1296530Y491387D01*
X1295824Y493090D01*
X1294702Y494552D01*
X1282612Y506642D01*
X1275790Y513465D01*
Y565820D01*
X1279230D01*
Y579820D01*
X1275790D01*
Y584820D01*
X1279230D01*
Y598820D01*
X1275155D01*
Y601345D01*
X1274915Y603172D01*
X1274210Y604875D01*
X1273087Y606337D01*
X1272452Y606972D01*
X1272085Y607254D01*
X1271758Y607581D01*
X1271357Y607813D01*
X1270990Y608094D01*
X1270563Y608271D01*
X1270162Y608503D01*
X1269715Y608623D01*
X1269287Y608800D01*
X1268829Y608860D01*
X1268382Y608980D01*
X1267919D01*
X1267460Y609040D01*
D02*
G37*
G36*
X1206490Y477860D02*
X1192490D01*
Y467819D01*
X1192430Y467360D01*
Y464820D01*
X1192490Y464361D01*
Y456860D01*
X1206490D01*
Y457760D01*
X1214120D01*
X1214579Y457820D01*
X1215042D01*
X1215489Y457940D01*
X1215947Y458000D01*
X1216375Y458177D01*
X1216822Y458297D01*
X1217223Y458529D01*
X1217650Y458705D01*
X1218017Y458987D01*
X1218418Y459219D01*
X1218745Y459546D01*
X1219112Y459828D01*
X1219394Y460195D01*
X1219721Y460522D01*
X1219953Y460923D01*
X1220235Y461290D01*
X1220412Y461717D01*
X1220643Y462118D01*
X1220763Y462565D01*
X1220940Y462993D01*
X1221000Y463451D01*
X1221120Y463898D01*
Y464361D01*
X1221180Y464820D01*
X1221120Y465279D01*
Y465742D01*
X1221000Y466189D01*
X1220940Y466647D01*
X1220763Y467075D01*
X1220643Y467522D01*
X1220412Y467923D01*
X1220235Y468350D01*
X1219953Y468717D01*
X1219721Y469118D01*
X1219394Y469445D01*
X1219112Y469812D01*
X1218745Y470094D01*
X1218418Y470421D01*
X1218017Y470653D01*
X1217650Y470934D01*
X1217223Y471111D01*
X1216822Y471343D01*
X1216375Y471463D01*
X1215947Y471640D01*
X1215489Y471700D01*
X1215042Y471820D01*
X1214579D01*
X1214120Y471880D01*
X1206490D01*
Y477860D01*
D02*
G37*
G36*
X1031418Y1269570D02*
X1028522D01*
X1025724Y1268820D01*
X1023216Y1267372D01*
X1021168Y1265324D01*
X1019720Y1262816D01*
X1018970Y1260018D01*
Y1257122D01*
X1019720Y1254324D01*
X1020192Y1253507D01*
X1013643Y1246957D01*
X1012920Y1245876D01*
X1012666Y1244600D01*
Y1237470D01*
X1012185Y1236989D01*
X1011500Y1235335D01*
Y1233545D01*
X1012185Y1231891D01*
X1013451Y1230625D01*
X1015105Y1229940D01*
X1016895D01*
X1018549Y1230625D01*
X1019815Y1231891D01*
X1020500Y1233545D01*
Y1235335D01*
X1019815Y1236989D01*
X1019334Y1237470D01*
Y1243219D01*
X1024907Y1248792D01*
X1025724Y1248320D01*
X1028522Y1247570D01*
X1031418D01*
X1034216Y1248320D01*
X1036724Y1249768D01*
X1038772Y1251816D01*
X1040220Y1254324D01*
X1040970Y1257122D01*
Y1260018D01*
X1040220Y1262816D01*
X1038772Y1265324D01*
X1036724Y1267372D01*
X1034216Y1268820D01*
X1031418Y1269570D01*
D02*
G37*
G36*
X1006735Y1301170D02*
X1004945D01*
X1003291Y1300485D01*
X1002025Y1299219D01*
X1001340Y1297565D01*
Y1296325D01*
X998402Y1293388D01*
X997680Y1292306D01*
X997426Y1291030D01*
Y1246360D01*
X996945Y1245879D01*
X996260Y1244225D01*
Y1242435D01*
X996945Y1240781D01*
X998211Y1239515D01*
X999865Y1238830D01*
X1001655D01*
X1003309Y1239515D01*
X1004575Y1240781D01*
X1005260Y1242435D01*
Y1244225D01*
X1004575Y1245879D01*
X1004094Y1246360D01*
Y1289649D01*
X1006615Y1292170D01*
X1006735D01*
X1008389Y1292855D01*
X1009655Y1294121D01*
X1010340Y1295775D01*
Y1297565D01*
X1009655Y1299219D01*
X1008389Y1300485D01*
X1006735Y1301170D01*
D02*
G37*
G36*
X864495Y860200D02*
X862705D01*
X861051Y859515D01*
X860319Y858783D01*
X860305Y858780D01*
X859224Y858058D01*
X858590Y857424D01*
X851550D01*
X850274Y857170D01*
X849193Y856448D01*
X846295Y853550D01*
X835320D01*
Y835550D01*
X835320D01*
Y833110D01*
X835320D01*
Y819110D01*
X856320D01*
Y822776D01*
X862630D01*
X863906Y823030D01*
X864987Y823753D01*
X866395Y825160D01*
X875680D01*
Y846160D01*
X861680D01*
Y829875D01*
X861249Y829444D01*
X856320D01*
Y833110D01*
X856320D01*
Y835550D01*
X856320D01*
Y850756D01*
X859971D01*
X861247Y851010D01*
X861981Y851500D01*
X862705Y851200D01*
X864495D01*
X866149Y851885D01*
X867415Y853151D01*
X868100Y854805D01*
Y856595D01*
X867415Y858249D01*
X866149Y859515D01*
X864495Y860200D01*
D02*
G37*
G36*
X887355Y863020D02*
X885565D01*
X883911Y862335D01*
X882645Y861069D01*
X881960Y859415D01*
Y857625D01*
X882645Y855971D01*
X883126Y855490D01*
Y846160D01*
X880680D01*
Y825160D01*
X894680D01*
Y846160D01*
X889794D01*
Y855490D01*
X890275Y855971D01*
X890960Y857625D01*
Y859415D01*
X890275Y861069D01*
X889009Y862335D01*
X887355Y863020D01*
D02*
G37*
G36*
X805180Y562050D02*
X804721Y561990D01*
X804258D01*
X803811Y561870D01*
X803353Y561810D01*
X802925Y561633D01*
X802478Y561513D01*
X802077Y561282D01*
X801650Y561105D01*
X801283Y560823D01*
X800882Y560591D01*
X800555Y560264D01*
X800188Y559982D01*
X799906Y559615D01*
X799579Y559288D01*
X799347Y558887D01*
X799065Y558520D01*
X798888Y558093D01*
X798657Y557692D01*
X798537Y557245D01*
X798360Y556817D01*
X798300Y556359D01*
X798180Y555912D01*
Y555449D01*
X798120Y554990D01*
Y548100D01*
X792680D01*
Y531400D01*
X817680D01*
Y548100D01*
X812240D01*
Y554990D01*
X812180Y555449D01*
Y555912D01*
X812060Y556359D01*
X812000Y556817D01*
X811823Y557245D01*
X811703Y557692D01*
X811471Y558093D01*
X811294Y558520D01*
X811013Y558887D01*
X810781Y559288D01*
X810454Y559615D01*
X810172Y559982D01*
X809805Y560264D01*
X809478Y560591D01*
X809077Y560823D01*
X808710Y561105D01*
X808283Y561282D01*
X807882Y561513D01*
X807435Y561633D01*
X807007Y561810D01*
X806549Y561870D01*
X806102Y561990D01*
X805639D01*
X805180Y562050D01*
D02*
G37*
G36*
X657240Y852510D02*
X643240D01*
Y831510D01*
X657240D01*
Y836152D01*
X660400D01*
X660843Y836240D01*
X661295D01*
X661713Y836413D01*
X662156Y836501D01*
X662532Y836752D01*
X662949Y836925D01*
X663269Y837245D01*
X663644Y837496D01*
X663895Y837871D01*
X664215Y838191D01*
X664388Y838608D01*
X664639Y838984D01*
X664727Y839427D01*
X664900Y839845D01*
Y840297D01*
X664988Y840740D01*
X664900Y841183D01*
Y841635D01*
X664727Y842053D01*
X664639Y842496D01*
X664388Y842872D01*
X664215Y843289D01*
X663895Y843608D01*
X663644Y843984D01*
X663269Y844235D01*
X662949Y844555D01*
X662532Y844728D01*
X662156Y844979D01*
X661713Y845067D01*
X661295Y845240D01*
X660843D01*
X660400Y845328D01*
X657240D01*
Y852510D01*
D02*
G37*
G36*
X550760Y481235D02*
X547780D01*
X544858Y480654D01*
X542106Y479514D01*
X539628Y477858D01*
X537522Y475752D01*
X535866Y473274D01*
X534726Y470522D01*
X534145Y467600D01*
Y464620D01*
X534726Y461698D01*
X535866Y458946D01*
X537522Y456468D01*
X539628Y454362D01*
X542106Y452706D01*
X544858Y451566D01*
X547780Y450985D01*
X550760D01*
X553682Y451566D01*
X556434Y452706D01*
X558912Y454362D01*
X561018Y456468D01*
X562674Y458946D01*
X563814Y461698D01*
X564395Y464620D01*
Y467600D01*
X563814Y470522D01*
X562674Y473274D01*
X561018Y475752D01*
X558912Y477858D01*
X556434Y479514D01*
X553682Y480654D01*
X550760Y481235D01*
D02*
G37*
%LPD*%
D10*
X1102360Y1313180D02*
X1104707Y1313647D01*
X1106696Y1314976D01*
X1106696D02*
X1111250Y1319530D01*
X1049313Y1134740D02*
X1083970D01*
X1044863Y1139190D02*
X1049313Y1134740D01*
X1010748Y1139190D02*
X1044863D01*
X877708Y1272230D02*
X1010748Y1139190D01*
X1007659Y1149350D02*
X1052830D01*
X1003300Y1160780D02*
X1055370D01*
X1043834Y1216660D02*
X1065269Y1195225D01*
X1071497Y1068453D02*
X1071880Y1068070D01*
X1065552Y1068453D02*
X1071497D01*
X883920Y1258570D02*
X1065530Y1076960D01*
X976488Y1157517D02*
X1065552Y1068453D01*
X976488Y1157517D02*
Y1158931D01*
X919480Y1306830D02*
X1009650Y1216660D01*
X1043834D01*
X919480Y1306830D02*
Y1323340D01*
X859790Y1304290D02*
X868680D01*
X941678Y1222402D02*
Y1231292D01*
X868680Y1304290D02*
X941678Y1231292D01*
X839470Y1324610D02*
X859790Y1304290D01*
X879779Y1277230D02*
X1007659Y1149350D01*
X819410Y1277230D02*
X879779D01*
X941678Y1222402D02*
X1003300Y1160780D01*
X808030Y1272230D02*
X877708D01*
X814070Y1258570D02*
X883920D01*
X811530Y1247140D02*
X888279D01*
X976488Y1158931D01*
X756920Y1323340D02*
X808030Y1272230D01*
X801370Y1295270D02*
X819410Y1277230D01*
X801370Y1295270D02*
Y1322070D01*
X671971Y1337310D02*
X681990D01*
X669431Y1334770D02*
X671971Y1337310D01*
X669290Y1334770D02*
X669431D01*
X923830Y1339540D02*
Y1340580D01*
X920330Y1336040D02*
X923830Y1339540D01*
X914400Y1336040D02*
X920330D01*
X760730D02*
X762000Y1337310D01*
X750570Y1336040D02*
X760730D01*
X830580Y1338580D02*
X843280D01*
D12*
X1017073Y690880D02*
X1018540D01*
X1014730Y693223D02*
X1017073Y690880D01*
X1014730Y693223D02*
Y712470D01*
X1017270Y715010D01*
X1014414Y681990D02*
X1023304Y673100D01*
X1024890D01*
X979170Y681990D02*
X1014414D01*
D13*
X1362050Y1121410D02*
X1385164D01*
X1401242Y1105332D01*
X1349436Y1083884D02*
X1350010Y1083310D01*
X1343710Y1091240D02*
Y1094740D01*
Y1091240D02*
X1349436Y1085514D01*
Y1083884D02*
Y1085514D01*
X1343660Y1061480D02*
X1355860D01*
X1358640Y1064260D01*
X1358900D01*
X1296060Y979170D02*
Y991260D01*
D15*
X1019067Y1391394D02*
X1019067Y1391394D01*
X1040642Y1391626D02*
X1039137Y1393726D01*
X1037226Y1395464D01*
X1034994Y1396764D01*
X1032539Y1397568D01*
X1029970Y1397840D01*
X1027401Y1397568D01*
X1024946Y1396764D01*
X1022714Y1395464D01*
X1020803Y1393726D01*
X1019298Y1391626D01*
X1040873Y1391394D02*
X1040873Y1391394D01*
X1020346Y1189454D02*
X1067660D01*
X994990Y1211580D02*
X995297Y1211273D01*
X998527D01*
X1020346Y1189454D01*
X1000760Y1243330D02*
Y1291030D01*
X1005840Y1296110D02*
Y1296670D01*
X1000760Y1291030D02*
X1005840Y1296110D01*
X924775Y1371385D02*
X934720Y1361440D01*
X972820D02*
X1011760Y1322500D01*
X934720Y1361440D02*
X972820D01*
X988166Y1366520D02*
X1006786Y1347900D01*
X927055Y1380340D02*
X940874Y1366520D01*
X988166D01*
X1268730Y425300D02*
X1295440Y452010D01*
X1352440D01*
X1455420Y554990D01*
X1250950Y422910D02*
X1284590Y456550D01*
X1348090D01*
X1437640Y546100D01*
X1017579Y651777D02*
X1019810Y649546D01*
X1015924Y651777D02*
X1017579D01*
X1012855Y654180D02*
X1013521D01*
X1015924Y651777D01*
X839420Y1064260D02*
X861010Y1042670D01*
X915272D02*
X945752Y1073150D01*
X861010Y1042670D02*
X915272D01*
X561790Y755444D02*
Y858970D01*
X509391Y703045D02*
X561790Y755444D01*
X509270Y686110D02*
X509391Y686231D01*
Y703045D01*
X882092Y476250D02*
X1007110D01*
X1117600Y586740D02*
Y659130D01*
X1007110Y476250D02*
X1117600Y586740D01*
X1415440Y1313180D02*
X1416050Y1312570D01*
X1400810Y1313180D02*
X1415440D01*
X1381997D02*
X1382607Y1312570D01*
X1366520Y1313180D02*
X1381997D01*
X1348553D02*
X1349163Y1312570D01*
X1332230Y1313180D02*
X1348553D01*
X1292860Y1309370D02*
X1293331Y1309841D01*
X1299076D02*
X1301806Y1312570D01*
X1293331Y1309841D02*
X1299076D01*
X1301806Y1312570D02*
X1315720D01*
X1379220Y1096010D02*
X1414114D01*
X1417924Y1099820D01*
X1418590D01*
X1291411Y1092671D02*
Y1094410D01*
X1290940Y1092200D02*
X1291411Y1092671D01*
X1276961Y1098496D02*
X1290416D01*
X1276961Y1103064D02*
X1292309D01*
X1296724Y1094081D02*
Y1098649D01*
X1290416Y1098496D02*
X1291904Y1097008D01*
X1292309Y1103064D02*
X1296724Y1098649D01*
X1291904Y1094904D02*
Y1097008D01*
X1291411Y1094410D02*
X1291904Y1094904D01*
X1275746Y1097280D02*
X1276961Y1098496D01*
X1275746Y1104280D02*
X1276961Y1103064D01*
X1275080Y1097280D02*
X1275746D01*
X1275080Y1104280D02*
X1275746D01*
X1249042Y1104268D02*
X1250950Y1102360D01*
X1238363Y1104268D02*
X1249042D01*
X1239049Y765048D02*
Y1031711D01*
X1085850Y909893D02*
Y928370D01*
Y909893D02*
X1242633Y753110D01*
X1238952Y764951D02*
X1239049Y765048D01*
X1242633Y753110D02*
X1381760D01*
X1231900Y776630D02*
X1232371Y777101D01*
Y778840D02*
X1232590Y779059D01*
Y1030550D01*
X1232371Y777101D02*
Y778840D01*
X1077630Y909920D02*
X1250950Y736600D01*
X1362710D01*
X1077630Y909920D02*
Y1014430D01*
X1006650Y793290D02*
Y801980D01*
X963930Y723900D02*
X1049020Y808990D01*
X1055370D01*
X958850Y732790D02*
X1050290Y824230D01*
X1056640D01*
X1205230Y845820D02*
X1210310Y840740D01*
X1205230Y845820D02*
Y901700D01*
X1224280Y810260D02*
Y909924D01*
X1226820Y912464D01*
Y913130D01*
X1267460Y759460D02*
Y1045210D01*
X1205230Y901700D02*
X1224280Y920750D01*
X1063609Y1015216D02*
X1134110Y1085716D01*
Y1156970D01*
X1072167Y1187541D02*
X1082235Y1197610D01*
X1008513Y1183507D02*
X1068338D01*
X1072167Y1187336D01*
Y1187541D01*
X1067660Y1189454D02*
X1084705Y1206500D01*
X1082235Y1197610D02*
X1135380D01*
X1084705Y1206500D02*
X1137920D01*
X1029970Y1130300D02*
X1059180Y1101090D01*
X1077630Y1014430D02*
X1087430Y1024230D01*
X874795Y952510D02*
X913765Y991480D01*
X854180Y952510D02*
X874795D01*
X826444Y924774D02*
X854180Y952510D01*
X1012775Y953114D02*
Y1010840D01*
X1024545Y947765D02*
Y1004486D01*
X1012775Y953114D02*
X1112520Y853370D01*
Y683260D02*
Y853370D01*
X1012775Y1010840D02*
X1017150Y1015216D01*
X1024545Y947765D02*
X1245870Y726440D01*
X1017150Y1015216D02*
X1063609D01*
X1090930Y1024230D02*
Y1033780D01*
X1087712Y1053220D02*
X1128123Y1093632D01*
X1018479Y1062560D02*
X1023279Y1057760D01*
X1021398Y1053220D02*
X1087712D01*
X1074460Y1062300D02*
X1113250Y1101090D01*
X1036868Y1085850D02*
X1060418Y1062300D01*
X1023279Y1057760D02*
X1078080D01*
X1016598Y1058020D02*
X1021398Y1053220D01*
X1060418Y1062300D02*
X1074460D01*
X1078080Y1057760D02*
X1085850Y1065530D01*
X959156Y1058020D02*
X1016598D01*
X1178728Y1126322D02*
X1186348D01*
X1267460Y1045210D01*
X1258570Y763270D02*
Y1035050D01*
X1192156Y1101464D02*
Y1110876D01*
Y1101464D02*
X1258570Y1035050D01*
X1178560Y1101090D02*
X1248410Y1031240D01*
Y763270D02*
Y1031240D01*
X1178560Y1101090D02*
Y1116312D01*
X1163320Y1099820D02*
Y1129570D01*
Y1099820D02*
X1232590Y1030550D01*
X1172790Y1097970D02*
X1239049Y1031711D01*
X1172790Y1097970D02*
Y1130880D01*
X1029970Y1283970D02*
X1060450Y1253490D01*
X1127582D01*
X1130122Y1250950D01*
X1130300D01*
X1163320Y1225550D02*
X1193800D01*
X1202690Y1216660D01*
X1095344Y859790D02*
X1096309Y860755D01*
X1024890Y1004831D02*
Y1009446D01*
X1096309Y860755D02*
X1096975D01*
X1113250Y1101090D02*
X1122680D01*
X1019810Y629690D02*
Y649546D01*
X1046480Y647310D02*
Y647700D01*
X1042670Y643500D02*
X1046480Y647310D01*
X1014080Y664830D02*
X1028316D01*
X1046746Y683260D01*
X911830Y562580D02*
X1014080Y664830D01*
X1046746Y683260D02*
X1112520D01*
X509270Y486110D02*
X529590Y506430D01*
Y549616D02*
X545149Y565175D01*
X529590Y506430D02*
Y549616D01*
X513807Y530647D02*
Y540253D01*
X509270Y526110D02*
X513807Y530647D01*
Y540253D02*
X543268Y569715D01*
X739140Y488950D02*
X765110Y462980D01*
X698500Y488950D02*
X739140D01*
X868822Y462980D02*
X882092Y476250D01*
X765110Y462980D02*
X868822D01*
X649574Y445542D02*
X715238D01*
X724340Y436440D01*
X1097054D01*
X1059784Y430670D02*
X1060450D01*
X1058374Y429260D02*
X1059784Y430670D01*
X667033Y429260D02*
X1058374D01*
X1097054Y436440D02*
X1101164Y432330D01*
X1101830D01*
X656992Y439301D02*
X667033Y429260D01*
X864895Y562580D02*
X911830D01*
X800975Y714900D02*
X846980D01*
X864870Y732790D02*
X958850D01*
X846980Y714900D02*
X864870Y732790D01*
X824280Y757230D02*
X837290Y744220D01*
X957580D02*
X1006650Y793290D01*
X837290Y744220D02*
X957580D01*
X874094Y723900D02*
X963930D01*
X860554Y710360D02*
X874094Y723900D01*
X1132840Y975360D02*
Y1012490D01*
X1085850Y928370D02*
X1132840Y975360D01*
X1121100Y1024230D02*
X1132840Y1012490D01*
X1409700Y689610D02*
X1440180D01*
X1362710Y736600D02*
X1409700Y689610D01*
X1418590Y716280D02*
X1441450D01*
X1381760Y753110D02*
X1418590Y716280D01*
X1245870Y726440D02*
X1334770D01*
X1395730Y665480D01*
X1203077Y1162437D02*
X1224280Y1183640D01*
X1203077Y1151767D02*
Y1162437D01*
X1163320Y1129570D02*
X1177549Y1143799D01*
X1156970Y1092200D02*
Y1129641D01*
Y1092200D02*
X1165860Y1083310D01*
X1156970Y1129641D02*
X1236369Y1209040D01*
X1146810Y1088145D02*
X1162630Y1072326D01*
X1146810Y1088145D02*
Y1129030D01*
X1283970Y1266190D01*
X1162630Y1071929D02*
Y1072326D01*
X1258570Y1209040D02*
X1314450Y1264920D01*
X1236369Y1209040D02*
X1258570D01*
X1259840Y1183640D02*
X1339850Y1263650D01*
X1224280Y1183640D02*
X1259840D01*
X1212000Y1160690D02*
X1282610D01*
X1363980Y1242060D01*
Y1263650D01*
X1189990Y1211580D02*
X1200150Y1201420D01*
X1179140Y1211580D02*
X1189990D01*
X1075810Y1326840D02*
X1082040Y1320610D01*
X1069631Y1262706D02*
X1082040Y1275116D01*
Y1320610D01*
X537210Y1182370D02*
X558800D01*
X579120Y1162050D02*
X615950D01*
X558800Y1182370D02*
X579120Y1162050D01*
X512037Y1207543D02*
X537210Y1182370D01*
X512037Y1207543D02*
Y1220223D01*
X509270Y1222990D02*
X512037Y1220223D01*
X615950Y1162050D02*
X629920Y1148080D01*
X635440Y1194090D02*
Y1207330D01*
X600710Y1242060D02*
X635440Y1207330D01*
X584200Y1242060D02*
X600710D01*
X563270Y1262990D02*
X584200Y1242060D01*
X509270Y1262990D02*
X563270D01*
X509270Y1342990D02*
Y1348740D01*
X545410Y1384880D02*
X937950D01*
X509270Y1348740D02*
X545410Y1384880D01*
X986790Y1205230D02*
X1008513Y1183507D01*
X789109Y1198120D02*
X925860D01*
X778290Y1189040D02*
X780030D01*
X789109Y1198120D01*
X573350Y984100D02*
X778290Y1189040D01*
X778149Y1193580D02*
X816311Y1231742D01*
X925860Y1198120D02*
X933085Y1190895D01*
X750880Y1193580D02*
X778149D01*
X573350Y980416D02*
Y984100D01*
X816311Y1231742D02*
X895192D01*
X570230Y976630D02*
Y977296D01*
X573350Y980416D01*
X803329Y1189040D02*
X807869Y1193580D01*
X922240D01*
X933450Y1182370D01*
X786450Y1189040D02*
X803329D01*
X579120Y981710D02*
X786450Y1189040D01*
X561790Y858970D02*
X589280Y886460D01*
X572875Y702505D02*
Y858359D01*
X597381Y882962D02*
Y883628D01*
X596280Y881862D02*
X597381Y882962D01*
X596280Y881765D02*
Y881862D01*
X572875Y858359D02*
X596280Y881765D01*
X777240Y585470D02*
X842005D01*
X864895Y562580D01*
X1016000Y1234440D02*
Y1244600D01*
X572875Y702505D02*
X589270Y686110D01*
X1201296Y950083D02*
X1201420Y949960D01*
Y941070D02*
Y949960D01*
X1207770Y939260D02*
Y947420D01*
X1186030Y917520D02*
X1207770Y939260D01*
X1184886Y917520D02*
X1186030D01*
X1182370Y915670D02*
X1183036D01*
X1184886Y917520D01*
X918210Y800100D02*
X970280Y852170D01*
X1097280D01*
X843280Y760730D02*
Y776650D01*
X910590Y807720D02*
X962660Y859790D01*
X1183640Y923290D02*
X1201420Y941070D01*
X962660Y859790D02*
X1095344D01*
X802856Y710360D02*
X860554D01*
X766158Y673662D02*
X802856Y710360D01*
X766158Y660858D02*
Y673662D01*
X742800Y637500D02*
X766158Y660858D01*
X742306Y637500D02*
X742800D01*
X741076Y636270D02*
X742306Y637500D01*
X740410Y636270D02*
X741076D01*
X740410Y643270D02*
Y654335D01*
X800975Y714900D01*
X545149Y565175D02*
X561940D01*
X579270Y582505D01*
X597490D02*
X604685Y575310D01*
X560060Y569715D02*
X577389Y587045D01*
X579270Y582505D02*
X597490D01*
X543268Y569715D02*
X560060D01*
X610592Y587045D02*
X611474Y586163D01*
X612140D01*
X604685Y575310D02*
X623570D01*
X577389Y587045D02*
X610592D01*
X1281430Y880110D02*
X1314450D01*
X1351280Y843280D01*
X646194Y435721D02*
X646430Y435485D01*
X646194Y435721D02*
Y442162D01*
X649574Y445542D01*
X651964Y439772D02*
X652435Y439301D01*
X656992D01*
X655523Y532869D02*
X656324D01*
X668670Y545215D01*
Y555070D01*
X599440Y624300D02*
X668670Y555070D01*
X655052Y532398D02*
X655523Y532869D01*
X599440Y624300D02*
Y624840D01*
X1112520Y683260D02*
X1221740D01*
X1230630Y674370D01*
X698226Y489224D02*
X698500Y488950D01*
X1178560Y1126490D02*
X1178728Y1126322D01*
X1177549Y1143799D02*
X1182389D01*
X1182860Y1144270D01*
X1172790Y1130880D02*
X1178560Y1136650D01*
X845820Y848360D02*
X851550Y854090D01*
X859971D01*
X861581Y855700D01*
X863600D01*
X886460Y836880D02*
Y858520D01*
X1176020Y967740D02*
X1177290D01*
X1127760Y919480D02*
X1176020Y967740D01*
X1126490Y919480D02*
X1127760D01*
X824280Y757230D02*
Y760730D01*
X1106170Y915670D02*
X1167130Y976630D01*
X1097280Y915670D02*
X1106170D01*
X868680Y832160D02*
Y835660D01*
X845820Y826110D02*
X862630D01*
X845820D02*
Y848360D01*
X862630Y826110D02*
X868680Y832160D01*
X1395730Y665480D02*
X1441450D01*
X566084Y646110D02*
X589264Y669290D01*
X664210D01*
X509270Y646110D02*
X566084D01*
X662469Y569431D02*
Y572911D01*
Y569431D02*
X662940Y568960D01*
X945752Y1073150D02*
X1040130D01*
X845820Y979780D02*
X895645D01*
X909225Y993361D01*
X957275Y1062560D02*
X1018479D01*
X909225Y1014510D02*
X957275Y1062560D01*
X913765Y1012629D02*
X959156Y1058020D01*
X913765Y991480D02*
Y1012629D01*
X909225Y993361D02*
Y1014510D01*
X826444Y917834D02*
Y924774D01*
X823010Y914400D02*
X826444Y917834D01*
X839840Y1283600D02*
X877200D01*
X877570Y1283970D01*
X839470Y1283230D02*
X839840Y1283600D01*
X821040Y1296050D02*
X826770Y1290320D01*
X810276Y1296050D02*
X821040D01*
X809656Y1296670D02*
X810276Y1296050D01*
X808990Y1296670D02*
X809656D01*
X759460Y1278890D02*
X791814D01*
X762000Y1235710D02*
X792520Y1266230D01*
X748030Y1235710D02*
X762000D01*
X792520Y1266230D02*
X868680D01*
X687070Y1277620D02*
X757524D01*
X687577Y1256537D02*
X701040Y1270000D01*
X715093Y1219283D02*
X754380Y1258570D01*
X767080D01*
X727980Y1223344D02*
Y1224010D01*
X726440Y1221804D02*
X727980Y1223344D01*
X715093Y1205827D02*
Y1219283D01*
X726440Y1213003D02*
Y1221804D01*
Y1213003D02*
X726863Y1212580D01*
X589270Y646110D02*
X662469Y572911D01*
X886460Y836880D02*
X887680Y835660D01*
X842010Y914400D02*
Y928974D01*
X840740Y930244D02*
X842010Y928974D01*
X840740Y930244D02*
Y930910D01*
X889610Y991870D02*
Y1003294D01*
X887730Y1005174D02*
X889610Y1003294D01*
X887730Y1005174D02*
Y1005840D01*
X820420Y1064260D02*
Y1080770D01*
X1040130Y701040D02*
Y715010D01*
Y701040D02*
X1047750Y693420D01*
X1060724Y629120D02*
X1084580D01*
X1051024Y619420D02*
X1060724Y629120D01*
X1030080Y619420D02*
X1051024D01*
X1019810Y629690D02*
X1030080Y619420D01*
X1042670Y631190D02*
Y643500D01*
X796290Y1051560D02*
X830220D01*
X839420Y1060760D01*
Y1064260D01*
X796290Y1051560D02*
Y1074470D01*
X845820Y1002030D02*
X863950D01*
X870610Y995370D01*
Y991870D02*
Y995370D01*
X845820Y979780D02*
Y1002030D01*
X798830Y906780D02*
X818890D01*
X823010Y910900D01*
Y914400D01*
X798830Y906780D02*
Y928420D01*
X1050508Y1381760D02*
X1278890D01*
X1285240Y1375410D01*
X1040873Y1391394D02*
X1050508Y1381760D01*
X1056530Y1322500D02*
X1094200Y1360170D01*
X1225610D01*
X1244230Y1341550D01*
X1155229Y1352079D02*
X1155700Y1352550D01*
X1143960Y1341610D02*
X1154429Y1352079D01*
X1155229D01*
X1047266Y1347900D02*
X1065886Y1366520D01*
X1254582Y1363980D02*
X1254760D01*
X1252042Y1366520D02*
X1254582Y1363980D01*
X1065886Y1366520D02*
X1252042D01*
X1011760Y1322500D02*
X1056530D01*
X937950Y1384880D02*
X949960Y1372870D01*
X1270000D01*
X563665Y1371385D02*
X924775D01*
X606435Y1380340D02*
X927055D01*
X603250Y1377155D02*
X606435Y1380340D01*
X1018323Y1390650D02*
X1019067Y1391394D01*
X1019067Y1391394D02*
X1019298Y1391626D01*
X1040642Y1391626D02*
X1040873Y1391394D01*
X664210Y1390650D02*
X1018323D01*
X549270Y1356990D02*
X563665Y1371385D01*
X549270Y1322990D02*
Y1356990D01*
X1069030Y1326840D02*
X1075810D01*
X1064260Y1322070D02*
X1069030Y1326840D01*
X1062990Y1310640D02*
X1073420Y1321070D01*
X1062990Y1264920D02*
Y1310640D01*
X1022350Y1085850D02*
X1036868D01*
X1016000Y1244600D02*
X1029970Y1258570D01*
X1081880Y1098390D02*
Y1106270D01*
X1006786Y1347900D02*
X1047266D01*
X828270Y1290320D02*
X834000Y1284590D01*
X837444D01*
X826770Y1290320D02*
X828270D01*
X905510Y1291590D02*
X907010D01*
X919239Y1279361D01*
X920279D01*
X920750Y1278890D01*
X745490Y1289050D02*
X746990D01*
X756679Y1279361D01*
X665480Y1290320D02*
X666980D01*
X679680Y1277620D01*
X687070D01*
X718470Y1161170D02*
X750880Y1193580D01*
X661280Y1161170D02*
X718470D01*
X609600Y1212850D02*
X661280Y1161170D01*
X663820Y1165710D02*
X695493D01*
X635440Y1194090D02*
X663820Y1165710D01*
X695493D02*
X723363Y1193580D01*
X726863D01*
X675640Y1176020D02*
Y1189850D01*
X678030Y1170250D02*
X692117Y1184337D01*
X655320Y1182370D02*
X667440Y1170250D01*
X678030D01*
X695847Y1193580D02*
X699347D01*
X692117Y1189850D02*
X695847Y1193580D01*
X692117Y1184337D02*
Y1189850D01*
X671910Y1193580D02*
X675330D01*
X671830D02*
X671910D01*
X675640Y1189850D01*
X549270Y1239804D02*
Y1242990D01*
Y1239804D02*
X589689Y1199385D01*
X601475D01*
X665480Y1135380D01*
X589270Y1222990D02*
X671800Y1140460D01*
X693420D01*
X726863Y1193580D02*
X730363D01*
X741062Y1204278D01*
Y1228742D01*
X748030Y1235710D01*
X754380Y1212580D02*
Y1225550D01*
X754380Y1212580D02*
X754380Y1212580D01*
X699347Y1193580D02*
X702847D01*
X715093Y1205827D01*
X675330Y1193580D02*
X687577Y1205827D01*
Y1256537D01*
X699347Y1212580D02*
X699770Y1213003D01*
Y1225550D01*
X671830Y1212580D02*
X674370Y1215120D01*
Y1225550D01*
X1191260Y1308100D02*
X1206500Y1292860D01*
Y1235710D02*
Y1292860D01*
X1140460Y1341610D02*
X1143960D01*
X1172130D02*
X1173480D01*
X1168400Y1345340D02*
X1172130Y1341610D01*
X1168400Y1345340D02*
Y1351280D01*
X1206500Y1341610D02*
X1207850D01*
X1211580Y1345340D01*
Y1351280D01*
X1404380Y862330D02*
X1405890Y860820D01*
Y849630D02*
Y860820D01*
X1120679Y1024230D02*
X1121100D01*
X1117600D02*
X1120679D01*
X1440180Y689610D02*
X1441450Y690880D01*
X1087430Y1024230D02*
X1090930D01*
X1125220Y1033114D02*
Y1033780D01*
X1120679Y1024230D02*
X1124409Y1027960D01*
Y1032303D01*
X1125220Y1033114D01*
X969010Y1014730D02*
Y1024890D01*
X970414Y1023486D02*
X1024545D01*
X969010Y1024890D02*
X970414Y1023486D01*
X1024545D02*
X1053755D01*
X1024545Y1004486D02*
X1024890Y1004831D01*
X1296060Y991260D02*
X1306256Y1001456D01*
X1322766D01*
X1323340Y1002030D01*
D40*
X704850Y1337310D02*
D03*
X681990D02*
D03*
X784860D02*
D03*
X762000D02*
D03*
X948690Y1338580D02*
D03*
X925830D02*
D03*
X866140D02*
D03*
X843280D02*
D03*
X1017270Y715010D02*
D03*
X1040130D02*
D03*
X1019810Y631190D02*
D03*
X1042670D02*
D03*
X1367790Y1003300D02*
D03*
X1344930D02*
D03*
X1174750Y1196340D02*
D03*
X1151890D02*
D03*
D41*
X1242060Y572820D02*
D03*
Y591820D02*
D03*
X1268730Y572820D02*
D03*
Y591820D02*
D03*
X1366520Y551790D02*
D03*
Y532790D02*
D03*
X1123950Y560070D02*
D03*
Y541070D02*
D03*
X671830Y1193580D02*
D03*
Y1212580D02*
D03*
X699347Y1193580D02*
D03*
Y1212580D02*
D03*
X726863Y1193580D02*
D03*
Y1212580D02*
D03*
X754380Y1193580D02*
D03*
Y1212580D02*
D03*
X796290Y1074470D02*
D03*
Y1093470D02*
D03*
X801370Y769620D02*
D03*
Y788620D02*
D03*
X845820Y826110D02*
D03*
Y807110D02*
D03*
Y979780D02*
D03*
Y960780D02*
D03*
X798830Y928420D02*
D03*
Y947420D02*
D03*
X1206500Y1341610D02*
D03*
Y1322610D02*
D03*
X1140460Y1341610D02*
D03*
Y1322610D02*
D03*
X1173480Y1341610D02*
D03*
Y1322610D02*
D03*
X1382607Y1331570D02*
D03*
Y1312570D02*
D03*
X1349163Y1331570D02*
D03*
Y1312570D02*
D03*
X1315720Y1331570D02*
D03*
Y1312570D02*
D03*
X1416050Y1331570D02*
D03*
Y1312570D02*
D03*
X1024545Y1023486D02*
D03*
Y1004486D02*
D03*
X1053755Y1023486D02*
D03*
Y1004486D02*
D03*
X1090930Y1024230D02*
D03*
Y1005230D02*
D03*
X1117600D02*
D03*
Y1024230D02*
D03*
D47*
X845820Y1026160D02*
D03*
Y1003300D02*
D03*
Y867410D02*
D03*
Y844550D02*
D03*
X1111250Y1319530D02*
D03*
Y1342390D02*
D03*
X979170Y659130D02*
D03*
Y681990D02*
D03*
X697230Y923290D02*
D03*
Y900430D02*
D03*
Y947420D02*
D03*
Y970280D02*
D03*
X905510Y1314450D02*
D03*
Y1291590D02*
D03*
X745490Y1311910D02*
D03*
Y1289050D02*
D03*
X665480Y1313180D02*
D03*
Y1290320D02*
D03*
X826770Y1313180D02*
D03*
Y1290320D02*
D03*
X796290Y1028700D02*
D03*
Y1051560D02*
D03*
X801370Y725170D02*
D03*
Y748030D02*
D03*
X798830Y883920D02*
D03*
Y906780D02*
D03*
X1150620Y1005840D02*
D03*
Y1028700D02*
D03*
X1176020D02*
D03*
Y1005840D02*
D03*
X969010Y1047750D02*
D03*
Y1024890D02*
D03*
X1111250Y1181100D02*
D03*
Y1158240D02*
D03*
X1085850Y1181100D02*
D03*
Y1158240D02*
D03*
X1080770Y1097280D02*
D03*
Y1120140D02*
D03*
X1250950Y1125220D02*
D03*
Y1102360D02*
D03*
D98*
X1137567Y1322610D02*
X1136236Y1323005D01*
X1126093Y1329491D02*
X1124399Y1331763D01*
X1121943Y1333177D01*
X1118070Y1335570D02*
X1119869Y1334150D01*
X1121943Y1333177D01*
X1113513Y1340390D02*
X1114500Y1339140D01*
X1130906Y1324712D02*
X1133518Y1323694D01*
X1136236Y1323005D01*
X1126093Y1329491D02*
X1127312Y1327539D01*
X1128945Y1325917D01*
X1130906Y1324712D01*
X1126129Y1181100D02*
X1128619Y1181222D01*
X1131084Y1181588D01*
X1133502Y1182194D01*
X1135849Y1183033D01*
X1138102Y1184099D01*
X1140240Y1185381D01*
X1142243Y1186865D01*
X1144090Y1188540D01*
X763270Y815648D02*
X763393Y813148D01*
X763761Y810672D01*
X764371Y808244D01*
X765216Y805888D01*
X766289Y803627D01*
X767579Y801482D01*
X769073Y799473D01*
X770758Y797622D01*
X770710Y934539D02*
X769035Y932692D01*
X767551Y930690D01*
X766269Y928552D01*
X765203Y926299D01*
X764364Y923952D01*
X763758Y921534D01*
X763392Y919069D01*
X763270Y916579D01*
X822711Y960780D02*
X820221Y960658D01*
X817756Y960292D01*
X815338Y959686D01*
X812991Y958847D01*
X810738Y957781D01*
X808600Y956499D01*
X806597Y955014D01*
X804751Y953341D01*
X772160Y972820D02*
X772282Y970330D01*
X772648Y967865D01*
X773254Y965447D01*
X774093Y963100D01*
X775159Y960846D01*
X776441Y958708D01*
X777925Y956706D01*
X779600Y954859D01*
X781446Y953186D01*
X783448Y951701D01*
X785586Y950419D01*
X787840Y949353D01*
X790187Y948514D01*
X792605Y947908D01*
X795070Y947542D01*
X797560Y947420D01*
X794111D02*
X791621Y947298D01*
X789156Y946932D01*
X786738Y946326D01*
X784391Y945487D01*
X782138Y944421D01*
X780000Y943139D01*
X777998Y941655D01*
X776151Y939980D01*
X845820Y807110D02*
X845973Y804581D01*
X846430Y802089D01*
X847183Y799670D01*
X848223Y797360D01*
X849534Y795192D01*
X851096Y793198D01*
X852888Y791406D01*
X854882Y789844D01*
X857050Y788533D01*
X859360Y787493D01*
X861779Y786740D01*
X864271Y786283D01*
X866800Y786130D01*
X827330Y788620D02*
X829961Y788808D01*
X832539Y789369D01*
X835011Y790291D01*
X837327Y791555D01*
X839438Y793136D01*
X841304Y795002D01*
X842885Y797114D01*
X844149Y799429D01*
X845071Y801901D01*
X845632Y804479D01*
X845820Y807110D01*
X502611Y585101D02*
X504802Y586196D01*
X506661Y587791D01*
X508077Y589790D01*
X508965Y592074D01*
X509270Y594504D01*
X502611Y585101D02*
X500340Y584145D01*
X498203Y582919D01*
X496232Y581440D01*
X494456Y579732D01*
X492902Y577820D01*
X491594Y575732D01*
X490551Y573500D01*
X489788Y571157D01*
X489318Y568738D01*
X489146Y566280D01*
X489276Y563820D01*
X489706Y561394D01*
X490429Y559038D01*
X491434Y556789D01*
X492706Y554679D01*
X494227Y552741D01*
X494233Y539485D02*
X495600Y541469D01*
X496453Y543722D01*
X496742Y546114D01*
X496451Y548505D01*
X495596Y550758D01*
X494227Y552741D01*
X494233Y499485D02*
X495600Y501469D01*
X496453Y503722D01*
X496742Y506114D01*
X496451Y508505D01*
X495596Y510758D01*
X494227Y512741D01*
X494233Y539485D02*
X492727Y537570D01*
X491463Y535487D01*
X490461Y533267D01*
X489734Y530942D01*
X489293Y528545D01*
X489145Y526114D01*
X489292Y523682D01*
X489732Y521286D01*
X490458Y518960D01*
X491460Y516740D01*
X492722Y514656D01*
X494227Y512741D01*
X524704Y427487D02*
X522166Y428186D01*
X519534Y428199D01*
X516990Y427524D01*
X494233Y499485D02*
X492727Y497570D01*
X491463Y495487D01*
X490460Y493266D01*
X489734Y490941D01*
X489293Y488545D01*
X489145Y486113D01*
X489292Y483681D01*
X489732Y481285D01*
X490458Y478959D01*
X491460Y476739D01*
X492723Y474655D01*
X494229Y472739D01*
X494231Y459483D02*
X492645Y457452D01*
X491332Y455234D01*
X490313Y452866D01*
X489605Y450388D01*
X489220Y447840D01*
X489163Y445263D01*
X489436Y442700D01*
X490034Y440193D01*
X490948Y437783D01*
X492163Y435510D01*
X493658Y433410D01*
X495409Y431519D01*
X497388Y429867D01*
X499561Y428482D01*
X501894Y427385D01*
X504347Y426596D01*
X506882Y426127D01*
X509455Y425986D01*
X512026Y426175D01*
X514551Y426690D01*
X516990Y427524D01*
X494231Y459483D02*
X495599Y461467D01*
X496452Y463720D01*
X496742Y466112D01*
X496451Y468504D01*
X495597Y470756D01*
X494229Y472739D01*
X796274Y1093470D02*
X793753Y1093336D01*
X791260Y1092940D01*
X788821Y1092285D01*
X786465Y1091379D01*
X784216Y1090232D01*
X782099Y1088856D01*
X780137Y1087266D01*
X778353Y1085481D01*
X776765Y1083518D01*
X775390Y1081400D01*
X774244Y1079151D01*
X773340Y1076794D01*
X772687Y1074355D01*
X772292Y1071861D01*
X772160Y1069340D01*
X796290Y1093470D02*
X796274D01*
X549270Y1111384D02*
X549576Y1108954D01*
X550462Y1106671D01*
X551878Y1104672D01*
X553737Y1103077D01*
X555928Y1101982D01*
X555935Y1064001D02*
X553742Y1062906D01*
X551881Y1061312D01*
X550464Y1059312D01*
X549576Y1057028D01*
X549270Y1054596D01*
Y1025382D02*
X549629Y1022750D01*
X550667Y1020306D01*
X552313Y1018221D01*
X554449Y1016643D01*
X554456Y979340D02*
X552317Y977763D01*
X550669Y975677D01*
X549629Y973231D01*
X549270Y970598D01*
Y935990D02*
X549392Y933500D01*
X549758Y931035D01*
X550364Y928617D01*
X551203Y926270D01*
X552269Y924016D01*
X553551Y921879D01*
X555036Y919876D01*
X556710Y918029D01*
X558556Y916356D01*
X560559Y914871D01*
X562696Y913589D01*
X564950Y912523D01*
X567297Y911684D01*
X569715Y911078D01*
X572180Y910712D01*
X574670Y910590D01*
X555935Y1064001D02*
X558221Y1064965D01*
X560370Y1066203D01*
X562351Y1067697D01*
X564134Y1069422D01*
X565690Y1071354D01*
X566997Y1073462D01*
X568034Y1075716D01*
X568787Y1078080D01*
X569243Y1080518D01*
X569395Y1082994D01*
X569242Y1085470D01*
X568785Y1087908D01*
X568032Y1090272D01*
X566993Y1092525D01*
X565685Y1094633D01*
X564128Y1096564D01*
X562345Y1098289D01*
X560364Y1099781D01*
X558214Y1101018D01*
X555928Y1101982D01*
X554456Y979340D02*
X556598Y980682D01*
X558566Y982268D01*
X560331Y984076D01*
X561870Y986082D01*
X563159Y988255D01*
X564181Y990567D01*
X564922Y992983D01*
X565370Y995471D01*
X565520Y997994D01*
X565369Y1000517D01*
X564920Y1003004D01*
X564179Y1005420D01*
X563156Y1007731D01*
X561866Y1009905D01*
X560326Y1011909D01*
X558560Y1013717D01*
X556592Y1015303D01*
X554449Y1016643D01*
X1316640Y464820D02*
X1323340D01*
X1308710Y472750D02*
X1316640Y464820D01*
X1137568Y1322610D02*
X1140460Y1322610D01*
X1136960Y1322610D02*
X1137568D01*
X1113513Y1340390D02*
X1113513Y1340390D01*
X1111250Y1342390D02*
X1113513Y1340390D01*
X1114500Y1339140D02*
X1118070Y1335570D01*
X866800Y786130D02*
X981639D01*
X1374380Y800340D02*
Y862330D01*
X1339850Y765810D02*
X1374380Y800340D01*
X1173480Y1322610D02*
X1206500D01*
X1151890Y1196340D02*
Y1314680D01*
X1070350Y1148341D02*
Y1169410D01*
X1083850Y1179100D02*
X1085850Y1181100D01*
X1080040Y1179100D02*
X1083850D01*
X1070350Y1169410D02*
X1080040Y1179100D01*
X1074451Y1144240D02*
X1087905D01*
X1085310Y1099280D02*
X1096270Y1110240D01*
X1081880Y1098390D02*
X1082770Y1099280D01*
X1080770Y1097280D02*
X1081880Y1098390D01*
X1070350Y1148341D02*
X1074451Y1144240D01*
X1087905D02*
X1096270Y1135875D01*
Y1110240D02*
Y1135875D01*
X1082770Y1099280D02*
X1085310D01*
X1148620Y1026700D02*
X1150620Y1028700D01*
X1137190Y1026700D02*
X1148620D01*
X1135380Y1024890D02*
X1137190Y1026700D01*
X822711Y960780D02*
X845820D01*
X865530D01*
X872490Y967740D01*
X1053755Y983905D02*
Y1004486D01*
X1037590Y967740D02*
X1053755Y983905D01*
X1144090Y1188540D02*
X1151890Y1196340D01*
X1111250Y1181100D02*
X1126129D01*
X1085850D02*
X1111250D01*
X1150620Y1028700D02*
X1176020D01*
X763270Y815671D02*
Y916579D01*
X763270Y815648D02*
X763270Y815671D01*
X770758Y797622D02*
X779709Y788670D01*
X798830Y947420D02*
X804751Y953341D01*
X797560Y947420D02*
X798830D01*
X794111D02*
X797560D01*
X770710Y934539D02*
X776151Y939980D01*
X801370Y788620D02*
X827330D01*
X779760D02*
X801370D01*
X1109072Y1342985D02*
Y1342985D01*
X1143960Y1322610D02*
X1173480D01*
X1143960D02*
X1151890Y1314680D01*
X1140460Y1322610D02*
X1143960D01*
X943140Y541820D02*
X943610Y542290D01*
X889000Y541820D02*
X943140D01*
X884850D02*
X889000D01*
X866330Y704440D02*
X938017D01*
X951293Y691164D01*
X873825Y530795D02*
X884850Y541820D01*
X843080Y500050D02*
X873825Y530795D01*
X857250Y547370D02*
X873825Y530795D01*
X760395Y540685D02*
X801030Y500050D01*
X714230Y586850D02*
X760395Y540685D01*
Y541955D02*
X768350Y549910D01*
X760395Y540685D02*
Y541955D01*
X779709Y788670D02*
X779760Y788620D01*
X524704Y427487D02*
X568773Y417830D01*
X810260Y764230D02*
X824280D01*
Y760730D02*
Y764230D01*
X817080Y750030D02*
X824280Y757230D01*
X804870Y769620D02*
X810260Y764230D01*
X801370Y769620D02*
X804870D01*
X803370Y750030D02*
X817080D01*
X801370Y748030D02*
X803370Y750030D01*
X1125220Y528320D02*
Y541070D01*
X1123950D02*
X1125220D01*
X509270Y594504D02*
Y606110D01*
Y594504D02*
Y594504D01*
X1365250Y518160D02*
Y532790D01*
X1366520D01*
X1199490Y464820D02*
X1214120D01*
X1308710Y472750D02*
Y476250D01*
X1168400Y501650D02*
X1169010Y501040D01*
X1180490D01*
X1199490Y464820D02*
Y467360D01*
X1277620Y501650D02*
X1289710Y489560D01*
X1268730Y510540D02*
X1277620Y501650D01*
X1289710Y476250D02*
Y489560D01*
X1268730Y510540D02*
Y572820D01*
X1242060Y562610D02*
Y572820D01*
X1180490Y467360D02*
Y501040D01*
X1242060Y562610D01*
X1268095Y592455D02*
Y601345D01*
X1267460Y601980D02*
X1268095Y601345D01*
X1268730Y572820D02*
Y591820D01*
X1242060Y572820D02*
Y591820D01*
Y601980D01*
X895350Y691090D02*
X929430D01*
X929640Y690880D01*
X849290Y687400D02*
X866330Y704440D01*
X801370Y687400D02*
X849290D01*
X549270Y1111384D02*
Y1122990D01*
X574670Y910590D02*
X662940D01*
X772160Y972820D02*
Y1069340D01*
X1012660Y721120D02*
Y744220D01*
Y721120D02*
X1017270Y716510D01*
Y715010D02*
Y716510D01*
X889000Y502120D02*
X889800Y502920D01*
X927100D01*
X805180Y539750D02*
Y554990D01*
X549270Y1111384D02*
Y1111384D01*
Y1025382D02*
Y1054596D01*
Y1025382D02*
Y1025382D01*
Y935990D02*
Y970598D01*
X708372Y968280D02*
X714230Y962422D01*
X697230Y970280D02*
X699230Y968280D01*
X708372D01*
X714230Y586850D02*
Y962422D01*
X801030Y500050D02*
X805180D01*
X843080D01*
X569145Y1326965D02*
Y1359014D01*
Y1326965D02*
X569395Y1326716D01*
Y1307512D02*
Y1326716D01*
X573246Y1363115D02*
X683283D01*
X689848Y1356550D01*
X549270Y1287387D02*
X569395Y1307512D01*
X549270Y1282990D02*
Y1287387D01*
X569145Y1359014D02*
X573246Y1363115D01*
X756920Y1356550D02*
X764000Y1349470D01*
X683990Y1339310D02*
Y1350692D01*
X689848Y1356550D01*
X756920D01*
X764000Y1349470D02*
X770890Y1356360D01*
X836930D01*
X764000Y1339310D02*
Y1349470D01*
X836930Y1356360D02*
X843280Y1350010D01*
X923830Y1340580D02*
Y1350502D01*
X845280Y1351772D02*
X849868Y1356360D01*
X917972D02*
X923830Y1350502D01*
X849868Y1356360D02*
X917972D01*
X845280Y1340580D02*
Y1351772D01*
X843280Y1338580D02*
X845280Y1340580D01*
X762000Y1337310D02*
X764000Y1339310D01*
X681990Y1337310D02*
X683990Y1339310D01*
X1313180Y923730D02*
X1374380Y862530D01*
X1313180Y923730D02*
Y924560D01*
X1344295Y1003935D02*
X1344930Y1003300D01*
X1344295Y1003935D02*
Y1030845D01*
X1343660Y1031480D02*
X1344295Y1030845D01*
X1343660Y1002030D02*
X1344930Y1003300D01*
X1343660Y972820D02*
Y1002030D01*
D99*
X814207Y1187593D02*
X811872Y1186746D01*
X809631Y1185675D01*
X807505Y1184390D01*
X805515Y1182904D01*
X803680Y1181231D01*
X802017Y1179386D01*
X800541Y1177387D01*
X799268Y1175255D01*
X798210Y1173008D01*
X797376Y1170668D01*
X796775Y1168258D01*
X796411Y1165801D01*
X796290Y1163320D01*
X815649Y1187810D02*
X814207Y1187593D01*
X491645Y638810D02*
X506720Y623735D01*
X516725D02*
X539750Y600710D01*
X491645Y638810D02*
Y653410D01*
X506720Y668485D01*
Y623735D02*
X516725D01*
X506720Y668485D02*
X516571D01*
X549270Y701184D01*
Y706110D01*
X1374380Y862330D02*
Y862530D01*
X892998Y679450D02*
X947955D01*
X815649Y1187810D02*
X822960D01*
X796290Y1093470D02*
Y1163320D01*
X961390Y646430D02*
Y664550D01*
X883310Y568350D02*
X961390Y646430D01*
X861720Y592532D02*
X870218Y601030D01*
X861720Y573915D02*
Y592532D01*
X870218Y601030D02*
Y601712D01*
X966170Y684230D02*
Y702010D01*
X871220Y589280D02*
X966170Y684230D01*
X871220Y577850D02*
Y589280D01*
X867285Y568350D02*
X883310D01*
X861720Y573915D02*
X867285Y568350D01*
X850398Y636850D02*
X892998Y679450D01*
X650240Y842010D02*
X651510Y840740D01*
X660400D01*
X681990Y815340D02*
X695960D01*
X697230Y816610D01*
X966170Y702010D02*
X966470Y702310D01*
X780470Y636850D02*
X850398D01*
X779780Y637540D02*
X780470Y636850D01*
D100*
X689790Y546631D02*
X691464Y548478D01*
X692949Y550480D01*
X694231Y552618D01*
X695297Y554871D01*
X696136Y557218D01*
X696742Y559636D01*
X697108Y562101D01*
X697230Y564591D01*
X600601Y961390D02*
X598111Y961268D01*
X595646Y960902D01*
X593228Y960296D01*
X590881Y959457D01*
X588628Y958391D01*
X586490Y957109D01*
X584487Y955624D01*
X582640Y953951D01*
X647700Y467360D02*
X731520D01*
X749170Y449710D02*
X1087250D01*
X731520Y467360D02*
X749170Y449710D01*
X1087250D02*
X1144270Y506730D01*
X1197040Y415990D02*
X1248410Y467360D01*
X570613Y415990D02*
X1197040D01*
X568773Y417830D02*
X570613Y415990D01*
X787400Y476250D02*
X844680D01*
X723900Y539750D02*
X787400Y476250D01*
X844680D02*
X850900Y482470D01*
X589270Y446110D02*
X689790Y546631D01*
X697230Y564591D02*
Y816610D01*
X673100Y900430D02*
X697230D01*
X662940Y910590D02*
X673100Y900430D01*
X697230Y816610D02*
Y900430D01*
X572300Y943610D02*
X582640Y953951D01*
X600601Y961390D02*
X662940D01*
X671830Y970280D01*
X697230D01*
D101*
X1268095Y592455D02*
X1268730Y591820D01*
D103*
X896620Y1102360D02*
D03*
X1010920Y574040D02*
D03*
X1428750Y453390D02*
D03*
X1410970Y1225550D02*
D03*
D104*
X509270Y1102990D02*
D03*
Y1142990D02*
D03*
Y1182990D02*
D03*
Y1222990D02*
D03*
Y1262990D02*
D03*
Y1302990D02*
D03*
X549270Y1122990D02*
D03*
Y1162990D02*
D03*
Y1202990D02*
D03*
Y1242990D02*
D03*
Y1282990D02*
D03*
X589270Y1102990D02*
D03*
Y1142990D02*
D03*
Y1182990D02*
D03*
Y1222990D02*
D03*
Y1262990D02*
D03*
Y1302990D02*
D03*
X509270Y1062990D02*
D03*
Y1342990D02*
D03*
X549270Y1082990D02*
D03*
Y1322990D02*
D03*
X589270Y1062990D02*
D03*
X509270Y486110D02*
D03*
Y526110D02*
D03*
Y566110D02*
D03*
Y606110D02*
D03*
Y646110D02*
D03*
Y686110D02*
D03*
X549270Y506110D02*
D03*
Y546110D02*
D03*
Y586110D02*
D03*
Y626110D02*
D03*
Y666110D02*
D03*
X589270Y486110D02*
D03*
Y526110D02*
D03*
Y566110D02*
D03*
Y606110D02*
D03*
Y646110D02*
D03*
Y686110D02*
D03*
X509270Y446110D02*
D03*
Y726110D02*
D03*
X549270Y466110D02*
D03*
Y706110D02*
D03*
X589270Y446110D02*
D03*
D105*
Y1342990D02*
D03*
Y726110D02*
D03*
D106*
X1408700Y1134570D02*
D03*
D107*
X1459200Y1156570D02*
D03*
Y1040570D02*
D03*
D108*
X1412500Y1149570D02*
D03*
Y1047570D02*
D03*
D109*
X1408700Y1062570D02*
D03*
D110*
X1029970Y1258570D02*
D03*
Y1283970D02*
D03*
Y1309370D02*
D03*
Y1334770D02*
D03*
Y1360170D02*
D03*
Y1385570D02*
D03*
X1441450Y792480D02*
D03*
Y767080D02*
D03*
Y741680D02*
D03*
Y716280D02*
D03*
Y690880D02*
D03*
Y665480D02*
D03*
D111*
X662940Y961390D02*
D03*
Y935990D02*
D03*
Y910590D02*
D03*
D112*
X1000760Y1243330D02*
D03*
X994990Y1211580D02*
D03*
X1005840Y1296670D02*
D03*
X1455420Y554990D02*
D03*
X1268730Y425300D02*
D03*
X1250950Y422910D02*
D03*
X1437640Y546100D02*
D03*
X1012855Y654180D02*
D03*
X539750Y600710D02*
D03*
X1106170Y560070D02*
D03*
X1120140Y570230D02*
D03*
X912785Y1118524D02*
D03*
X919480Y1102360D02*
D03*
X912785Y1086196D02*
D03*
X896620Y1079500D02*
D03*
X880455Y1086196D02*
D03*
X873760Y1102360D02*
D03*
X880455Y1118524D02*
D03*
X896620Y1125220D02*
D03*
X1027085Y590205D02*
D03*
X1033780Y574040D02*
D03*
X1027085Y557876D02*
D03*
X1010920Y551180D02*
D03*
X994755Y557876D02*
D03*
X988060Y574040D02*
D03*
X994755Y590205D02*
D03*
X1010920Y596900D02*
D03*
X1444915Y469554D02*
D03*
X1451610Y453390D02*
D03*
X1444915Y437225D02*
D03*
X1428750Y430530D02*
D03*
X1412585Y437225D02*
D03*
X1405890Y453390D02*
D03*
X1412585Y469554D02*
D03*
X1428750Y476250D02*
D03*
X1427135Y1241714D02*
D03*
X1433830Y1225550D02*
D03*
X1427135Y1209386D02*
D03*
X1410970Y1202690D02*
D03*
X1394805Y1209386D02*
D03*
X1388110Y1225550D02*
D03*
X1394805Y1241714D02*
D03*
X1410970Y1248410D02*
D03*
X1400810Y1313180D02*
D03*
X1366520D02*
D03*
X1332230D02*
D03*
X1292860Y1309370D02*
D03*
X1401242Y1105332D02*
D03*
X1379220Y1096010D02*
D03*
X1418590Y1099820D02*
D03*
X1275080Y1104280D02*
D03*
Y1097280D02*
D03*
X1290940Y1092200D02*
D03*
X1297940D02*
D03*
X1238363Y1104268D02*
D03*
X1333500Y1116330D02*
D03*
Y1125220D02*
D03*
X632460Y855980D02*
D03*
X1238952Y764951D02*
D03*
X1231900Y776630D02*
D03*
X1006650Y801980D02*
D03*
X1055370Y808990D02*
D03*
X1056640Y824230D02*
D03*
X1210310Y840740D02*
D03*
X1224280Y810260D02*
D03*
X1267460Y759460D02*
D03*
X1339850Y765810D02*
D03*
X1366520Y562610D02*
D03*
X1183480Y1322070D02*
D03*
X1153160Y1214120D02*
D03*
X1083970Y1134740D02*
D03*
X1122680Y1139190D02*
D03*
X1052830Y1149350D02*
D03*
X1055370Y1160780D02*
D03*
X1065269Y1195225D02*
D03*
X1059180Y1101090D02*
D03*
X1135380Y1024890D02*
D03*
X872490Y967740D02*
D03*
X1037590D02*
D03*
X1090930Y1033780D02*
D03*
X1071880Y1068070D02*
D03*
X1065530Y1076960D02*
D03*
X1170940Y1041400D02*
D03*
X1350010Y1083310D02*
D03*
X828040Y1323340D02*
D03*
X892810Y1311910D02*
D03*
X731520Y1308100D02*
D03*
X732790Y1315720D02*
D03*
X651510Y1309370D02*
D03*
Y1316990D02*
D03*
X1362710Y1082040D02*
D03*
X1266190Y1117600D02*
D03*
X1200150Y1130300D02*
D03*
X1266190Y1125220D02*
D03*
X1122680Y1117600D02*
D03*
X1062990Y1123950D02*
D03*
X979170Y1116330D02*
D03*
X995680Y1102360D02*
D03*
X831850Y1026160D02*
D03*
X808990Y1028700D02*
D03*
X963930Y889000D02*
D03*
X953770D02*
D03*
X944880D02*
D03*
X844550Y881380D02*
D03*
X811530Y882650D02*
D03*
X683260Y927100D02*
D03*
Y935990D02*
D03*
Y946150D02*
D03*
X648970Y939800D02*
D03*
Y929640D02*
D03*
X560070Y722630D02*
D03*
X552450Y725170D02*
D03*
X519430Y463550D02*
D03*
X529590Y444500D02*
D03*
X840740Y608330D02*
D03*
Y617220D02*
D03*
Y626110D02*
D03*
X910590Y650240D02*
D03*
X932180Y631190D02*
D03*
X974090Y645160D02*
D03*
X1042670Y741680D02*
D03*
X1101090Y732790D02*
D03*
Y706120D02*
D03*
X1098550Y669290D02*
D03*
X1244600Y707390D02*
D03*
X1383030Y551180D02*
D03*
X1430020Y844550D02*
D03*
X1426210Y765810D02*
D03*
X1370330Y953770D02*
D03*
Y946150D02*
D03*
X1362710Y941070D02*
D03*
X1355090D02*
D03*
X1314450Y965200D02*
D03*
X1370330Y990600D02*
D03*
X1413510Y1035050D02*
D03*
X1412240Y1160780D02*
D03*
X1263650Y1202690D02*
D03*
X1282700Y1220470D02*
D03*
X1313180Y1153160D02*
D03*
X1333500Y1170940D02*
D03*
X1416050Y1342390D02*
D03*
X1381760Y1343660D02*
D03*
X1348740Y1342390D02*
D03*
X1315720Y1341120D02*
D03*
X1234440Y1290320D02*
D03*
X1102360Y1313180D02*
D03*
X1094740Y1236980D02*
D03*
X1163320Y1225550D02*
D03*
X1130300Y1250950D02*
D03*
X1024890Y1009446D02*
D03*
X1096975Y860755D02*
D03*
X1085850Y1065530D02*
D03*
X1122680Y1101090D02*
D03*
X1046480Y647700D02*
D03*
X1060450Y430670D02*
D03*
X1165860Y1083310D02*
D03*
X1212000Y1160690D02*
D03*
X1162630Y1071929D02*
D03*
X1203077Y1151767D02*
D03*
X1137920Y1206500D02*
D03*
X933085Y1190895D02*
D03*
X579120Y981710D02*
D03*
X570230Y976630D02*
D03*
X589280Y886460D02*
D03*
X597381Y883628D02*
D03*
X1135380Y1197610D02*
D03*
X986790Y1205230D02*
D03*
X1016000Y1234440D02*
D03*
X933450Y1182370D02*
D03*
X822960Y1187810D02*
D03*
X1207770Y947420D02*
D03*
X1201296Y950083D02*
D03*
X1182370Y915670D02*
D03*
X1097280Y852170D02*
D03*
X918210Y800100D02*
D03*
X779709Y788670D02*
D03*
X843280Y776650D02*
D03*
X910590Y807720D02*
D03*
X1183640Y923290D02*
D03*
X1224280Y920750D02*
D03*
X1226820Y913130D02*
D03*
X981639Y786130D02*
D03*
X740410Y636270D02*
D03*
Y643270D02*
D03*
X623570Y575310D02*
D03*
X612140Y586163D02*
D03*
X1281430Y880110D02*
D03*
X1351280Y843280D02*
D03*
X1101830Y432330D02*
D03*
X646430Y435485D02*
D03*
X651964Y439772D02*
D03*
X655052Y532398D02*
D03*
X599440Y624840D02*
D03*
X1230630Y674370D02*
D03*
X1112520Y683260D02*
D03*
X777240Y585470D02*
D03*
X698226Y489224D02*
D03*
X1192156Y1110876D02*
D03*
X1258570Y763270D02*
D03*
X1178560Y1116312D02*
D03*
X1248410Y763270D02*
D03*
X1182860Y1144270D02*
D03*
X1178560Y1136650D02*
D03*
Y1126490D02*
D03*
X1117600Y659130D02*
D03*
X863600Y855700D02*
D03*
X886460Y858520D02*
D03*
X1126490Y919480D02*
D03*
X1177290Y967740D02*
D03*
X1097280Y915670D02*
D03*
X1167130Y976630D02*
D03*
X662940Y568960D02*
D03*
X1040130Y1073150D02*
D03*
X1128123Y1093632D02*
D03*
X877570Y1283970D02*
D03*
X839470Y1324610D02*
D03*
X808990Y1296670D02*
D03*
X793750Y1277620D02*
D03*
X701040Y1270000D02*
D03*
X767080Y1258570D02*
D03*
X727980Y1224010D02*
D03*
X814070Y1258570D02*
D03*
X811530Y1247140D02*
D03*
X868680Y1266230D02*
D03*
X660400Y840740D02*
D03*
X681990Y815340D02*
D03*
X664210Y669290D02*
D03*
X840740Y930910D02*
D03*
X887730Y1005840D02*
D03*
X820420Y1080770D02*
D03*
X1047750Y693420D02*
D03*
X1155700Y1352550D02*
D03*
X603250Y1377155D02*
D03*
X1064260Y1322070D02*
D03*
X1073420Y1321070D02*
D03*
X1069631Y1262706D02*
D03*
X1062990Y1264920D02*
D03*
X1022350Y1085850D02*
D03*
X1200150Y1201420D02*
D03*
X1202690Y1216660D02*
D03*
X1029970Y1130300D02*
D03*
X1081880Y1106270D02*
D03*
X664210Y1390650D02*
D03*
X1285240Y1375410D02*
D03*
X1244230Y1341550D02*
D03*
X1270000Y1372870D02*
D03*
X1254760Y1363980D02*
D03*
X895192Y1231742D02*
D03*
X839470Y1283230D02*
D03*
X756920Y1323340D02*
D03*
X801370Y1322070D02*
D03*
X919480Y1323340D02*
D03*
X920750Y1278890D02*
D03*
X759460D02*
D03*
X687070Y1277620D02*
D03*
X669290Y1334770D02*
D03*
X914400Y1336040D02*
D03*
X750570D02*
D03*
X830580Y1338580D02*
D03*
X609600Y1212850D02*
D03*
X675640Y1176020D02*
D03*
X655320Y1182370D02*
D03*
X665480Y1135380D02*
D03*
X693420Y1140460D02*
D03*
X629920Y1148080D02*
D03*
X754380Y1225550D02*
D03*
X699770D02*
D03*
X674370D02*
D03*
X1206500Y1235710D02*
D03*
X1191260Y1308100D02*
D03*
X1179140Y1211580D02*
D03*
X1168400Y1351280D02*
D03*
X1211580D02*
D03*
X1363980Y1263650D02*
D03*
X1339850D02*
D03*
X1314450Y1264920D02*
D03*
X1283970Y1266190D02*
D03*
X1358900Y1064260D02*
D03*
X1405890Y849630D02*
D03*
X1125220Y1033780D02*
D03*
X969010Y1014730D02*
D03*
X1323340Y1002030D02*
D03*
D113*
Y464820D02*
D03*
X1134110Y1156970D02*
D03*
X943610Y542290D02*
D03*
X947955Y679450D02*
D03*
X951293Y691164D02*
D03*
X961390Y664550D02*
D03*
X870218Y601712D02*
D03*
X855845Y559935D02*
D03*
X871220Y577850D02*
D03*
X850900Y482470D02*
D03*
X647700Y467360D02*
D03*
X660400Y548640D02*
D03*
X723900Y539750D02*
D03*
X1144270Y506730D02*
D03*
X1125220Y528320D02*
D03*
X1248410Y467360D02*
D03*
X1281746Y497524D02*
D03*
X1365250Y518160D02*
D03*
X1168400Y501650D02*
D03*
X1214120Y464820D02*
D03*
X1267460Y601980D02*
D03*
X1242060D02*
D03*
X929640Y690880D02*
D03*
X848360Y687070D02*
D03*
X966470Y702310D02*
D03*
X1018540Y690880D02*
D03*
X1024890Y673100D02*
D03*
X779780Y637540D02*
D03*
X927100Y502920D02*
D03*
X805180Y554990D02*
D03*
X768350Y562610D02*
D03*
Y549910D02*
D03*
X857250Y547370D02*
D03*
X721360Y1337310D02*
D03*
X800100D02*
D03*
X881380Y1338580D02*
D03*
X969010Y1352550D02*
D03*
X1313180Y924560D02*
D03*
X1343660Y972820D02*
D03*
D114*
X500273Y1163749D02*
X502453Y1164925D01*
X504411Y1166443D01*
X506091Y1168262D01*
X507450Y1170333D01*
X508449Y1172600D01*
X509061Y1175000D01*
X509270Y1177468D01*
Y1028512D02*
X509061Y1030981D01*
X508448Y1033383D01*
X507448Y1035650D01*
X506088Y1037722D01*
X504406Y1039542D01*
X502447Y1041060D01*
X500265Y1042234D01*
X509270Y966940D02*
X509417Y964328D01*
X509855Y961749D01*
X510579Y959235D01*
X511580Y956817D01*
X512846Y954528D01*
X514360Y952394D01*
X516103Y950443D01*
X518054Y948700D01*
X520188Y947186D01*
X522477Y945920D01*
X524895Y944919D01*
X527409Y944195D01*
X529988Y943757D01*
X532600Y943610D01*
X490121Y1115040D02*
X491223Y1117163D01*
X491974Y1119435D01*
X492354Y1121797D01*
X492353Y1124190D01*
X491972Y1126552D01*
X491220Y1128824D01*
X490117Y1130947D01*
X500273Y1163749D02*
X497953Y1162581D01*
X495782Y1161155D01*
X493789Y1159489D01*
X492000Y1157606D01*
X490438Y1155530D01*
X489125Y1153289D01*
X488077Y1150912D01*
X487309Y1148430D01*
X486830Y1145877D01*
X486647Y1143286D01*
X486762Y1140691D01*
X487174Y1138126D01*
X487877Y1135625D01*
X488862Y1133222D01*
X490117Y1130947D01*
X490121Y1115040D02*
X488891Y1112818D01*
X487918Y1110473D01*
X487214Y1108034D01*
X486788Y1105531D01*
X486645Y1102996D01*
X486787Y1100461D01*
X487212Y1097958D01*
X487915Y1095518D01*
X488886Y1093173D01*
X490114Y1090951D01*
X490118Y1075035D02*
X488864Y1072761D01*
X487878Y1070358D01*
X487175Y1067858D01*
X486763Y1065293D01*
X486647Y1062699D01*
X486829Y1060108D01*
X487308Y1057555D01*
X488075Y1055074D01*
X489122Y1052697D01*
X490434Y1050456D01*
X491995Y1048380D01*
X493783Y1046496D01*
X495775Y1044830D01*
X497945Y1043403D01*
X500265Y1042234D01*
X490118Y1075035D02*
X491222Y1077160D01*
X491973Y1079433D01*
X492353Y1081796D01*
X492353Y1084190D01*
X491972Y1086554D01*
X491219Y1088827D01*
X490114Y1090951D01*
X509270Y1177468D02*
Y1182990D01*
Y1028512D02*
Y1028512D01*
Y966940D02*
Y1028512D01*
D115*
X1289710Y476250D02*
D03*
X1308710D02*
D03*
X1180490Y467360D02*
D03*
X1199490D02*
D03*
X650240Y842010D02*
D03*
X631240D02*
D03*
X839420Y1064260D02*
D03*
X820420D02*
D03*
X824280Y760730D02*
D03*
X843280D02*
D03*
X868680Y835660D02*
D03*
X887680D02*
D03*
X823010Y914400D02*
D03*
X842010D02*
D03*
X870610Y991870D02*
D03*
X889610D02*
D03*
X1315060Y979170D02*
D03*
X1296060D02*
D03*
X1343050Y1121410D02*
D03*
X1362050D02*
D03*
X1362710Y1094740D02*
D03*
X1343710D02*
D03*
D116*
X532600Y943610D02*
D03*
X572300D02*
D03*
X1012660Y744220D02*
D03*
X1052360D02*
D03*
D117*
X1084580Y668820D02*
D03*
Y629120D02*
D03*
X805180Y539750D02*
D03*
Y500050D02*
D03*
X889000Y502120D02*
D03*
Y541820D02*
D03*
X801370Y647700D02*
D03*
Y687400D02*
D03*
X895350Y651390D02*
D03*
Y691090D02*
D03*
D118*
X1374380Y862330D02*
D03*
X1404380D02*
D03*
D119*
X1343660Y1031480D02*
D03*
Y1061480D02*
D03*
D120*
X549270Y546110D02*
X657599D01*
X660129Y548640D01*
X660400D01*
M02*
