G04*
G04 #@! TF.GenerationSoftware,Altium Limited,Altium Designer,23.5.1 (21)*
G04*
G04 Layer_Color=32896*
%FSLAX44Y44*%
%MOMM*%
G71*
G04*
G04 #@! TF.SameCoordinates,BDE5A72E-243D-4FE9-A7F5-F603F533516F*
G04*
G04*
G04 #@! TF.FilePolarity,Positive*
G04*
G01*
G75*
%ADD11C,0.2540*%
%ADD12C,0.2000*%
G36*
X599440Y417830D02*
X579553D01*
Y430292D01*
X599440D01*
Y417830D01*
D02*
G37*
G36*
X494030Y1112953D02*
X481568D01*
Y1132840D01*
X494030D01*
Y1112953D01*
D02*
G37*
G36*
X492760Y1274243D02*
X480298D01*
Y1294130D01*
X492760D01*
Y1274243D01*
D02*
G37*
G36*
X641350Y940869D02*
Y928370D01*
X608298D01*
Y940869D01*
X641350D01*
D02*
G37*
G36*
X651510Y955040D02*
X622753D01*
Y967520D01*
X651510D01*
Y955040D01*
D02*
G37*
G36*
X650240Y904240D02*
X630353D01*
Y916702D01*
X650240D01*
Y904240D01*
D02*
G37*
G36*
X494030Y1168854D02*
X481550D01*
Y1197610D01*
X494030D01*
Y1168854D01*
D02*
G37*
G36*
X603250Y741680D02*
X574919D01*
Y754179D01*
X603250D01*
Y741680D01*
D02*
G37*
%LPC*%
G36*
X598440Y429181D02*
X591256D01*
X592515D01*
X592441Y429162D01*
X592348D01*
X592163Y429088D01*
X592070Y429051D01*
X591978Y428977D01*
X591959D01*
X591941Y428940D01*
X591867Y428848D01*
X591792Y428662D01*
X591755Y428551D01*
Y428422D01*
Y428403D01*
Y428366D01*
X591774Y428292D01*
Y428218D01*
X591848Y428033D01*
X591904Y427940D01*
X591978Y427848D01*
X592015Y427811D01*
X592070Y427792D01*
X592126Y427755D01*
X592311Y427681D01*
X592441Y427662D01*
X592570Y427644D01*
X596348D01*
Y424869D01*
X596255Y424940D01*
X596051Y425070D01*
X595829Y425181D01*
X595792Y425200D01*
X595718Y425218D01*
X595588Y425274D01*
X595422Y425329D01*
X595218Y425366D01*
X594977Y425422D01*
X594737Y425440D01*
X594459Y425459D01*
X594292D01*
X594107Y425440D01*
X593885Y425403D01*
X593626Y425348D01*
X593348Y425274D01*
X593052Y425181D01*
X592774Y425033D01*
X592737Y425014D01*
X592663Y424959D01*
X592533Y424866D01*
X592367Y424737D01*
X592181Y424570D01*
X591996Y424385D01*
X591830Y424144D01*
X591663Y423885D01*
X591644Y423848D01*
X591607Y423755D01*
X591533Y423607D01*
X591459Y423404D01*
X591385Y423144D01*
X591311Y422867D01*
X591274Y422533D01*
X591256Y422182D01*
Y422533D01*
Y422015D01*
X591274Y421830D01*
X591311Y421589D01*
X591367Y421311D01*
X591441Y421015D01*
X591552Y420719D01*
X591700Y420422D01*
X591718Y420385D01*
X591774Y420293D01*
X591885Y420163D01*
X592033Y419996D01*
X592218Y419793D01*
X592441Y419608D01*
X592700Y419404D01*
X592996Y419237D01*
X593033Y419219D01*
X593144Y419182D01*
X593311Y419108D01*
X593552Y419034D01*
X593848Y418960D01*
X594181Y418885D01*
X594570Y418848D01*
X594977Y418830D01*
X591256D01*
X598440D01*
X595107D01*
X595255Y418848D01*
X595459D01*
X595681Y418867D01*
X595959Y418904D01*
X596236Y418960D01*
X596533Y419015D01*
X596570Y419034D01*
X596662Y419052D01*
X596810Y419108D01*
X597014Y419163D01*
X597236Y419256D01*
X597477Y419367D01*
X597736Y419478D01*
X597996Y419626D01*
X598014D01*
X598033Y419663D01*
X598144Y419756D01*
X598273Y419885D01*
X598385Y420052D01*
Y420071D01*
X598403Y420089D01*
X598422Y420200D01*
X598440Y420348D01*
X598422Y420533D01*
Y420552D01*
X598403Y420571D01*
X598366Y420682D01*
X598310Y420811D01*
X598199Y420941D01*
X598162Y420959D01*
X598088Y421034D01*
X597959Y421089D01*
X597792Y421126D01*
X597625D01*
X597459Y421089D01*
X597366Y421052D01*
X597255Y420996D01*
X597236Y420978D01*
X597162Y420941D01*
X597051Y420885D01*
X596922Y420830D01*
X596755Y420756D01*
X596570Y420682D01*
X596181Y420533D01*
X596162D01*
X596088Y420515D01*
X595977Y420478D01*
X595829Y420460D01*
X595644Y420422D01*
X595440Y420385D01*
X594996Y420367D01*
X594885D01*
X594774Y420385D01*
X594644Y420404D01*
X594477Y420422D01*
X594292Y420460D01*
X594126Y420515D01*
X593959Y420589D01*
X593941Y420608D01*
X593885Y420626D01*
X593811Y420682D01*
X593700Y420756D01*
X593496Y420941D01*
X593385Y421071D01*
X593292Y421200D01*
X593274Y421219D01*
X593255Y421274D01*
X593218Y421348D01*
X593163Y421459D01*
X593126Y421589D01*
X593089Y421756D01*
X593070Y421922D01*
X593052Y422107D01*
Y422126D01*
Y422145D01*
Y422237D01*
X593070Y422385D01*
X593107Y422570D01*
X593181Y422793D01*
X593255Y423015D01*
X593385Y423218D01*
X593552Y423422D01*
X593570Y423441D01*
X593644Y423496D01*
X593755Y423589D01*
X593903Y423681D01*
X594089Y423755D01*
X594329Y423848D01*
X594589Y423904D01*
X594903Y423922D01*
X595070D01*
X595181Y423904D01*
X595329Y423885D01*
X595477Y423867D01*
X595811Y423774D01*
X595829D01*
X595885Y423737D01*
X595959Y423700D01*
X596070Y423663D01*
X596199Y423589D01*
X596348Y423496D01*
X596496Y423385D01*
X596662Y423256D01*
X596681Y423237D01*
X596755Y423181D01*
X596866Y423107D01*
X596996Y423015D01*
X597033Y422996D01*
X597125Y422978D01*
X597255Y422941D01*
X597422Y422922D01*
X597477D01*
X597551Y422941D01*
X597625D01*
X597810Y422996D01*
X597977Y423107D01*
X598014Y423144D01*
X598070Y423237D01*
X598125Y423404D01*
X598162Y423626D01*
Y428366D01*
Y428385D01*
Y428422D01*
X598144Y428496D01*
Y428588D01*
X598070Y428773D01*
X598033Y428866D01*
X597959Y428959D01*
X597940Y428977D01*
X597921Y428996D01*
X597866Y429033D01*
X597792Y429070D01*
X597607Y429144D01*
X597477Y429181D01*
X598440D01*
D02*
G37*
G36*
X589589Y429292D02*
X589441D01*
X589348Y429273D01*
X589145Y429218D01*
X589052Y429162D01*
X588960Y429107D01*
X588941D01*
X588923Y429070D01*
X588830Y428977D01*
X588719Y428810D01*
X588663Y428699D01*
X588608Y428570D01*
X585479Y421336D01*
X582349Y428588D01*
Y428607D01*
X582331Y428644D01*
X582294Y428718D01*
X582238Y428792D01*
X582127Y428959D01*
X581979Y429107D01*
X581960D01*
X581942Y429144D01*
X581886Y429162D01*
X581812Y429199D01*
X581627Y429255D01*
X581368Y429292D01*
X586260D01*
X580553D01*
D01*
X581257D01*
X581183Y429273D01*
X581016Y429218D01*
X580849Y429125D01*
X580831D01*
X580812Y429107D01*
X580738Y429014D01*
X580645Y428885D01*
X580572Y428699D01*
Y428681D01*
Y428644D01*
X580553Y428588D01*
X580572Y428514D01*
X580590Y428311D01*
X580627Y428199D01*
X580683Y428070D01*
X584460Y419552D01*
Y419534D01*
X584497Y419497D01*
X584534Y419422D01*
X584571Y419348D01*
X584701Y419182D01*
X584867Y419015D01*
X584886D01*
X584904Y418997D01*
X584960Y418960D01*
X585034Y418941D01*
X585127Y418904D01*
X585238Y418867D01*
X585515Y418848D01*
X585571D01*
X585645Y418867D01*
X585738D01*
X585960Y418923D01*
X586163Y419015D01*
X586182D01*
X586200Y419052D01*
X586312Y419145D01*
X586441Y419311D01*
X586571Y419552D01*
X590348Y428070D01*
Y428088D01*
X590367Y428125D01*
X590404Y428199D01*
X590422Y428274D01*
X590459Y428477D01*
Y428588D01*
X590441Y428699D01*
Y428718D01*
X590422Y428755D01*
X590367Y428866D01*
X590293Y428996D01*
X590145Y429125D01*
X590126D01*
X590107Y429144D01*
X590052Y429181D01*
X589978Y429218D01*
X589811Y429273D01*
X589589Y429292D01*
D02*
G37*
G36*
X493030Y1131840D02*
D01*
Y1128507D01*
X493012Y1128655D01*
Y1128859D01*
X492993Y1129081D01*
X492956Y1129359D01*
X492900Y1129637D01*
X492845Y1129933D01*
X492826Y1129970D01*
X492808Y1130062D01*
X492752Y1130210D01*
X492697Y1130414D01*
X492604Y1130636D01*
X492493Y1130877D01*
X492382Y1131136D01*
X492234Y1131396D01*
Y1131414D01*
X492197Y1131433D01*
X492104Y1131544D01*
X491975Y1131673D01*
X491808Y1131785D01*
X491789D01*
X491771Y1131803D01*
X491660Y1131822D01*
X491512Y1131840D01*
X491326Y1131822D01*
X491308D01*
X491289Y1131803D01*
X491178Y1131766D01*
X491049Y1131710D01*
X490919Y1131599D01*
X490901Y1131562D01*
X490826Y1131488D01*
X490771Y1131359D01*
X490734Y1131192D01*
Y1131025D01*
X490771Y1130859D01*
X490808Y1130766D01*
X490864Y1130655D01*
X490882Y1130636D01*
X490919Y1130562D01*
X490975Y1130451D01*
X491030Y1130322D01*
X491104Y1130155D01*
X491178Y1129970D01*
X491326Y1129581D01*
Y1129563D01*
X491345Y1129488D01*
X491382Y1129377D01*
X491400Y1129229D01*
X491438Y1129044D01*
X491475Y1128840D01*
X491493Y1128396D01*
Y1128285D01*
X491475Y1128174D01*
X491456Y1128044D01*
X491438Y1127877D01*
X491400Y1127692D01*
X491345Y1127526D01*
X491271Y1127359D01*
X491252Y1127340D01*
X491234Y1127285D01*
X491178Y1127211D01*
X491104Y1127100D01*
X490919Y1126896D01*
X490789Y1126785D01*
X490660Y1126692D01*
X490641Y1126674D01*
X490586Y1126655D01*
X490512Y1126618D01*
X490401Y1126563D01*
X490271Y1126526D01*
X490104Y1126489D01*
X489938Y1126470D01*
X489753Y1126452D01*
X489734D01*
X489715D01*
X489623D01*
X489475Y1126470D01*
X489290Y1126507D01*
X489067Y1126581D01*
X488845Y1126655D01*
X488642Y1126785D01*
X488438Y1126952D01*
X488419Y1126970D01*
X488364Y1127044D01*
X488271Y1127155D01*
X488179Y1127303D01*
X488105Y1127489D01*
X488012Y1127729D01*
X487957Y1127989D01*
X487938Y1128303D01*
Y1128470D01*
X487957Y1128581D01*
X487975Y1128729D01*
X487994Y1128877D01*
X488086Y1129211D01*
Y1129229D01*
X488123Y1129285D01*
X488160Y1129359D01*
X488197Y1129470D01*
X488271Y1129600D01*
X488364Y1129748D01*
X488475Y1129896D01*
X488605Y1130062D01*
X488623Y1130081D01*
X488679Y1130155D01*
X488753Y1130266D01*
X488845Y1130396D01*
X488864Y1130433D01*
X488882Y1130525D01*
X488919Y1130655D01*
X488938Y1130822D01*
Y1130877D01*
X488919Y1130951D01*
Y1131025D01*
X488864Y1131210D01*
X488753Y1131377D01*
X488716Y1131414D01*
X488623Y1131470D01*
X488456Y1131525D01*
X488234Y1131562D01*
X483494D01*
X483475D01*
X483438D01*
X483364Y1131544D01*
X483272D01*
X483087Y1131470D01*
X482994Y1131433D01*
X482901Y1131359D01*
X482883Y1131340D01*
X482864Y1131321D01*
X482827Y1131266D01*
X482790Y1131192D01*
X482716Y1131007D01*
X482679Y1130877D01*
Y1125915D01*
X482698Y1125841D01*
Y1125748D01*
X482772Y1125563D01*
X482809Y1125470D01*
X482883Y1125378D01*
Y1125359D01*
X482920Y1125341D01*
X483013Y1125267D01*
X483198Y1125192D01*
X483309Y1125155D01*
X483438D01*
X483457D01*
X483494D01*
X483568Y1125174D01*
X483642D01*
X483827Y1125248D01*
X483920Y1125304D01*
X484012Y1125378D01*
X484049Y1125415D01*
X484068Y1125470D01*
X484105Y1125526D01*
X484179Y1125711D01*
X484198Y1125841D01*
X484216Y1125970D01*
Y1129748D01*
X486992D01*
X486920Y1129655D01*
X486790Y1129451D01*
X486679Y1129229D01*
X486660Y1129192D01*
X486642Y1129118D01*
X486586Y1128988D01*
X486531Y1128822D01*
X486494Y1128618D01*
X486438Y1128377D01*
X486420Y1128137D01*
X486401Y1127859D01*
Y1127692D01*
X486420Y1127507D01*
X486457Y1127285D01*
X486512Y1127026D01*
X486586Y1126748D01*
X486679Y1126452D01*
X486827Y1126174D01*
X486846Y1126137D01*
X486901Y1126063D01*
X486994Y1125933D01*
X487123Y1125767D01*
X487290Y1125581D01*
X487475Y1125396D01*
X487716Y1125230D01*
X487975Y1125063D01*
X488012Y1125044D01*
X488105Y1125007D01*
X488253Y1124933D01*
X488456Y1124859D01*
X488716Y1124785D01*
X488993Y1124711D01*
X489327Y1124674D01*
X489678Y1124656D01*
X482679D01*
X493030D01*
Y1131840D01*
D02*
G37*
G36*
X483383Y1123859D02*
X482568D01*
Y1122841D01*
X482587Y1122748D01*
X482642Y1122545D01*
X482698Y1122452D01*
X482753Y1122359D01*
Y1122341D01*
X482790Y1122322D01*
X482883Y1122230D01*
X483050Y1122119D01*
X483161Y1122063D01*
X483290Y1122008D01*
X490524Y1118879D01*
X483272Y1115749D01*
X483253D01*
X483216Y1115731D01*
X483142Y1115694D01*
X483068Y1115638D01*
X482901Y1115527D01*
X482753Y1115379D01*
Y1115360D01*
X482716Y1115342D01*
X482698Y1115286D01*
X482661Y1115212D01*
X482605Y1115027D01*
X482568Y1114768D01*
Y1114657D01*
X482587Y1114583D01*
X482642Y1114416D01*
X482735Y1114249D01*
Y1114231D01*
X482753Y1114212D01*
X482846Y1114138D01*
X482976Y1114045D01*
X483161Y1113971D01*
X483179D01*
X483216D01*
X483272Y1113953D01*
D01*
X483346Y1113971D01*
X483549Y1113990D01*
X483661Y1114027D01*
X483790Y1114083D01*
X492308Y1117860D01*
X492326D01*
X492363Y1117897D01*
X492438Y1117934D01*
X492511Y1117971D01*
X492678Y1118101D01*
X492845Y1118267D01*
Y1118286D01*
X492863Y1118304D01*
X492900Y1118360D01*
X492919Y1118434D01*
X492956Y1118527D01*
X492993Y1118638D01*
X493012Y1118915D01*
Y1118971D01*
X492993Y1119045D01*
Y1119138D01*
X492937Y1119360D01*
X492845Y1119564D01*
Y1119582D01*
X492808Y1119601D01*
X492715Y1119712D01*
X492549Y1119841D01*
X492308Y1119971D01*
X483790Y1123748D01*
X483772D01*
X483735Y1123767D01*
X483661Y1123804D01*
X483587Y1123822D01*
X483383Y1123859D01*
D02*
G37*
%LPD*%
G36*
X493030Y1124656D02*
X489845D01*
X490030Y1124674D01*
X490271Y1124711D01*
X490549Y1124767D01*
X490845Y1124841D01*
X491141Y1124952D01*
X491438Y1125100D01*
X491475Y1125118D01*
X491567Y1125174D01*
X491697Y1125285D01*
X491864Y1125433D01*
X492067Y1125618D01*
X492252Y1125841D01*
X492456Y1126100D01*
X492623Y1126396D01*
X492641Y1126433D01*
X492678Y1126544D01*
X492752Y1126711D01*
X492826Y1126952D01*
X492900Y1127248D01*
X492975Y1127581D01*
X493012Y1127970D01*
X493030Y1128377D01*
Y1124656D01*
D02*
G37*
G36*
X483161Y1123841D02*
X483142D01*
X483105Y1123822D01*
X482994Y1123767D01*
X482864Y1123693D01*
X482735Y1123545D01*
Y1123526D01*
X482716Y1123508D01*
X482679Y1123452D01*
X482642Y1123378D01*
X482587Y1123211D01*
X482568Y1122989D01*
Y1123859D01*
X483272D01*
X483161Y1123841D01*
D02*
G37*
%LPC*%
G36*
X491760Y1293130D02*
D01*
Y1289797D01*
X491741Y1289945D01*
Y1290149D01*
X491723Y1290371D01*
X491686Y1290649D01*
X491630Y1290927D01*
X491575Y1291223D01*
X491556Y1291260D01*
X491538Y1291352D01*
X491482Y1291501D01*
X491427Y1291704D01*
X491334Y1291926D01*
X491223Y1292167D01*
X491112Y1292426D01*
X490964Y1292686D01*
Y1292704D01*
X490927Y1292723D01*
X490834Y1292834D01*
X490704Y1292963D01*
X490538Y1293074D01*
X490519D01*
X490501Y1293093D01*
X490390Y1293112D01*
X490242Y1293130D01*
X490056Y1293112D01*
X490038D01*
X490019Y1293093D01*
X489908Y1293056D01*
X489779Y1293000D01*
X489649Y1292889D01*
X489631Y1292852D01*
X489557Y1292778D01*
X489501Y1292649D01*
X489464Y1292482D01*
Y1292315D01*
X489501Y1292149D01*
X489538Y1292056D01*
X489594Y1291945D01*
X489612Y1291926D01*
X489649Y1291852D01*
X489705Y1291741D01*
X489760Y1291612D01*
X489834Y1291445D01*
X489908Y1291260D01*
X490056Y1290871D01*
Y1290853D01*
X490075Y1290778D01*
X490112Y1290667D01*
X490131Y1290519D01*
X490168Y1290334D01*
X490205Y1290130D01*
X490223Y1289686D01*
Y1289575D01*
X490205Y1289464D01*
X490186Y1289334D01*
X490168Y1289167D01*
X490131Y1288982D01*
X490075Y1288816D01*
X490001Y1288649D01*
X489982Y1288631D01*
X489964Y1288575D01*
X489908Y1288501D01*
X489834Y1288390D01*
X489649Y1288186D01*
X489520Y1288075D01*
X489390Y1287982D01*
X489371Y1287964D01*
X489316Y1287945D01*
X489242Y1287908D01*
X489131Y1287853D01*
X489001Y1287816D01*
X488834Y1287779D01*
X488668Y1287760D01*
X488483Y1287742D01*
X488464D01*
X488446D01*
X488353D01*
X488205Y1287760D01*
X488020Y1287797D01*
X487797Y1287871D01*
X487575Y1287945D01*
X487371Y1288075D01*
X487168Y1288242D01*
X487149Y1288260D01*
X487094Y1288334D01*
X487001Y1288445D01*
X486909Y1288593D01*
X486835Y1288779D01*
X486742Y1289019D01*
X486686Y1289279D01*
X486668Y1289593D01*
Y1289760D01*
X486686Y1289871D01*
X486705Y1290019D01*
X486724Y1290167D01*
X486816Y1290501D01*
Y1290519D01*
X486853Y1290575D01*
X486890Y1290649D01*
X486927Y1290760D01*
X487001Y1290889D01*
X487094Y1291038D01*
X487205Y1291186D01*
X487335Y1291352D01*
X487353Y1291371D01*
X487409Y1291445D01*
X487483Y1291556D01*
X487575Y1291686D01*
X487594Y1291723D01*
X487612Y1291815D01*
X487649Y1291945D01*
X487668Y1292112D01*
Y1292167D01*
X487649Y1292241D01*
Y1292315D01*
X487594Y1292500D01*
X487483Y1292667D01*
X487446Y1292704D01*
X487353Y1292760D01*
X487186Y1292815D01*
X486964Y1292852D01*
X482224D01*
X482205D01*
X482168D01*
X482094Y1292834D01*
X482002D01*
X481817Y1292760D01*
X481724Y1292723D01*
X481631Y1292649D01*
X481613Y1292630D01*
X481594Y1292612D01*
X481557Y1292556D01*
X481520Y1292482D01*
X481446Y1292297D01*
X481409Y1292167D01*
Y1287205D01*
X481428Y1287131D01*
Y1287038D01*
X481502Y1286853D01*
X481539Y1286760D01*
X481613Y1286668D01*
Y1286649D01*
X481650Y1286631D01*
X481743Y1286557D01*
X481928Y1286483D01*
X482039Y1286445D01*
X482168D01*
X482187D01*
X482224D01*
X482298Y1286464D01*
X482372D01*
X482557Y1286538D01*
X482650Y1286594D01*
X482742Y1286668D01*
X482779Y1286705D01*
X482798Y1286760D01*
X482835Y1286816D01*
X482909Y1287001D01*
X482928Y1287131D01*
X482946Y1287260D01*
Y1291038D01*
X485722D01*
X485649Y1290945D01*
X485520Y1290741D01*
X485409Y1290519D01*
X485390Y1290482D01*
X485372Y1290408D01*
X485316Y1290278D01*
X485261Y1290112D01*
X485224Y1289908D01*
X485168Y1289667D01*
X485150Y1289427D01*
X485131Y1289149D01*
Y1288982D01*
X485150Y1288797D01*
X485187Y1288575D01*
X485242Y1288316D01*
X485316Y1288038D01*
X485409Y1287742D01*
X485557Y1287464D01*
X485575Y1287427D01*
X485631Y1287353D01*
X485724Y1287223D01*
X485853Y1287057D01*
X486020Y1286871D01*
X486205Y1286686D01*
X486446Y1286520D01*
X486705Y1286353D01*
X486742Y1286334D01*
X486835Y1286297D01*
X486983Y1286223D01*
X487186Y1286149D01*
X487446Y1286075D01*
X487723Y1286001D01*
X488057Y1285964D01*
X488409Y1285946D01*
X481409D01*
X491760D01*
Y1293130D01*
D02*
G37*
G36*
X482113Y1285149D02*
X481298D01*
Y1284131D01*
X481317Y1284038D01*
X481372Y1283835D01*
X481428Y1283742D01*
X481483Y1283649D01*
Y1283631D01*
X481520Y1283613D01*
X481613Y1283520D01*
X481780Y1283409D01*
X481891Y1283353D01*
X482020Y1283298D01*
X489254Y1280169D01*
X482002Y1277039D01*
X481983D01*
X481946Y1277021D01*
X481872Y1276984D01*
X481798Y1276928D01*
X481631Y1276817D01*
X481483Y1276669D01*
Y1276650D01*
X481446Y1276632D01*
X481428Y1276576D01*
X481391Y1276502D01*
X481335Y1276317D01*
X481298Y1276058D01*
Y1275947D01*
X481317Y1275873D01*
X481372Y1275706D01*
X481465Y1275539D01*
Y1275521D01*
X481483Y1275502D01*
X481576Y1275428D01*
X481706Y1275336D01*
X481891Y1275262D01*
X481909D01*
X481946D01*
X482002Y1275243D01*
D01*
X482076Y1275262D01*
X482280Y1275280D01*
X482391Y1275317D01*
X482520Y1275373D01*
X491038Y1279150D01*
X491056D01*
X491093Y1279187D01*
X491167Y1279224D01*
X491241Y1279261D01*
X491408Y1279391D01*
X491575Y1279557D01*
Y1279576D01*
X491593Y1279594D01*
X491630Y1279650D01*
X491649Y1279724D01*
X491686Y1279817D01*
X491723Y1279928D01*
X491741Y1280205D01*
Y1280261D01*
X491723Y1280335D01*
Y1280428D01*
X491667Y1280650D01*
X491575Y1280853D01*
Y1280872D01*
X491538Y1280891D01*
X491445Y1281002D01*
X491278Y1281131D01*
X491038Y1281261D01*
X482520Y1285038D01*
X482502D01*
X482465Y1285057D01*
X482391Y1285094D01*
X482317Y1285112D01*
X482113Y1285149D01*
D02*
G37*
%LPD*%
G36*
X491760Y1285946D02*
X488575D01*
X488760Y1285964D01*
X489001Y1286001D01*
X489279Y1286057D01*
X489575Y1286131D01*
X489871Y1286242D01*
X490168Y1286390D01*
X490205Y1286409D01*
X490297Y1286464D01*
X490427Y1286575D01*
X490593Y1286723D01*
X490797Y1286908D01*
X490982Y1287131D01*
X491186Y1287390D01*
X491353Y1287686D01*
X491371Y1287723D01*
X491408Y1287834D01*
X491482Y1288001D01*
X491556Y1288242D01*
X491630Y1288538D01*
X491704Y1288871D01*
X491741Y1289260D01*
X491760Y1289667D01*
Y1285946D01*
D02*
G37*
G36*
X481891Y1285131D02*
X481872D01*
X481835Y1285112D01*
X481724Y1285057D01*
X481594Y1284983D01*
X481465Y1284835D01*
Y1284816D01*
X481446Y1284798D01*
X481409Y1284742D01*
X481372Y1284668D01*
X481317Y1284501D01*
X481298Y1284279D01*
Y1285149D01*
X482002D01*
X481891Y1285131D01*
D02*
G37*
%LPC*%
G36*
X618463Y939721D02*
X609298D01*
X614427D01*
X614242Y939702D01*
X614019Y939684D01*
X613779Y939647D01*
X613501Y939610D01*
X613205Y939554D01*
X612890Y939480D01*
X612575Y939406D01*
X612242Y939295D01*
X611908Y939165D01*
X611594Y939017D01*
X611279Y938832D01*
X610983Y938647D01*
X610705Y938406D01*
X610686Y938388D01*
X610649Y938351D01*
X610575Y938277D01*
X610483Y938165D01*
X610372Y938017D01*
X610261Y937869D01*
X610131Y937665D01*
X610001Y937443D01*
X609872Y937184D01*
X609742Y936906D01*
X609631Y936591D01*
X609520Y936258D01*
X609427Y935888D01*
X609353Y935480D01*
X609316Y935055D01*
X609298Y934610D01*
Y934407D01*
X609316Y934295D01*
Y934166D01*
X609335Y933888D01*
X609390Y933536D01*
X609446Y933166D01*
X609538Y932796D01*
X609650Y932425D01*
Y932407D01*
X609668Y932388D01*
X609687Y932333D01*
X609724Y932277D01*
X609798Y932092D01*
X609909Y931870D01*
X610057Y931610D01*
X610242Y931351D01*
X610464Y931074D01*
X610705Y930814D01*
X610742Y930777D01*
X610835Y930703D01*
X610983Y930592D01*
X611168Y930444D01*
X611409Y930296D01*
X611705Y930129D01*
X612038Y929962D01*
X612390Y929833D01*
X612408D01*
X612427Y929814D01*
X612482Y929796D01*
X612557Y929777D01*
X612649Y929759D01*
X612760Y929722D01*
X613038Y929666D01*
X613371Y929611D01*
X613760Y929555D01*
X614205Y929518D01*
X614668Y929500D01*
X609298D01*
X618463D01*
Y938813D01*
X618445Y938906D01*
X618426Y939017D01*
X618352Y939239D01*
X618297Y939369D01*
X618223Y939462D01*
X618204Y939480D01*
X618167Y939499D01*
X618112Y939536D01*
X618037Y939591D01*
X617926Y939647D01*
X617797Y939684D01*
X617649Y939702D01*
X617482Y939721D01*
X618463D01*
D02*
G37*
G36*
X629333Y939832D02*
X620704D01*
D01*
X621500D01*
X621426Y939813D01*
X621334Y939795D01*
X621111Y939739D01*
X621019Y939665D01*
X620926Y939591D01*
X620908Y939573D01*
X620889Y939554D01*
X620852Y939499D01*
X620815Y939425D01*
X620778Y939332D01*
X620741Y939239D01*
X620704Y939110D01*
Y929389D01*
Y930166D01*
X620722Y930092D01*
Y930018D01*
X620797Y929796D01*
X620834Y929703D01*
X620908Y929611D01*
X620945Y929574D01*
X621056Y929500D01*
X621222Y929426D01*
X621334Y929407D01*
X621463Y929389D01*
X621574D01*
X621648Y929407D01*
X621833Y929444D01*
X622000Y929500D01*
X622037Y929518D01*
X622130Y929611D01*
X622259Y929740D01*
X622426Y929926D01*
X627611Y936688D01*
Y930277D01*
Y930259D01*
Y930203D01*
X627629Y930129D01*
Y930037D01*
X627703Y929814D01*
X627759Y929703D01*
X627833Y929611D01*
X627870Y929574D01*
X627925Y929537D01*
X627981Y929500D01*
X628074Y929463D01*
X628185Y929426D01*
X628314Y929407D01*
X628462Y929389D01*
X628536D01*
X628610Y929407D01*
X628703Y929426D01*
X628907Y929481D01*
X629018Y929537D01*
X629110Y929611D01*
Y929629D01*
X629147Y929648D01*
X629184Y929703D01*
X629221Y929777D01*
X629259Y929870D01*
X629296Y929981D01*
X629314Y930129D01*
X629333Y930277D01*
Y929426D01*
Y938980D01*
D01*
X629314Y939073D01*
X629296Y939165D01*
X629240Y939388D01*
X629184Y939499D01*
X629110Y939591D01*
X629092Y939610D01*
X629073Y939628D01*
X629018Y939665D01*
X628944Y939721D01*
X628759Y939795D01*
X628647Y939813D01*
X628518Y939832D01*
X629333D01*
D01*
D02*
G37*
G36*
X635110Y939869D02*
X631481D01*
Y929370D01*
Y930629D01*
X631499Y930555D01*
X631536Y930388D01*
X631610Y930203D01*
X631629Y930166D01*
X631703Y930074D01*
X631814Y929981D01*
X631999Y929889D01*
X632036Y929870D01*
X632110Y929851D01*
X632240Y929796D01*
X632425Y929759D01*
X632647Y929685D01*
X632888Y929629D01*
X633184Y929555D01*
X633480Y929500D01*
X633517D01*
X633629Y929481D01*
X633777Y929463D01*
X633980Y929444D01*
X634240Y929407D01*
X634499Y929389D01*
X635091Y929370D01*
X635258D01*
X635369Y929389D01*
X635517D01*
X635684Y929407D01*
X635887Y929426D01*
X636091Y929444D01*
X636536Y929518D01*
X637017Y929629D01*
X637498Y929796D01*
X637961Y930000D01*
X637980D01*
X638017Y930037D01*
X638073Y930074D01*
X638147Y930111D01*
X638369Y930259D01*
X638628Y930462D01*
X638906Y930722D01*
X639202Y931018D01*
X639480Y931388D01*
X639739Y931796D01*
Y931814D01*
X639757Y931851D01*
X639795Y931925D01*
X639832Y931999D01*
X639887Y932129D01*
X639924Y932259D01*
X639980Y932407D01*
X640035Y932592D01*
X640109Y932777D01*
X640165Y932999D01*
X640257Y933481D01*
X640331Y934018D01*
X640350Y934592D01*
Y934795D01*
X640331Y934906D01*
Y935036D01*
X640313Y935332D01*
X640257Y935666D01*
X640202Y936036D01*
X640109Y936406D01*
X639998Y936777D01*
Y936795D01*
X639980Y936814D01*
X639961Y936869D01*
X639924Y936943D01*
X639850Y937129D01*
X639739Y937351D01*
X639591Y937610D01*
X639424Y937888D01*
X639221Y938184D01*
X638980Y938443D01*
X638943Y938480D01*
X638850Y938554D01*
X638721Y938684D01*
X638517Y938832D01*
X638276Y938999D01*
X637998Y939184D01*
X637684Y939350D01*
X637332Y939499D01*
X637313D01*
X637295Y939517D01*
X637239Y939536D01*
X637165Y939554D01*
X637073Y939591D01*
X636962Y939610D01*
X636684Y939684D01*
X636350Y939758D01*
X635980Y939813D01*
X635554Y939850D01*
X635110Y939869D01*
D02*
G37*
%LPD*%
G36*
X616612Y931037D02*
X614630D01*
X614464Y931055D01*
X614242Y931074D01*
X614001Y931092D01*
X613742Y931129D01*
X613482Y931185D01*
X613223Y931259D01*
X613186Y931277D01*
X613112Y931296D01*
X612982Y931351D01*
X612834Y931425D01*
X612649Y931518D01*
X612464Y931629D01*
X612279Y931777D01*
X612112Y931925D01*
X612094Y931944D01*
X612038Y931999D01*
X611964Y932111D01*
X611871Y932240D01*
X611760Y932388D01*
X611649Y932573D01*
X611557Y932796D01*
X611464Y933036D01*
X611446Y933073D01*
X611427Y933166D01*
X611390Y933296D01*
X611353Y933499D01*
X611316Y933721D01*
X611279Y933999D01*
X611242Y934295D01*
Y934610D01*
Y934629D01*
Y934684D01*
Y934777D01*
X611260Y934906D01*
Y935055D01*
X611279Y935221D01*
X611353Y935629D01*
X611464Y936055D01*
X611612Y936499D01*
X611834Y936925D01*
X611983Y937110D01*
X612131Y937295D01*
X612149Y937314D01*
X612168Y937332D01*
X612223Y937369D01*
X612297Y937443D01*
X612390Y937499D01*
X612501Y937573D01*
X612631Y937665D01*
X612779Y937739D01*
X612964Y937832D01*
X613168Y937906D01*
X613371Y937980D01*
X613612Y938054D01*
X613871Y938110D01*
X614149Y938147D01*
X614464Y938165D01*
X614779Y938184D01*
X616612D01*
Y931037D01*
D02*
G37*
G36*
X618463Y929500D02*
X617556D01*
X617649Y929518D01*
X617760Y929537D01*
X618000Y929611D01*
X618112Y929666D01*
X618223Y929740D01*
X618241Y929759D01*
X618260Y929796D01*
X618297Y929851D01*
X618334Y929926D01*
X618389Y930037D01*
X618426Y930166D01*
X618445Y930314D01*
X618463Y930481D01*
Y929500D01*
D02*
G37*
G36*
X628333Y939813D02*
X628166Y939776D01*
X628018Y939702D01*
X627981Y939684D01*
X627907Y939610D01*
X627777Y939480D01*
X627629Y939295D01*
X622444Y932595D01*
Y938962D01*
Y938980D01*
Y939036D01*
X622426Y939110D01*
X622407Y939202D01*
X622352Y939406D01*
X622296Y939499D01*
X622222Y939591D01*
X622204Y939610D01*
X622185Y939628D01*
X622130Y939665D01*
X622056Y939721D01*
X621963Y939758D01*
X621852Y939795D01*
X621722Y939813D01*
X621574Y939832D01*
X628407D01*
X628333Y939813D01*
D02*
G37*
G36*
X634813Y939850D02*
X634591D01*
X634351Y939813D01*
X634073Y939776D01*
X633777Y939739D01*
X633480Y939665D01*
X633443D01*
X633332Y939628D01*
X633184Y939591D01*
X632980Y939517D01*
X632740Y939425D01*
X632480Y939313D01*
X632203Y939184D01*
X631925Y939017D01*
X631906D01*
X631888Y938980D01*
X631795Y938906D01*
X631684Y938776D01*
X631610Y938610D01*
Y938591D01*
X631592Y938573D01*
X631573Y938462D01*
X631555Y938314D01*
X631592Y938147D01*
Y938128D01*
X631610Y938110D01*
X631647Y937999D01*
X631703Y937869D01*
X631814Y937721D01*
X631832Y937702D01*
X631925Y937628D01*
X632036Y937573D01*
X632203Y937517D01*
X632351D01*
X632536Y937554D01*
X632740Y937628D01*
X632758Y937647D01*
X632832Y937684D01*
X632943Y937739D01*
X633073Y937814D01*
X633240Y937888D01*
X633443Y937962D01*
X633629Y938036D01*
X633851Y938091D01*
X633869D01*
X633943Y938110D01*
X634073Y938147D01*
X634221Y938165D01*
X634406Y938202D01*
X634628Y938221D01*
X634851Y938239D01*
X635295D01*
X635480Y938221D01*
X635739Y938184D01*
X636017Y938128D01*
X636332Y938054D01*
X636628Y937962D01*
X636924Y937814D01*
X636962Y937795D01*
X637054Y937739D01*
X637184Y937628D01*
X637332Y937499D01*
X637517Y937332D01*
X637702Y937110D01*
X637887Y936869D01*
X638035Y936573D01*
X638054Y936536D01*
X638091Y936425D01*
X638147Y936258D01*
X638221Y936018D01*
X638295Y935740D01*
X638350Y935388D01*
X638387Y935018D01*
X638406Y934592D01*
Y934573D01*
Y934518D01*
Y934425D01*
X638387Y934295D01*
Y934147D01*
X638369Y933981D01*
X638332Y933777D01*
X638295Y933573D01*
X638202Y933147D01*
X638054Y932684D01*
X637832Y932259D01*
X637702Y932055D01*
X637554Y931870D01*
X637536Y931851D01*
X637517Y931833D01*
X637461Y931777D01*
X637387Y931722D01*
X637313Y931647D01*
X637202Y931573D01*
X637073Y931499D01*
X636924Y931407D01*
X636739Y931314D01*
X636554Y931240D01*
X636350Y931166D01*
X636128Y931092D01*
X635869Y931037D01*
X635610Y930981D01*
X635332Y930962D01*
X635017Y930944D01*
X634795D01*
X634647Y930962D01*
X634462D01*
X634258Y931000D01*
X633832Y931055D01*
X633814D01*
X633721Y931074D01*
X633610Y931111D01*
X633462Y931129D01*
X633295Y931185D01*
X633092Y931240D01*
X633036Y931257D01*
Y933647D01*
X634684D01*
X634758Y933666D01*
X634832D01*
X635017Y933721D01*
X635202Y933832D01*
X635239Y933869D01*
X635295Y933962D01*
X635350Y934129D01*
X635388Y934332D01*
Y934351D01*
Y934388D01*
X635369Y934444D01*
Y934518D01*
X635313Y934684D01*
X635202Y934832D01*
X635184D01*
X635165Y934869D01*
X635054Y934925D01*
X634869Y934980D01*
X634628Y935018D01*
X632184D01*
X632110Y934999D01*
X632036D01*
X631851Y934925D01*
X631758Y934888D01*
X631684Y934814D01*
X631666D01*
X631647Y934777D01*
X631573Y934684D01*
X631518Y934499D01*
X631481Y934388D01*
Y939869D01*
X634962D01*
X634813Y939850D01*
D02*
G37*
%LPC*%
G36*
X647455Y966520D02*
X643270D01*
X646973D01*
X646770Y966502D01*
X646510Y966483D01*
X646233Y966446D01*
X645918Y966372D01*
X645603Y966298D01*
X645307Y966187D01*
X645270Y966169D01*
X645177Y966132D01*
X645048Y966039D01*
X644881Y965946D01*
X644696Y965798D01*
X644511Y965632D01*
X644325Y965428D01*
X644159Y965206D01*
X644140Y965169D01*
X644103Y965095D01*
X644029Y964965D01*
X643955Y964780D01*
X643900Y964558D01*
X643826Y964298D01*
X643789Y964002D01*
X643770Y963669D01*
Y963650D01*
Y963558D01*
X643789Y963447D01*
Y963298D01*
X643826Y963113D01*
X643863Y962910D01*
X643900Y962688D01*
X643974Y962465D01*
Y962447D01*
X644011Y962373D01*
X644048Y962262D01*
X644122Y962113D01*
X644196Y961928D01*
X644307Y961725D01*
X644418Y961521D01*
X644566Y961299D01*
X644585Y961280D01*
X644640Y961188D01*
X644714Y961077D01*
X644844Y960928D01*
X644992Y960725D01*
X645159Y960521D01*
X645381Y960280D01*
X645603Y960040D01*
X647848Y957688D01*
X644011D01*
X643937Y957670D01*
X643844D01*
X643659Y957595D01*
X643566Y957558D01*
X643474Y957484D01*
X643455D01*
X643437Y957447D01*
X643363Y957355D01*
X643307Y957169D01*
X643270Y957058D01*
Y956873D01*
X643288Y956799D01*
Y956707D01*
X643363Y956521D01*
X643400Y956429D01*
X643474Y956336D01*
X643511Y956299D01*
X643566Y956281D01*
X643622Y956244D01*
X643807Y956188D01*
X644066Y956151D01*
X643270D01*
X650510D01*
X649473D01*
X649566Y956170D01*
X649658D01*
X649880Y956244D01*
X649992Y956281D01*
X650084Y956355D01*
Y956373D01*
X650121Y956392D01*
X650140Y956447D01*
X650177Y956503D01*
X650214Y956596D01*
X650251Y956707D01*
X650269Y956818D01*
X650288Y956966D01*
Y956984D01*
Y957003D01*
X650269Y957132D01*
X650232Y957281D01*
X650158Y957447D01*
Y957466D01*
X650140Y957484D01*
X650066Y957595D01*
X649955Y957762D01*
X649788Y957947D01*
X646862Y961040D01*
X646825Y961077D01*
X646751Y961151D01*
X646640Y961299D01*
X646492Y961465D01*
X646344Y961669D01*
X646177Y961873D01*
X646029Y962095D01*
X645918Y962317D01*
X645899Y962336D01*
X645862Y962410D01*
X645825Y962521D01*
X645770Y962669D01*
X645714Y962854D01*
X645659Y963039D01*
X645640Y963243D01*
X645622Y963465D01*
Y963502D01*
Y963595D01*
X645640Y963724D01*
X645677Y963891D01*
X645733Y964058D01*
X645825Y964243D01*
X645936Y964428D01*
X646085Y964576D01*
X646103Y964595D01*
X646159Y964632D01*
X646270Y964687D01*
X646418Y964761D01*
X646603Y964835D01*
X646825Y964891D01*
X647084Y964928D01*
X647399Y964947D01*
X647584D01*
X647714Y964928D01*
X647862Y964909D01*
X648029Y964891D01*
X648399Y964798D01*
X648418D01*
X648473Y964780D01*
X648584Y964743D01*
X648695Y964687D01*
X648844Y964632D01*
X649010Y964558D01*
X649195Y964446D01*
X649380Y964335D01*
X649399D01*
X649417Y964317D01*
X649547Y964261D01*
X649714Y964206D01*
X649880Y964187D01*
X649918D01*
X650010Y964224D01*
X650140Y964280D01*
X650269Y964372D01*
X650288Y964409D01*
X650362Y964484D01*
X650436Y964613D01*
X650491Y964780D01*
Y964798D01*
Y964817D01*
X650510Y964928D01*
Y965076D01*
X650473Y965243D01*
Y965261D01*
X650454Y965280D01*
X650399Y965391D01*
X650288Y965520D01*
X650214Y965595D01*
X650121Y965669D01*
X650084Y965687D01*
X650010Y965743D01*
X649880Y965817D01*
X649714Y965909D01*
X649510Y966002D01*
X649269Y966113D01*
X649010Y966206D01*
X648732Y966298D01*
X648695Y966317D01*
X648603Y966335D01*
X648436Y966372D01*
X648251Y966409D01*
X648010Y966446D01*
X647732Y966483D01*
X647455Y966520D01*
D02*
G37*
G36*
X636567Y966483D02*
X636493D01*
X636437Y966465D01*
X636345D01*
X636141Y966391D01*
X636030Y966335D01*
X635937Y966261D01*
X635919Y966243D01*
X635900Y966224D01*
X635863Y966169D01*
X635808Y966095D01*
X635771Y965983D01*
X635734Y965872D01*
X635715Y965724D01*
X635697Y965557D01*
Y959632D01*
X634901D01*
X634826Y959614D01*
X634734D01*
X634530Y959540D01*
X634438Y959503D01*
X634345Y959428D01*
X634327D01*
X634308Y959391D01*
X634234Y959280D01*
X634178Y959095D01*
X634141Y958984D01*
Y959021D01*
Y956040D01*
Y958799D01*
X634160Y958725D01*
Y958651D01*
X634234Y958466D01*
X634271Y958373D01*
X634345Y958280D01*
X634382Y958243D01*
X634438Y958225D01*
X634493Y958188D01*
X634586Y958151D01*
X634697Y958132D01*
X634826Y958095D01*
X635697D01*
Y956947D01*
Y956929D01*
Y956873D01*
X635715Y956799D01*
X635734Y956688D01*
X635789Y956466D01*
X635863Y956355D01*
X635937Y956262D01*
X635956D01*
X635975Y956225D01*
X636030Y956188D01*
X636104Y956151D01*
X636215Y956114D01*
X636326Y956077D01*
X636456Y956059D01*
X636623Y956040D01*
X634141D01*
X642122D01*
Y956281D01*
Y956040D01*
X636697D01*
X636771Y956059D01*
X636863Y956077D01*
X637085Y956133D01*
X637197Y956188D01*
X637308Y956262D01*
X637326Y956281D01*
X637345Y956299D01*
X637382Y956355D01*
X637419Y956447D01*
X637474Y956540D01*
X637511Y956651D01*
X637530Y956799D01*
X637548Y956947D01*
Y958095D01*
X641215D01*
X641289Y958114D01*
X641400D01*
X641641Y958169D01*
X641863Y958280D01*
X641881Y958299D01*
X641900Y958317D01*
X641937Y958355D01*
X641992Y958429D01*
X642048Y958503D01*
X642085Y958614D01*
X642104Y958725D01*
X642122Y958873D01*
Y956281D01*
Y958873D01*
Y958910D01*
X642104Y959021D01*
X642066Y959169D01*
X642011Y959373D01*
Y959391D01*
X641992Y959428D01*
X641955Y959484D01*
X641900Y959577D01*
X641844Y959669D01*
X641752Y959799D01*
X641659Y959947D01*
X641548Y960114D01*
X637567Y965872D01*
X637548Y965891D01*
X637530Y965928D01*
X637437Y966039D01*
X637289Y966187D01*
X637122Y966317D01*
X637104D01*
X637085Y966335D01*
X637030Y966372D01*
X636956Y966409D01*
X636789Y966465D01*
X636567Y966483D01*
D02*
G37*
G36*
X632790D02*
X632641D01*
X632549Y966465D01*
X632345Y966409D01*
X632253Y966354D01*
X632160Y966298D01*
X632141D01*
X632123Y966261D01*
X632030Y966169D01*
X631919Y966002D01*
X631864Y965891D01*
X631808Y965761D01*
X628679Y958528D01*
X625550Y965780D01*
Y965798D01*
X625531Y965835D01*
X625494Y965909D01*
X625438Y965983D01*
X625327Y966150D01*
X625179Y966298D01*
X625161D01*
X625142Y966335D01*
X625087Y966354D01*
X625013Y966391D01*
X624827Y966446D01*
X624568Y966483D01*
X629460D01*
X623754D01*
X624457D01*
X624383Y966465D01*
X624216Y966409D01*
X624050Y966317D01*
X624031D01*
X624013Y966298D01*
X623939Y966206D01*
X623846Y966076D01*
X623772Y965891D01*
Y965872D01*
Y965835D01*
X623754Y965780D01*
X623772Y965706D01*
X623791Y965502D01*
X623828Y965391D01*
X623883Y965261D01*
X627660Y956744D01*
Y956725D01*
X627698Y956688D01*
X627735Y956614D01*
X627772Y956540D01*
X627901Y956373D01*
X628068Y956207D01*
X628086D01*
X628105Y956188D01*
X628161Y956151D01*
X628234Y956133D01*
X628327Y956096D01*
X628438Y956059D01*
X628716Y956040D01*
X623754D01*
X633660D01*
X628772D01*
X628846Y956059D01*
X628938D01*
X629160Y956114D01*
X629364Y956207D01*
X629383D01*
X629401Y956244D01*
X629512Y956336D01*
X629642Y956503D01*
X629771Y956744D01*
X633549Y965261D01*
Y965280D01*
X633567Y965317D01*
X633604Y965391D01*
X633623Y965465D01*
X633660Y965669D01*
Y965780D01*
X633641Y965891D01*
Y965909D01*
X633623Y965946D01*
X633567Y966058D01*
X633493Y966187D01*
X633345Y966317D01*
X633327D01*
X633308Y966335D01*
X633252Y966372D01*
X633178Y966409D01*
X633012Y966465D01*
X632790Y966483D01*
D02*
G37*
%LPD*%
G36*
X640207Y959632D02*
X637548D01*
Y963526D01*
X640207Y959632D01*
D02*
G37*
%LPC*%
G36*
X648277Y915591D02*
X642056D01*
D01*
X643315D01*
X643241Y915572D01*
X643148D01*
X642963Y915498D01*
X642870Y915461D01*
X642778Y915387D01*
X642759D01*
X642741Y915350D01*
X642667Y915257D01*
X642592Y915072D01*
X642555Y914961D01*
Y914832D01*
Y914813D01*
Y914776D01*
X642574Y914702D01*
Y914628D01*
X642648Y914443D01*
X642704Y914350D01*
X642778Y914258D01*
X642815Y914221D01*
X642870Y914202D01*
X642926Y914165D01*
X643111Y914091D01*
X643241Y914072D01*
X643370Y914054D01*
X647148D01*
Y911279D01*
X647055Y911350D01*
X646851Y911480D01*
X646629Y911591D01*
X646592Y911610D01*
X646518Y911628D01*
X646388Y911684D01*
X646222Y911739D01*
X646018Y911776D01*
X645777Y911832D01*
X645537Y911850D01*
X645259Y911869D01*
X645092D01*
X644907Y911850D01*
X644685Y911813D01*
X644426Y911758D01*
X644148Y911684D01*
X643852Y911591D01*
X643574Y911443D01*
X643537Y911424D01*
X643463Y911369D01*
X643333Y911276D01*
X643167Y911147D01*
X642981Y910980D01*
X642796Y910795D01*
X642630Y910554D01*
X642463Y910295D01*
X642444Y910258D01*
X642407Y910165D01*
X642333Y910017D01*
X642259Y909814D01*
X642185Y909554D01*
X642111Y909277D01*
X642074Y908943D01*
X642056Y908592D01*
Y908943D01*
Y908425D01*
X642074Y908240D01*
X642111Y907999D01*
X642167Y907721D01*
X642241Y907425D01*
X642352Y907129D01*
X642500Y906832D01*
X642518Y906795D01*
X642574Y906703D01*
X642685Y906573D01*
X642833Y906406D01*
X643018Y906203D01*
X643241Y906018D01*
X643500Y905814D01*
X643796Y905647D01*
X643833Y905629D01*
X643944Y905592D01*
X644111Y905518D01*
X644352Y905444D01*
X644648Y905370D01*
X644981Y905295D01*
X645370Y905258D01*
X645777Y905240D01*
X645907D01*
X646055Y905258D01*
X646259D01*
X646481Y905277D01*
X646759Y905314D01*
X647037Y905370D01*
X647333Y905425D01*
X647370Y905444D01*
X647462Y905462D01*
X647610Y905518D01*
X647814Y905573D01*
X648036Y905666D01*
X648277Y905777D01*
X648536Y905888D01*
X648796Y906036D01*
X648814D01*
X648833Y906073D01*
X648944Y906166D01*
X649073Y906295D01*
X649184Y906462D01*
Y906481D01*
X649203Y906499D01*
X649221Y906610D01*
X649240Y906758D01*
X649221Y906944D01*
Y906962D01*
X649203Y906981D01*
X649166Y907092D01*
X649110Y907221D01*
X648999Y907351D01*
X648962Y907369D01*
X648888Y907443D01*
X648759Y907499D01*
X648592Y907536D01*
X648425D01*
X648259Y907499D01*
X648166Y907462D01*
X648055Y907406D01*
X648036Y907388D01*
X647962Y907351D01*
X647851Y907295D01*
X647722Y907240D01*
X647555Y907166D01*
X647370Y907092D01*
X646981Y906944D01*
X646963D01*
X646888Y906925D01*
X646777Y906888D01*
X646629Y906870D01*
X646444Y906832D01*
X646240Y906795D01*
X645796Y906777D01*
X645685D01*
X645574Y906795D01*
X645444Y906814D01*
X645277Y906832D01*
X645092Y906870D01*
X644926Y906925D01*
X644759Y906999D01*
X644741Y907018D01*
X644685Y907036D01*
X644611Y907092D01*
X644500Y907166D01*
X644296Y907351D01*
X644185Y907480D01*
X644092Y907610D01*
X644074Y907629D01*
X644055Y907684D01*
X644018Y907758D01*
X643963Y907869D01*
X643926Y907999D01*
X643889Y908166D01*
X643870Y908332D01*
X643852Y908517D01*
Y908536D01*
Y908555D01*
Y908647D01*
X643870Y908795D01*
X643907Y908980D01*
X643981Y909203D01*
X644055Y909425D01*
X644185Y909628D01*
X644352Y909832D01*
X644370Y909851D01*
X644444Y909906D01*
X644555Y909999D01*
X644703Y910091D01*
X644889Y910165D01*
X645129Y910258D01*
X645388Y910313D01*
X645703Y910332D01*
X645870D01*
X645981Y910313D01*
X646129Y910295D01*
X646277Y910276D01*
X646611Y910184D01*
X646629D01*
X646685Y910147D01*
X646759Y910110D01*
X646870Y910073D01*
X647000Y909999D01*
X647148Y909906D01*
X647296Y909795D01*
X647462Y909666D01*
X647481Y909647D01*
X647555Y909591D01*
X647666Y909517D01*
X647796Y909425D01*
X647833Y909406D01*
X647925Y909388D01*
X648055Y909351D01*
X648222Y909332D01*
X648277D01*
X648351Y909351D01*
X648425D01*
X648610Y909406D01*
X648777Y909517D01*
X648814Y909554D01*
X648870Y909647D01*
X648925Y909814D01*
X648962Y910036D01*
Y914776D01*
Y914795D01*
Y914832D01*
X648944Y914906D01*
Y914998D01*
X648870Y915183D01*
X648833Y915276D01*
X648759Y915369D01*
X648740Y915387D01*
X648721Y915406D01*
X648666Y915443D01*
X648592Y915480D01*
X648407Y915554D01*
X648277Y915591D01*
D02*
G37*
G36*
X641259Y915702D02*
X631353D01*
D01*
X632057D01*
X631982Y915683D01*
X631816Y915628D01*
X631649Y915535D01*
X631631D01*
X631612Y915517D01*
X631538Y915424D01*
X631446Y915294D01*
X631371Y915109D01*
Y915091D01*
Y915054D01*
X631353Y914998D01*
X631371Y914924D01*
X631390Y914721D01*
X631427Y914609D01*
X631483Y914480D01*
X635260Y905962D01*
Y905944D01*
X635297Y905907D01*
X635334Y905833D01*
X635371Y905759D01*
X635501Y905592D01*
X635667Y905425D01*
X635686D01*
X635704Y905407D01*
X635760Y905370D01*
X635834Y905351D01*
X635927Y905314D01*
X636038Y905277D01*
X636315Y905258D01*
X636371D01*
X636445Y905277D01*
X636538D01*
X636760Y905333D01*
X636964Y905425D01*
X636982D01*
X637001Y905462D01*
X637112Y905555D01*
X637241Y905721D01*
X637371Y905962D01*
X641148Y914480D01*
Y914498D01*
X641167Y914535D01*
X641204Y914609D01*
X641222Y914684D01*
X641259Y914887D01*
Y914998D01*
X641241Y915109D01*
Y915128D01*
X641222Y915165D01*
X641167Y915276D01*
X641093Y915406D01*
X640945Y915535D01*
X640926D01*
X640908Y915554D01*
X640852Y915591D01*
X640778Y915628D01*
X640611Y915683D01*
X640389Y915702D01*
X641259D01*
D01*
D02*
G37*
%LPD*%
G36*
X640148Y915683D02*
X639945Y915628D01*
X639852Y915572D01*
X639759Y915517D01*
X639741D01*
X639723Y915480D01*
X639630Y915387D01*
X639519Y915220D01*
X639463Y915109D01*
X639408Y914980D01*
X636279Y907746D01*
X633149Y914998D01*
Y915017D01*
X633131Y915054D01*
X633093Y915128D01*
X633038Y915202D01*
X632927Y915369D01*
X632779Y915517D01*
X632760D01*
X632742Y915554D01*
X632686Y915572D01*
X632612Y915609D01*
X632427Y915665D01*
X632168Y915702D01*
X640241D01*
X640148Y915683D01*
D02*
G37*
%LPC*%
G36*
X492919Y1196610D02*
Y1195573D01*
X492900Y1195666D01*
Y1195758D01*
X492826Y1195980D01*
X492789Y1196092D01*
X492715Y1196184D01*
X492697D01*
X492678Y1196221D01*
X492623Y1196240D01*
X492567Y1196277D01*
X492475Y1196314D01*
X492363Y1196351D01*
X492252Y1196369D01*
X492104Y1196388D01*
X492086D01*
X492067D01*
X491937Y1196369D01*
X491789Y1196332D01*
X491623Y1196258D01*
X491604D01*
X491586Y1196240D01*
X491475Y1196166D01*
X491308Y1196055D01*
X491123Y1195888D01*
X488031Y1192962D01*
X487994Y1192925D01*
X487919Y1192851D01*
X487771Y1192740D01*
X487605Y1192592D01*
X487401Y1192444D01*
X487197Y1192277D01*
X486975Y1192129D01*
X486753Y1192018D01*
X486734Y1191999D01*
X486660Y1191962D01*
X486549Y1191925D01*
X486401Y1191870D01*
X486216Y1191814D01*
X486031Y1191759D01*
X485827Y1191740D01*
X485605Y1191722D01*
X485568D01*
X485475D01*
X485346Y1191740D01*
X485179Y1191777D01*
X485012Y1191833D01*
X484827Y1191925D01*
X484642Y1192036D01*
X484494Y1192185D01*
X484475Y1192203D01*
X484438Y1192259D01*
X484383Y1192370D01*
X484309Y1192518D01*
X484235Y1192703D01*
X484179Y1192925D01*
X484142Y1193184D01*
X484123Y1193499D01*
Y1193684D01*
X484142Y1193814D01*
X484160Y1193962D01*
X484179Y1194129D01*
X484272Y1194499D01*
Y1194518D01*
X484290Y1194573D01*
X484327Y1194684D01*
X484383Y1194795D01*
X484438Y1194943D01*
X484512Y1195110D01*
X484623Y1195295D01*
X484734Y1195480D01*
Y1195499D01*
X484753Y1195518D01*
X484809Y1195647D01*
X484864Y1195814D01*
X484883Y1195980D01*
Y1196017D01*
X484846Y1196110D01*
X484790Y1196240D01*
X484697Y1196369D01*
X484660Y1196388D01*
X484586Y1196462D01*
X484457Y1196536D01*
X484290Y1196591D01*
X484272D01*
X484253D01*
X484142Y1196610D01*
X482550D01*
X483994D01*
X483827Y1196573D01*
X483809D01*
X483790Y1196554D01*
X483679Y1196499D01*
X483549Y1196388D01*
X483475Y1196314D01*
X483401Y1196221D01*
X483383Y1196184D01*
X483327Y1196110D01*
X483253Y1195980D01*
X483161Y1195814D01*
X483068Y1195610D01*
X482957Y1195369D01*
X482864Y1195110D01*
X482772Y1194832D01*
X482753Y1194795D01*
X482735Y1194703D01*
X482698Y1194536D01*
X482661Y1194351D01*
X482624Y1194110D01*
X482587Y1193832D01*
X482550Y1193555D01*
Y1193814D01*
Y1193073D01*
X482568Y1192870D01*
X482587Y1192610D01*
X482624Y1192333D01*
X482698Y1192018D01*
X482772Y1191703D01*
X482883Y1191407D01*
X482901Y1191370D01*
X482938Y1191277D01*
X483031Y1191148D01*
X483124Y1190981D01*
X483272Y1190796D01*
X483438Y1190611D01*
X483642Y1190425D01*
X483864Y1190259D01*
X483901Y1190240D01*
X483975Y1190203D01*
X484105Y1190129D01*
X484290Y1190055D01*
X484512Y1190000D01*
X484772Y1189926D01*
X485068Y1189889D01*
X485401Y1189870D01*
X485420D01*
X485512D01*
X485623Y1189889D01*
X485771D01*
X485957Y1189926D01*
X486160Y1189962D01*
X486382Y1190000D01*
X486605Y1190074D01*
X486623D01*
X486697Y1190111D01*
X486808Y1190148D01*
X486956Y1190222D01*
X487142Y1190296D01*
X487345Y1190407D01*
X487549Y1190518D01*
X487771Y1190666D01*
X487790Y1190685D01*
X487882Y1190740D01*
X487994Y1190814D01*
X488142Y1190944D01*
X488345Y1191092D01*
X488549Y1191259D01*
X488790Y1191481D01*
X489030Y1191703D01*
X491382Y1193948D01*
Y1190111D01*
X491400Y1190037D01*
Y1189944D01*
X491475Y1189759D01*
X491512Y1189666D01*
X491586Y1189574D01*
Y1189555D01*
X491623Y1189537D01*
X491715Y1189463D01*
X491900Y1189407D01*
X492012Y1189370D01*
X492919D01*
Y1196610D01*
D02*
G37*
G36*
X493030Y1188222D02*
D01*
Y1182797D01*
X493012Y1182871D01*
X492993Y1182963D01*
X492937Y1183185D01*
X492882Y1183297D01*
X492808Y1183408D01*
X492789Y1183426D01*
X492771Y1183445D01*
X492715Y1183482D01*
X492623Y1183519D01*
X492530Y1183574D01*
X492419Y1183611D01*
X492271Y1183630D01*
X492123Y1183648D01*
X490975D01*
Y1187315D01*
X490956Y1187389D01*
Y1187500D01*
X490901Y1187740D01*
X490789Y1187963D01*
X490771Y1187981D01*
X490752Y1188000D01*
X490715Y1188037D01*
X490641Y1188092D01*
X490567Y1188148D01*
X490456Y1188185D01*
X490345Y1188203D01*
X490197Y1188222D01*
X493030D01*
X490160D01*
X490049Y1188203D01*
X489901Y1188166D01*
X489697Y1188111D01*
X489678D01*
X489641Y1188092D01*
X489586Y1188055D01*
X489493Y1188000D01*
X489401Y1187944D01*
X489271Y1187852D01*
X489123Y1187759D01*
X488956Y1187648D01*
X483198Y1183667D01*
X483179Y1183648D01*
X483142Y1183630D01*
X483031Y1183537D01*
X482883Y1183389D01*
X482753Y1183223D01*
Y1183204D01*
X482735Y1183185D01*
X482698Y1183130D01*
X482661Y1183056D01*
X482605Y1182889D01*
X482587Y1182667D01*
Y1182593D01*
X482605Y1182537D01*
Y1182445D01*
X482679Y1182241D01*
X482735Y1182130D01*
X482809Y1182037D01*
X482827Y1182019D01*
X482846Y1182000D01*
X482901Y1181963D01*
X482976Y1181908D01*
X483087Y1181871D01*
X483198Y1181834D01*
X483346Y1181815D01*
X483512Y1181797D01*
X489438D01*
Y1181001D01*
X489456Y1180926D01*
Y1180834D01*
X489530Y1180630D01*
X489567Y1180538D01*
X489641Y1180445D01*
Y1180426D01*
X489678Y1180408D01*
X489790Y1180334D01*
X489975Y1180278D01*
X490086Y1180241D01*
X490271D01*
X490345Y1180260D01*
X490419D01*
X490604Y1180334D01*
X490697Y1180371D01*
X490789Y1180445D01*
X490826Y1180482D01*
X490845Y1180538D01*
X490882Y1180593D01*
X490919Y1180686D01*
X490938Y1180797D01*
X490975Y1180926D01*
Y1181797D01*
X492123D01*
X492141D01*
X492197D01*
X492271Y1181815D01*
X492382Y1181834D01*
X492604Y1181889D01*
X492715Y1181963D01*
X492808Y1182037D01*
Y1182056D01*
X492845Y1182074D01*
X492882Y1182130D01*
X492919Y1182204D01*
X492956Y1182315D01*
X492993Y1182426D01*
X493012Y1182556D01*
X493030Y1182722D01*
Y1180241D01*
D01*
Y1188222D01*
D02*
G37*
G36*
Y1179760D02*
D01*
Y1174872D01*
X493012Y1174946D01*
Y1175038D01*
X492956Y1175260D01*
X492863Y1175464D01*
Y1175482D01*
X492826Y1175501D01*
X492734Y1175612D01*
X492567Y1175742D01*
X492326Y1175871D01*
X483809Y1179649D01*
X483790D01*
X483753Y1179667D01*
X483679Y1179704D01*
X483605Y1179723D01*
X483401Y1179760D01*
X482587D01*
X483290D01*
X483179Y1179741D01*
X483161D01*
X483124Y1179723D01*
X483013Y1179667D01*
X482883Y1179593D01*
X482753Y1179445D01*
Y1179427D01*
X482735Y1179408D01*
X482698Y1179352D01*
X482661Y1179278D01*
X482605Y1179112D01*
X482587Y1178890D01*
Y1178742D01*
X482605Y1178649D01*
X482661Y1178445D01*
X482716Y1178353D01*
X482772Y1178260D01*
Y1178242D01*
X482809Y1178223D01*
X482901Y1178130D01*
X483068Y1178019D01*
X483179Y1177964D01*
X483309Y1177908D01*
X490542Y1174779D01*
X483290Y1171650D01*
X483272D01*
X483235Y1171631D01*
X483161Y1171594D01*
X483087Y1171538D01*
X482920Y1171427D01*
X482772Y1171279D01*
Y1171261D01*
X482735Y1171242D01*
X482716Y1171187D01*
X482679Y1171113D01*
X482624Y1170928D01*
X482587Y1170668D01*
Y1170557D01*
X482605Y1170483D01*
X482661Y1170316D01*
X482753Y1170150D01*
Y1170131D01*
X482772Y1170113D01*
X482864Y1170039D01*
X482994Y1169946D01*
X483179Y1169872D01*
X483198D01*
X483235D01*
X483290Y1169854D01*
D01*
X483364Y1169872D01*
X483568Y1169891D01*
X483679Y1169928D01*
X483809Y1169983D01*
X492326Y1173761D01*
X492345D01*
X492382Y1173798D01*
X492456Y1173835D01*
X492530Y1173872D01*
X492697Y1174001D01*
X492863Y1174168D01*
Y1174186D01*
X492882Y1174205D01*
X492919Y1174260D01*
X492937Y1174334D01*
X492974Y1174427D01*
X493012Y1174538D01*
X493030Y1174816D01*
Y1169854D01*
X483290D01*
X493030D01*
Y1179760D01*
D02*
G37*
%LPD*%
G36*
X492919Y1189370D02*
X492197D01*
X492271Y1189389D01*
X492363D01*
X492548Y1189463D01*
X492641Y1189500D01*
X492734Y1189574D01*
X492771Y1189611D01*
X492789Y1189666D01*
X492826Y1189722D01*
X492882Y1189907D01*
X492919Y1190166D01*
Y1189370D01*
D02*
G37*
G36*
X489438Y1183648D02*
X485544D01*
X489438Y1186307D01*
Y1183648D01*
D02*
G37*
%LPC*%
G36*
X575919Y751605D02*
Y751587D01*
D01*
Y751605D01*
D02*
G37*
G36*
X594991Y751198D02*
Y751142D01*
D01*
Y751198D01*
D02*
G37*
G36*
X575919Y751142D02*
D01*
D01*
D01*
D02*
G37*
G36*
X602250Y753179D02*
X594991D01*
X598491D01*
X598306Y753160D01*
X598047Y753142D01*
X597769Y753105D01*
X597454Y753031D01*
X597158Y752957D01*
X596862Y752846D01*
X596825Y752827D01*
X596732Y752790D01*
X596602Y752716D01*
X596436Y752605D01*
X596251Y752475D01*
X596065Y752327D01*
X595880Y752142D01*
X595714Y751920D01*
X595695Y751901D01*
X595658Y751809D01*
X595584Y751679D01*
X595510Y751512D01*
X595436Y751309D01*
X595362Y751049D01*
X595325Y750772D01*
X595306Y750457D01*
Y750439D01*
Y750364D01*
X595325Y750235D01*
X595343Y750105D01*
X595362Y749920D01*
X595399Y749735D01*
X595473Y749550D01*
X595547Y749346D01*
X595565Y749327D01*
X595584Y749272D01*
X595640Y749161D01*
X595714Y749050D01*
X595806Y748920D01*
X595917Y748772D01*
X596047Y748624D01*
X596195Y748494D01*
X596214Y748476D01*
X596269Y748439D01*
X596362Y748383D01*
X596473Y748309D01*
X596621Y748235D01*
X596788Y748142D01*
X596899Y748102D01*
X596843Y748087D01*
X596621Y748013D01*
X596343Y747902D01*
X596084Y747735D01*
X595825Y747550D01*
X595584Y747309D01*
X595565Y747272D01*
X595491Y747179D01*
X595399Y747031D01*
X595288Y746846D01*
X595177Y746587D01*
X595084Y746309D01*
X595010Y745976D01*
X594991Y745606D01*
Y742680D01*
Y745458D01*
X595010Y745291D01*
X595047Y745069D01*
X595103Y744828D01*
X595195Y744569D01*
X595306Y744291D01*
X595454Y744032D01*
X595473Y743995D01*
X595528Y743921D01*
X595640Y743810D01*
X595788Y743661D01*
X595954Y743495D01*
X596177Y743328D01*
X596436Y743161D01*
X596732Y743013D01*
X596769Y742995D01*
X596880Y742958D01*
X597047Y742902D01*
X597288Y742847D01*
X597565Y742791D01*
X597899Y742736D01*
X598287Y742699D01*
X598695Y742680D01*
X598824D01*
X598991Y742699D01*
X599195D01*
X599454Y742717D01*
X599732Y742754D01*
X600028Y742810D01*
X600343Y742865D01*
X600380Y742884D01*
X600491Y742902D01*
X600639Y742958D01*
X600843Y743013D01*
X601065Y743106D01*
X601306Y743217D01*
X601546Y743328D01*
X601787Y743476D01*
X601806D01*
X601843Y743513D01*
X601954Y743606D01*
X602083Y743735D01*
X602195Y743902D01*
Y743921D01*
X602213Y743939D01*
X602231Y744050D01*
X602250Y744198D01*
X602231Y744365D01*
Y744383D01*
X602213Y744402D01*
X602176Y744513D01*
X602120Y744624D01*
X602009Y744754D01*
X601972Y744772D01*
X601898Y744846D01*
X601769Y744902D01*
X601602Y744939D01*
X601435D01*
X601250Y744902D01*
X601139Y744865D01*
X601028Y744809D01*
X601009Y744791D01*
X600935Y744754D01*
X600806Y744698D01*
X600658Y744643D01*
X600491Y744550D01*
X600306Y744476D01*
X599898Y744346D01*
X599880D01*
X599806Y744328D01*
X599695Y744309D01*
X599547Y744291D01*
X599380Y744254D01*
X599176Y744235D01*
X598750Y744217D01*
X598639D01*
X598528Y744235D01*
X598380D01*
X598213Y744254D01*
X598047Y744291D01*
X597862Y744328D01*
X597695Y744383D01*
X597676D01*
X597621Y744421D01*
X597547Y744458D01*
X597436Y744513D01*
X597232Y744680D01*
X597121Y744791D01*
X597028Y744921D01*
X597010Y744939D01*
X596991Y744976D01*
X596954Y745050D01*
X596917Y745161D01*
X596880Y745272D01*
X596843Y745421D01*
X596806Y745587D01*
Y745754D01*
Y745791D01*
Y745883D01*
X596825Y746013D01*
X596862Y746161D01*
X596917Y746346D01*
X597010Y746532D01*
X597121Y746698D01*
X597288Y746846D01*
X597306Y746865D01*
X597380Y746902D01*
X597491Y746957D01*
X597639Y747031D01*
X597843Y747087D01*
X598084Y747142D01*
X598362Y747179D01*
X598695Y747198D01*
X599695D01*
X599769Y747217D01*
X599843D01*
X600065Y747291D01*
X600158Y747328D01*
X600250Y747402D01*
Y747420D01*
X600287Y747439D01*
X600343Y747550D01*
X600417Y747735D01*
X600435Y747846D01*
X600454Y747976D01*
Y747994D01*
Y748031D01*
X600435Y748105D01*
Y748179D01*
X600361Y748365D01*
X600324Y748457D01*
X600250Y748531D01*
X600232Y748550D01*
X600213Y748568D01*
X600158Y748605D01*
X600084Y748642D01*
X599991Y748679D01*
X599898Y748698D01*
X599769Y748735D01*
X598787D01*
X598676Y748753D01*
X598547D01*
X598250Y748809D01*
X597936Y748920D01*
X597917D01*
X597862Y748957D01*
X597806Y748994D01*
X597713Y749050D01*
X597510Y749216D01*
X597325Y749439D01*
X597306Y749457D01*
X597288Y749494D01*
X597251Y749568D01*
X597214Y749661D01*
X597177Y749790D01*
X597139Y749920D01*
X597102Y750087D01*
Y750253D01*
Y750290D01*
Y750364D01*
X597121Y750475D01*
X597158Y750624D01*
X597214Y750790D01*
X597288Y750957D01*
X597399Y751124D01*
X597547Y751253D01*
X597565Y751272D01*
X597621Y751309D01*
X597732Y751364D01*
X597880Y751438D01*
X598047Y751494D01*
X598269Y751549D01*
X598528Y751587D01*
X598824Y751605D01*
X599028D01*
X599158Y751587D01*
X599306Y751568D01*
X599473Y751549D01*
X599843Y751475D01*
X599861D01*
X599917Y751457D01*
X600028Y751420D01*
X600139Y751383D01*
X600306Y751327D01*
X600472Y751235D01*
X600676Y751142D01*
X600880Y751031D01*
X600898D01*
X600917Y751012D01*
X601046Y750957D01*
X601195Y750901D01*
X601417D01*
X601528Y750938D01*
X601657Y750994D01*
X601787Y751087D01*
X601806Y751124D01*
X601861Y751198D01*
X601935Y751327D01*
X601991Y751475D01*
Y751494D01*
Y751512D01*
X602009Y751624D01*
Y751772D01*
X601972Y751938D01*
Y751957D01*
X601954Y751975D01*
X601898Y752086D01*
X601769Y752216D01*
X601602Y752346D01*
X601565Y752364D01*
X601491Y752420D01*
X601361Y752494D01*
X601195Y752568D01*
X600991Y752679D01*
X600750Y752772D01*
X600509Y752864D01*
X600232Y752957D01*
X600195Y752975D01*
X600102Y752994D01*
X599954Y753031D01*
X599750Y753068D01*
X599510Y753105D01*
X599250Y753142D01*
X598973Y753179D01*
X602250D01*
D01*
D02*
G37*
G36*
X583178D02*
X579419D01*
X579234Y753160D01*
X578975Y753142D01*
X578697Y753105D01*
X578382Y753031D01*
X578086Y752957D01*
X577790Y752846D01*
X577752Y752827D01*
X577660Y752790D01*
X577530Y752716D01*
X577364Y752605D01*
X577178Y752475D01*
X576993Y752327D01*
X576808Y752142D01*
X576642Y751920D01*
X576623Y751901D01*
X576586Y751809D01*
X576512Y751679D01*
X576438Y751512D01*
X576364Y751309D01*
X576290Y751049D01*
X576253Y750772D01*
X576234Y750457D01*
Y750439D01*
Y750364D01*
X576253Y750235D01*
X576271Y750105D01*
X576290Y749920D01*
X576327Y749735D01*
X576401Y749550D01*
X576475Y749346D01*
X576493Y749327D01*
X576512Y749272D01*
X576567Y749161D01*
X576642Y749050D01*
X576734Y748920D01*
X576845Y748772D01*
X576975Y748624D01*
X577123Y748494D01*
X577141Y748476D01*
X577197Y748439D01*
X577290Y748383D01*
X577401Y748309D01*
X577549Y748235D01*
X577715Y748142D01*
X577827Y748102D01*
X577771Y748087D01*
X577549Y748013D01*
X577271Y747902D01*
X577012Y747735D01*
X576753Y747550D01*
X576512Y747309D01*
X576493Y747272D01*
X576419Y747179D01*
X576327Y747031D01*
X576216Y746846D01*
X576105Y746587D01*
X576012Y746309D01*
X575938Y745976D01*
X575919Y745606D01*
Y742680D01*
Y745458D01*
X575938Y745291D01*
X575975Y745069D01*
X576031Y744828D01*
X576123Y744569D01*
X576234Y744291D01*
X576382Y744032D01*
X576401Y743995D01*
X576456Y743921D01*
X576567Y743810D01*
X576716Y743661D01*
X576882Y743495D01*
X577104Y743328D01*
X577364Y743161D01*
X577660Y743013D01*
X577697Y742995D01*
X577808Y742958D01*
X577975Y742902D01*
X578215Y742847D01*
X578493Y742791D01*
X578826Y742736D01*
X579215Y742699D01*
X579623Y742680D01*
X575919D01*
X583178D01*
X579752D01*
X579919Y742699D01*
X580123D01*
X580382Y742717D01*
X580660Y742754D01*
X580956Y742810D01*
X581271Y742865D01*
X581308Y742884D01*
X581419Y742902D01*
X581567Y742958D01*
X581771Y743013D01*
X581993Y743106D01*
X582234Y743217D01*
X582474Y743328D01*
X582715Y743476D01*
X582733D01*
X582771Y743513D01*
X582882Y743606D01*
X583011Y743735D01*
X583122Y743902D01*
Y743921D01*
X583141Y743939D01*
X583159Y744050D01*
X583178Y744198D01*
X583159Y744365D01*
Y744383D01*
X583141Y744402D01*
X583104Y744513D01*
X583048Y744624D01*
X582937Y744754D01*
X582900Y744772D01*
X582826Y744846D01*
X582696Y744902D01*
X582530Y744939D01*
X582363D01*
X582178Y744902D01*
X582067Y744865D01*
X581956Y744809D01*
X581937Y744791D01*
X581863Y744754D01*
X581734Y744698D01*
X581586Y744643D01*
X581419Y744550D01*
X581234Y744476D01*
X580826Y744346D01*
X580808D01*
X580734Y744328D01*
X580623Y744309D01*
X580475Y744291D01*
X580308Y744254D01*
X580104Y744235D01*
X579678Y744217D01*
X579567D01*
X579456Y744235D01*
X579308D01*
X579141Y744254D01*
X578975Y744291D01*
X578789Y744328D01*
X578623Y744383D01*
X578604D01*
X578549Y744421D01*
X578475Y744458D01*
X578364Y744513D01*
X578160Y744680D01*
X578049Y744791D01*
X577956Y744921D01*
X577938Y744939D01*
X577919Y744976D01*
X577882Y745050D01*
X577845Y745161D01*
X577808Y745272D01*
X577771Y745421D01*
X577734Y745587D01*
Y745754D01*
Y745791D01*
Y745883D01*
X577752Y746013D01*
X577790Y746161D01*
X577845Y746346D01*
X577938Y746532D01*
X578049Y746698D01*
X578215Y746846D01*
X578234Y746865D01*
X578308Y746902D01*
X578419Y746957D01*
X578567Y747031D01*
X578771Y747087D01*
X579012Y747142D01*
X579289Y747179D01*
X579623Y747198D01*
X580623D01*
X580697Y747217D01*
X580771D01*
X580993Y747291D01*
X581086Y747328D01*
X581178Y747402D01*
Y747420D01*
X581215Y747439D01*
X581271Y747550D01*
X581345Y747735D01*
X581363Y747846D01*
X581382Y747976D01*
Y747994D01*
Y748031D01*
X581363Y748105D01*
Y748179D01*
X581289Y748365D01*
X581252Y748457D01*
X581178Y748531D01*
X581160Y748550D01*
X581141Y748568D01*
X581086Y748605D01*
X581012Y748642D01*
X580919Y748679D01*
X580826Y748698D01*
X580697Y748735D01*
X579715D01*
X579604Y748753D01*
X579475D01*
X579178Y748809D01*
X578863Y748920D01*
X578845D01*
X578789Y748957D01*
X578734Y748994D01*
X578641Y749050D01*
X578438Y749216D01*
X578252Y749439D01*
X578234Y749457D01*
X578215Y749494D01*
X578178Y749568D01*
X578141Y749661D01*
X578104Y749790D01*
X578067Y749920D01*
X578030Y750087D01*
Y750253D01*
Y750290D01*
Y750364D01*
X578049Y750475D01*
X578086Y750624D01*
X578141Y750790D01*
X578215Y750957D01*
X578327Y751124D01*
X578475Y751253D01*
X578493Y751272D01*
X578549Y751309D01*
X578660Y751364D01*
X578808Y751438D01*
X578975Y751494D01*
X579197Y751549D01*
X579456Y751587D01*
X579752Y751605D01*
X579956D01*
X580086Y751587D01*
X580234Y751568D01*
X580400Y751549D01*
X580771Y751475D01*
X580789D01*
X580845Y751457D01*
X580956Y751420D01*
X581067Y751383D01*
X581234Y751327D01*
X581400Y751235D01*
X581604Y751142D01*
X581808Y751031D01*
X581826D01*
X581845Y751012D01*
X581974Y750957D01*
X582122Y750901D01*
X582345D01*
X582456Y750938D01*
X582585Y750994D01*
X582715Y751087D01*
X582733Y751124D01*
X582789Y751198D01*
X582863Y751327D01*
X582919Y751475D01*
Y751494D01*
Y751512D01*
X582937Y751624D01*
Y751772D01*
X582900Y751938D01*
Y751957D01*
X582882Y751975D01*
X582826Y752086D01*
X582696Y752216D01*
X582530Y752346D01*
X582493Y752364D01*
X582419Y752420D01*
X582289Y752494D01*
X582122Y752568D01*
X581919Y752679D01*
X581678Y752772D01*
X581437Y752864D01*
X581160Y752957D01*
X581123Y752975D01*
X581030Y752994D01*
X580882Y753031D01*
X580678Y753068D01*
X580437Y753105D01*
X580178Y753142D01*
X579901Y753179D01*
X583178D01*
D02*
G37*
G36*
X593029Y753142D02*
X586353D01*
X592881D01*
X592788Y753123D01*
X592584Y753068D01*
X592492Y753012D01*
X592399Y752957D01*
X592381D01*
X592362Y752920D01*
X592270Y752827D01*
X592159Y752660D01*
X592103Y752549D01*
X592047Y752420D01*
X588918Y745186D01*
X585789Y752438D01*
Y752457D01*
X585770Y752494D01*
X585733Y752568D01*
X585678Y752642D01*
X585566Y752809D01*
X585418Y752957D01*
X585400D01*
X585381Y752994D01*
X585326Y753012D01*
X585252Y753049D01*
X585067Y753105D01*
X584807Y753142D01*
X583993D01*
X584696D01*
X584622Y753123D01*
X584455Y753068D01*
X584289Y752975D01*
X584270D01*
X584252Y752957D01*
X584178Y752864D01*
X584085Y752735D01*
X584011Y752549D01*
Y752531D01*
Y752494D01*
X583993Y752438D01*
X584011Y752364D01*
X584030Y752160D01*
X584067Y752049D01*
X584122Y751920D01*
X587900Y743402D01*
Y743384D01*
X587937Y743347D01*
X587974Y743272D01*
X588011Y743198D01*
X588140Y743032D01*
X588307Y742865D01*
X588326D01*
X588344Y742847D01*
X588400Y742810D01*
X588474Y742791D01*
X588566Y742754D01*
X588677Y742717D01*
X588955Y742699D01*
X589011D01*
X589085Y742717D01*
X589177D01*
X589399Y742773D01*
X589603Y742865D01*
X589622D01*
X589640Y742902D01*
X589751Y742995D01*
X589881Y743161D01*
X590010Y743402D01*
X593788Y751920D01*
Y751938D01*
X593806Y751975D01*
X593843Y752049D01*
X593862Y752123D01*
X593899Y752327D01*
Y752438D01*
X593881Y752549D01*
Y752568D01*
X593862Y752605D01*
X593806Y752716D01*
X593732Y752846D01*
X593584Y752975D01*
X593566D01*
X593547Y752994D01*
X593492Y753031D01*
X593418Y753068D01*
X593251Y753123D01*
X593029Y753142D01*
D02*
G37*
%LPD*%
D11*
X604643Y1142990D02*
X604433Y1145520D01*
X603810Y1147981D01*
X602790Y1150307D01*
X601401Y1152432D01*
X599682Y1154300D01*
X597678Y1155860D01*
X595445Y1157068D01*
X593044Y1157892D01*
X590540Y1158310D01*
X588000D01*
X585496Y1157892D01*
X583095Y1157068D01*
X580862Y1155860D01*
X578858Y1154300D01*
X577139Y1152432D01*
X575750Y1150307D01*
X574730Y1147981D01*
X574107Y1145520D01*
X573897Y1142990D01*
X574107Y1140460D01*
X574730Y1137999D01*
X575750Y1135673D01*
X577139Y1133548D01*
X578858Y1131680D01*
X580862Y1130120D01*
X583095Y1128912D01*
X585496Y1128088D01*
X588000Y1127670D01*
X590540D01*
X593044Y1128088D01*
X595445Y1128912D01*
X597678Y1130120D01*
X599682Y1131680D01*
X601401Y1133548D01*
X602790Y1135673D01*
X603810Y1137999D01*
X604433Y1140460D01*
X604643Y1142990D01*
X564643Y706110D02*
X564433Y708640D01*
X563810Y711102D01*
X562790Y713427D01*
X561401Y715552D01*
X559682Y717420D01*
X557678Y718980D01*
X555445Y720188D01*
X553044Y721012D01*
X550540Y721430D01*
X548000D01*
X545496Y721012D01*
X543095Y720188D01*
X540862Y718980D01*
X538858Y717420D01*
X537139Y715552D01*
X535750Y713427D01*
X534730Y711102D01*
X534107Y708640D01*
X533897Y706110D01*
X534107Y703580D01*
X534730Y701118D01*
X535750Y698793D01*
X537139Y696668D01*
X538858Y694800D01*
X540862Y693240D01*
X543095Y692032D01*
X545496Y691208D01*
X548000Y690790D01*
X550540D01*
X553044Y691208D01*
X555445Y692032D01*
X557678Y693240D01*
X559682Y694800D01*
X561401Y696668D01*
X562790Y698793D01*
X563810Y701118D01*
X564433Y703580D01*
X564643Y706110D01*
X524643Y446110D02*
X524433Y448640D01*
X523810Y451101D01*
X522790Y453427D01*
X521401Y455552D01*
X519682Y457420D01*
X517678Y458980D01*
X515445Y460188D01*
X513044Y461012D01*
X510540Y461430D01*
X508000D01*
X505496Y461012D01*
X503095Y460188D01*
X500862Y458980D01*
X498858Y457420D01*
X497139Y455552D01*
X495750Y453427D01*
X494730Y451101D01*
X494107Y448640D01*
X493897Y446110D01*
X494107Y443580D01*
X494730Y441119D01*
X495750Y438793D01*
X497139Y436668D01*
X498858Y434800D01*
X500862Y433240D01*
X503095Y432032D01*
X505496Y431208D01*
X508000Y430790D01*
X510540D01*
X513044Y431208D01*
X515445Y432032D01*
X517678Y433240D01*
X519682Y434800D01*
X521401Y436668D01*
X522790Y438793D01*
X523810Y441119D01*
X524433Y443580D01*
X524643Y446110D01*
X564643Y586110D02*
X564433Y588640D01*
X563810Y591101D01*
X562790Y593427D01*
X561401Y595552D01*
X559682Y597420D01*
X557678Y598980D01*
X555445Y600188D01*
X553044Y601012D01*
X550540Y601430D01*
X548000D01*
X545496Y601012D01*
X543095Y600188D01*
X540862Y598980D01*
X538858Y597420D01*
X537139Y595552D01*
X535750Y593427D01*
X534730Y591101D01*
X534107Y588640D01*
X533897Y586110D01*
X534107Y583580D01*
X534730Y581119D01*
X535750Y578793D01*
X537139Y576668D01*
X538858Y574800D01*
X540862Y573240D01*
X543095Y572032D01*
X545496Y571208D01*
X548000Y570790D01*
X550540D01*
X553044Y571208D01*
X555445Y572032D01*
X557678Y573240D01*
X559682Y574800D01*
X561401Y576668D01*
X562790Y578793D01*
X563810Y581119D01*
X564433Y583580D01*
X564643Y586110D01*
X524643Y1142990D02*
X524433Y1145520D01*
X523810Y1147981D01*
X522790Y1150307D01*
X521401Y1152432D01*
X519682Y1154300D01*
X517678Y1155860D01*
X515445Y1157068D01*
X513044Y1157892D01*
X510540Y1158310D01*
X508000D01*
X505496Y1157892D01*
X503095Y1157068D01*
X500862Y1155860D01*
X498858Y1154300D01*
X497139Y1152432D01*
X495750Y1150307D01*
X494730Y1147981D01*
X494107Y1145520D01*
X493897Y1142990D01*
X494107Y1140460D01*
X494730Y1137999D01*
X495750Y1135673D01*
X497139Y1133548D01*
X498858Y1131680D01*
X500862Y1130120D01*
X503095Y1128912D01*
X505496Y1128088D01*
X508000Y1127670D01*
X510540D01*
X513044Y1128088D01*
X515445Y1128912D01*
X517678Y1130120D01*
X519682Y1131680D01*
X521401Y1133548D01*
X522790Y1135673D01*
X523810Y1137999D01*
X524433Y1140460D01*
X524643Y1142990D01*
Y1302990D02*
X524433Y1305520D01*
X523810Y1307982D01*
X522790Y1310307D01*
X521401Y1312432D01*
X519682Y1314300D01*
X517678Y1315860D01*
X515445Y1317068D01*
X513044Y1317892D01*
X510540Y1318310D01*
X508000D01*
X505496Y1317892D01*
X503095Y1317068D01*
X500862Y1315860D01*
X498858Y1314300D01*
X497139Y1312432D01*
X495750Y1310307D01*
X494730Y1307982D01*
X494107Y1305520D01*
X493897Y1302990D01*
X494107Y1300460D01*
X494730Y1297999D01*
X495750Y1295673D01*
X497139Y1293548D01*
X498858Y1291680D01*
X500862Y1290120D01*
X503095Y1288912D01*
X505496Y1288088D01*
X508000Y1287670D01*
X510540D01*
X513044Y1288088D01*
X515445Y1288912D01*
X517678Y1290120D01*
X519682Y1291680D01*
X521401Y1293548D01*
X522790Y1295673D01*
X523810Y1297999D01*
X524433Y1300460D01*
X524643Y1302990D01*
X1069340Y571500D02*
X1069189Y574198D01*
X1068736Y576861D01*
X1067988Y579457D01*
X1066954Y581953D01*
X1065647Y584318D01*
X1064084Y586521D01*
X1062283Y588536D01*
X1078230Y603250D02*
X1075558Y603133D01*
X1072906Y602784D01*
X1070294Y602205D01*
X1067744Y601401D01*
X1065272Y600377D01*
X1062900Y599142D01*
X1060644Y597705D01*
X1058522Y596077D01*
X1056550Y594270D01*
X1081950Y585560D02*
X1079917Y587296D01*
X1077638Y588693D01*
X1075168Y589716D01*
X1072568Y590340D01*
X1069903Y590550D01*
X1081950Y585560D02*
X1083922Y583753D01*
X1086044Y582125D01*
X1088300Y580688D01*
X1090672Y579453D01*
X1093143Y578429D01*
X1095695Y577625D01*
X1098306Y577046D01*
X1100958Y576697D01*
X1103630Y576580D01*
X1138175D02*
X1140794Y576694D01*
X1143392Y577036D01*
X1145951Y577604D01*
X1148451Y578392D01*
X1150872Y579395D01*
X1153197Y580605D01*
X1155408Y582013D01*
X1157487Y583609D01*
X1159420Y585380D01*
X1161227Y587352D01*
X1162855Y589474D01*
X1164292Y591730D01*
X1165527Y594102D01*
X1166551Y596573D01*
X1167355Y599124D01*
X1167934Y601736D01*
X1168283Y604388D01*
X1168400Y607060D01*
X1177380Y632550D02*
X1175573Y630578D01*
X1173945Y628456D01*
X1172508Y626200D01*
X1171273Y623828D01*
X1170249Y621357D01*
X1169445Y618806D01*
X1168866Y616194D01*
X1168517Y613542D01*
X1168400Y610870D01*
X1203960Y646430D02*
X1201288Y646313D01*
X1198636Y645964D01*
X1196024Y645385D01*
X1193474Y644581D01*
X1191002Y643557D01*
X1188630Y642322D01*
X1186374Y640885D01*
X1184252Y639257D01*
X1182280Y637450D01*
X1229615Y646430D02*
X1232234Y646544D01*
X1234832Y646886D01*
X1237391Y647454D01*
X1239891Y648242D01*
X1242312Y649245D01*
X1244637Y650455D01*
X1246848Y651863D01*
X1248927Y653459D01*
X1250860Y655230D01*
X1252667Y657202D01*
X1254295Y659324D01*
X1255732Y661580D01*
X1256967Y663952D01*
X1257991Y666423D01*
X1258795Y668975D01*
X1259374Y671586D01*
X1259723Y674238D01*
X1259840Y676910D01*
X491490Y1122680D02*
X533400D01*
X492760Y1283970D02*
X534670D01*
X1056550Y594270D02*
X1062283Y588536D01*
X1078230Y603250D02*
X1079500D01*
X1103630Y576580D02*
X1138175D01*
X1168400Y607060D02*
Y610870D01*
X1177380Y632550D02*
X1182280Y637450D01*
X1203960Y646430D02*
X1229615D01*
X1259840Y676910D02*
Y683260D01*
X1356360Y687070D02*
Y702305D01*
X1348743D01*
X1346203Y699766D01*
Y694688D01*
X1348743Y692148D01*
X1356360D01*
X1341125D02*
X1336047D01*
X1338586D01*
Y707383D01*
X1341125D01*
X1328429Y692148D02*
X1320811D01*
X1318272Y694688D01*
X1320811Y697227D01*
X1325890D01*
X1328429Y699766D01*
X1325890Y702305D01*
X1318272D01*
X1297959Y692148D02*
X1292881D01*
X1295420D01*
Y702305D01*
X1297959D01*
X1285263Y692148D02*
Y702305D01*
X1277645D01*
X1275106Y699766D01*
Y692148D01*
X1270028D02*
X1262410D01*
X1259871Y694688D01*
X1262410Y697227D01*
X1267489D01*
X1270028Y699766D01*
X1267489Y702305D01*
X1259871D01*
X1247175Y692148D02*
X1252254D01*
X1254793Y694688D01*
Y699766D01*
X1252254Y702305D01*
X1247175D01*
X1244636Y699766D01*
Y697227D01*
X1254793D01*
X1239558Y702305D02*
Y692148D01*
Y697227D01*
X1237019Y699766D01*
X1234479Y702305D01*
X1231940D01*
X1221784Y704844D02*
Y702305D01*
X1224323D01*
X1219244D01*
X1221784D01*
Y694688D01*
X1219244Y692148D01*
X1196392Y707383D02*
Y692148D01*
Y699766D01*
X1193853Y702305D01*
X1188774D01*
X1186235Y699766D01*
Y692148D01*
X1173539D02*
X1178617D01*
X1181157Y694688D01*
Y699766D01*
X1178617Y702305D01*
X1173539D01*
X1171000Y699766D01*
Y697227D01*
X1181157D01*
X1165922Y702305D02*
Y692148D01*
Y697227D01*
X1163382Y699766D01*
X1160843Y702305D01*
X1158304D01*
X1143069Y692148D02*
X1148147D01*
X1150686Y694688D01*
Y699766D01*
X1148147Y702305D01*
X1143069D01*
X1140530Y699766D01*
Y697227D01*
X1150686D01*
X1107918Y1302461D02*
X1106252Y1304127D01*
Y1307459D01*
X1107918Y1309125D01*
X1114582D01*
X1116248Y1307459D01*
Y1304127D01*
X1114582Y1302461D01*
X1116248Y1299128D02*
Y1295796D01*
Y1297462D01*
X1106252D01*
X1107918Y1299128D01*
X1116248Y1290798D02*
Y1287466D01*
Y1289132D01*
X1106252D01*
X1107918Y1290798D01*
X1116248Y1282467D02*
Y1279135D01*
Y1280801D01*
X1106252D01*
X1107918Y1282467D01*
X824708Y862645D02*
X823042Y864311D01*
Y867643D01*
X824708Y869309D01*
X831372D01*
X833038Y867643D01*
Y864311D01*
X831372Y862645D01*
X833038Y852648D02*
Y859312D01*
X826374Y852648D01*
X824708D01*
X823042Y854314D01*
Y857646D01*
X824708Y859312D01*
X831372Y849315D02*
X833038Y847649D01*
Y844317D01*
X831372Y842651D01*
X824708D01*
X823042Y844317D01*
Y847649D01*
X824708Y849315D01*
X826374D01*
X828040Y847649D01*
Y842651D01*
X860268Y1027745D02*
X858602Y1029411D01*
Y1032743D01*
X860268Y1034409D01*
X866932D01*
X868598Y1032743D01*
Y1029411D01*
X866932Y1027745D01*
X868598Y1017748D02*
Y1024412D01*
X861934Y1017748D01*
X860268D01*
X858602Y1019414D01*
Y1022746D01*
X860268Y1024412D01*
X858602Y1014416D02*
Y1007751D01*
X860268D01*
X866932Y1014416D01*
X868598D01*
X1034968Y616742D02*
X1036635Y618408D01*
X1039967D01*
X1041633Y616742D01*
Y610078D01*
X1039967Y608412D01*
X1036635D01*
X1034968Y610078D01*
X1031636Y616742D02*
X1029970Y618408D01*
X1026638D01*
X1024972Y616742D01*
Y615076D01*
X1026638Y613410D01*
X1028304D01*
X1026638D01*
X1024972Y611744D01*
Y610078D01*
X1026638Y608412D01*
X1029970D01*
X1031636Y610078D01*
X1021639Y608412D02*
X1018307D01*
X1019973D01*
Y618408D01*
X1021639Y616742D01*
X1112602Y1037439D02*
X1122598D01*
Y1042437D01*
X1120932Y1044103D01*
X1117600D01*
X1115934Y1042437D01*
Y1037439D01*
Y1040771D02*
X1112602Y1044103D01*
Y1047436D02*
Y1050768D01*
Y1049102D01*
X1122598D01*
X1120932Y1047436D01*
X1112602Y1055766D02*
Y1059098D01*
Y1057432D01*
X1122598D01*
X1120932Y1055766D01*
X1122598Y1070761D02*
Y1064097D01*
X1117600D01*
X1119266Y1067429D01*
Y1069095D01*
X1117600Y1070761D01*
X1114268D01*
X1112602Y1069095D01*
Y1065763D01*
X1114268Y1064097D01*
X1085932Y1038709D02*
X1095928D01*
Y1043707D01*
X1094262Y1045373D01*
X1090930D01*
X1089264Y1043707D01*
Y1038709D01*
Y1042041D02*
X1085932Y1045373D01*
Y1048706D02*
Y1052038D01*
Y1050372D01*
X1095928D01*
X1094262Y1048706D01*
X1085932Y1057036D02*
Y1060368D01*
Y1058702D01*
X1095928D01*
X1094262Y1057036D01*
X1085932Y1070365D02*
X1095928D01*
X1090930Y1065367D01*
Y1072031D01*
X1329841Y1091012D02*
Y1101008D01*
X1324843D01*
X1323177Y1099342D01*
Y1096010D01*
X1324843Y1094344D01*
X1329841D01*
X1326509D02*
X1323177Y1091012D01*
X1319845D02*
X1316512D01*
X1318178D01*
Y1101008D01*
X1319845Y1099342D01*
X1311514Y1091012D02*
X1308182D01*
X1309848D01*
Y1101008D01*
X1311514Y1099342D01*
X1303183D02*
X1301517Y1101008D01*
X1298185D01*
X1296519Y1099342D01*
Y1097676D01*
X1298185Y1096010D01*
X1299851D01*
X1298185D01*
X1296519Y1094344D01*
Y1092678D01*
X1298185Y1091012D01*
X1301517D01*
X1303183Y1092678D01*
X1329841Y1116412D02*
Y1126408D01*
X1324843D01*
X1323177Y1124742D01*
Y1121410D01*
X1324843Y1119744D01*
X1329841D01*
X1326509D02*
X1323177Y1116412D01*
X1319845D02*
X1316512D01*
X1318178D01*
Y1126408D01*
X1319845Y1124742D01*
X1311514Y1116412D02*
X1308182D01*
X1309848D01*
Y1126408D01*
X1311514Y1124742D01*
X1296519Y1116412D02*
X1303183D01*
X1296519Y1123076D01*
Y1124742D01*
X1298185Y1126408D01*
X1301517D01*
X1303183Y1124742D01*
X1134192Y1310395D02*
X1144188D01*
Y1305397D01*
X1142522Y1303731D01*
X1139190D01*
X1137524Y1305397D01*
Y1310395D01*
Y1307063D02*
X1134192Y1303731D01*
Y1300398D02*
Y1297066D01*
Y1298732D01*
X1144188D01*
X1142522Y1300398D01*
X1134192Y1292068D02*
Y1288736D01*
Y1290402D01*
X1144188D01*
X1142522Y1292068D01*
X1134192Y1283737D02*
Y1280405D01*
Y1282071D01*
X1144188D01*
X1142522Y1283737D01*
X1168482Y1310791D02*
X1178478D01*
Y1305793D01*
X1176812Y1304127D01*
X1173480D01*
X1171814Y1305793D01*
Y1310791D01*
Y1307459D02*
X1168482Y1304127D01*
Y1300795D02*
Y1297462D01*
Y1299128D01*
X1178478D01*
X1176812Y1300795D01*
X1168482Y1292464D02*
Y1289132D01*
Y1290798D01*
X1178478D01*
X1176812Y1292464D01*
Y1284133D02*
X1178478Y1282467D01*
Y1279135D01*
X1176812Y1277469D01*
X1170148D01*
X1168482Y1279135D01*
Y1282467D01*
X1170148Y1284133D01*
X1176812D01*
X1201502Y1311624D02*
X1211498D01*
Y1306626D01*
X1209832Y1304960D01*
X1206500D01*
X1204834Y1306626D01*
Y1311624D01*
Y1308292D02*
X1201502Y1304960D01*
Y1301628D02*
Y1298295D01*
Y1299961D01*
X1211498D01*
X1209832Y1301628D01*
Y1293297D02*
X1211498Y1291631D01*
Y1288298D01*
X1209832Y1286632D01*
X1203168D01*
X1201502Y1288298D01*
Y1291631D01*
X1203168Y1293297D01*
X1209832D01*
X1203168Y1283300D02*
X1201502Y1281634D01*
Y1278302D01*
X1203168Y1276636D01*
X1209832D01*
X1211498Y1278302D01*
Y1281634D01*
X1209832Y1283300D01*
X1208166D01*
X1206500Y1281634D01*
Y1276636D01*
X1291266Y1008298D02*
Y998302D01*
X1296264D01*
X1297930Y999968D01*
Y1003300D01*
X1296264Y1004966D01*
X1291266D01*
X1294598D02*
X1297930Y1008298D01*
X1301262D02*
X1304595D01*
X1302929D01*
Y998302D01*
X1301262Y999968D01*
X1309593D02*
X1311259Y998302D01*
X1314592D01*
X1316258Y999968D01*
Y1006632D01*
X1314592Y1008298D01*
X1311259D01*
X1309593Y1006632D01*
Y999968D01*
X1319590D02*
X1321256Y998302D01*
X1324588D01*
X1326254Y999968D01*
Y1001634D01*
X1324588Y1003300D01*
X1326254Y1004966D01*
Y1006632D01*
X1324588Y1008298D01*
X1321256D01*
X1319590Y1006632D01*
Y1004966D01*
X1321256Y1003300D01*
X1319590Y1001634D01*
Y999968D01*
X1321256Y1003300D02*
X1324588D01*
X1019892Y1036606D02*
X1029888D01*
Y1041604D01*
X1028222Y1043270D01*
X1024890D01*
X1023224Y1041604D01*
Y1036606D01*
Y1039938D02*
X1019892Y1043270D01*
Y1046602D02*
Y1049935D01*
Y1048269D01*
X1029888D01*
X1028222Y1046602D01*
Y1054933D02*
X1029888Y1056599D01*
Y1059931D01*
X1028222Y1061598D01*
X1021558D01*
X1019892Y1059931D01*
Y1056599D01*
X1021558Y1054933D01*
X1028222D01*
X1029888Y1064930D02*
Y1071594D01*
X1028222D01*
X1021558Y1064930D01*
X1019892D01*
X1047832Y1037876D02*
X1057828D01*
Y1042874D01*
X1056162Y1044540D01*
X1052830D01*
X1051164Y1042874D01*
Y1037876D01*
Y1041208D02*
X1047832Y1044540D01*
Y1047872D02*
Y1051205D01*
Y1049538D01*
X1057828D01*
X1056162Y1047872D01*
Y1056203D02*
X1057828Y1057869D01*
Y1061201D01*
X1056162Y1062868D01*
X1049498D01*
X1047832Y1061201D01*
Y1057869D01*
X1049498Y1056203D01*
X1056162D01*
X1057828Y1072864D02*
Y1066200D01*
X1052830D01*
X1054496Y1069532D01*
Y1071198D01*
X1052830Y1072864D01*
X1049498D01*
X1047832Y1071198D01*
Y1067866D01*
X1049498Y1066200D01*
X1320718Y1382744D02*
X1310722D01*
Y1377746D01*
X1312388Y1376080D01*
X1315720D01*
X1317386Y1377746D01*
Y1382744D01*
Y1379412D02*
X1320718Y1376080D01*
Y1372747D02*
Y1369415D01*
Y1371081D01*
X1310722D01*
X1312388Y1372747D01*
Y1364417D02*
X1310722Y1362751D01*
Y1359418D01*
X1312388Y1357752D01*
X1319052D01*
X1320718Y1359418D01*
Y1362751D01*
X1319052Y1364417D01*
X1312388D01*
Y1354420D02*
X1310722Y1352754D01*
Y1349422D01*
X1312388Y1347756D01*
X1314054D01*
X1315720Y1349422D01*
Y1351088D01*
Y1349422D01*
X1317386Y1347756D01*
X1319052D01*
X1320718Y1349422D01*
Y1352754D01*
X1319052Y1354420D01*
X1351198Y1384014D02*
X1341202D01*
Y1379016D01*
X1342868Y1377350D01*
X1346200D01*
X1347866Y1379016D01*
Y1384014D01*
Y1380682D02*
X1351198Y1377350D01*
Y1374017D02*
Y1370685D01*
Y1372351D01*
X1341202D01*
X1342868Y1374017D01*
Y1365687D02*
X1341202Y1364021D01*
Y1360688D01*
X1342868Y1359022D01*
X1349532D01*
X1351198Y1360688D01*
Y1364021D01*
X1349532Y1365687D01*
X1342868D01*
X1351198Y1349026D02*
Y1355690D01*
X1344534Y1349026D01*
X1342868D01*
X1341202Y1350692D01*
Y1354024D01*
X1342868Y1355690D01*
X1384218Y1379808D02*
X1374222D01*
Y1374810D01*
X1375888Y1373144D01*
X1379220D01*
X1380886Y1374810D01*
Y1379808D01*
Y1376476D02*
X1384218Y1373144D01*
Y1369811D02*
Y1366479D01*
Y1368145D01*
X1374222D01*
X1375888Y1369811D01*
Y1361481D02*
X1374222Y1359815D01*
Y1356482D01*
X1375888Y1354816D01*
X1382552D01*
X1384218Y1356482D01*
Y1359815D01*
X1382552Y1361481D01*
X1375888D01*
X1384218Y1351484D02*
Y1348152D01*
Y1349818D01*
X1374222D01*
X1375888Y1351484D01*
X1418508Y1382744D02*
X1408512D01*
Y1377746D01*
X1410178Y1376080D01*
X1413510D01*
X1415176Y1377746D01*
Y1382744D01*
Y1379412D02*
X1418508Y1376080D01*
Y1372747D02*
Y1369415D01*
Y1371081D01*
X1408512D01*
X1410178Y1372747D01*
Y1364417D02*
X1408512Y1362751D01*
Y1359418D01*
X1410178Y1357752D01*
X1416842D01*
X1418508Y1359418D01*
Y1362751D01*
X1416842Y1364417D01*
X1410178D01*
Y1354420D02*
X1408512Y1352754D01*
Y1349422D01*
X1410178Y1347756D01*
X1416842D01*
X1418508Y1349422D01*
Y1352754D01*
X1416842Y1354420D01*
X1410178D01*
X1111168Y555619D02*
X1101172D01*
Y550621D01*
X1102838Y548955D01*
X1106170D01*
X1107836Y550621D01*
Y555619D01*
Y552287D02*
X1111168Y548955D01*
X1102838Y545622D02*
X1101172Y543956D01*
Y540624D01*
X1102838Y538958D01*
X1104504D01*
X1106170Y540624D01*
Y542290D01*
Y540624D01*
X1107836Y538958D01*
X1109502D01*
X1111168Y540624D01*
Y543956D01*
X1109502Y545622D01*
X1101172Y535625D02*
Y528961D01*
X1102838D01*
X1109502Y535625D01*
X1111168D01*
X1176661Y439502D02*
Y449498D01*
X1181659D01*
X1183326Y447832D01*
Y444500D01*
X1181659Y442834D01*
X1176661D01*
X1179993D02*
X1183326Y439502D01*
X1186658Y447832D02*
X1188324Y449498D01*
X1191656D01*
X1193322Y447832D01*
Y446166D01*
X1191656Y444500D01*
X1189990D01*
X1191656D01*
X1193322Y442834D01*
Y441168D01*
X1191656Y439502D01*
X1188324D01*
X1186658Y441168D01*
X1203319Y449498D02*
X1199987Y447832D01*
X1196655Y444500D01*
Y441168D01*
X1198321Y439502D01*
X1201653D01*
X1203319Y441168D01*
Y442834D01*
X1201653Y444500D01*
X1196655D01*
X1211662Y573411D02*
X1221658D01*
Y578409D01*
X1219992Y580075D01*
X1216660D01*
X1214994Y578409D01*
Y573411D01*
Y576743D02*
X1211662Y580075D01*
X1219992Y583408D02*
X1221658Y585074D01*
Y588406D01*
X1219992Y590072D01*
X1218326D01*
X1216660Y588406D01*
Y586740D01*
Y588406D01*
X1214994Y590072D01*
X1213328D01*
X1211662Y588406D01*
Y585074D01*
X1213328Y583408D01*
X1221658Y600069D02*
Y593405D01*
X1216660D01*
X1218326Y596737D01*
Y598403D01*
X1216660Y600069D01*
X1213328D01*
X1211662Y598403D01*
Y595071D01*
X1213328Y593405D01*
X1287862Y574071D02*
X1297858D01*
Y579069D01*
X1296192Y580735D01*
X1292860D01*
X1291194Y579069D01*
Y574071D01*
Y577403D02*
X1287862Y580735D01*
X1296192Y584068D02*
X1297858Y585734D01*
Y589066D01*
X1296192Y590732D01*
X1294526D01*
X1292860Y589066D01*
Y587400D01*
Y589066D01*
X1291194Y590732D01*
X1289528D01*
X1287862Y589066D01*
Y585734D01*
X1289528Y584068D01*
X1287862Y599063D02*
X1297858D01*
X1292860Y594064D01*
Y600729D01*
X1395648Y552469D02*
X1385652D01*
Y547471D01*
X1387318Y545804D01*
X1390650D01*
X1392316Y547471D01*
Y552469D01*
Y549137D02*
X1395648Y545804D01*
X1387318Y542472D02*
X1385652Y540806D01*
Y537474D01*
X1387318Y535808D01*
X1388984D01*
X1390650Y537474D01*
Y539140D01*
Y537474D01*
X1392316Y535808D01*
X1393982D01*
X1395648Y537474D01*
Y540806D01*
X1393982Y542472D01*
X1387318Y532476D02*
X1385652Y530809D01*
Y527477D01*
X1387318Y525811D01*
X1388984D01*
X1390650Y527477D01*
Y529143D01*
Y527477D01*
X1392316Y525811D01*
X1393982D01*
X1395648Y527477D01*
Y530809D01*
X1393982Y532476D01*
X1286491Y509188D02*
Y499192D01*
X1291489D01*
X1293155Y500858D01*
Y504190D01*
X1291489Y505856D01*
X1286491D01*
X1289823D02*
X1293155Y509188D01*
X1296488Y500858D02*
X1298154Y499192D01*
X1301486D01*
X1303152Y500858D01*
Y502524D01*
X1301486Y504190D01*
X1299820D01*
X1301486D01*
X1303152Y505856D01*
Y507522D01*
X1301486Y509188D01*
X1298154D01*
X1296488Y507522D01*
X1313149Y509188D02*
X1306485D01*
X1313149Y502524D01*
Y500858D01*
X1311483Y499192D01*
X1308151D01*
X1306485Y500858D01*
X847323Y779862D02*
Y789858D01*
X842325D01*
X840658Y788192D01*
Y784860D01*
X842325Y783194D01*
X847323D01*
X843991D02*
X840658Y779862D01*
X837326Y788192D02*
X835660Y789858D01*
X832328D01*
X830662Y788192D01*
Y786526D01*
X832328Y784860D01*
X833994D01*
X832328D01*
X830662Y783194D01*
Y781528D01*
X832328Y779862D01*
X835660D01*
X837326Y781528D01*
X827329Y779862D02*
X823997D01*
X825663D01*
Y789858D01*
X827329Y788192D01*
X895979Y816528D02*
Y806532D01*
X890981D01*
X889314Y808198D01*
Y811530D01*
X890981Y813196D01*
X895979D01*
X892647D02*
X889314Y816528D01*
X885982Y808198D02*
X884316Y806532D01*
X880984D01*
X879318Y808198D01*
Y809864D01*
X880984Y811530D01*
X882650D01*
X880984D01*
X879318Y813196D01*
Y814862D01*
X880984Y816528D01*
X884316D01*
X885982Y814862D01*
X875985Y808198D02*
X874319Y806532D01*
X870987D01*
X869321Y808198D01*
Y814862D01*
X870987Y816528D01*
X874319D01*
X875985Y814862D01*
Y808198D01*
X878199Y909402D02*
Y919398D01*
X873201D01*
X871535Y917732D01*
Y914400D01*
X873201Y912734D01*
X878199D01*
X874867D02*
X871535Y909402D01*
X861538D02*
X868202D01*
X861538Y916066D01*
Y917732D01*
X863204Y919398D01*
X866536D01*
X868202Y917732D01*
X858205Y911068D02*
X856539Y909402D01*
X853207D01*
X851541Y911068D01*
Y917732D01*
X853207Y919398D01*
X856539D01*
X858205Y917732D01*
Y916066D01*
X856539Y914400D01*
X851541D01*
X897249Y972738D02*
Y962742D01*
X892251D01*
X890584Y964408D01*
Y967740D01*
X892251Y969406D01*
X897249D01*
X893917D02*
X890584Y972738D01*
X880588D02*
X887252D01*
X880588Y966074D01*
Y964408D01*
X882254Y962742D01*
X885586D01*
X887252Y964408D01*
X877255D02*
X875589Y962742D01*
X872257D01*
X870591Y964408D01*
Y966074D01*
X872257Y967740D01*
X870591Y969406D01*
Y971072D01*
X872257Y972738D01*
X875589D01*
X877255Y971072D01*
Y969406D01*
X875589Y967740D01*
X877255Y966074D01*
Y964408D01*
X875589Y967740D02*
X872257D01*
X845179Y1083392D02*
Y1093388D01*
X840181D01*
X838514Y1091722D01*
Y1088390D01*
X840181Y1086724D01*
X845179D01*
X841847D02*
X838514Y1083392D01*
X828518D02*
X835182D01*
X828518Y1090056D01*
Y1091722D01*
X830184Y1093388D01*
X833516D01*
X835182Y1091722D01*
X825185Y1093388D02*
X818521D01*
Y1091722D01*
X825185Y1085058D01*
Y1083392D01*
X780968Y791839D02*
X770972D01*
Y786841D01*
X772638Y785174D01*
X775970D01*
X777636Y786841D01*
Y791839D01*
Y788507D02*
X780968Y785174D01*
Y775178D02*
Y781842D01*
X774304Y775178D01*
X772638D01*
X770972Y776844D01*
Y780176D01*
X772638Y781842D01*
X770972Y765181D02*
X772638Y768513D01*
X775970Y771845D01*
X779302D01*
X780968Y770179D01*
Y766847D01*
X779302Y765181D01*
X777636D01*
X775970Y766847D01*
Y771845D01*
X830498Y805821D02*
X820502D01*
Y810819D01*
X822168Y812486D01*
X825500D01*
X827166Y810819D01*
Y805821D01*
Y809153D02*
X830498Y812486D01*
Y822482D02*
Y815818D01*
X823834Y822482D01*
X822168D01*
X820502Y820816D01*
Y817484D01*
X822168Y815818D01*
X820502Y832479D02*
Y825815D01*
X825500D01*
X823834Y829147D01*
Y830813D01*
X825500Y832479D01*
X828832D01*
X830498Y830813D01*
Y827481D01*
X828832Y825815D01*
X784778Y950589D02*
X774782D01*
Y945591D01*
X776448Y943924D01*
X779780D01*
X781446Y945591D01*
Y950589D01*
Y947257D02*
X784778Y943924D01*
Y933928D02*
Y940592D01*
X778114Y933928D01*
X776448D01*
X774782Y935594D01*
Y938926D01*
X776448Y940592D01*
X784778Y925597D02*
X774782D01*
X779780Y930595D01*
Y923931D01*
X830498Y958221D02*
X820502D01*
Y963219D01*
X822168Y964885D01*
X825500D01*
X827166Y963219D01*
Y958221D01*
Y961553D02*
X830498Y964885D01*
Y974882D02*
Y968218D01*
X823834Y974882D01*
X822168D01*
X820502Y973216D01*
Y969884D01*
X822168Y968218D01*
Y978214D02*
X820502Y979881D01*
Y983213D01*
X822168Y984879D01*
X823834D01*
X825500Y983213D01*
Y981547D01*
Y983213D01*
X827166Y984879D01*
X828832D01*
X830498Y983213D01*
Y979881D01*
X828832Y978214D01*
X777158Y1104259D02*
X767162D01*
Y1099261D01*
X768828Y1097595D01*
X772160D01*
X773826Y1099261D01*
Y1104259D01*
Y1100927D02*
X777158Y1097595D01*
Y1087598D02*
Y1094262D01*
X770494Y1087598D01*
X768828D01*
X767162Y1089264D01*
Y1092596D01*
X768828Y1094262D01*
X777158Y1077601D02*
Y1084266D01*
X770494Y1077601D01*
X768828D01*
X767162Y1079267D01*
Y1082599D01*
X768828Y1084266D01*
X675558Y1169633D02*
X665562D01*
Y1164634D01*
X667228Y1162968D01*
X670560D01*
X672226Y1164634D01*
Y1169633D01*
Y1166301D02*
X675558Y1162968D01*
Y1152972D02*
Y1159636D01*
X668894Y1152972D01*
X667228D01*
X665562Y1154638D01*
Y1157970D01*
X667228Y1159636D01*
X675558Y1149639D02*
Y1146307D01*
Y1147973D01*
X665562D01*
X667228Y1149639D01*
X704345Y1173839D02*
X694348D01*
Y1168841D01*
X696014Y1167175D01*
X699347D01*
X701013Y1168841D01*
Y1173839D01*
Y1170507D02*
X704345Y1167175D01*
Y1157178D02*
Y1163842D01*
X697681Y1157178D01*
X696014D01*
X694348Y1158844D01*
Y1162176D01*
X696014Y1163842D01*
Y1153846D02*
X694348Y1152179D01*
Y1148847D01*
X696014Y1147181D01*
X702679D01*
X704345Y1148847D01*
Y1152179D01*
X702679Y1153846D01*
X696014D01*
X733132Y1171736D02*
X723135D01*
Y1166738D01*
X724801Y1165071D01*
X728133D01*
X729799Y1166738D01*
Y1171736D01*
Y1168404D02*
X733132Y1165071D01*
Y1161739D02*
Y1158407D01*
Y1160073D01*
X723135D01*
X724801Y1161739D01*
X731466Y1153409D02*
X733132Y1151742D01*
Y1148410D01*
X731466Y1146744D01*
X724801D01*
X723135Y1148410D01*
Y1151742D01*
X724801Y1153409D01*
X726467D01*
X728133Y1151742D01*
Y1146744D01*
X760648Y1173666D02*
X750652D01*
Y1168668D01*
X752318Y1167001D01*
X755650D01*
X757316Y1168668D01*
Y1173666D01*
Y1170334D02*
X760648Y1167001D01*
Y1163669D02*
Y1160337D01*
Y1162003D01*
X750652D01*
X752318Y1163669D01*
Y1155339D02*
X750652Y1153672D01*
Y1150340D01*
X752318Y1148674D01*
X753984D01*
X755650Y1150340D01*
X757316Y1148674D01*
X758982D01*
X760648Y1150340D01*
Y1153672D01*
X758982Y1155339D01*
X757316D01*
X755650Y1153672D01*
X753984Y1155339D01*
X752318D01*
X755650Y1153672D02*
Y1150340D01*
X653846Y858602D02*
Y868598D01*
X648848D01*
X647181Y866932D01*
Y863600D01*
X648848Y861934D01*
X653846D01*
X650514D02*
X647181Y858602D01*
X643849D02*
X640517D01*
X642183D01*
Y868598D01*
X643849Y866932D01*
X635518Y868598D02*
X628854D01*
Y866932D01*
X635518Y860268D01*
Y858602D01*
X1375328Y1039616D02*
Y1032952D01*
X1370330D01*
Y1036284D01*
Y1032952D01*
X1365332D01*
Y1042949D02*
Y1046281D01*
Y1044615D01*
X1375328D01*
X1373662Y1042949D01*
Y1051279D02*
X1375328Y1052945D01*
Y1056278D01*
X1373662Y1057944D01*
X1366998D01*
X1365332Y1056278D01*
Y1052945D01*
X1366998Y1051279D01*
X1373662D01*
X1365332Y1061276D02*
Y1064608D01*
Y1062942D01*
X1375328D01*
X1373662Y1061276D01*
X1377040Y834472D02*
X1370376D01*
Y839470D01*
X1373708D01*
X1370376D01*
Y844468D01*
X1380372D02*
X1383705D01*
X1382039D01*
Y834472D01*
X1380372Y836138D01*
X1388703D02*
X1390369Y834472D01*
X1393701D01*
X1395367Y836138D01*
Y842802D01*
X1393701Y844468D01*
X1390369D01*
X1388703Y842802D01*
Y836138D01*
X1398700D02*
X1400366Y834472D01*
X1403698D01*
X1405364Y836138D01*
Y842802D01*
X1403698Y844468D01*
X1400366D01*
X1398700Y842802D01*
Y836138D01*
X1078148Y730454D02*
X1068152D01*
Y735452D01*
X1069818Y737119D01*
X1076482D01*
X1078148Y735452D01*
Y730454D01*
X1068152Y740451D02*
Y743783D01*
Y742117D01*
X1078148D01*
X1076482Y740451D01*
Y748781D02*
X1078148Y750447D01*
Y753780D01*
X1076482Y755446D01*
X1074816D01*
X1073150Y753780D01*
Y752114D01*
Y753780D01*
X1071484Y755446D01*
X1069818D01*
X1068152Y753780D01*
Y750447D01*
X1069818Y748781D01*
X816406Y632378D02*
Y622382D01*
X811408D01*
X809742Y624048D01*
Y630712D01*
X811408Y632378D01*
X816406D01*
X806409Y622382D02*
X803077D01*
X804743D01*
Y632378D01*
X806409Y630712D01*
X791414Y622382D02*
X798079D01*
X791414Y629046D01*
Y630712D01*
X793080Y632378D01*
X796412D01*
X798079Y630712D01*
X904910Y717468D02*
Y707472D01*
X899911D01*
X898245Y709138D01*
Y715802D01*
X899911Y717468D01*
X904910D01*
X894913Y707472D02*
X891581D01*
X893247D01*
Y717468D01*
X894913Y715802D01*
X886582Y707472D02*
X883250D01*
X884916D01*
Y717468D01*
X886582Y715802D01*
X796849Y472992D02*
Y482988D01*
X801848D01*
X803514Y481322D01*
Y474658D01*
X801848Y472992D01*
X796849D01*
X806846Y481322D02*
X808512Y482988D01*
X811844D01*
X813511Y481322D01*
Y474658D01*
X811844Y472992D01*
X808512D01*
X806846Y474658D01*
Y476324D01*
X808512Y477990D01*
X813511D01*
X880669Y473792D02*
Y483788D01*
X885668D01*
X887334Y482122D01*
Y475458D01*
X885668Y473792D01*
X880669D01*
X890666Y475458D02*
X892332Y473792D01*
X895665D01*
X897331Y475458D01*
Y477124D01*
X895665Y478790D01*
X897331Y480456D01*
Y482122D01*
X895665Y483788D01*
X892332D01*
X890666Y482122D01*
Y480456D01*
X892332Y478790D01*
X890666Y477124D01*
Y475458D01*
X892332Y478790D02*
X895665D01*
X1091641Y694608D02*
Y684612D01*
X1086642D01*
X1084976Y686278D01*
Y692942D01*
X1086642Y694608D01*
X1091641D01*
X1081644D02*
X1074979D01*
Y692942D01*
X1081644Y686278D01*
Y684612D01*
X530149Y913212D02*
Y923208D01*
X535148D01*
X536814Y921542D01*
Y914878D01*
X535148Y913212D01*
X530149D01*
X546811D02*
X540146D01*
Y918210D01*
X543478Y916544D01*
X545145D01*
X546811Y918210D01*
Y921542D01*
X545145Y923208D01*
X541812D01*
X540146Y921542D01*
X1178082Y953933D02*
X1179748Y952267D01*
Y948935D01*
X1178082Y947269D01*
X1171418D01*
X1169752Y948935D01*
Y952267D01*
X1171418Y953933D01*
X1169752Y957265D02*
Y960598D01*
Y958932D01*
X1179748D01*
X1178082Y957265D01*
X1169752Y965596D02*
Y968928D01*
Y967262D01*
X1179748D01*
X1178082Y965596D01*
Y973927D02*
X1179748Y975593D01*
Y978925D01*
X1178082Y980591D01*
X1176416D01*
X1174750Y978925D01*
Y977259D01*
Y978925D01*
X1173084Y980591D01*
X1171418D01*
X1169752Y978925D01*
Y975593D01*
X1171418Y973927D01*
X1153952Y953933D02*
X1155618Y952267D01*
Y948935D01*
X1153952Y947269D01*
X1147288D01*
X1145622Y948935D01*
Y952267D01*
X1147288Y953933D01*
X1145622Y957265D02*
Y960598D01*
Y958932D01*
X1155618D01*
X1153952Y957265D01*
X1145622Y965596D02*
Y968928D01*
Y967262D01*
X1155618D01*
X1153952Y965596D01*
X1145622Y980591D02*
Y973927D01*
X1152286Y980591D01*
X1153952D01*
X1155618Y978925D01*
Y975593D01*
X1153952Y973927D01*
X1342553Y975838D02*
X1340887Y974172D01*
X1337555D01*
X1335889Y975838D01*
Y982502D01*
X1337555Y984168D01*
X1340887D01*
X1342553Y982502D01*
X1345885Y984168D02*
X1349218D01*
X1347552D01*
Y974172D01*
X1345885Y975838D01*
X1354216Y984168D02*
X1357548D01*
X1355882D01*
Y974172D01*
X1354216Y975838D01*
X1362547D02*
X1364213Y974172D01*
X1367545D01*
X1369211Y975838D01*
Y982502D01*
X1367545Y984168D01*
X1364213D01*
X1362547Y982502D01*
Y975838D01*
X1223488Y1129700D02*
X1221822Y1131366D01*
Y1134698D01*
X1223488Y1136364D01*
X1230152D01*
X1231818Y1134698D01*
Y1131366D01*
X1230152Y1129700D01*
X1231818Y1126367D02*
Y1123035D01*
Y1124701D01*
X1221822D01*
X1223488Y1126367D01*
Y1118037D02*
X1221822Y1116371D01*
Y1113038D01*
X1223488Y1111372D01*
X1230152D01*
X1231818Y1113038D01*
Y1116371D01*
X1230152Y1118037D01*
X1223488D01*
X1230152Y1108040D02*
X1231818Y1106374D01*
Y1103042D01*
X1230152Y1101376D01*
X1223488D01*
X1221822Y1103042D01*
Y1106374D01*
X1223488Y1108040D01*
X1225154D01*
X1226820Y1106374D01*
Y1101376D01*
X1108232Y1102960D02*
X1109898Y1101294D01*
Y1097962D01*
X1108232Y1096296D01*
X1101568D01*
X1099902Y1097962D01*
Y1101294D01*
X1101568Y1102960D01*
X1099902Y1106292D02*
Y1109625D01*
Y1107959D01*
X1109898D01*
X1108232Y1106292D01*
Y1114623D02*
X1109898Y1116289D01*
Y1119621D01*
X1108232Y1121288D01*
X1101568D01*
X1099902Y1119621D01*
Y1116289D01*
X1101568Y1114623D01*
X1108232D01*
X1109898Y1131284D02*
X1108232Y1127952D01*
X1104900Y1124620D01*
X1101568D01*
X1099902Y1126286D01*
Y1129618D01*
X1101568Y1131284D01*
X1103234D01*
X1104900Y1129618D01*
Y1124620D01*
X940278Y1054770D02*
X938612Y1056436D01*
Y1059768D01*
X940278Y1061434D01*
X946942D01*
X948608Y1059768D01*
Y1056436D01*
X946942Y1054770D01*
X948608Y1051438D02*
Y1048105D01*
Y1049771D01*
X938612D01*
X940278Y1051438D01*
Y1043107D02*
X938612Y1041441D01*
Y1038109D01*
X940278Y1036442D01*
X946942D01*
X948608Y1038109D01*
Y1041441D01*
X946942Y1043107D01*
X940278D01*
X938612Y1026446D02*
Y1033110D01*
X943610D01*
X941944Y1029778D01*
Y1028112D01*
X943610Y1026446D01*
X946942D01*
X948608Y1028112D01*
Y1031444D01*
X946942Y1033110D01*
X1105378Y1232570D02*
X1103712Y1234236D01*
Y1237568D01*
X1105378Y1239234D01*
X1112042D01*
X1113708Y1237568D01*
Y1234236D01*
X1112042Y1232570D01*
X1113708Y1229238D02*
Y1225905D01*
Y1227571D01*
X1103712D01*
X1105378Y1229238D01*
Y1220907D02*
X1103712Y1219241D01*
Y1215909D01*
X1105378Y1214242D01*
X1112042D01*
X1113708Y1215909D01*
Y1219241D01*
X1112042Y1220907D01*
X1105378D01*
X1113708Y1204246D02*
Y1210910D01*
X1107044Y1204246D01*
X1105378D01*
X1103712Y1205912D01*
Y1209244D01*
X1105378Y1210910D01*
X1081248Y1228364D02*
X1079582Y1230030D01*
Y1233362D01*
X1081248Y1235028D01*
X1087912D01*
X1089578Y1233362D01*
Y1230030D01*
X1087912Y1228364D01*
X1089578Y1225031D02*
Y1221699D01*
Y1223365D01*
X1079582D01*
X1081248Y1225031D01*
Y1216701D02*
X1079582Y1215035D01*
Y1211702D01*
X1081248Y1210036D01*
X1087912D01*
X1089578Y1211702D01*
Y1215035D01*
X1087912Y1216701D01*
X1081248D01*
X1089578Y1206704D02*
Y1203372D01*
Y1205038D01*
X1079582D01*
X1081248Y1206704D01*
X1153760Y1168878D02*
X1152094Y1167212D01*
X1148762D01*
X1147096Y1168878D01*
Y1175542D01*
X1148762Y1177208D01*
X1152094D01*
X1153760Y1175542D01*
X1157092Y1177208D02*
X1160425D01*
X1158759D01*
Y1167212D01*
X1157092Y1168878D01*
X1165423D02*
X1167089Y1167212D01*
X1170422D01*
X1172088Y1168878D01*
Y1175542D01*
X1170422Y1177208D01*
X1167089D01*
X1165423Y1175542D01*
Y1168878D01*
X1175420D02*
X1177086Y1167212D01*
X1180418D01*
X1182084Y1168878D01*
Y1175542D01*
X1180418Y1177208D01*
X1177086D01*
X1175420Y1175542D01*
Y1168878D01*
X1041848Y743153D02*
X1043514Y744819D01*
X1046846D01*
X1048512Y743153D01*
Y736488D01*
X1046846Y734822D01*
X1043514D01*
X1041848Y736488D01*
X1038515Y743153D02*
X1036849Y744819D01*
X1033517D01*
X1031851Y743153D01*
Y741487D01*
X1033517Y739820D01*
X1035183D01*
X1033517D01*
X1031851Y738154D01*
Y736488D01*
X1033517Y734822D01*
X1036849D01*
X1038515Y736488D01*
X1021854Y744819D02*
X1028518D01*
Y739820D01*
X1025186Y741487D01*
X1023520D01*
X1021854Y739820D01*
Y736488D01*
X1023520Y734822D01*
X1026852D01*
X1028518Y736488D01*
X993618Y675955D02*
X991952Y677621D01*
Y680953D01*
X993618Y682619D01*
X1000282D01*
X1001948Y680953D01*
Y677621D01*
X1000282Y675955D01*
X993618Y672622D02*
X991952Y670956D01*
Y667624D01*
X993618Y665958D01*
X995284D01*
X996950Y667624D01*
Y669290D01*
Y667624D01*
X998616Y665958D01*
X1000282D01*
X1001948Y667624D01*
Y670956D01*
X1000282Y672622D01*
X1001948Y655961D02*
Y662626D01*
X995284Y655961D01*
X993618D01*
X991952Y657627D01*
Y660959D01*
X993618Y662626D01*
X775178Y736915D02*
X773512Y738581D01*
Y741913D01*
X775178Y743579D01*
X781842D01*
X783508Y741913D01*
Y738581D01*
X781842Y736915D01*
X775178Y733582D02*
X773512Y731916D01*
Y728584D01*
X775178Y726918D01*
X776844D01*
X778510Y728584D01*
Y730250D01*
Y728584D01*
X780176Y726918D01*
X781842D01*
X783508Y728584D01*
Y731916D01*
X781842Y733582D01*
X775178Y723586D02*
X773512Y721919D01*
Y718587D01*
X775178Y716921D01*
X781842D01*
X783508Y718587D01*
Y721919D01*
X781842Y723586D01*
X775178D01*
X770098Y896935D02*
X768432Y898601D01*
Y901933D01*
X770098Y903599D01*
X776762D01*
X778428Y901933D01*
Y898601D01*
X776762Y896935D01*
X778428Y886938D02*
Y893602D01*
X771764Y886938D01*
X770098D01*
X768432Y888604D01*
Y891936D01*
X770098Y893602D01*
Y883605D02*
X768432Y881939D01*
Y878607D01*
X770098Y876941D01*
X771764D01*
X773430Y878607D01*
X775096Y876941D01*
X776762D01*
X778428Y878607D01*
Y881939D01*
X776762Y883605D01*
X775096D01*
X773430Y881939D01*
X771764Y883605D01*
X770098D01*
X773430Y881939D02*
Y878607D01*
X768828Y1044255D02*
X767162Y1045921D01*
Y1049253D01*
X768828Y1050919D01*
X775492D01*
X777158Y1049253D01*
Y1045921D01*
X775492Y1044255D01*
X777158Y1034258D02*
Y1040922D01*
X770494Y1034258D01*
X768828D01*
X767162Y1035924D01*
Y1039256D01*
X768828Y1040922D01*
X767162Y1024261D02*
X768828Y1027593D01*
X772160Y1030926D01*
X775492D01*
X777158Y1029259D01*
Y1025927D01*
X775492Y1024261D01*
X773826D01*
X772160Y1025927D01*
Y1030926D01*
X686755Y1311118D02*
X685089Y1309452D01*
X681757D01*
X680091Y1311118D01*
Y1317782D01*
X681757Y1319448D01*
X685089D01*
X686755Y1317782D01*
X696752Y1319448D02*
X690088D01*
X696752Y1312784D01*
Y1311118D01*
X695086Y1309452D01*
X691754D01*
X690088Y1311118D01*
X706749Y1309452D02*
X700085D01*
Y1314450D01*
X703417Y1312784D01*
X705083D01*
X706749Y1314450D01*
Y1317782D01*
X705083Y1319448D01*
X701751D01*
X700085Y1317782D01*
X643098Y1316035D02*
X641432Y1317701D01*
Y1321033D01*
X643098Y1322699D01*
X649762D01*
X651428Y1321033D01*
Y1317701D01*
X649762Y1316035D01*
X651428Y1306038D02*
Y1312702D01*
X644764Y1306038D01*
X643098D01*
X641432Y1307704D01*
Y1311036D01*
X643098Y1312702D01*
X651428Y1297707D02*
X641432D01*
X646430Y1302706D01*
Y1296041D01*
X768035Y1307308D02*
X766369Y1305642D01*
X763037D01*
X761371Y1307308D01*
Y1313972D01*
X763037Y1315638D01*
X766369D01*
X768035Y1313972D01*
X778032Y1315638D02*
X771368D01*
X778032Y1308974D01*
Y1307308D01*
X776366Y1305642D01*
X773034D01*
X771368Y1307308D01*
X781365D02*
X783031Y1305642D01*
X786363D01*
X788029Y1307308D01*
Y1308974D01*
X786363Y1310640D01*
X784697D01*
X786363D01*
X788029Y1312306D01*
Y1313972D01*
X786363Y1315638D01*
X783031D01*
X781365Y1313972D01*
X720568Y1299525D02*
X718902Y1301191D01*
Y1304523D01*
X720568Y1306189D01*
X727232D01*
X728898Y1304523D01*
Y1301191D01*
X727232Y1299525D01*
X728898Y1289528D02*
Y1296192D01*
X722234Y1289528D01*
X720568D01*
X718902Y1291194D01*
Y1294526D01*
X720568Y1296192D01*
X728898Y1279531D02*
Y1286196D01*
X722234Y1279531D01*
X720568D01*
X718902Y1281197D01*
Y1284529D01*
X720568Y1286196D01*
X848442Y1311118D02*
X846776Y1309452D01*
X843443D01*
X841777Y1311118D01*
Y1317782D01*
X843443Y1319448D01*
X846776D01*
X848442Y1317782D01*
X858438Y1319448D02*
X851774D01*
X858438Y1312784D01*
Y1311118D01*
X856772Y1309452D01*
X853440D01*
X851774Y1311118D01*
X861771Y1319448D02*
X865103D01*
X863437D01*
Y1309452D01*
X861771Y1311118D01*
X800578Y1307144D02*
X798912Y1308811D01*
Y1312143D01*
X800578Y1313809D01*
X807242D01*
X808908Y1312143D01*
Y1308811D01*
X807242Y1307144D01*
X808908Y1297148D02*
Y1303812D01*
X802244Y1297148D01*
X800578D01*
X798912Y1298814D01*
Y1302146D01*
X800578Y1303812D01*
Y1293815D02*
X798912Y1292149D01*
Y1288817D01*
X800578Y1287151D01*
X807242D01*
X808908Y1288817D01*
Y1292149D01*
X807242Y1293815D01*
X800578D01*
X928888Y1311118D02*
X927222Y1309452D01*
X923890D01*
X922224Y1311118D01*
Y1317782D01*
X923890Y1319448D01*
X927222D01*
X928888Y1317782D01*
X932221Y1319448D02*
X935553D01*
X933887D01*
Y1309452D01*
X932221Y1311118D01*
X940551Y1317782D02*
X942217Y1319448D01*
X945550D01*
X947216Y1317782D01*
Y1311118D01*
X945550Y1309452D01*
X942217D01*
X940551Y1311118D01*
Y1312784D01*
X942217Y1314450D01*
X947216D01*
X880588Y1301232D02*
X878922Y1302898D01*
Y1306230D01*
X880588Y1307896D01*
X887252D01*
X888918Y1306230D01*
Y1302898D01*
X887252Y1301232D01*
X888918Y1297899D02*
Y1294567D01*
Y1296233D01*
X878922D01*
X880588Y1297899D01*
Y1289568D02*
X878922Y1287902D01*
Y1284570D01*
X880588Y1282904D01*
X882254D01*
X883920Y1284570D01*
X885586Y1282904D01*
X887252D01*
X888918Y1284570D01*
Y1287902D01*
X887252Y1289568D01*
X885586D01*
X883920Y1287902D01*
X882254Y1289568D01*
X880588D01*
X883920Y1287902D02*
Y1284570D01*
X719298Y917691D02*
X717632Y919358D01*
Y922690D01*
X719298Y924356D01*
X725962D01*
X727628Y922690D01*
Y919358D01*
X725962Y917691D01*
X727628Y914359D02*
Y911027D01*
Y912693D01*
X717632D01*
X719298Y914359D01*
X717632Y899364D02*
X719298Y902696D01*
X722630Y906029D01*
X725962D01*
X727628Y904362D01*
Y901030D01*
X725962Y899364D01*
X724296D01*
X722630Y901030D01*
Y906029D01*
X718028Y964681D02*
X716362Y966348D01*
Y969680D01*
X718028Y971346D01*
X724692D01*
X726358Y969680D01*
Y966348D01*
X724692Y964681D01*
X726358Y961349D02*
Y958017D01*
Y959683D01*
X716362D01*
X718028Y961349D01*
X716362Y946354D02*
Y953018D01*
X721360D01*
X719694Y949686D01*
Y948020D01*
X721360Y946354D01*
X724692D01*
X726358Y948020D01*
Y951352D01*
X724692Y953018D01*
D12*
X522450Y928610D02*
Y958610D01*
X582450D01*
Y928610D02*
Y958610D01*
X522450Y928610D02*
X582450D01*
X554450Y949610D02*
X560450Y943610D01*
X554450Y937610D02*
X560450Y943610D01*
X560450D01*
X544450D02*
X560450D01*
X1024510Y744220D02*
X1040510D01*
X1024510D02*
X1024510D01*
X1030510Y750220D01*
X1024510Y744220D02*
X1030510Y738220D01*
X1002510Y759220D02*
X1062510D01*
X1002510Y729220D02*
Y759220D01*
Y729220D02*
X1062510D01*
Y759220D01*
X1069580Y678970D02*
X1099580D01*
Y618970D02*
Y678970D01*
X1069580Y618970D02*
X1099580D01*
X1069580D02*
Y678970D01*
X1084580Y640970D02*
X1090580Y646970D01*
X1078580D02*
X1084580Y640970D01*
Y640970D02*
Y640970D01*
Y640970D02*
Y656970D01*
X790180Y549900D02*
X820180D01*
Y489900D02*
Y549900D01*
X790180Y489900D02*
X820180D01*
X790180D02*
Y549900D01*
X805180Y511900D02*
X811180Y517900D01*
X799180D02*
X805180Y511900D01*
Y511900D02*
Y511900D01*
Y511900D02*
Y527900D01*
X874000Y491970D02*
X904000D01*
X874000D02*
Y551970D01*
X904000D01*
Y491970D02*
Y551970D01*
X883000Y523970D02*
X889000Y529970D01*
X889000D02*
X895000Y523970D01*
X889000Y529970D02*
Y529970D01*
Y513970D02*
Y529970D01*
X786370Y637550D02*
X816370D01*
Y697550D01*
X786370D02*
X816370D01*
X786370Y637550D02*
Y697550D01*
X801370Y675550D02*
X807370Y669550D01*
X795370D02*
X801370Y675550D01*
Y675550D01*
Y659550D02*
Y675550D01*
X880350Y641240D02*
X910350D01*
Y701240D01*
X880350D02*
X910350D01*
X880350Y641240D02*
Y701240D01*
X895350Y679240D02*
X901350Y673240D01*
X889350D02*
X895350Y679240D01*
Y679240D01*
Y663240D02*
Y679240D01*
M02*
