G04*
G04 #@! TF.GenerationSoftware,Altium Limited,Altium Designer,23.6.0 (18)*
G04*
G04 Layer_Color=2752767*
%FSLAX44Y44*%
%MOMM*%
G71*
G04*
G04 #@! TF.SameCoordinates,14B29CA8-F054-4B9D-9142-CABF167E231F*
G04*
G04*
G04 #@! TF.FilePolarity,Positive*
G04*
G01*
G75*
%ADD16C,0.1270*%
%ADD131C,0.1693*%
%ADD132C,0.1016*%
D16*
X657860Y905510D02*
Y915670D01*
X668020D01*
Y905510D01*
X657860D01*
Y930910D02*
Y941070D01*
X668020D01*
Y930910D01*
X657860D01*
Y956310D02*
Y966470D01*
X668020D01*
Y956310D01*
X657860D01*
X896620Y1097280D02*
X891540Y1107440D01*
X901700D01*
X896620Y1097280D01*
X1013460Y568960D02*
X1008380Y579120D01*
X1018540D01*
X1013460Y568960D01*
X1428750Y448310D02*
X1423670Y458470D01*
X1433830D01*
X1428750Y448310D01*
X1410970Y1220470D02*
X1405890Y1230630D01*
X1416050D01*
X1410970Y1220470D01*
X1403620Y1134570D02*
X1408700Y1139650D01*
X1413780Y1134570D01*
X1408700Y1129490D01*
X1403620Y1134570D01*
X1454120Y1151490D02*
X1456660D01*
X1459200Y1154030D01*
X1461740Y1151490D01*
X1464280D01*
Y1154030D01*
X1461740Y1156570D01*
X1464280Y1159110D01*
Y1161650D01*
X1461740D01*
X1459200Y1159110D01*
X1456660Y1161650D01*
X1454120D01*
Y1159110D01*
X1456660Y1156570D01*
X1454120Y1154030D01*
Y1151490D01*
Y1035490D02*
X1456660D01*
X1459200Y1038030D01*
X1461740Y1035490D01*
X1464280D01*
Y1038030D01*
X1461740Y1040570D01*
X1464280Y1043110D01*
Y1045650D01*
X1461740D01*
X1459200Y1043110D01*
X1456660Y1045650D01*
X1454120D01*
Y1043110D01*
X1456660Y1040570D01*
X1454120Y1038030D01*
Y1035490D01*
X1409960Y1147030D02*
Y1144490D01*
X1415040D01*
Y1147030D01*
X1417580D01*
Y1152110D01*
X1415040D01*
Y1154650D01*
X1409960D01*
Y1152110D01*
X1407420D01*
Y1147030D01*
X1409960D01*
Y1045030D02*
Y1042490D01*
X1415040D01*
Y1045030D01*
X1417580D01*
Y1050110D01*
X1415040D01*
Y1052650D01*
X1409960D01*
Y1050110D01*
X1407420D01*
Y1045030D01*
X1409960D01*
X1403620Y1057490D02*
X1406160Y1062570D01*
X1403620Y1067650D01*
X1408700Y1065110D01*
X1413780Y1067650D01*
X1411240Y1062570D01*
X1413780Y1057490D01*
X1408700Y1060030D01*
X1403620Y1057490D01*
X1029970Y1253490D02*
X1032510Y1256030D01*
X1035050D01*
X1032510Y1258570D01*
X1035050Y1261110D01*
X1032510D01*
X1029970Y1263650D01*
X1027430Y1261110D01*
X1024890D01*
X1027430Y1258570D01*
X1024890Y1256030D01*
X1027430D01*
X1029970Y1253490D01*
Y1278890D02*
X1032510Y1281430D01*
X1035050D01*
X1032510Y1283970D01*
X1035050Y1286510D01*
X1032510D01*
X1029970Y1289050D01*
X1027430Y1286510D01*
X1024890D01*
X1027430Y1283970D01*
X1024890Y1281430D01*
X1027430D01*
X1029970Y1278890D01*
Y1304290D02*
X1032510Y1306830D01*
X1035050D01*
X1032510Y1309370D01*
X1035050Y1311910D01*
X1032510D01*
X1029970Y1314450D01*
X1027430Y1311910D01*
X1024890D01*
X1027430Y1309370D01*
X1024890Y1306830D01*
X1027430D01*
X1029970Y1304290D01*
Y1329690D02*
X1032510Y1332230D01*
X1035050D01*
X1032510Y1334770D01*
X1035050Y1337310D01*
X1032510D01*
X1029970Y1339850D01*
X1027430Y1337310D01*
X1024890D01*
X1027430Y1334770D01*
X1024890Y1332230D01*
X1027430D01*
X1029970Y1329690D01*
Y1355090D02*
X1032510Y1357630D01*
X1035050D01*
X1032510Y1360170D01*
X1035050Y1362710D01*
X1032510D01*
X1029970Y1365250D01*
X1027430Y1362710D01*
X1024890D01*
X1027430Y1360170D01*
X1024890Y1357630D01*
X1027430D01*
X1029970Y1355090D01*
Y1380490D02*
X1032510Y1383030D01*
X1035050D01*
X1032510Y1385570D01*
X1035050Y1388110D01*
X1032510D01*
X1029970Y1390650D01*
X1027430Y1388110D01*
X1024890D01*
X1027430Y1385570D01*
X1024890Y1383030D01*
X1027430D01*
X1029970Y1380490D01*
X1441450Y787400D02*
X1443990Y789940D01*
X1446530D01*
X1443990Y792480D01*
X1446530Y795020D01*
X1443990D01*
X1441450Y797560D01*
X1438910Y795020D01*
X1436370D01*
X1438910Y792480D01*
X1436370Y789940D01*
X1438910D01*
X1441450Y787400D01*
Y762000D02*
X1443990Y764540D01*
X1446530D01*
X1443990Y767080D01*
X1446530Y769620D01*
X1443990D01*
X1441450Y772160D01*
X1438910Y769620D01*
X1436370D01*
X1438910Y767080D01*
X1436370Y764540D01*
X1438910D01*
X1441450Y762000D01*
Y736600D02*
X1443990Y739140D01*
X1446530D01*
X1443990Y741680D01*
X1446530Y744220D01*
X1443990D01*
X1441450Y746760D01*
X1438910Y744220D01*
X1436370D01*
X1438910Y741680D01*
X1436370Y739140D01*
X1438910D01*
X1441450Y736600D01*
Y711200D02*
X1443990Y713740D01*
X1446530D01*
X1443990Y716280D01*
X1446530Y718820D01*
X1443990D01*
X1441450Y721360D01*
X1438910Y718820D01*
X1436370D01*
X1438910Y716280D01*
X1436370Y713740D01*
X1438910D01*
X1441450Y711200D01*
Y685800D02*
X1443990Y688340D01*
X1446530D01*
X1443990Y690880D01*
X1446530Y693420D01*
X1443990D01*
X1441450Y695960D01*
X1438910Y693420D01*
X1436370D01*
X1438910Y690880D01*
X1436370Y688340D01*
X1438910D01*
X1441450Y685800D01*
Y660400D02*
X1443990Y662940D01*
X1446530D01*
X1443990Y665480D01*
X1446530Y668020D01*
X1443990D01*
X1441450Y670560D01*
X1438910Y668020D01*
X1436370D01*
X1438910Y665480D01*
X1436370Y662940D01*
X1438910D01*
X1441450Y660400D01*
X1024890Y767080D02*
Y777240D01*
X1035050D01*
Y767080D01*
X1024890D01*
X1026922Y769112D02*
Y775208D01*
X1033018D01*
Y769112D01*
X1026922D01*
X1024890Y731520D02*
Y741680D01*
X1035050D01*
Y731520D01*
X1024890D01*
X1026922Y733552D02*
Y739648D01*
X1033018D01*
Y733552D01*
X1026922D01*
X1037590Y736600D02*
Y746760D01*
X1047750D01*
Y736600D01*
X1037590D01*
X1039622Y738632D02*
Y744728D01*
X1045718D01*
Y738632D01*
X1039622D01*
X751840Y1273810D02*
Y1283970D01*
X762000D01*
Y1273810D01*
X751840D01*
X753872Y1275842D02*
Y1281938D01*
X759968D01*
Y1275842D01*
X753872D01*
X1050290Y803910D02*
Y814070D01*
X1060450D01*
Y803910D01*
X1050290D01*
X1052322Y805942D02*
Y812038D01*
X1058418D01*
Y805942D01*
X1052322D01*
X979170Y781050D02*
Y791210D01*
X989330D01*
Y781050D01*
X979170D01*
X981202Y783082D02*
Y789178D01*
X987298D01*
Y783082D01*
X981202D01*
X1157550Y1066849D02*
Y1077009D01*
X1167710D01*
Y1066849D01*
X1157550D01*
X1159582Y1068881D02*
Y1074977D01*
X1165678D01*
Y1068881D01*
X1159582D01*
X979170Y665330D02*
Y675490D01*
X989330D01*
Y665330D01*
X979170D01*
X981202Y667362D02*
Y673458D01*
X987298D01*
Y667362D01*
X981202D01*
X1434920Y1374920D02*
Y1385080D01*
X1445080D01*
Y1374920D01*
X1434920D01*
X1436952Y1376952D02*
Y1383048D01*
X1443048D01*
Y1376952D01*
X1436952D01*
X1449920Y1344920D02*
Y1355080D01*
X1460080D01*
Y1344920D01*
X1449920D01*
X1451952Y1346952D02*
Y1353048D01*
X1458048D01*
Y1346952D01*
X1451952D01*
X1434920Y1314920D02*
Y1325080D01*
X1445080D01*
Y1314920D01*
X1434920D01*
X1436952Y1316952D02*
Y1323048D01*
X1443048D01*
Y1316952D01*
X1436952D01*
X1449920Y1284920D02*
Y1295080D01*
X1460080D01*
Y1284920D01*
X1449920D01*
X1451952Y1286952D02*
Y1293048D01*
X1458048D01*
Y1286952D01*
X1451952D01*
X1434920Y1254920D02*
Y1265080D01*
X1445080D01*
Y1254920D01*
X1434920D01*
X1436952Y1256952D02*
Y1263048D01*
X1443048D01*
Y1256952D01*
X1436952D01*
X1449920Y1224920D02*
Y1235080D01*
X1460080D01*
Y1224920D01*
X1449920D01*
X1451952Y1226952D02*
Y1233048D01*
X1458048D01*
Y1226952D01*
X1451952D01*
X1434920Y1194920D02*
Y1205080D01*
X1445080D01*
Y1194920D01*
X1434920D01*
X1436952Y1196952D02*
Y1203048D01*
X1443048D01*
Y1196952D01*
X1436952D01*
X1449920Y1164920D02*
Y1175080D01*
X1460080D01*
Y1164920D01*
X1449920D01*
X1451952Y1166952D02*
Y1173048D01*
X1458048D01*
Y1166952D01*
X1451952D01*
X1434920Y1134920D02*
Y1145080D01*
X1445080D01*
Y1134920D01*
X1434920D01*
X1436952Y1136952D02*
Y1143048D01*
X1443048D01*
Y1136952D01*
X1436952D01*
X1449920Y1104920D02*
Y1115080D01*
X1460080D01*
Y1104920D01*
X1449920D01*
X1451952Y1106952D02*
Y1113048D01*
X1458048D01*
Y1106952D01*
X1451952D01*
X1434920Y1074920D02*
Y1085080D01*
X1445080D01*
Y1074920D01*
X1434920D01*
X1436952Y1076952D02*
Y1083048D01*
X1443048D01*
Y1076952D01*
X1436952D01*
X1434920Y1014920D02*
Y1025080D01*
X1445080D01*
Y1014920D01*
X1434920D01*
X1436952Y1016952D02*
Y1023048D01*
X1443048D01*
Y1016952D01*
X1436952D01*
X1449920Y984920D02*
Y995080D01*
X1460080D01*
Y984920D01*
X1449920D01*
X1451952Y986952D02*
Y993048D01*
X1458048D01*
Y986952D01*
X1451952D01*
X1434920Y834920D02*
Y845080D01*
X1445080D01*
Y834920D01*
X1434920D01*
X1436952Y836952D02*
Y843048D01*
X1443048D01*
Y836952D01*
X1436952D01*
X1449920Y804920D02*
Y815080D01*
X1460080D01*
Y804920D01*
X1449920D01*
X1451952Y806952D02*
Y813048D01*
X1458048D01*
Y806952D01*
X1451952D01*
X1434920Y594920D02*
Y605080D01*
X1445080D01*
Y594920D01*
X1434920D01*
X1436952Y596952D02*
Y603048D01*
X1443048D01*
Y596952D01*
X1436952D01*
X1449920Y504920D02*
Y515080D01*
X1460080D01*
Y504920D01*
X1449920D01*
X1451952Y506952D02*
Y513048D01*
X1458048D01*
Y506952D01*
X1451952D01*
X1434920Y414920D02*
Y425080D01*
X1445080D01*
Y414920D01*
X1434920D01*
X1436952Y416952D02*
Y423048D01*
X1443048D01*
Y416952D01*
X1436952D01*
X1404920Y1374920D02*
Y1385080D01*
X1415080D01*
Y1374920D01*
X1404920D01*
X1406952Y1376952D02*
Y1383048D01*
X1413048D01*
Y1376952D01*
X1406952D01*
X1419920Y1344920D02*
Y1355080D01*
X1430080D01*
Y1344920D01*
X1419920D01*
X1421952Y1346952D02*
Y1353048D01*
X1428048D01*
Y1346952D01*
X1421952D01*
X1419920Y1284920D02*
Y1295080D01*
X1430080D01*
Y1284920D01*
X1419920D01*
X1421952Y1286952D02*
Y1293048D01*
X1428048D01*
Y1286952D01*
X1421952D01*
X1404920Y1254920D02*
Y1265080D01*
X1415080D01*
Y1254920D01*
X1404920D01*
X1406952Y1256952D02*
Y1263048D01*
X1413048D01*
Y1256952D01*
X1406952D01*
X1419920Y1164920D02*
Y1175080D01*
X1430080D01*
Y1164920D01*
X1419920D01*
X1421952Y1166952D02*
Y1173048D01*
X1428048D01*
Y1166952D01*
X1421952D01*
X1419920Y1104920D02*
Y1115080D01*
X1430080D01*
Y1104920D01*
X1419920D01*
X1421952Y1106952D02*
Y1113048D01*
X1428048D01*
Y1106952D01*
X1421952D01*
X1404920Y954920D02*
Y965080D01*
X1415080D01*
Y954920D01*
X1404920D01*
X1406952Y956952D02*
Y963048D01*
X1413048D01*
Y956952D01*
X1406952D01*
X1419920Y804920D02*
Y815080D01*
X1430080D01*
Y804920D01*
X1419920D01*
X1421952Y806952D02*
Y813048D01*
X1428048D01*
Y806952D01*
X1421952D01*
X1404920Y594920D02*
Y605080D01*
X1415080D01*
Y594920D01*
X1404920D01*
X1406952Y596952D02*
Y603048D01*
X1413048D01*
Y596952D01*
X1406952D01*
X1404920Y534920D02*
Y545080D01*
X1415080D01*
Y534920D01*
X1404920D01*
X1406952Y536952D02*
Y543048D01*
X1413048D01*
Y536952D01*
X1406952D01*
X1419920Y504920D02*
Y515080D01*
X1430080D01*
Y504920D01*
X1419920D01*
X1421952Y506952D02*
Y513048D01*
X1428048D01*
Y506952D01*
X1421952D01*
X1404920Y414920D02*
Y425080D01*
X1415080D01*
Y414920D01*
X1404920D01*
X1406952Y416952D02*
Y423048D01*
X1413048D01*
Y416952D01*
X1406952D01*
X1374920Y1374920D02*
Y1385080D01*
X1385080D01*
Y1374920D01*
X1374920D01*
X1376952Y1376952D02*
Y1383048D01*
X1383048D01*
Y1376952D01*
X1376952D01*
X1374920Y1194920D02*
Y1205080D01*
X1385080D01*
Y1194920D01*
X1374920D01*
X1376952Y1196952D02*
Y1203048D01*
X1383048D01*
Y1196952D01*
X1376952D01*
X1389920Y1164920D02*
Y1175080D01*
X1400080D01*
Y1164920D01*
X1389920D01*
X1391952Y1166952D02*
Y1173048D01*
X1398048D01*
Y1166952D01*
X1391952D01*
X1374920Y1134920D02*
Y1145080D01*
X1385080D01*
Y1134920D01*
X1374920D01*
X1376952Y1136952D02*
Y1143048D01*
X1383048D01*
Y1136952D01*
X1376952D01*
X1389920Y1044920D02*
Y1055080D01*
X1400080D01*
Y1044920D01*
X1389920D01*
X1391952Y1046952D02*
Y1053048D01*
X1398048D01*
Y1046952D01*
X1391952D01*
X1374920Y1014920D02*
Y1025080D01*
X1385080D01*
Y1014920D01*
X1374920D01*
X1376952Y1016952D02*
Y1023048D01*
X1383048D01*
Y1016952D01*
X1376952D01*
X1389920Y984920D02*
Y995080D01*
X1400080D01*
Y984920D01*
X1389920D01*
X1391952Y986952D02*
Y993048D01*
X1398048D01*
Y986952D01*
X1391952D01*
X1389920Y804920D02*
Y815080D01*
X1400080D01*
Y804920D01*
X1389920D01*
X1391952Y806952D02*
Y813048D01*
X1398048D01*
Y806952D01*
X1391952D01*
X1374920Y774920D02*
Y785080D01*
X1385080D01*
Y774920D01*
X1374920D01*
X1376952Y776952D02*
Y783048D01*
X1383048D01*
Y776952D01*
X1376952D01*
X1389920Y624920D02*
Y635080D01*
X1400080D01*
Y624920D01*
X1389920D01*
X1391952Y626952D02*
Y633048D01*
X1398048D01*
Y626952D01*
X1391952D01*
X1374920Y594920D02*
Y605080D01*
X1385080D01*
Y594920D01*
X1374920D01*
X1376952Y596952D02*
Y603048D01*
X1383048D01*
Y596952D01*
X1376952D01*
X1389920Y564920D02*
Y575080D01*
X1400080D01*
Y564920D01*
X1389920D01*
X1391952Y566952D02*
Y573048D01*
X1398048D01*
Y566952D01*
X1391952D01*
X1374920Y534920D02*
Y545080D01*
X1385080D01*
Y534920D01*
X1374920D01*
X1376952Y536952D02*
Y543048D01*
X1383048D01*
Y536952D01*
X1376952D01*
X1389920Y444920D02*
Y455080D01*
X1400080D01*
Y444920D01*
X1389920D01*
X1391952Y446952D02*
Y453048D01*
X1398048D01*
Y446952D01*
X1391952D01*
X1374920Y414920D02*
Y425080D01*
X1385080D01*
Y414920D01*
X1374920D01*
X1376952Y416952D02*
Y423048D01*
X1383048D01*
Y416952D01*
X1376952D01*
X1344920Y1374920D02*
Y1385080D01*
X1355080D01*
Y1374920D01*
X1344920D01*
X1346952Y1376952D02*
Y1383048D01*
X1353048D01*
Y1376952D01*
X1346952D01*
X1344920Y1254920D02*
Y1265080D01*
X1355080D01*
Y1254920D01*
X1344920D01*
X1346952Y1256952D02*
Y1263048D01*
X1353048D01*
Y1256952D01*
X1346952D01*
X1359920Y1224920D02*
Y1235080D01*
X1370080D01*
Y1224920D01*
X1359920D01*
X1361952Y1226952D02*
Y1233048D01*
X1368048D01*
Y1226952D01*
X1361952D01*
X1359920Y1164920D02*
Y1175080D01*
X1370080D01*
Y1164920D01*
X1359920D01*
X1361952Y1166952D02*
Y1173048D01*
X1368048D01*
Y1166952D01*
X1361952D01*
X1344920Y1134920D02*
Y1145080D01*
X1355080D01*
Y1134920D01*
X1344920D01*
X1346952Y1136952D02*
Y1143048D01*
X1353048D01*
Y1136952D01*
X1346952D01*
X1344920Y954920D02*
Y965080D01*
X1355080D01*
Y954920D01*
X1344920D01*
X1346952Y956952D02*
Y963048D01*
X1353048D01*
Y956952D01*
X1346952D01*
X1344920Y714920D02*
Y725080D01*
X1355080D01*
Y714920D01*
X1344920D01*
X1346952Y716952D02*
Y723048D01*
X1353048D01*
Y716952D01*
X1346952D01*
X1344920Y654920D02*
Y665080D01*
X1355080D01*
Y654920D01*
X1344920D01*
X1346952Y656952D02*
Y663048D01*
X1353048D01*
Y656952D01*
X1346952D01*
X1344920Y594920D02*
Y605080D01*
X1355080D01*
Y594920D01*
X1344920D01*
X1346952Y596952D02*
Y603048D01*
X1353048D01*
Y596952D01*
X1346952D01*
X1359920Y564920D02*
Y575080D01*
X1370080D01*
Y564920D01*
X1359920D01*
X1361952Y566952D02*
Y573048D01*
X1368048D01*
Y566952D01*
X1361952D01*
X1344920Y534920D02*
Y545080D01*
X1355080D01*
Y534920D01*
X1344920D01*
X1346952Y536952D02*
Y543048D01*
X1353048D01*
Y536952D01*
X1346952D01*
X1344920Y414920D02*
Y425080D01*
X1355080D01*
Y414920D01*
X1344920D01*
X1346952Y416952D02*
Y423048D01*
X1353048D01*
Y416952D01*
X1346952D01*
X1314920Y1374920D02*
Y1385080D01*
X1325080D01*
Y1374920D01*
X1314920D01*
X1316952Y1376952D02*
Y1383048D01*
X1323048D01*
Y1376952D01*
X1316952D01*
X1314920Y1254920D02*
Y1265080D01*
X1325080D01*
Y1254920D01*
X1314920D01*
X1316952Y1256952D02*
Y1263048D01*
X1323048D01*
Y1256952D01*
X1316952D01*
X1329920Y1224920D02*
Y1235080D01*
X1340080D01*
Y1224920D01*
X1329920D01*
X1331952Y1226952D02*
Y1233048D01*
X1338048D01*
Y1226952D01*
X1331952D01*
X1314920Y1134920D02*
Y1145080D01*
X1325080D01*
Y1134920D01*
X1314920D01*
X1316952Y1136952D02*
Y1143048D01*
X1323048D01*
Y1136952D01*
X1316952D01*
X1329920Y1104920D02*
Y1115080D01*
X1340080D01*
Y1104920D01*
X1329920D01*
X1331952Y1106952D02*
Y1113048D01*
X1338048D01*
Y1106952D01*
X1331952D01*
X1314920Y1074920D02*
Y1085080D01*
X1325080D01*
Y1074920D01*
X1314920D01*
X1316952Y1076952D02*
Y1083048D01*
X1323048D01*
Y1076952D01*
X1316952D01*
X1314920Y1014920D02*
Y1025080D01*
X1325080D01*
Y1014920D01*
X1314920D01*
X1316952Y1016952D02*
Y1023048D01*
X1323048D01*
Y1016952D01*
X1316952D01*
X1314920Y954920D02*
Y965080D01*
X1325080D01*
Y954920D01*
X1314920D01*
X1316952Y956952D02*
Y963048D01*
X1323048D01*
Y956952D01*
X1316952D01*
X1314920Y834920D02*
Y845080D01*
X1325080D01*
Y834920D01*
X1314920D01*
X1316952Y836952D02*
Y843048D01*
X1323048D01*
Y836952D01*
X1316952D01*
X1329920Y804920D02*
Y815080D01*
X1340080D01*
Y804920D01*
X1329920D01*
X1331952Y806952D02*
Y813048D01*
X1338048D01*
Y806952D01*
X1331952D01*
X1314920Y714920D02*
Y725080D01*
X1325080D01*
Y714920D01*
X1314920D01*
X1316952Y716952D02*
Y723048D01*
X1323048D01*
Y716952D01*
X1316952D01*
X1329920Y684920D02*
Y695080D01*
X1340080D01*
Y684920D01*
X1329920D01*
X1331952Y686952D02*
Y693048D01*
X1338048D01*
Y686952D01*
X1331952D01*
X1314920Y654920D02*
Y665080D01*
X1325080D01*
Y654920D01*
X1314920D01*
X1316952Y656952D02*
Y663048D01*
X1323048D01*
Y656952D01*
X1316952D01*
X1314920Y594920D02*
Y605080D01*
X1325080D01*
Y594920D01*
X1314920D01*
X1316952Y596952D02*
Y603048D01*
X1323048D01*
Y596952D01*
X1316952D01*
X1329920Y564920D02*
Y575080D01*
X1340080D01*
Y564920D01*
X1329920D01*
X1331952Y566952D02*
Y573048D01*
X1338048D01*
Y566952D01*
X1331952D01*
X1314920Y414920D02*
Y425080D01*
X1325080D01*
Y414920D01*
X1314920D01*
X1316952Y416952D02*
Y423048D01*
X1323048D01*
Y416952D01*
X1316952D01*
X1284920Y1254920D02*
Y1265080D01*
X1295080D01*
Y1254920D01*
X1284920D01*
X1286952Y1256952D02*
Y1263048D01*
X1293048D01*
Y1256952D01*
X1286952D01*
X1284920Y1134920D02*
Y1145080D01*
X1295080D01*
Y1134920D01*
X1284920D01*
X1286952Y1136952D02*
Y1143048D01*
X1293048D01*
Y1136952D01*
X1286952D01*
X1299920Y1104920D02*
Y1115080D01*
X1310080D01*
Y1104920D01*
X1299920D01*
X1301952Y1106952D02*
Y1113048D01*
X1308048D01*
Y1106952D01*
X1301952D01*
X1299920Y1044920D02*
Y1055080D01*
X1310080D01*
Y1044920D01*
X1299920D01*
X1301952Y1046952D02*
Y1053048D01*
X1308048D01*
Y1046952D01*
X1301952D01*
X1284920Y1014920D02*
Y1025080D01*
X1295080D01*
Y1014920D01*
X1284920D01*
X1286952Y1016952D02*
Y1023048D01*
X1293048D01*
Y1016952D01*
X1286952D01*
X1284920Y954920D02*
Y965080D01*
X1295080D01*
Y954920D01*
X1284920D01*
X1286952Y956952D02*
Y963048D01*
X1293048D01*
Y956952D01*
X1286952D01*
X1299920Y924920D02*
Y935080D01*
X1310080D01*
Y924920D01*
X1299920D01*
X1301952Y926952D02*
Y933048D01*
X1308048D01*
Y926952D01*
X1301952D01*
X1284920Y894920D02*
Y905080D01*
X1295080D01*
Y894920D01*
X1284920D01*
X1286952Y896952D02*
Y903048D01*
X1293048D01*
Y896952D01*
X1286952D01*
X1284920Y834920D02*
Y845080D01*
X1295080D01*
Y834920D01*
X1284920D01*
X1286952Y836952D02*
Y843048D01*
X1293048D01*
Y836952D01*
X1286952D01*
X1284920Y714920D02*
Y725080D01*
X1295080D01*
Y714920D01*
X1284920D01*
X1286952Y716952D02*
Y723048D01*
X1293048D01*
Y716952D01*
X1286952D01*
X1299920Y684920D02*
Y695080D01*
X1310080D01*
Y684920D01*
X1299920D01*
X1301952Y686952D02*
Y693048D01*
X1308048D01*
Y686952D01*
X1301952D01*
X1284920Y654920D02*
Y665080D01*
X1295080D01*
Y654920D01*
X1284920D01*
X1286952Y656952D02*
Y663048D01*
X1293048D01*
Y656952D01*
X1286952D01*
X1284920Y594920D02*
Y605080D01*
X1295080D01*
Y594920D01*
X1284920D01*
X1286952Y596952D02*
Y603048D01*
X1293048D01*
Y596952D01*
X1286952D01*
X1299920Y504920D02*
Y515080D01*
X1310080D01*
Y504920D01*
X1299920D01*
X1301952Y506952D02*
Y513048D01*
X1308048D01*
Y506952D01*
X1301952D01*
X1284920Y414920D02*
Y425080D01*
X1295080D01*
Y414920D01*
X1284920D01*
X1286952Y416952D02*
Y423048D01*
X1293048D01*
Y416952D01*
X1286952D01*
X1269920Y1344920D02*
Y1355080D01*
X1280080D01*
Y1344920D01*
X1269920D01*
X1271952Y1346952D02*
Y1353048D01*
X1278048D01*
Y1346952D01*
X1271952D01*
X1269920Y1284920D02*
Y1295080D01*
X1280080D01*
Y1284920D01*
X1269920D01*
X1271952Y1286952D02*
Y1293048D01*
X1278048D01*
Y1286952D01*
X1271952D01*
X1269920Y1044920D02*
Y1055080D01*
X1280080D01*
Y1044920D01*
X1269920D01*
X1271952Y1046952D02*
Y1053048D01*
X1278048D01*
Y1046952D01*
X1271952D01*
X1269920Y984920D02*
Y995080D01*
X1280080D01*
Y984920D01*
X1269920D01*
X1271952Y986952D02*
Y993048D01*
X1278048D01*
Y986952D01*
X1271952D01*
X1269920Y924920D02*
Y935080D01*
X1280080D01*
Y924920D01*
X1269920D01*
X1271952Y926952D02*
Y933048D01*
X1278048D01*
Y926952D01*
X1271952D01*
X1254920Y714920D02*
Y725080D01*
X1265080D01*
Y714920D01*
X1254920D01*
X1256952Y716952D02*
Y723048D01*
X1263048D01*
Y716952D01*
X1256952D01*
X1254920Y654920D02*
Y665080D01*
X1265080D01*
Y654920D01*
X1254920D01*
X1256952Y656952D02*
Y663048D01*
X1263048D01*
Y656952D01*
X1256952D01*
X1224920Y474920D02*
Y485080D01*
X1235080D01*
Y474920D01*
X1224920D01*
X1226952Y476952D02*
Y483048D01*
X1233048D01*
Y476952D01*
X1226952D01*
X1209920Y1284920D02*
Y1295080D01*
X1220080D01*
Y1284920D01*
X1209920D01*
X1211952Y1286952D02*
Y1293048D01*
X1218048D01*
Y1286952D01*
X1211952D01*
X1209920Y1224920D02*
Y1235080D01*
X1220080D01*
Y1224920D01*
X1209920D01*
X1211952Y1226952D02*
Y1233048D01*
X1218048D01*
Y1226952D01*
X1211952D01*
X1209920Y864920D02*
Y875080D01*
X1220080D01*
Y864920D01*
X1209920D01*
X1211952Y866952D02*
Y873048D01*
X1218048D01*
Y866952D01*
X1211952D01*
X1209920Y684920D02*
Y695080D01*
X1220080D01*
Y684920D01*
X1209920D01*
X1211952Y686952D02*
Y693048D01*
X1218048D01*
Y686952D01*
X1211952D01*
X1209920Y624920D02*
Y635080D01*
X1220080D01*
Y624920D01*
X1209920D01*
X1211952Y626952D02*
Y633048D01*
X1218048D01*
Y626952D01*
X1211952D01*
X1194920Y594920D02*
Y605080D01*
X1205080D01*
Y594920D01*
X1194920D01*
X1196952Y596952D02*
Y603048D01*
X1203048D01*
Y596952D01*
X1196952D01*
X1209920Y504920D02*
Y515080D01*
X1220080D01*
Y504920D01*
X1209920D01*
X1211952Y506952D02*
Y513048D01*
X1218048D01*
Y506952D01*
X1211952D01*
X1179920Y1284920D02*
Y1295080D01*
X1190080D01*
Y1284920D01*
X1179920D01*
X1181952Y1286952D02*
Y1293048D01*
X1188048D01*
Y1286952D01*
X1181952D01*
X1164920Y894920D02*
Y905080D01*
X1175080D01*
Y894920D01*
X1164920D01*
X1166952Y896952D02*
Y903048D01*
X1173048D01*
Y896952D01*
X1166952D01*
X1179920Y864920D02*
Y875080D01*
X1190080D01*
Y864920D01*
X1179920D01*
X1181952Y866952D02*
Y873048D01*
X1188048D01*
Y866952D01*
X1181952D01*
X1164920Y834920D02*
Y845080D01*
X1175080D01*
Y834920D01*
X1164920D01*
X1166952Y836952D02*
Y843048D01*
X1173048D01*
Y836952D01*
X1166952D01*
X1179920Y684920D02*
Y695080D01*
X1190080D01*
Y684920D01*
X1179920D01*
X1181952Y686952D02*
Y693048D01*
X1188048D01*
Y686952D01*
X1181952D01*
X1179920Y624920D02*
Y635080D01*
X1190080D01*
Y624920D01*
X1179920D01*
X1181952Y626952D02*
Y633048D01*
X1188048D01*
Y626952D01*
X1181952D01*
X1164920Y594920D02*
Y605080D01*
X1175080D01*
Y594920D01*
X1164920D01*
X1166952Y596952D02*
Y603048D01*
X1173048D01*
Y596952D01*
X1166952D01*
X1134920Y1254920D02*
Y1265080D01*
X1145080D01*
Y1254920D01*
X1134920D01*
X1136952Y1256952D02*
Y1263048D01*
X1143048D01*
Y1256952D01*
X1136952D01*
X1134920Y954920D02*
Y965080D01*
X1145080D01*
Y954920D01*
X1134920D01*
X1136952Y956952D02*
Y963048D01*
X1143048D01*
Y956952D01*
X1136952D01*
X1149920Y924920D02*
Y935080D01*
X1160080D01*
Y924920D01*
X1149920D01*
X1151952Y926952D02*
Y933048D01*
X1158048D01*
Y926952D01*
X1151952D01*
X1149920Y864920D02*
Y875080D01*
X1160080D01*
Y864920D01*
X1149920D01*
X1151952Y866952D02*
Y873048D01*
X1158048D01*
Y866952D01*
X1151952D01*
X1134920Y714920D02*
Y725080D01*
X1145080D01*
Y714920D01*
X1134920D01*
X1136952Y716952D02*
Y723048D01*
X1143048D01*
Y716952D01*
X1136952D01*
X1149920Y684920D02*
Y695080D01*
X1160080D01*
Y684920D01*
X1149920D01*
X1151952Y686952D02*
Y693048D01*
X1158048D01*
Y686952D01*
X1151952D01*
X1149920Y624920D02*
Y635080D01*
X1160080D01*
Y624920D01*
X1149920D01*
X1151952Y626952D02*
Y633048D01*
X1158048D01*
Y626952D01*
X1151952D01*
X1134920Y594920D02*
Y605080D01*
X1145080D01*
Y594920D01*
X1134920D01*
X1136952Y596952D02*
Y603048D01*
X1143048D01*
Y596952D01*
X1136952D01*
X1149920Y564920D02*
Y575080D01*
X1160080D01*
Y564920D01*
X1149920D01*
X1151952Y566952D02*
Y573048D01*
X1158048D01*
Y566952D01*
X1151952D01*
X1134920Y534920D02*
Y545080D01*
X1145080D01*
Y534920D01*
X1134920D01*
X1136952Y536952D02*
Y543048D01*
X1143048D01*
Y536952D01*
X1136952D01*
X1134920Y474920D02*
Y485080D01*
X1145080D01*
Y474920D01*
X1134920D01*
X1136952Y476952D02*
Y483048D01*
X1143048D01*
Y476952D01*
X1136952D01*
X1119920Y1344920D02*
Y1355080D01*
X1130080D01*
Y1344920D01*
X1119920D01*
X1121952Y1346952D02*
Y1353048D01*
X1128048D01*
Y1346952D01*
X1121952D01*
X1119920Y1284920D02*
Y1295080D01*
X1130080D01*
Y1284920D01*
X1119920D01*
X1121952Y1286952D02*
Y1293048D01*
X1128048D01*
Y1286952D01*
X1121952D01*
X1104920Y1254920D02*
Y1265080D01*
X1115080D01*
Y1254920D01*
X1104920D01*
X1106952Y1256952D02*
Y1263048D01*
X1113048D01*
Y1256952D01*
X1106952D01*
X1104920Y894920D02*
Y905080D01*
X1115080D01*
Y894920D01*
X1104920D01*
X1106952Y896952D02*
Y903048D01*
X1113048D01*
Y896952D01*
X1106952D01*
X1119920Y624920D02*
Y635080D01*
X1130080D01*
Y624920D01*
X1119920D01*
X1121952Y626952D02*
Y633048D01*
X1128048D01*
Y626952D01*
X1121952D01*
X1104920Y594920D02*
Y605080D01*
X1115080D01*
Y594920D01*
X1104920D01*
X1106952Y596952D02*
Y603048D01*
X1113048D01*
Y596952D01*
X1106952D01*
X1119920Y504920D02*
Y515080D01*
X1130080D01*
Y504920D01*
X1119920D01*
X1121952Y506952D02*
Y513048D01*
X1128048D01*
Y506952D01*
X1121952D01*
X1089920Y1344920D02*
Y1355080D01*
X1100080D01*
Y1344920D01*
X1089920D01*
X1091952Y1346952D02*
Y1353048D01*
X1098048D01*
Y1346952D01*
X1091952D01*
X1089920Y1284920D02*
Y1295080D01*
X1100080D01*
Y1284920D01*
X1089920D01*
X1091952Y1286952D02*
Y1293048D01*
X1098048D01*
Y1286952D01*
X1091952D01*
X1074920Y1254920D02*
Y1265080D01*
X1085080D01*
Y1254920D01*
X1074920D01*
X1076952Y1256952D02*
Y1263048D01*
X1083048D01*
Y1256952D01*
X1076952D01*
X1089920Y1224920D02*
Y1235080D01*
X1100080D01*
Y1224920D01*
X1089920D01*
X1091952Y1226952D02*
Y1233048D01*
X1098048D01*
Y1226952D01*
X1091952D01*
X1074920Y834920D02*
Y845080D01*
X1085080D01*
Y834920D01*
X1074920D01*
X1076952Y836952D02*
Y843048D01*
X1083048D01*
Y836952D01*
X1076952D01*
X1089920Y684920D02*
Y695080D01*
X1100080D01*
Y684920D01*
X1089920D01*
X1091952Y686952D02*
Y693048D01*
X1098048D01*
Y686952D01*
X1091952D01*
X1074920Y594920D02*
Y605080D01*
X1085080D01*
Y594920D01*
X1074920D01*
X1076952Y596952D02*
Y603048D01*
X1083048D01*
Y596952D01*
X1076952D01*
X1074920Y534920D02*
Y545080D01*
X1085080D01*
Y534920D01*
X1074920D01*
X1076952Y536952D02*
Y543048D01*
X1083048D01*
Y536952D01*
X1076952D01*
X1074920Y474920D02*
Y485080D01*
X1085080D01*
Y474920D01*
X1074920D01*
X1076952Y476952D02*
Y483048D01*
X1083048D01*
Y476952D01*
X1076952D01*
X1059920Y864920D02*
Y875080D01*
X1070080D01*
Y864920D01*
X1059920D01*
X1061952Y866952D02*
Y873048D01*
X1068048D01*
Y866952D01*
X1061952D01*
X1044920Y834920D02*
Y845080D01*
X1055080D01*
Y834920D01*
X1044920D01*
X1046952Y836952D02*
Y843048D01*
X1053048D01*
Y836952D01*
X1046952D01*
X1044920Y594920D02*
Y605080D01*
X1055080D01*
Y594920D01*
X1044920D01*
X1046952Y596952D02*
Y603048D01*
X1053048D01*
Y596952D01*
X1046952D01*
X1059920Y564920D02*
Y575080D01*
X1070080D01*
Y564920D01*
X1059920D01*
X1061952Y566952D02*
Y573048D01*
X1068048D01*
Y566952D01*
X1061952D01*
X1044920Y534920D02*
Y545080D01*
X1055080D01*
Y534920D01*
X1044920D01*
X1046952Y536952D02*
Y543048D01*
X1053048D01*
Y536952D01*
X1046952D01*
X1059920Y504920D02*
Y515080D01*
X1070080D01*
Y504920D01*
X1059920D01*
X1061952Y506952D02*
Y513048D01*
X1068048D01*
Y506952D01*
X1061952D01*
X1044920Y474920D02*
Y485080D01*
X1055080D01*
Y474920D01*
X1044920D01*
X1046952Y476952D02*
Y483048D01*
X1053048D01*
Y476952D01*
X1046952D01*
X1029920Y1164920D02*
Y1175080D01*
X1040080D01*
Y1164920D01*
X1029920D01*
X1031952Y1166952D02*
Y1173048D01*
X1038048D01*
Y1166952D01*
X1031952D01*
X1014920Y894920D02*
Y905080D01*
X1025080D01*
Y894920D01*
X1014920D01*
X1016952Y896952D02*
Y903048D01*
X1023048D01*
Y896952D01*
X1016952D01*
X1029920Y864920D02*
Y875080D01*
X1040080D01*
Y864920D01*
X1029920D01*
X1031952Y866952D02*
Y873048D01*
X1038048D01*
Y866952D01*
X1031952D01*
X1014920Y534920D02*
Y545080D01*
X1025080D01*
Y534920D01*
X1014920D01*
X1016952Y536952D02*
Y543048D01*
X1023048D01*
Y536952D01*
X1016952D01*
X1014920Y474920D02*
Y485080D01*
X1025080D01*
Y474920D01*
X1014920D01*
X1016952Y476952D02*
Y483048D01*
X1023048D01*
Y476952D01*
X1016952D01*
X984920Y1314920D02*
Y1325080D01*
X995080D01*
Y1314920D01*
X984920D01*
X986952Y1316952D02*
Y1323048D01*
X993048D01*
Y1316952D01*
X986952D01*
X999920Y1104920D02*
Y1115080D01*
X1010080D01*
Y1104920D01*
X999920D01*
X1001952Y1106952D02*
Y1113048D01*
X1008048D01*
Y1106952D01*
X1001952D01*
X984920Y1074920D02*
Y1085080D01*
X995080D01*
Y1074920D01*
X984920D01*
X986952Y1076952D02*
Y1083048D01*
X993048D01*
Y1076952D01*
X986952D01*
X999920Y1044920D02*
Y1055080D01*
X1010080D01*
Y1044920D01*
X999920D01*
X1001952Y1046952D02*
Y1053048D01*
X1008048D01*
Y1046952D01*
X1001952D01*
X999920Y924920D02*
Y935080D01*
X1010080D01*
Y924920D01*
X999920D01*
X1001952Y926952D02*
Y933048D01*
X1008048D01*
Y926952D01*
X1001952D01*
X984920Y894920D02*
Y905080D01*
X995080D01*
Y894920D01*
X984920D01*
X986952Y896952D02*
Y903048D01*
X993048D01*
Y896952D01*
X986952D01*
X999920Y864920D02*
Y875080D01*
X1010080D01*
Y864920D01*
X999920D01*
X1001952Y866952D02*
Y873048D01*
X1008048D01*
Y866952D01*
X1001952D01*
X984920Y834920D02*
Y845080D01*
X995080D01*
Y834920D01*
X984920D01*
X986952Y836952D02*
Y843048D01*
X993048D01*
Y836952D01*
X986952D01*
X984920Y594920D02*
Y605080D01*
X995080D01*
Y594920D01*
X984920D01*
X986952Y596952D02*
Y603048D01*
X993048D01*
Y596952D01*
X986952D01*
X984920Y534920D02*
Y545080D01*
X995080D01*
Y534920D01*
X984920D01*
X986952Y536952D02*
Y543048D01*
X993048D01*
Y536952D01*
X986952D01*
X999920Y504920D02*
Y515080D01*
X1010080D01*
Y504920D01*
X999920D01*
X1001952Y506952D02*
Y513048D01*
X1008048D01*
Y506952D01*
X1001952D01*
X969920Y1284920D02*
Y1295080D01*
X980080D01*
Y1284920D01*
X969920D01*
X971952Y1286952D02*
Y1293048D01*
X978048D01*
Y1286952D01*
X971952D01*
X969920Y1224920D02*
Y1235080D01*
X980080D01*
Y1224920D01*
X969920D01*
X971952Y1226952D02*
Y1233048D01*
X978048D01*
Y1226952D01*
X971952D01*
X954920Y1134920D02*
Y1145080D01*
X965080D01*
Y1134920D01*
X954920D01*
X956952Y1136952D02*
Y1143048D01*
X963048D01*
Y1136952D01*
X956952D01*
X969920Y1104920D02*
Y1115080D01*
X980080D01*
Y1104920D01*
X969920D01*
X971952Y1106952D02*
Y1113048D01*
X978048D01*
Y1106952D01*
X971952D01*
X954920Y1074920D02*
Y1085080D01*
X965080D01*
Y1074920D01*
X954920D01*
X956952Y1076952D02*
Y1083048D01*
X963048D01*
Y1076952D01*
X956952D01*
X969920Y984920D02*
Y995080D01*
X980080D01*
Y984920D01*
X969920D01*
X971952Y986952D02*
Y993048D01*
X978048D01*
Y986952D01*
X971952D01*
X969920Y924920D02*
Y935080D01*
X980080D01*
Y924920D01*
X969920D01*
X971952Y926952D02*
Y933048D01*
X978048D01*
Y926952D01*
X971952D01*
X969920Y864920D02*
Y875080D01*
X980080D01*
Y864920D01*
X969920D01*
X971952Y866952D02*
Y873048D01*
X978048D01*
Y866952D01*
X971952D01*
X969920Y564920D02*
Y575080D01*
X980080D01*
Y564920D01*
X969920D01*
X971952Y566952D02*
Y573048D01*
X978048D01*
Y566952D01*
X971952D01*
X954920Y534920D02*
Y545080D01*
X965080D01*
Y534920D01*
X954920D01*
X956952Y536952D02*
Y543048D01*
X963048D01*
Y536952D01*
X956952D01*
X969920Y504920D02*
Y515080D01*
X980080D01*
Y504920D01*
X969920D01*
X971952Y506952D02*
Y513048D01*
X978048D01*
Y506952D01*
X971952D01*
X939920Y1164920D02*
Y1175080D01*
X950080D01*
Y1164920D01*
X939920D01*
X941952Y1166952D02*
Y1173048D01*
X948048D01*
Y1166952D01*
X941952D01*
X924920Y1134920D02*
Y1145080D01*
X935080D01*
Y1134920D01*
X924920D01*
X926952Y1136952D02*
Y1143048D01*
X933048D01*
Y1136952D01*
X926952D01*
X939920Y1104920D02*
Y1115080D01*
X950080D01*
Y1104920D01*
X939920D01*
X941952Y1106952D02*
Y1113048D01*
X948048D01*
Y1106952D01*
X941952D01*
X924920Y1074920D02*
Y1085080D01*
X935080D01*
Y1074920D01*
X924920D01*
X926952Y1076952D02*
Y1083048D01*
X933048D01*
Y1076952D01*
X926952D01*
X924920Y1014920D02*
Y1025080D01*
X935080D01*
Y1014920D01*
X924920D01*
X926952Y1016952D02*
Y1023048D01*
X933048D01*
Y1016952D01*
X926952D01*
X939920Y984920D02*
Y995080D01*
X950080D01*
Y984920D01*
X939920D01*
X941952Y986952D02*
Y993048D01*
X948048D01*
Y986952D01*
X941952D01*
X939920Y924920D02*
Y935080D01*
X950080D01*
Y924920D01*
X939920D01*
X941952Y926952D02*
Y933048D01*
X948048D01*
Y926952D01*
X941952D01*
X939920Y864920D02*
Y875080D01*
X950080D01*
Y864920D01*
X939920D01*
X941952Y866952D02*
Y873048D01*
X948048D01*
Y866952D01*
X941952D01*
X939920Y804920D02*
Y815080D01*
X950080D01*
Y804920D01*
X939920D01*
X941952Y806952D02*
Y813048D01*
X948048D01*
Y806952D01*
X941952D01*
X924920Y654920D02*
Y665080D01*
X935080D01*
Y654920D01*
X924920D01*
X926952Y656952D02*
Y663048D01*
X933048D01*
Y656952D01*
X926952D01*
X924920Y594920D02*
Y605080D01*
X935080D01*
Y594920D01*
X924920D01*
X926952Y596952D02*
Y603048D01*
X933048D01*
Y596952D01*
X926952D01*
X939920Y504920D02*
Y515080D01*
X950080D01*
Y504920D01*
X939920D01*
X941952Y506952D02*
Y513048D01*
X948048D01*
Y506952D01*
X941952D01*
X909920Y1164920D02*
Y1175080D01*
X920080D01*
Y1164920D01*
X909920D01*
X911952Y1166952D02*
Y1173048D01*
X918048D01*
Y1166952D01*
X911952D01*
X894920Y1134920D02*
Y1145080D01*
X905080D01*
Y1134920D01*
X894920D01*
X896952Y1136952D02*
Y1143048D01*
X903048D01*
Y1136952D01*
X896952D01*
X894920Y1014920D02*
Y1025080D01*
X905080D01*
Y1014920D01*
X894920D01*
X896952Y1016952D02*
Y1023048D01*
X903048D01*
Y1016952D01*
X896952D01*
X909920Y924920D02*
Y935080D01*
X920080D01*
Y924920D01*
X909920D01*
X911952Y926952D02*
Y933048D01*
X918048D01*
Y926952D01*
X911952D01*
X894920Y894920D02*
Y905080D01*
X905080D01*
Y894920D01*
X894920D01*
X896952Y896952D02*
Y903048D01*
X903048D01*
Y896952D01*
X896952D01*
X909920Y864920D02*
Y875080D01*
X920080D01*
Y864920D01*
X909920D01*
X911952Y866952D02*
Y873048D01*
X918048D01*
Y866952D01*
X911952D01*
X879920Y1164920D02*
Y1175080D01*
X890080D01*
Y1164920D01*
X879920D01*
X881952Y1166952D02*
Y1173048D01*
X888048D01*
Y1166952D01*
X881952D01*
X864920Y1134920D02*
Y1145080D01*
X875080D01*
Y1134920D01*
X864920D01*
X866952Y1136952D02*
Y1143048D01*
X873048D01*
Y1136952D01*
X866952D01*
X864920Y1074920D02*
Y1085080D01*
X875080D01*
Y1074920D01*
X864920D01*
X866952Y1076952D02*
Y1083048D01*
X873048D01*
Y1076952D01*
X866952D01*
X864920Y894920D02*
Y905080D01*
X875080D01*
Y894920D01*
X864920D01*
X866952Y896952D02*
Y903048D01*
X873048D01*
Y896952D01*
X866952D01*
X849920Y1164920D02*
Y1175080D01*
X860080D01*
Y1164920D01*
X849920D01*
X851952Y1166952D02*
Y1173048D01*
X858048D01*
Y1166952D01*
X851952D01*
X834920Y1134920D02*
Y1145080D01*
X845080D01*
Y1134920D01*
X834920D01*
X836952Y1136952D02*
Y1143048D01*
X843048D01*
Y1136952D01*
X836952D01*
X849920Y1104920D02*
Y1115080D01*
X860080D01*
Y1104920D01*
X849920D01*
X851952Y1106952D02*
Y1113048D01*
X858048D01*
Y1106952D01*
X851952D01*
X834920Y1074920D02*
Y1085080D01*
X845080D01*
Y1074920D01*
X834920D01*
X836952Y1076952D02*
Y1083048D01*
X843048D01*
Y1076952D01*
X836952D01*
X849920Y924920D02*
Y935080D01*
X860080D01*
Y924920D01*
X849920D01*
X851952Y926952D02*
Y933048D01*
X858048D01*
Y926952D01*
X851952D01*
X834920Y894920D02*
Y905080D01*
X845080D01*
Y894920D01*
X834920D01*
X836952Y896952D02*
Y903048D01*
X843048D01*
Y896952D01*
X836952D01*
X834920Y654920D02*
Y665080D01*
X845080D01*
Y654920D01*
X834920D01*
X836952Y656952D02*
Y663048D01*
X843048D01*
Y656952D01*
X836952D01*
X849920Y624920D02*
Y635080D01*
X860080D01*
Y624920D01*
X849920D01*
X851952Y626952D02*
Y633048D01*
X858048D01*
Y626952D01*
X851952D01*
X834920Y594920D02*
Y605080D01*
X845080D01*
Y594920D01*
X834920D01*
X836952Y596952D02*
Y603048D01*
X843048D01*
Y596952D01*
X836952D01*
X834920Y534920D02*
Y545080D01*
X845080D01*
Y534920D01*
X834920D01*
X836952Y536952D02*
Y543048D01*
X843048D01*
Y536952D01*
X836952D01*
X819920Y1164920D02*
Y1175080D01*
X830080D01*
Y1164920D01*
X819920D01*
X821952Y1166952D02*
Y1173048D01*
X828048D01*
Y1166952D01*
X821952D01*
X804920Y1134920D02*
Y1145080D01*
X815080D01*
Y1134920D01*
X804920D01*
X806952Y1136952D02*
Y1143048D01*
X813048D01*
Y1136952D01*
X806952D01*
X819920Y1104920D02*
Y1115080D01*
X830080D01*
Y1104920D01*
X819920D01*
X821952Y1106952D02*
Y1113048D01*
X828048D01*
Y1106952D01*
X821952D01*
X819920Y984920D02*
Y995080D01*
X830080D01*
Y984920D01*
X819920D01*
X821952Y986952D02*
Y993048D01*
X828048D01*
Y986952D01*
X821952D01*
X819920Y864920D02*
Y875080D01*
X830080D01*
Y864920D01*
X819920D01*
X821952Y866952D02*
Y873048D01*
X828048D01*
Y866952D01*
X821952D01*
X774920Y1134920D02*
Y1145080D01*
X785080D01*
Y1134920D01*
X774920D01*
X776952Y1136952D02*
Y1143048D01*
X783048D01*
Y1136952D01*
X776952D01*
X789920Y984920D02*
Y995080D01*
X800080D01*
Y984920D01*
X789920D01*
X791952Y986952D02*
Y993048D01*
X798048D01*
Y986952D01*
X791952D01*
X789920Y864920D02*
Y875080D01*
X800080D01*
Y864920D01*
X789920D01*
X791952Y866952D02*
Y873048D01*
X798048D01*
Y866952D01*
X791952D01*
X789920Y804920D02*
Y815080D01*
X800080D01*
Y804920D01*
X789920D01*
X791952Y806952D02*
Y813048D01*
X798048D01*
Y806952D01*
X791952D01*
X744920Y1134920D02*
Y1145080D01*
X755080D01*
Y1134920D01*
X744920D01*
X746952Y1136952D02*
Y1143048D01*
X753048D01*
Y1136952D01*
X746952D01*
X744920Y1014920D02*
Y1025080D01*
X755080D01*
Y1014920D01*
X744920D01*
X746952Y1016952D02*
Y1023048D01*
X753048D01*
Y1016952D01*
X746952D01*
X744920Y834920D02*
Y845080D01*
X755080D01*
Y834920D01*
X744920D01*
X746952Y836952D02*
Y843048D01*
X753048D01*
Y836952D01*
X746952D01*
X759920Y684920D02*
Y695080D01*
X770080D01*
Y684920D01*
X759920D01*
X761952Y686952D02*
Y693048D01*
X768048D01*
Y686952D01*
X761952D01*
X759920Y624920D02*
Y635080D01*
X770080D01*
Y624920D01*
X759920D01*
X761952Y626952D02*
Y633048D01*
X768048D01*
Y626952D01*
X761952D01*
X744920Y594920D02*
Y605080D01*
X755080D01*
Y594920D01*
X744920D01*
X746952Y596952D02*
Y603048D01*
X753048D01*
Y596952D01*
X746952D01*
X729920Y1044920D02*
Y1055080D01*
X740080D01*
Y1044920D01*
X729920D01*
X731952Y1046952D02*
Y1053048D01*
X738048D01*
Y1046952D01*
X731952D01*
X714920Y1014920D02*
Y1025080D01*
X725080D01*
Y1014920D01*
X714920D01*
X716952Y1016952D02*
Y1023048D01*
X723048D01*
Y1016952D01*
X716952D01*
X729920Y924920D02*
Y935080D01*
X740080D01*
Y924920D01*
X729920D01*
X731952Y926952D02*
Y933048D01*
X738048D01*
Y926952D01*
X731952D01*
X699920Y1044920D02*
Y1055080D01*
X710080D01*
Y1044920D01*
X699920D01*
X701952Y1046952D02*
Y1053048D01*
X708048D01*
Y1046952D01*
X701952D01*
X684920Y1014920D02*
Y1025080D01*
X695080D01*
Y1014920D01*
X684920D01*
X686952Y1016952D02*
Y1023048D01*
X693048D01*
Y1016952D01*
X686952D01*
X699920Y984920D02*
Y995080D01*
X710080D01*
Y984920D01*
X699920D01*
X701952Y986952D02*
Y993048D01*
X708048D01*
Y986952D01*
X701952D01*
X654920Y1254920D02*
Y1265080D01*
X665080D01*
Y1254920D01*
X654920D01*
X656952Y1256952D02*
Y1263048D01*
X663048D01*
Y1256952D01*
X656952D01*
X669920Y1044920D02*
Y1055080D01*
X680080D01*
Y1044920D01*
X669920D01*
X671952Y1046952D02*
Y1053048D01*
X678048D01*
Y1046952D01*
X671952D01*
X654920Y1014920D02*
Y1025080D01*
X665080D01*
Y1014920D01*
X654920D01*
X656952Y1016952D02*
Y1023048D01*
X663048D01*
Y1016952D01*
X656952D01*
X669920Y984920D02*
Y995080D01*
X680080D01*
Y984920D01*
X669920D01*
X671952Y986952D02*
Y993048D01*
X678048D01*
Y986952D01*
X671952D01*
X669920Y924920D02*
Y935080D01*
X680080D01*
Y924920D01*
X669920D01*
X671952Y926952D02*
Y933048D01*
X678048D01*
Y926952D01*
X671952D01*
X669920Y864920D02*
Y875080D01*
X680080D01*
Y864920D01*
X669920D01*
X671952Y866952D02*
Y873048D01*
X678048D01*
Y866952D01*
X671952D01*
X669920Y744920D02*
Y755080D01*
X680080D01*
Y744920D01*
X669920D01*
X671952Y746952D02*
Y753048D01*
X678048D01*
Y746952D01*
X671952D01*
X654920Y714920D02*
Y725080D01*
X665080D01*
Y714920D01*
X654920D01*
X656952Y716952D02*
Y723048D01*
X663048D01*
Y716952D01*
X656952D01*
X639920Y1344920D02*
Y1355080D01*
X650080D01*
Y1344920D01*
X639920D01*
X641952Y1346952D02*
Y1353048D01*
X648048D01*
Y1346952D01*
X641952D01*
X624920Y1314920D02*
Y1325080D01*
X635080D01*
Y1314920D01*
X624920D01*
X626952Y1316952D02*
Y1323048D01*
X633048D01*
Y1316952D01*
X626952D01*
X639920Y1284920D02*
Y1295080D01*
X650080D01*
Y1284920D01*
X639920D01*
X641952Y1286952D02*
Y1293048D01*
X648048D01*
Y1286952D01*
X641952D01*
X624920Y1254920D02*
Y1265080D01*
X635080D01*
Y1254920D01*
X624920D01*
X626952Y1256952D02*
Y1263048D01*
X633048D01*
Y1256952D01*
X626952D01*
X639920Y1224920D02*
Y1235080D01*
X650080D01*
Y1224920D01*
X639920D01*
X641952Y1226952D02*
Y1233048D01*
X648048D01*
Y1226952D01*
X641952D01*
X624920Y1134920D02*
Y1145080D01*
X635080D01*
Y1134920D01*
X624920D01*
X626952Y1136952D02*
Y1143048D01*
X633048D01*
Y1136952D01*
X626952D01*
X639920Y1104920D02*
Y1115080D01*
X650080D01*
Y1104920D01*
X639920D01*
X641952Y1106952D02*
Y1113048D01*
X648048D01*
Y1106952D01*
X641952D01*
X624920Y1014920D02*
Y1025080D01*
X635080D01*
Y1014920D01*
X624920D01*
X626952Y1016952D02*
Y1023048D01*
X633048D01*
Y1016952D01*
X626952D01*
X639920Y984920D02*
Y995080D01*
X650080D01*
Y984920D01*
X639920D01*
X641952Y986952D02*
Y993048D01*
X648048D01*
Y986952D01*
X641952D01*
X624920Y894920D02*
Y905080D01*
X635080D01*
Y894920D01*
X624920D01*
X626952Y896952D02*
Y903048D01*
X633048D01*
Y896952D01*
X626952D01*
X639920Y864920D02*
Y875080D01*
X650080D01*
Y864920D01*
X639920D01*
X641952Y866952D02*
Y873048D01*
X648048D01*
Y866952D01*
X641952D01*
X639920Y744920D02*
Y755080D01*
X650080D01*
Y744920D01*
X639920D01*
X641952Y746952D02*
Y753048D01*
X648048D01*
Y746952D01*
X641952D01*
X624920Y714920D02*
Y725080D01*
X635080D01*
Y714920D01*
X624920D01*
X626952Y716952D02*
Y723048D01*
X633048D01*
Y716952D01*
X626952D01*
X609920Y1344920D02*
Y1355080D01*
X620080D01*
Y1344920D01*
X609920D01*
X611952Y1346952D02*
Y1353048D01*
X618048D01*
Y1346952D01*
X611952D01*
X609920Y1284920D02*
Y1295080D01*
X620080D01*
Y1284920D01*
X609920D01*
X611952Y1286952D02*
Y1293048D01*
X618048D01*
Y1286952D01*
X611952D01*
X609920Y1104920D02*
Y1115080D01*
X620080D01*
Y1104920D01*
X609920D01*
X611952Y1106952D02*
Y1113048D01*
X618048D01*
Y1106952D01*
X611952D01*
X609920Y1044920D02*
Y1055080D01*
X620080D01*
Y1044920D01*
X609920D01*
X611952Y1046952D02*
Y1053048D01*
X618048D01*
Y1046952D01*
X611952D01*
X594920Y1014920D02*
Y1025080D01*
X605080D01*
Y1014920D01*
X594920D01*
X596952Y1016952D02*
Y1023048D01*
X603048D01*
Y1016952D01*
X596952D01*
X609920Y984920D02*
Y995080D01*
X620080D01*
Y984920D01*
X609920D01*
X611952Y986952D02*
Y993048D01*
X618048D01*
Y986952D01*
X611952D01*
X609920Y924920D02*
Y935080D01*
X620080D01*
Y924920D01*
X609920D01*
X611952Y926952D02*
Y933048D01*
X618048D01*
Y926952D01*
X611952D01*
X609920Y864920D02*
Y875080D01*
X620080D01*
Y864920D01*
X609920D01*
X611952Y866952D02*
Y873048D01*
X618048D01*
Y866952D01*
X611952D01*
X594920Y834920D02*
Y845080D01*
X605080D01*
Y834920D01*
X594920D01*
X596952Y836952D02*
Y843048D01*
X603048D01*
Y836952D01*
X596952D01*
X609920Y744920D02*
Y755080D01*
X620080D01*
Y744920D01*
X609920D01*
X611952Y746952D02*
Y753048D01*
X618048D01*
Y746952D01*
X611952D01*
X609920Y684920D02*
Y695080D01*
X620080D01*
Y684920D01*
X609920D01*
X611952Y686952D02*
Y693048D01*
X618048D01*
Y686952D01*
X611952D01*
X609920Y444920D02*
Y455080D01*
X620080D01*
Y444920D01*
X609920D01*
X611952Y446952D02*
Y453048D01*
X618048D01*
Y446952D01*
X611952D01*
X564920Y1134920D02*
Y1145080D01*
X575080D01*
Y1134920D01*
X564920D01*
X566952Y1136952D02*
Y1143048D01*
X573048D01*
Y1136952D01*
X566952D01*
X564920Y1014920D02*
Y1025080D01*
X575080D01*
Y1014920D01*
X564920D01*
X566952Y1016952D02*
Y1023048D01*
X573048D01*
Y1016952D01*
X566952D01*
X579920Y804920D02*
Y815080D01*
X590080D01*
Y804920D01*
X579920D01*
X581952Y806952D02*
Y813048D01*
X588048D01*
Y806952D01*
X581952D01*
X564920Y654920D02*
Y665080D01*
X575080D01*
Y654920D01*
X564920D01*
X566952Y656952D02*
Y663048D01*
X573048D01*
Y656952D01*
X566952D01*
X534920Y1014920D02*
Y1025080D01*
X545080D01*
Y1014920D01*
X534920D01*
X536952Y1016952D02*
Y1023048D01*
X543048D01*
Y1016952D01*
X536952D01*
X534920Y894920D02*
Y905080D01*
X545080D01*
Y894920D01*
X534920D01*
X536952Y896952D02*
Y903048D01*
X543048D01*
Y896952D01*
X536952D01*
X549920Y864920D02*
Y875080D01*
X560080D01*
Y864920D01*
X549920D01*
X551952Y866952D02*
Y873048D01*
X558048D01*
Y866952D01*
X551952D01*
X534920Y834920D02*
Y845080D01*
X545080D01*
Y834920D01*
X534920D01*
X536952Y836952D02*
Y843048D01*
X543048D01*
Y836952D01*
X536952D01*
X549920Y804920D02*
Y815080D01*
X560080D01*
Y804920D01*
X549920D01*
X551952Y806952D02*
Y813048D01*
X558048D01*
Y806952D01*
X551952D01*
X534920Y774920D02*
Y785080D01*
X545080D01*
Y774920D01*
X534920D01*
X536952Y776952D02*
Y783048D01*
X543048D01*
Y776952D01*
X536952D01*
X549920Y684920D02*
Y695080D01*
X560080D01*
Y684920D01*
X549920D01*
X551952Y686952D02*
Y693048D01*
X558048D01*
Y686952D01*
X551952D01*
X504920Y1374920D02*
Y1385080D01*
X515080D01*
Y1374920D01*
X504920D01*
X506952Y1376952D02*
Y1383048D01*
X513048D01*
Y1376952D01*
X506952D01*
X504920Y1314920D02*
Y1325080D01*
X515080D01*
Y1314920D01*
X504920D01*
X506952Y1316952D02*
Y1323048D01*
X513048D01*
Y1316952D01*
X506952D01*
X519920Y1284920D02*
Y1295080D01*
X530080D01*
Y1284920D01*
X519920D01*
X521952Y1286952D02*
Y1293048D01*
X528048D01*
Y1286952D01*
X521952D01*
X519920Y984920D02*
Y995080D01*
X530080D01*
Y984920D01*
X519920D01*
X521952Y986952D02*
Y993048D01*
X528048D01*
Y986952D01*
X521952D01*
X504920Y894920D02*
Y905080D01*
X515080D01*
Y894920D01*
X504920D01*
X506952Y896952D02*
Y903048D01*
X513048D01*
Y896952D01*
X506952D01*
X519920Y864920D02*
Y875080D01*
X530080D01*
Y864920D01*
X519920D01*
X521952Y866952D02*
Y873048D01*
X528048D01*
Y866952D01*
X521952D01*
X504920Y834920D02*
Y845080D01*
X515080D01*
Y834920D01*
X504920D01*
X506952Y836952D02*
Y843048D01*
X513048D01*
Y836952D01*
X506952D01*
X519920Y804920D02*
Y815080D01*
X530080D01*
Y804920D01*
X519920D01*
X521952Y806952D02*
Y813048D01*
X528048D01*
Y806952D01*
X521952D01*
X504920Y774920D02*
Y785080D01*
X515080D01*
Y774920D01*
X504920D01*
X506952Y776952D02*
Y783048D01*
X513048D01*
Y776952D01*
X506952D01*
X562610Y523240D02*
Y533400D01*
X572770D01*
Y523240D01*
X562610D01*
X564642Y525272D02*
Y531368D01*
X570738D01*
Y525272D01*
X564642D01*
X995680Y1238250D02*
Y1248410D01*
X1005840D01*
Y1238250D01*
X995680D01*
X997712Y1240282D02*
Y1246378D01*
X1003808D01*
Y1240282D01*
X997712D01*
X989910Y1206500D02*
Y1216660D01*
X1000070D01*
Y1206500D01*
X989910D01*
X991942Y1208532D02*
Y1214628D01*
X998038D01*
Y1208532D01*
X991942D01*
X1000760Y1291590D02*
Y1301750D01*
X1010920D01*
Y1291590D01*
X1000760D01*
X1002792Y1293622D02*
Y1299718D01*
X1008888D01*
Y1293622D01*
X1002792D01*
X1450340Y549910D02*
Y560070D01*
X1460500D01*
Y549910D01*
X1450340D01*
X1452372Y551942D02*
Y558038D01*
X1458468D01*
Y551942D01*
X1452372D01*
X1263650Y420220D02*
Y430380D01*
X1273810D01*
Y420220D01*
X1263650D01*
X1265682Y422252D02*
Y428348D01*
X1271778D01*
Y422252D01*
X1265682D01*
X1245870Y417830D02*
Y427990D01*
X1256030D01*
Y417830D01*
X1245870D01*
X1247902Y419862D02*
Y425958D01*
X1253998D01*
Y419862D01*
X1247902D01*
X1432560Y541020D02*
Y551180D01*
X1442720D01*
Y541020D01*
X1432560D01*
X1434592Y543052D02*
Y549148D01*
X1440688D01*
Y543052D01*
X1434592D01*
X1007775Y649100D02*
Y659260D01*
X1017935D01*
Y649100D01*
X1007775D01*
X1009807Y651132D02*
Y657228D01*
X1015903D01*
Y651132D01*
X1009807D01*
X534670Y595630D02*
Y605790D01*
X544830D01*
Y595630D01*
X534670D01*
X536702Y597662D02*
Y603758D01*
X542798D01*
Y597662D01*
X536702D01*
X1101090Y554990D02*
Y565150D01*
X1111250D01*
Y554990D01*
X1101090D01*
X1103122Y557022D02*
Y563118D01*
X1109218D01*
Y557022D01*
X1103122D01*
X1115060Y565150D02*
Y575310D01*
X1125220D01*
Y565150D01*
X1115060D01*
X1117092Y567182D02*
Y573278D01*
X1123188D01*
Y567182D01*
X1117092D01*
X907704Y1113445D02*
Y1123605D01*
X917865D01*
Y1113445D01*
X907704D01*
X909736Y1115477D02*
Y1121572D01*
X915833D01*
Y1115477D01*
X909736D01*
X914400Y1097280D02*
Y1107440D01*
X924560D01*
Y1097280D01*
X914400D01*
X916432Y1099312D02*
Y1105408D01*
X922528D01*
Y1099312D01*
X916432D01*
X907704Y1081115D02*
Y1091275D01*
X917865D01*
Y1081115D01*
X907704D01*
X909736Y1083148D02*
Y1089243D01*
X915833D01*
Y1083148D01*
X909736D01*
X891540Y1074420D02*
Y1084580D01*
X901700D01*
Y1074420D01*
X891540D01*
X893572Y1076452D02*
Y1082548D01*
X899668D01*
Y1076452D01*
X893572D01*
X875376Y1081115D02*
Y1091275D01*
X885536D01*
Y1081115D01*
X875376D01*
X877408Y1083148D02*
Y1089243D01*
X883503D01*
Y1083148D01*
X877408D01*
X868680Y1097280D02*
Y1107440D01*
X878840D01*
Y1097280D01*
X868680D01*
X870712Y1099312D02*
Y1105408D01*
X876808D01*
Y1099312D01*
X870712D01*
X875376Y1113445D02*
Y1123605D01*
X885536D01*
Y1113445D01*
X875376D01*
X877408Y1115477D02*
Y1121572D01*
X883503D01*
Y1115477D01*
X877408D01*
X891540Y1120140D02*
Y1130300D01*
X901700D01*
Y1120140D01*
X891540D01*
X893572Y1122172D02*
Y1128268D01*
X899668D01*
Y1122172D01*
X893572D01*
X1024545Y585125D02*
Y595285D01*
X1034705D01*
Y585125D01*
X1024545D01*
X1026577Y587156D02*
Y593252D01*
X1032673D01*
Y587156D01*
X1026577D01*
X1031240Y568960D02*
Y579120D01*
X1041400D01*
Y568960D01*
X1031240D01*
X1033272Y570992D02*
Y577088D01*
X1039368D01*
Y570992D01*
X1033272D01*
X1024545Y552795D02*
Y562956D01*
X1034705D01*
Y552795D01*
X1024545D01*
X1026577Y554827D02*
Y560924D01*
X1032673D01*
Y554827D01*
X1026577D01*
X1008380Y546100D02*
Y556260D01*
X1018540D01*
Y546100D01*
X1008380D01*
X1010412Y548132D02*
Y554228D01*
X1016508D01*
Y548132D01*
X1010412D01*
X992215Y552795D02*
Y562956D01*
X1002375D01*
Y552795D01*
X992215D01*
X994248Y554827D02*
Y560924D01*
X1000343D01*
Y554827D01*
X994248D01*
X985520Y568960D02*
Y579120D01*
X995680D01*
Y568960D01*
X985520D01*
X987552Y570992D02*
Y577088D01*
X993648D01*
Y570992D01*
X987552D01*
X992215Y585125D02*
Y595285D01*
X1002375D01*
Y585125D01*
X992215D01*
X994248Y587156D02*
Y593252D01*
X1000343D01*
Y587156D01*
X994248D01*
X1008380Y591820D02*
Y601980D01*
X1018540D01*
Y591820D01*
X1008380D01*
X1010412Y593852D02*
Y599948D01*
X1016508D01*
Y593852D01*
X1010412D01*
X1439834Y464474D02*
Y474635D01*
X1449995D01*
Y464474D01*
X1439834D01*
X1441866Y466507D02*
Y472603D01*
X1447962D01*
Y466507D01*
X1441866D01*
X1446530Y448310D02*
Y458470D01*
X1456690D01*
Y448310D01*
X1446530D01*
X1448562Y450342D02*
Y456438D01*
X1454658D01*
Y450342D01*
X1448562D01*
X1439834Y432146D02*
Y442305D01*
X1449995D01*
Y432146D01*
X1439834D01*
X1441866Y434178D02*
Y440274D01*
X1447962D01*
Y434178D01*
X1441866D01*
X1423670Y425450D02*
Y435610D01*
X1433830D01*
Y425450D01*
X1423670D01*
X1425702Y427482D02*
Y433578D01*
X1431798D01*
Y427482D01*
X1425702D01*
X1407505Y432146D02*
Y442305D01*
X1417666D01*
Y432146D01*
X1407505D01*
X1409538Y434178D02*
Y440274D01*
X1415634D01*
Y434178D01*
X1409538D01*
X1400810Y448310D02*
Y458470D01*
X1410970D01*
Y448310D01*
X1400810D01*
X1402842Y450342D02*
Y456438D01*
X1408938D01*
Y450342D01*
X1402842D01*
X1407505Y464474D02*
Y474635D01*
X1417666D01*
Y464474D01*
X1407505D01*
X1409538Y466507D02*
Y472603D01*
X1415634D01*
Y466507D01*
X1409538D01*
X1423670Y471170D02*
Y481330D01*
X1433830D01*
Y471170D01*
X1423670D01*
X1425702Y473202D02*
Y479298D01*
X1431798D01*
Y473202D01*
X1425702D01*
X1422054Y1236635D02*
Y1246795D01*
X1432215D01*
Y1236635D01*
X1422054D01*
X1424086Y1238667D02*
Y1244762D01*
X1430182D01*
Y1238667D01*
X1424086D01*
X1428750Y1220470D02*
Y1230630D01*
X1438910D01*
Y1220470D01*
X1428750D01*
X1430782Y1222502D02*
Y1228598D01*
X1436878D01*
Y1222502D01*
X1430782D01*
X1422054Y1204305D02*
Y1214465D01*
X1432215D01*
Y1204305D01*
X1422054D01*
X1424086Y1206338D02*
Y1212433D01*
X1430182D01*
Y1206338D01*
X1424086D01*
X1405890Y1197610D02*
Y1207770D01*
X1416050D01*
Y1197610D01*
X1405890D01*
X1407922Y1199642D02*
Y1205738D01*
X1414018D01*
Y1199642D01*
X1407922D01*
X1389725Y1204305D02*
Y1214465D01*
X1399886D01*
Y1204305D01*
X1389725D01*
X1391758Y1206338D02*
Y1212433D01*
X1397854D01*
Y1206338D01*
X1391758D01*
X1383030Y1220470D02*
Y1230630D01*
X1393190D01*
Y1220470D01*
X1383030D01*
X1385062Y1222502D02*
Y1228598D01*
X1391158D01*
Y1222502D01*
X1385062D01*
X1389725Y1236635D02*
Y1246795D01*
X1399886D01*
Y1236635D01*
X1389725D01*
X1391758Y1238667D02*
Y1244762D01*
X1397854D01*
Y1238667D01*
X1391758D01*
X1405890Y1243330D02*
Y1253490D01*
X1416050D01*
Y1243330D01*
X1405890D01*
X1407922Y1245362D02*
Y1251458D01*
X1414018D01*
Y1245362D01*
X1407922D01*
X1395730Y1308100D02*
Y1318260D01*
X1405890D01*
Y1308100D01*
X1395730D01*
X1397762Y1310132D02*
Y1316228D01*
X1403858D01*
Y1310132D01*
X1397762D01*
X1361440Y1308100D02*
Y1318260D01*
X1371600D01*
Y1308100D01*
X1361440D01*
X1363472Y1310132D02*
Y1316228D01*
X1369568D01*
Y1310132D01*
X1363472D01*
X1327150Y1308100D02*
Y1318260D01*
X1337310D01*
Y1308100D01*
X1327150D01*
X1329182Y1310132D02*
Y1316228D01*
X1335278D01*
Y1310132D01*
X1329182D01*
X1287780Y1304290D02*
Y1314450D01*
X1297940D01*
Y1304290D01*
X1287780D01*
X1289812Y1306322D02*
Y1312418D01*
X1295908D01*
Y1306322D01*
X1289812D01*
X1396162Y1100252D02*
Y1110412D01*
X1406322D01*
Y1100252D01*
X1396162D01*
X1398194Y1102284D02*
Y1108380D01*
X1404290D01*
Y1102284D01*
X1398194D01*
X1374140Y1090930D02*
Y1101090D01*
X1384300D01*
Y1090930D01*
X1374140D01*
X1376172Y1092962D02*
Y1099058D01*
X1382268D01*
Y1092962D01*
X1376172D01*
X1413510Y1094740D02*
Y1104900D01*
X1423670D01*
Y1094740D01*
X1413510D01*
X1415542Y1096772D02*
Y1102868D01*
X1421638D01*
Y1096772D01*
X1415542D01*
X1270000Y1099200D02*
Y1109360D01*
X1280160D01*
Y1099200D01*
X1270000D01*
X1272032Y1101232D02*
Y1107328D01*
X1278128D01*
Y1101232D01*
X1272032D01*
X1270000Y1092200D02*
Y1102360D01*
X1280160D01*
Y1092200D01*
X1270000D01*
X1272032Y1094232D02*
Y1100328D01*
X1278128D01*
Y1094232D01*
X1272032D01*
X1285860Y1087120D02*
Y1097280D01*
X1296020D01*
Y1087120D01*
X1285860D01*
X1287892Y1089152D02*
Y1095248D01*
X1293988D01*
Y1089152D01*
X1287892D01*
X1292860Y1087120D02*
Y1097280D01*
X1303020D01*
Y1087120D01*
X1292860D01*
X1294892Y1089152D02*
Y1095248D01*
X1300988D01*
Y1089152D01*
X1294892D01*
X1233283Y1099188D02*
Y1109348D01*
X1243443D01*
Y1099188D01*
X1233283D01*
X1235315Y1101220D02*
Y1107316D01*
X1241411D01*
Y1101220D01*
X1235315D01*
X1328420Y1111250D02*
Y1121410D01*
X1338580D01*
Y1111250D01*
X1328420D01*
X1330452Y1113282D02*
Y1119378D01*
X1336548D01*
Y1113282D01*
X1330452D01*
X1328420Y1120140D02*
Y1130300D01*
X1338580D01*
Y1120140D01*
X1328420D01*
X1330452Y1122172D02*
Y1128268D01*
X1336548D01*
Y1122172D01*
X1330452D01*
X627380Y850900D02*
Y861060D01*
X637540D01*
Y850900D01*
X627380D01*
X629412Y852932D02*
Y859028D01*
X635508D01*
Y852932D01*
X629412D01*
X1233872Y759871D02*
Y770031D01*
X1244032D01*
Y759871D01*
X1233872D01*
X1235904Y761903D02*
Y767999D01*
X1242000D01*
Y761903D01*
X1235904D01*
X1226820Y771550D02*
Y781710D01*
X1236980D01*
Y771550D01*
X1226820D01*
X1228852Y773582D02*
Y779678D01*
X1234948D01*
Y773582D01*
X1228852D01*
X1001570Y796900D02*
Y807060D01*
X1011730D01*
Y796900D01*
X1001570D01*
X1003602Y798932D02*
Y805028D01*
X1009698D01*
Y798932D01*
X1003602D01*
X1051560Y819150D02*
Y829310D01*
X1061720D01*
Y819150D01*
X1051560D01*
X1053592Y821182D02*
Y827278D01*
X1059688D01*
Y821182D01*
X1053592D01*
X1205230Y835660D02*
Y845820D01*
X1215390D01*
Y835660D01*
X1205230D01*
X1207262Y837692D02*
Y843788D01*
X1213358D01*
Y837692D01*
X1207262D01*
X1219200Y805180D02*
Y815340D01*
X1229360D01*
Y805180D01*
X1219200D01*
X1221232Y807212D02*
Y813308D01*
X1227328D01*
Y807212D01*
X1221232D01*
X1262380Y754380D02*
Y764540D01*
X1272540D01*
Y754380D01*
X1262380D01*
X1264412Y756412D02*
Y762508D01*
X1270508D01*
Y756412D01*
X1264412D01*
X1334770Y760730D02*
Y770890D01*
X1344930D01*
Y760730D01*
X1334770D01*
X1336802Y762762D02*
Y768858D01*
X1342898D01*
Y762762D01*
X1336802D01*
X1361440Y557530D02*
Y567690D01*
X1371600D01*
Y557530D01*
X1361440D01*
X1363472Y559562D02*
Y565658D01*
X1369568D01*
Y559562D01*
X1363472D01*
X1178400Y1316990D02*
Y1327150D01*
X1188560D01*
Y1316990D01*
X1178400D01*
X1180432Y1319022D02*
Y1325118D01*
X1186528D01*
Y1319022D01*
X1180432D01*
X1148080Y1209040D02*
Y1219200D01*
X1158240D01*
Y1209040D01*
X1148080D01*
X1150112Y1211072D02*
Y1217168D01*
X1156208D01*
Y1211072D01*
X1150112D01*
X1078890Y1129660D02*
Y1139820D01*
X1089050D01*
Y1129660D01*
X1078890D01*
X1080922Y1131692D02*
Y1137788D01*
X1087018D01*
Y1131692D01*
X1080922D01*
X1117600Y1134110D02*
Y1144270D01*
X1127760D01*
Y1134110D01*
X1117600D01*
X1119632Y1136142D02*
Y1142238D01*
X1125728D01*
Y1136142D01*
X1119632D01*
X1047750Y1144270D02*
Y1154430D01*
X1057910D01*
Y1144270D01*
X1047750D01*
X1049782Y1146302D02*
Y1152398D01*
X1055878D01*
Y1146302D01*
X1049782D01*
X1050290Y1155700D02*
Y1165860D01*
X1060450D01*
Y1155700D01*
X1050290D01*
X1052322Y1157732D02*
Y1163828D01*
X1058418D01*
Y1157732D01*
X1052322D01*
X1060190Y1190145D02*
Y1200304D01*
X1070350D01*
Y1190145D01*
X1060190D01*
X1062222Y1192177D02*
Y1198272D01*
X1068317D01*
Y1192177D01*
X1062222D01*
X1054100Y1096010D02*
Y1106170D01*
X1064260D01*
Y1096010D01*
X1054100D01*
X1056132Y1098042D02*
Y1104138D01*
X1062228D01*
Y1098042D01*
X1056132D01*
X1130300Y1019810D02*
Y1029970D01*
X1140460D01*
Y1019810D01*
X1130300D01*
X1132332Y1021842D02*
Y1027938D01*
X1138428D01*
Y1021842D01*
X1132332D01*
X867410Y962660D02*
Y972820D01*
X877570D01*
Y962660D01*
X867410D01*
X869442Y964692D02*
Y970788D01*
X875538D01*
Y964692D01*
X869442D01*
X1032510Y962660D02*
Y972820D01*
X1042670D01*
Y962660D01*
X1032510D01*
X1034542Y964692D02*
Y970788D01*
X1040638D01*
Y964692D01*
X1034542D01*
X1085850Y1028700D02*
Y1038860D01*
X1096010D01*
Y1028700D01*
X1085850D01*
X1087882Y1030732D02*
Y1036828D01*
X1093978D01*
Y1030732D01*
X1087882D01*
X1066800Y1062990D02*
Y1073150D01*
X1076960D01*
Y1062990D01*
X1066800D01*
X1068832Y1065022D02*
Y1071118D01*
X1074928D01*
Y1065022D01*
X1068832D01*
X1060450Y1071880D02*
Y1082040D01*
X1070610D01*
Y1071880D01*
X1060450D01*
X1062482Y1073912D02*
Y1080008D01*
X1068578D01*
Y1073912D01*
X1062482D01*
X1165860Y1036320D02*
Y1046480D01*
X1176020D01*
Y1036320D01*
X1165860D01*
X1167892Y1038352D02*
Y1044448D01*
X1173988D01*
Y1038352D01*
X1167892D01*
X1344930Y1078230D02*
Y1088390D01*
X1355090D01*
Y1078230D01*
X1344930D01*
X1346962Y1080262D02*
Y1086358D01*
X1353058D01*
Y1080262D01*
X1346962D01*
X822960Y1318260D02*
Y1328420D01*
X833120D01*
Y1318260D01*
X822960D01*
X824992Y1320292D02*
Y1326388D01*
X831088D01*
Y1320292D01*
X824992D01*
X887730Y1306830D02*
Y1316990D01*
X897890D01*
Y1306830D01*
X887730D01*
X889762Y1308862D02*
Y1314958D01*
X895858D01*
Y1308862D01*
X889762D01*
X726440Y1303020D02*
Y1313180D01*
X736600D01*
Y1303020D01*
X726440D01*
X728472Y1305052D02*
Y1311148D01*
X734568D01*
Y1305052D01*
X728472D01*
X727710Y1310640D02*
Y1320800D01*
X737870D01*
Y1310640D01*
X727710D01*
X729742Y1312672D02*
Y1318768D01*
X735838D01*
Y1312672D01*
X729742D01*
X646430Y1304290D02*
Y1314450D01*
X656590D01*
Y1304290D01*
X646430D01*
X648462Y1306322D02*
Y1312418D01*
X654558D01*
Y1306322D01*
X648462D01*
X646430Y1311910D02*
Y1322070D01*
X656590D01*
Y1311910D01*
X646430D01*
X648462Y1313942D02*
Y1320038D01*
X654558D01*
Y1313942D01*
X648462D01*
X1357630Y1076960D02*
Y1087120D01*
X1367790D01*
Y1076960D01*
X1357630D01*
X1359662Y1078992D02*
Y1085088D01*
X1365758D01*
Y1078992D01*
X1359662D01*
X1261110Y1112520D02*
Y1122680D01*
X1271270D01*
Y1112520D01*
X1261110D01*
X1263142Y1114552D02*
Y1120648D01*
X1269238D01*
Y1114552D01*
X1263142D01*
X1195070Y1125220D02*
Y1135380D01*
X1205230D01*
Y1125220D01*
X1195070D01*
X1197102Y1127252D02*
Y1133348D01*
X1203198D01*
Y1127252D01*
X1197102D01*
X1261110Y1120140D02*
Y1130300D01*
X1271270D01*
Y1120140D01*
X1261110D01*
X1263142Y1122172D02*
Y1128268D01*
X1269238D01*
Y1122172D01*
X1263142D01*
X1117600Y1112520D02*
Y1122680D01*
X1127760D01*
Y1112520D01*
X1117600D01*
X1119632Y1114552D02*
Y1120648D01*
X1125728D01*
Y1114552D01*
X1119632D01*
X1057910Y1118870D02*
Y1129030D01*
X1068070D01*
Y1118870D01*
X1057910D01*
X1059942Y1120902D02*
Y1126998D01*
X1066038D01*
Y1120902D01*
X1059942D01*
X974090Y1111250D02*
Y1121410D01*
X984250D01*
Y1111250D01*
X974090D01*
X976122Y1113282D02*
Y1119378D01*
X982218D01*
Y1113282D01*
X976122D01*
X990600Y1097280D02*
Y1107440D01*
X1000760D01*
Y1097280D01*
X990600D01*
X992632Y1099312D02*
Y1105408D01*
X998728D01*
Y1099312D01*
X992632D01*
X958850Y883920D02*
Y894080D01*
X969010D01*
Y883920D01*
X958850D01*
X960882Y885952D02*
Y892048D01*
X966978D01*
Y885952D01*
X960882D01*
X948690Y883920D02*
Y894080D01*
X958850D01*
Y883920D01*
X948690D01*
X950722Y885952D02*
Y892048D01*
X956818D01*
Y885952D01*
X950722D01*
X939800Y883920D02*
Y894080D01*
X949960D01*
Y883920D01*
X939800D01*
X941832Y885952D02*
Y892048D01*
X947928D01*
Y885952D01*
X941832D01*
X839470Y876300D02*
Y886460D01*
X849630D01*
Y876300D01*
X839470D01*
X841502Y878332D02*
Y884428D01*
X847598D01*
Y878332D01*
X841502D01*
X806450Y877570D02*
Y887730D01*
X816610D01*
Y877570D01*
X806450D01*
X808482Y879602D02*
Y885698D01*
X814578D01*
Y879602D01*
X808482D01*
X678180Y922020D02*
Y932180D01*
X688340D01*
Y922020D01*
X678180D01*
X680212Y924052D02*
Y930148D01*
X686308D01*
Y924052D01*
X680212D01*
X678180Y930910D02*
Y941070D01*
X688340D01*
Y930910D01*
X678180D01*
X680212Y932942D02*
Y939038D01*
X686308D01*
Y932942D01*
X680212D01*
X678180Y941070D02*
Y951230D01*
X688340D01*
Y941070D01*
X678180D01*
X680212Y943102D02*
Y949198D01*
X686308D01*
Y943102D01*
X680212D01*
X643890Y934720D02*
Y944880D01*
X654050D01*
Y934720D01*
X643890D01*
X645922Y936752D02*
Y942848D01*
X652018D01*
Y936752D01*
X645922D01*
X643890Y924560D02*
Y934720D01*
X654050D01*
Y924560D01*
X643890D01*
X645922Y926592D02*
Y932688D01*
X652018D01*
Y926592D01*
X645922D01*
X554990Y717550D02*
Y727710D01*
X565150D01*
Y717550D01*
X554990D01*
X557022Y719582D02*
Y725678D01*
X563118D01*
Y719582D01*
X557022D01*
X547370Y720090D02*
Y730250D01*
X557530D01*
Y720090D01*
X547370D01*
X549402Y722122D02*
Y728218D01*
X555498D01*
Y722122D01*
X549402D01*
X514350Y458470D02*
Y468630D01*
X524510D01*
Y458470D01*
X514350D01*
X516382Y460502D02*
Y466598D01*
X522478D01*
Y460502D01*
X516382D01*
X524510Y439420D02*
Y449580D01*
X534670D01*
Y439420D01*
X524510D01*
X526542Y441452D02*
Y447548D01*
X532638D01*
Y441452D01*
X526542D01*
X835660Y603250D02*
Y613410D01*
X845820D01*
Y603250D01*
X835660D01*
X837692Y605282D02*
Y611378D01*
X843788D01*
Y605282D01*
X837692D01*
X835660Y612140D02*
Y622300D01*
X845820D01*
Y612140D01*
X835660D01*
X837692Y614172D02*
Y620268D01*
X843788D01*
Y614172D01*
X837692D01*
X835660Y621030D02*
Y631190D01*
X845820D01*
Y621030D01*
X835660D01*
X837692Y623062D02*
Y629158D01*
X843788D01*
Y623062D01*
X837692D01*
X905510Y645160D02*
Y655320D01*
X915670D01*
Y645160D01*
X905510D01*
X907542Y647192D02*
Y653288D01*
X913638D01*
Y647192D01*
X907542D01*
X927100Y626110D02*
Y636270D01*
X937260D01*
Y626110D01*
X927100D01*
X929132Y628142D02*
Y634238D01*
X935228D01*
Y628142D01*
X929132D01*
X969010Y640080D02*
Y650240D01*
X979170D01*
Y640080D01*
X969010D01*
X971042Y642112D02*
Y648208D01*
X977138D01*
Y642112D01*
X971042D01*
X1096010Y727710D02*
Y737870D01*
X1106170D01*
Y727710D01*
X1096010D01*
X1098042Y729742D02*
Y735838D01*
X1104138D01*
Y729742D01*
X1098042D01*
X1096010Y701040D02*
Y711200D01*
X1106170D01*
Y701040D01*
X1096010D01*
X1098042Y703072D02*
Y709168D01*
X1104138D01*
Y703072D01*
X1098042D01*
X1093470Y664210D02*
Y674370D01*
X1103630D01*
Y664210D01*
X1093470D01*
X1095502Y666242D02*
Y672338D01*
X1101598D01*
Y666242D01*
X1095502D01*
X1239520Y702310D02*
Y712470D01*
X1249680D01*
Y702310D01*
X1239520D01*
X1241552Y704342D02*
Y710438D01*
X1247648D01*
Y704342D01*
X1241552D01*
X1377950Y546100D02*
Y556260D01*
X1388110D01*
Y546100D01*
X1377950D01*
X1379982Y548132D02*
Y554228D01*
X1386078D01*
Y548132D01*
X1379982D01*
X1424940Y839470D02*
Y849630D01*
X1435100D01*
Y839470D01*
X1424940D01*
X1426972Y841502D02*
Y847598D01*
X1433068D01*
Y841502D01*
X1426972D01*
X1372870Y767080D02*
Y777240D01*
X1383030D01*
Y767080D01*
X1372870D01*
X1374902Y769112D02*
Y775208D01*
X1380998D01*
Y769112D01*
X1374902D01*
X1365250Y948690D02*
Y958850D01*
X1375410D01*
Y948690D01*
X1365250D01*
X1367282Y950722D02*
Y956818D01*
X1373378D01*
Y950722D01*
X1367282D01*
X1365250Y941070D02*
Y951230D01*
X1375410D01*
Y941070D01*
X1365250D01*
X1367282Y943102D02*
Y949198D01*
X1373378D01*
Y943102D01*
X1367282D01*
X1357630Y935990D02*
Y946150D01*
X1367790D01*
Y935990D01*
X1357630D01*
X1359662Y938022D02*
Y944118D01*
X1365758D01*
Y938022D01*
X1359662D01*
X1350010Y935990D02*
Y946150D01*
X1360170D01*
Y935990D01*
X1350010D01*
X1352042Y938022D02*
Y944118D01*
X1358138D01*
Y938022D01*
X1352042D01*
X1309370Y960120D02*
Y970280D01*
X1319530D01*
Y960120D01*
X1309370D01*
X1311402Y962152D02*
Y968248D01*
X1317498D01*
Y962152D01*
X1311402D01*
X1365250Y985520D02*
Y995680D01*
X1375410D01*
Y985520D01*
X1365250D01*
X1367282Y987552D02*
Y993648D01*
X1373378D01*
Y987552D01*
X1367282D01*
X1408430Y1029970D02*
Y1040130D01*
X1418590D01*
Y1029970D01*
X1408430D01*
X1410462Y1032002D02*
Y1038098D01*
X1416558D01*
Y1032002D01*
X1410462D01*
X1407160Y1155700D02*
Y1165860D01*
X1417320D01*
Y1155700D01*
X1407160D01*
X1409192Y1157732D02*
Y1163828D01*
X1415288D01*
Y1157732D01*
X1409192D01*
X1258570Y1197610D02*
Y1207770D01*
X1268730D01*
Y1197610D01*
X1258570D01*
X1260602Y1199642D02*
Y1205738D01*
X1266698D01*
Y1199642D01*
X1260602D01*
X1277620Y1215390D02*
Y1225550D01*
X1287780D01*
Y1215390D01*
X1277620D01*
X1279652Y1217422D02*
Y1223518D01*
X1285748D01*
Y1217422D01*
X1279652D01*
X1308100Y1148080D02*
Y1158240D01*
X1318260D01*
Y1148080D01*
X1308100D01*
X1310132Y1150112D02*
Y1156208D01*
X1316228D01*
Y1150112D01*
X1310132D01*
X1328420Y1165860D02*
Y1176020D01*
X1338580D01*
Y1165860D01*
X1328420D01*
X1330452Y1167892D02*
Y1173988D01*
X1336548D01*
Y1167892D01*
X1330452D01*
X1410970Y1337310D02*
Y1347470D01*
X1421130D01*
Y1337310D01*
X1410970D01*
X1413002Y1339342D02*
Y1345438D01*
X1419098D01*
Y1339342D01*
X1413002D01*
X1376680Y1338580D02*
Y1348740D01*
X1386840D01*
Y1338580D01*
X1376680D01*
X1378712Y1340612D02*
Y1346708D01*
X1384808D01*
Y1340612D01*
X1378712D01*
X1343660Y1337310D02*
Y1347470D01*
X1353820D01*
Y1337310D01*
X1343660D01*
X1345692Y1339342D02*
Y1345438D01*
X1351788D01*
Y1339342D01*
X1345692D01*
X1310640Y1336040D02*
Y1346200D01*
X1320800D01*
Y1336040D01*
X1310640D01*
X1312672Y1338072D02*
Y1344168D01*
X1318768D01*
Y1338072D01*
X1312672D01*
X1229360Y1285240D02*
Y1295400D01*
X1239520D01*
Y1285240D01*
X1229360D01*
X1231392Y1287272D02*
Y1293368D01*
X1237488D01*
Y1287272D01*
X1231392D01*
X1097280Y1308100D02*
Y1318260D01*
X1107440D01*
Y1308100D01*
X1097280D01*
X1099312Y1310132D02*
Y1316228D01*
X1105408D01*
Y1310132D01*
X1099312D01*
X1089660Y1231900D02*
Y1242060D01*
X1099820D01*
Y1231900D01*
X1089660D01*
X1091692Y1233932D02*
Y1240028D01*
X1097788D01*
Y1233932D01*
X1091692D01*
X1158240Y1220470D02*
Y1230630D01*
X1168400D01*
Y1220470D01*
X1158240D01*
X1160272Y1222502D02*
Y1228598D01*
X1166368D01*
Y1222502D01*
X1160272D01*
X1125220Y1245870D02*
Y1256030D01*
X1135380D01*
Y1245870D01*
X1125220D01*
X1127252Y1247902D02*
Y1253998D01*
X1133348D01*
Y1247902D01*
X1127252D01*
X1019810Y1004366D02*
Y1014526D01*
X1029970D01*
Y1004366D01*
X1019810D01*
X1021842Y1006398D02*
Y1012494D01*
X1027938D01*
Y1006398D01*
X1021842D01*
X1091895Y855675D02*
Y865835D01*
X1102055D01*
Y855675D01*
X1091895D01*
X1093927Y857707D02*
Y863803D01*
X1100023D01*
Y857707D01*
X1093927D01*
X1080770Y1060450D02*
Y1070610D01*
X1090930D01*
Y1060450D01*
X1080770D01*
X1082802Y1062482D02*
Y1068578D01*
X1088898D01*
Y1062482D01*
X1082802D01*
X1117600Y1096010D02*
Y1106170D01*
X1127760D01*
Y1096010D01*
X1117600D01*
X1119632Y1098042D02*
Y1104138D01*
X1125728D01*
Y1098042D01*
X1119632D01*
X1041400Y642620D02*
Y652780D01*
X1051560D01*
Y642620D01*
X1041400D01*
X1043432Y644652D02*
Y650748D01*
X1049528D01*
Y644652D01*
X1043432D01*
X1055370Y425590D02*
Y435750D01*
X1065530D01*
Y425590D01*
X1055370D01*
X1057402Y427622D02*
Y433718D01*
X1063498D01*
Y427622D01*
X1057402D01*
X1160780Y1078230D02*
Y1088390D01*
X1170940D01*
Y1078230D01*
X1160780D01*
X1162812Y1080262D02*
Y1086358D01*
X1168908D01*
Y1080262D01*
X1162812D01*
X1206920Y1155610D02*
Y1165770D01*
X1217080D01*
Y1155610D01*
X1206920D01*
X1208952Y1157642D02*
Y1163738D01*
X1215048D01*
Y1157642D01*
X1208952D01*
X1197997Y1146687D02*
Y1156847D01*
X1208157D01*
Y1146687D01*
X1197997D01*
X1200029Y1148719D02*
Y1154815D01*
X1206125D01*
Y1148719D01*
X1200029D01*
X1132840Y1201420D02*
Y1211580D01*
X1143000D01*
Y1201420D01*
X1132840D01*
X1134872Y1203452D02*
Y1209548D01*
X1140968D01*
Y1203452D01*
X1134872D01*
X928005Y1185815D02*
Y1195975D01*
X938165D01*
Y1185815D01*
X928005D01*
X930037Y1187847D02*
Y1193943D01*
X936133D01*
Y1187847D01*
X930037D01*
X574040Y976630D02*
Y986790D01*
X584200D01*
Y976630D01*
X574040D01*
X576072Y978662D02*
Y984758D01*
X582168D01*
Y978662D01*
X576072D01*
X565150Y971550D02*
Y981710D01*
X575310D01*
Y971550D01*
X565150D01*
X567182Y973582D02*
Y979678D01*
X573278D01*
Y973582D01*
X567182D01*
X584200Y881380D02*
Y891540D01*
X594360D01*
Y881380D01*
X584200D01*
X586232Y883412D02*
Y889508D01*
X592328D01*
Y883412D01*
X586232D01*
X592301Y878548D02*
Y888708D01*
X602461D01*
Y878548D01*
X592301D01*
X594333Y880580D02*
Y886676D01*
X600429D01*
Y880580D01*
X594333D01*
X1130300Y1192530D02*
Y1202690D01*
X1140460D01*
Y1192530D01*
X1130300D01*
X1132332Y1194562D02*
Y1200658D01*
X1138428D01*
Y1194562D01*
X1132332D01*
X981710Y1200150D02*
Y1210310D01*
X991870D01*
Y1200150D01*
X981710D01*
X983742Y1202182D02*
Y1208278D01*
X989838D01*
Y1202182D01*
X983742D01*
X1010920Y1229360D02*
Y1239520D01*
X1021080D01*
Y1229360D01*
X1010920D01*
X1012952Y1231392D02*
Y1237488D01*
X1019048D01*
Y1231392D01*
X1012952D01*
X928370Y1177290D02*
Y1187450D01*
X938530D01*
Y1177290D01*
X928370D01*
X930402Y1179322D02*
Y1185418D01*
X936498D01*
Y1179322D01*
X930402D01*
X817880Y1182730D02*
Y1192890D01*
X828040D01*
Y1182730D01*
X817880D01*
X819912Y1184762D02*
Y1190858D01*
X826008D01*
Y1184762D01*
X819912D01*
X1202690Y942340D02*
Y952500D01*
X1212850D01*
Y942340D01*
X1202690D01*
X1204722Y944372D02*
Y950468D01*
X1210818D01*
Y944372D01*
X1204722D01*
X1196217Y945003D02*
Y955163D01*
X1206376D01*
Y945003D01*
X1196217D01*
X1198249Y947035D02*
Y953131D01*
X1204344D01*
Y947035D01*
X1198249D01*
X1177290Y910590D02*
Y920750D01*
X1187450D01*
Y910590D01*
X1177290D01*
X1179322Y912622D02*
Y918718D01*
X1185418D01*
Y912622D01*
X1179322D01*
X1092200Y847090D02*
Y857250D01*
X1102360D01*
Y847090D01*
X1092200D01*
X1094232Y849122D02*
Y855218D01*
X1100328D01*
Y849122D01*
X1094232D01*
X913130Y795020D02*
Y805180D01*
X923290D01*
Y795020D01*
X913130D01*
X915162Y797052D02*
Y803148D01*
X921258D01*
Y797052D01*
X915162D01*
X774630Y783590D02*
Y793750D01*
X784790D01*
Y783590D01*
X774630D01*
X776662Y785622D02*
Y791718D01*
X782757D01*
Y785622D01*
X776662D01*
X838200Y771570D02*
Y781730D01*
X848360D01*
Y771570D01*
X838200D01*
X840232Y773602D02*
Y779698D01*
X846328D01*
Y773602D01*
X840232D01*
X905510Y802640D02*
Y812800D01*
X915670D01*
Y802640D01*
X905510D01*
X907542Y804672D02*
Y810768D01*
X913638D01*
Y804672D01*
X907542D01*
X1178560Y918210D02*
Y928370D01*
X1188720D01*
Y918210D01*
X1178560D01*
X1180592Y920242D02*
Y926338D01*
X1186688D01*
Y920242D01*
X1180592D01*
X1219200Y915670D02*
Y925830D01*
X1229360D01*
Y915670D01*
X1219200D01*
X1221232Y917702D02*
Y923798D01*
X1227328D01*
Y917702D01*
X1221232D01*
X1221740Y908050D02*
Y918210D01*
X1231900D01*
Y908050D01*
X1221740D01*
X1223772Y910082D02*
Y916178D01*
X1229868D01*
Y910082D01*
X1223772D01*
X735330Y631190D02*
Y641350D01*
X745490D01*
Y631190D01*
X735330D01*
X737362Y633222D02*
Y639318D01*
X743458D01*
Y633222D01*
X737362D01*
X735330Y638190D02*
Y648350D01*
X745490D01*
Y638190D01*
X735330D01*
X737362Y640222D02*
Y646318D01*
X743458D01*
Y640222D01*
X737362D01*
X618490Y570230D02*
Y580390D01*
X628650D01*
Y570230D01*
X618490D01*
X620522Y572262D02*
Y578358D01*
X626618D01*
Y572262D01*
X620522D01*
X607060Y581083D02*
Y591243D01*
X617220D01*
Y581083D01*
X607060D01*
X609092Y583115D02*
Y589211D01*
X615188D01*
Y583115D01*
X609092D01*
X1276350Y875030D02*
Y885190D01*
X1286510D01*
Y875030D01*
X1276350D01*
X1278382Y877062D02*
Y883158D01*
X1284478D01*
Y877062D01*
X1278382D01*
X1346200Y838200D02*
Y848360D01*
X1356360D01*
Y838200D01*
X1346200D01*
X1348232Y840232D02*
Y846328D01*
X1354328D01*
Y840232D01*
X1348232D01*
X1096750Y427250D02*
Y437410D01*
X1106910D01*
Y427250D01*
X1096750D01*
X1098782Y429282D02*
Y435378D01*
X1104878D01*
Y429282D01*
X1098782D01*
X641350Y430405D02*
Y440565D01*
X651510D01*
Y430405D01*
X641350D01*
X643382Y432437D02*
Y438533D01*
X649478D01*
Y432437D01*
X643382D01*
X646884Y434692D02*
Y444852D01*
X657044D01*
Y434692D01*
X646884D01*
X648916Y436724D02*
Y442820D01*
X655012D01*
Y436724D01*
X648916D01*
X649972Y527318D02*
Y537478D01*
X660132D01*
Y527318D01*
X649972D01*
X652004Y529350D02*
Y535446D01*
X658100D01*
Y529350D01*
X652004D01*
X594360Y619760D02*
Y629920D01*
X604520D01*
Y619760D01*
X594360D01*
X596392Y621792D02*
Y627888D01*
X602488D01*
Y621792D01*
X596392D01*
X1225550Y669290D02*
Y679450D01*
X1235710D01*
Y669290D01*
X1225550D01*
X1227582Y671322D02*
Y677418D01*
X1233678D01*
Y671322D01*
X1227582D01*
X1107440Y678180D02*
Y688340D01*
X1117600D01*
Y678180D01*
X1107440D01*
X1109472Y680212D02*
Y686308D01*
X1115568D01*
Y680212D01*
X1109472D01*
X772160Y580390D02*
Y590550D01*
X782320D01*
Y580390D01*
X772160D01*
X774192Y582422D02*
Y588518D01*
X780288D01*
Y582422D01*
X774192D01*
X693146Y484144D02*
Y494304D01*
X703306D01*
Y484144D01*
X693146D01*
X695178Y486176D02*
Y492272D01*
X701274D01*
Y486176D01*
X695178D01*
X1187076Y1105796D02*
Y1115956D01*
X1197236D01*
Y1105796D01*
X1187076D01*
X1189108Y1107828D02*
Y1113924D01*
X1195204D01*
Y1107828D01*
X1189108D01*
X1253490Y758190D02*
Y768350D01*
X1263650D01*
Y758190D01*
X1253490D01*
X1255522Y760222D02*
Y766318D01*
X1261618D01*
Y760222D01*
X1255522D01*
X1173480Y1111232D02*
Y1121392D01*
X1183640D01*
Y1111232D01*
X1173480D01*
X1175512Y1113264D02*
Y1119360D01*
X1181608D01*
Y1113264D01*
X1175512D01*
X1243330Y758190D02*
Y768350D01*
X1253490D01*
Y758190D01*
X1243330D01*
X1245362Y760222D02*
Y766318D01*
X1251458D01*
Y760222D01*
X1245362D01*
X1177780Y1139190D02*
Y1149350D01*
X1187940D01*
Y1139190D01*
X1177780D01*
X1179812Y1141222D02*
Y1147318D01*
X1185908D01*
Y1141222D01*
X1179812D01*
X1173480Y1131570D02*
Y1141730D01*
X1183640D01*
Y1131570D01*
X1173480D01*
X1175512Y1133602D02*
Y1139698D01*
X1181608D01*
Y1133602D01*
X1175512D01*
X1173480Y1121410D02*
Y1131570D01*
X1183640D01*
Y1121410D01*
X1173480D01*
X1175512Y1123442D02*
Y1129538D01*
X1181608D01*
Y1123442D01*
X1175512D01*
X1112520Y654050D02*
Y664210D01*
X1122680D01*
Y654050D01*
X1112520D01*
X1114552Y656082D02*
Y662178D01*
X1120648D01*
Y656082D01*
X1114552D01*
X858520Y850620D02*
Y860780D01*
X868680D01*
Y850620D01*
X858520D01*
X860552Y852652D02*
Y858748D01*
X866648D01*
Y852652D01*
X860552D01*
X881380Y853440D02*
Y863600D01*
X891540D01*
Y853440D01*
X881380D01*
X883412Y855472D02*
Y861568D01*
X889508D01*
Y855472D01*
X883412D01*
X1121410Y914400D02*
Y924560D01*
X1131570D01*
Y914400D01*
X1121410D01*
X1123442Y916432D02*
Y922528D01*
X1129538D01*
Y916432D01*
X1123442D01*
X1172210Y962660D02*
Y972820D01*
X1182370D01*
Y962660D01*
X1172210D01*
X1174242Y964692D02*
Y970788D01*
X1180338D01*
Y964692D01*
X1174242D01*
X1092200Y910590D02*
Y920750D01*
X1102360D01*
Y910590D01*
X1092200D01*
X1094232Y912622D02*
Y918718D01*
X1100328D01*
Y912622D01*
X1094232D01*
X1162050Y971550D02*
Y981710D01*
X1172210D01*
Y971550D01*
X1162050D01*
X1164082Y973582D02*
Y979678D01*
X1170178D01*
Y973582D01*
X1164082D01*
X657860Y563880D02*
Y574040D01*
X668020D01*
Y563880D01*
X657860D01*
X659892Y565912D02*
Y572008D01*
X665988D01*
Y565912D01*
X659892D01*
X1035050Y1068070D02*
Y1078230D01*
X1045210D01*
Y1068070D01*
X1035050D01*
X1037082Y1070102D02*
Y1076198D01*
X1043178D01*
Y1070102D01*
X1037082D01*
X1123044Y1088552D02*
Y1098712D01*
X1133204D01*
Y1088552D01*
X1123044D01*
X1125076Y1090584D02*
Y1096680D01*
X1131171D01*
Y1090584D01*
X1125076D01*
X872490Y1278890D02*
Y1289050D01*
X882650D01*
Y1278890D01*
X872490D01*
X874522Y1280922D02*
Y1287018D01*
X880618D01*
Y1280922D01*
X874522D01*
X834390Y1319530D02*
Y1329690D01*
X844550D01*
Y1319530D01*
X834390D01*
X836422Y1321562D02*
Y1327658D01*
X842518D01*
Y1321562D01*
X836422D01*
X803910Y1291590D02*
Y1301750D01*
X814070D01*
Y1291590D01*
X803910D01*
X805942Y1293622D02*
Y1299718D01*
X812038D01*
Y1293622D01*
X805942D01*
X788670Y1272540D02*
Y1282700D01*
X798830D01*
Y1272540D01*
X788670D01*
X790702Y1274572D02*
Y1280668D01*
X796798D01*
Y1274572D01*
X790702D01*
X695960Y1264920D02*
Y1275080D01*
X706120D01*
Y1264920D01*
X695960D01*
X697992Y1266952D02*
Y1273048D01*
X704088D01*
Y1266952D01*
X697992D01*
X762000Y1253490D02*
Y1263650D01*
X772160D01*
Y1253490D01*
X762000D01*
X764032Y1255522D02*
Y1261618D01*
X770128D01*
Y1255522D01*
X764032D01*
X722900Y1218930D02*
Y1229090D01*
X733060D01*
Y1218930D01*
X722900D01*
X724932Y1220962D02*
Y1227058D01*
X731028D01*
Y1220962D01*
X724932D01*
X808990Y1253490D02*
Y1263650D01*
X819150D01*
Y1253490D01*
X808990D01*
X811022Y1255522D02*
Y1261618D01*
X817118D01*
Y1255522D01*
X811022D01*
X806450Y1242060D02*
Y1252220D01*
X816610D01*
Y1242060D01*
X806450D01*
X808482Y1244092D02*
Y1250188D01*
X814578D01*
Y1244092D01*
X808482D01*
X863600Y1261150D02*
Y1271310D01*
X873760D01*
Y1261150D01*
X863600D01*
X865632Y1263182D02*
Y1269278D01*
X871728D01*
Y1263182D01*
X865632D01*
X655320Y835660D02*
Y845820D01*
X665480D01*
Y835660D01*
X655320D01*
X657352Y837692D02*
Y843788D01*
X663448D01*
Y837692D01*
X657352D01*
X676910Y810260D02*
Y820420D01*
X687070D01*
Y810260D01*
X676910D01*
X678942Y812292D02*
Y818388D01*
X685038D01*
Y812292D01*
X678942D01*
X659130Y664210D02*
Y674370D01*
X669290D01*
Y664210D01*
X659130D01*
X661162Y666242D02*
Y672338D01*
X667258D01*
Y666242D01*
X661162D01*
X835660Y925830D02*
Y935990D01*
X845820D01*
Y925830D01*
X835660D01*
X837692Y927862D02*
Y933958D01*
X843788D01*
Y927862D01*
X837692D01*
X882650Y1000760D02*
Y1010920D01*
X892810D01*
Y1000760D01*
X882650D01*
X884682Y1002792D02*
Y1008888D01*
X890778D01*
Y1002792D01*
X884682D01*
X815340Y1075690D02*
Y1085850D01*
X825500D01*
Y1075690D01*
X815340D01*
X817372Y1077722D02*
Y1083818D01*
X823468D01*
Y1077722D01*
X817372D01*
X1042670Y688340D02*
Y698500D01*
X1052830D01*
Y688340D01*
X1042670D01*
X1044702Y690372D02*
Y696468D01*
X1050798D01*
Y690372D01*
X1044702D01*
X1150620Y1347470D02*
Y1357630D01*
X1160780D01*
Y1347470D01*
X1150620D01*
X1152652Y1349502D02*
Y1355598D01*
X1158748D01*
Y1349502D01*
X1152652D01*
X598170Y1372075D02*
Y1382235D01*
X608330D01*
Y1372075D01*
X598170D01*
X600202Y1374107D02*
Y1380203D01*
X606298D01*
Y1374107D01*
X600202D01*
X1059180Y1316990D02*
Y1327150D01*
X1069340D01*
Y1316990D01*
X1059180D01*
X1061212Y1319022D02*
Y1325118D01*
X1067308D01*
Y1319022D01*
X1061212D01*
X1068340Y1315990D02*
Y1326150D01*
X1078500D01*
Y1315990D01*
X1068340D01*
X1070372Y1318022D02*
Y1324118D01*
X1076468D01*
Y1318022D01*
X1070372D01*
X1064551Y1257626D02*
Y1267786D01*
X1074711D01*
Y1257626D01*
X1064551D01*
X1066583Y1259658D02*
Y1265754D01*
X1072679D01*
Y1259658D01*
X1066583D01*
X1057910Y1259840D02*
Y1270000D01*
X1068070D01*
Y1259840D01*
X1057910D01*
X1059942Y1261872D02*
Y1267968D01*
X1066038D01*
Y1261872D01*
X1059942D01*
X1017270Y1080770D02*
Y1090930D01*
X1027430D01*
Y1080770D01*
X1017270D01*
X1019302Y1082802D02*
Y1088898D01*
X1025398D01*
Y1082802D01*
X1019302D01*
X1195070Y1196340D02*
Y1206500D01*
X1205230D01*
Y1196340D01*
X1195070D01*
X1197102Y1198372D02*
Y1204468D01*
X1203198D01*
Y1198372D01*
X1197102D01*
X1197610Y1211580D02*
Y1221740D01*
X1207770D01*
Y1211580D01*
X1197610D01*
X1199642Y1213612D02*
Y1219708D01*
X1205738D01*
Y1213612D01*
X1199642D01*
X1024890Y1125220D02*
Y1135380D01*
X1035050D01*
Y1125220D01*
X1024890D01*
X1026922Y1127252D02*
Y1133348D01*
X1033018D01*
Y1127252D01*
X1026922D01*
X1076800Y1101190D02*
Y1111350D01*
X1086960D01*
Y1101190D01*
X1076800D01*
X1078832Y1103222D02*
Y1109318D01*
X1084928D01*
Y1103222D01*
X1078832D01*
X659130Y1385570D02*
Y1395730D01*
X669290D01*
Y1385570D01*
X659130D01*
X661162Y1387602D02*
Y1393698D01*
X667258D01*
Y1387602D01*
X661162D01*
X1280160Y1370330D02*
Y1380490D01*
X1290320D01*
Y1370330D01*
X1280160D01*
X1282192Y1372362D02*
Y1378458D01*
X1288288D01*
Y1372362D01*
X1282192D01*
X1239150Y1336470D02*
Y1346630D01*
X1249310D01*
Y1336470D01*
X1239150D01*
X1241182Y1338502D02*
Y1344598D01*
X1247278D01*
Y1338502D01*
X1241182D01*
X1264920Y1367790D02*
Y1377950D01*
X1275080D01*
Y1367790D01*
X1264920D01*
X1266952Y1369822D02*
Y1375918D01*
X1273048D01*
Y1369822D01*
X1266952D01*
X1249680Y1358900D02*
Y1369060D01*
X1259840D01*
Y1358900D01*
X1249680D01*
X1251712Y1360932D02*
Y1367028D01*
X1257808D01*
Y1360932D01*
X1251712D01*
X890112Y1226662D02*
Y1236822D01*
X900272D01*
Y1226662D01*
X890112D01*
X892144Y1228694D02*
Y1234790D01*
X898240D01*
Y1228694D01*
X892144D01*
X834390Y1278150D02*
Y1288310D01*
X844550D01*
Y1278150D01*
X834390D01*
X836422Y1280182D02*
Y1286278D01*
X842518D01*
Y1280182D01*
X836422D01*
X751840Y1318260D02*
Y1328420D01*
X762000D01*
Y1318260D01*
X751840D01*
X753872Y1320292D02*
Y1326388D01*
X759968D01*
Y1320292D01*
X753872D01*
X796290Y1316990D02*
Y1327150D01*
X806450D01*
Y1316990D01*
X796290D01*
X798322Y1319022D02*
Y1325118D01*
X804418D01*
Y1319022D01*
X798322D01*
X914400Y1318260D02*
Y1328420D01*
X924560D01*
Y1318260D01*
X914400D01*
X916432Y1320292D02*
Y1326388D01*
X922528D01*
Y1320292D01*
X916432D01*
X915670Y1273810D02*
Y1283970D01*
X925830D01*
Y1273810D01*
X915670D01*
X917702Y1275842D02*
Y1281938D01*
X923798D01*
Y1275842D01*
X917702D01*
X681990Y1272540D02*
Y1282700D01*
X692150D01*
Y1272540D01*
X681990D01*
X684022Y1274572D02*
Y1280668D01*
X690118D01*
Y1274572D01*
X684022D01*
X664210Y1329690D02*
Y1339850D01*
X674370D01*
Y1329690D01*
X664210D01*
X666242Y1331722D02*
Y1337818D01*
X672338D01*
Y1331722D01*
X666242D01*
X909320Y1330960D02*
Y1341120D01*
X919480D01*
Y1330960D01*
X909320D01*
X911352Y1332992D02*
Y1339088D01*
X917448D01*
Y1332992D01*
X911352D01*
X745490Y1330960D02*
Y1341120D01*
X755650D01*
Y1330960D01*
X745490D01*
X747522Y1332992D02*
Y1339088D01*
X753618D01*
Y1332992D01*
X747522D01*
X825500Y1333500D02*
Y1343660D01*
X835660D01*
Y1333500D01*
X825500D01*
X827532Y1335532D02*
Y1341628D01*
X833628D01*
Y1335532D01*
X827532D01*
X604520Y1207770D02*
Y1217930D01*
X614680D01*
Y1207770D01*
X604520D01*
X606552Y1209802D02*
Y1215898D01*
X612648D01*
Y1209802D01*
X606552D01*
X670560Y1170940D02*
Y1181100D01*
X680720D01*
Y1170940D01*
X670560D01*
X672592Y1172972D02*
Y1179068D01*
X678688D01*
Y1172972D01*
X672592D01*
X650240Y1177290D02*
Y1187450D01*
X660400D01*
Y1177290D01*
X650240D01*
X652272Y1179322D02*
Y1185418D01*
X658368D01*
Y1179322D01*
X652272D01*
X660400Y1130300D02*
Y1140460D01*
X670560D01*
Y1130300D01*
X660400D01*
X662432Y1132332D02*
Y1138428D01*
X668528D01*
Y1132332D01*
X662432D01*
X688340Y1135380D02*
Y1145540D01*
X698500D01*
Y1135380D01*
X688340D01*
X690372Y1137412D02*
Y1143508D01*
X696468D01*
Y1137412D01*
X690372D01*
X624840Y1143000D02*
Y1153160D01*
X635000D01*
Y1143000D01*
X624840D01*
X626872Y1145032D02*
Y1151128D01*
X632968D01*
Y1145032D01*
X626872D01*
X749300Y1220470D02*
Y1230630D01*
X759460D01*
Y1220470D01*
X749300D01*
X751332Y1222502D02*
Y1228598D01*
X757428D01*
Y1222502D01*
X751332D01*
X694690Y1220470D02*
Y1230630D01*
X704850D01*
Y1220470D01*
X694690D01*
X696722Y1222502D02*
Y1228598D01*
X702818D01*
Y1222502D01*
X696722D01*
X669290Y1220470D02*
Y1230630D01*
X679450D01*
Y1220470D01*
X669290D01*
X671322Y1222502D02*
Y1228598D01*
X677418D01*
Y1222502D01*
X671322D01*
X1201420Y1230630D02*
Y1240790D01*
X1211580D01*
Y1230630D01*
X1201420D01*
X1203452Y1232662D02*
Y1238758D01*
X1209548D01*
Y1232662D01*
X1203452D01*
X1186180Y1303020D02*
Y1313180D01*
X1196340D01*
Y1303020D01*
X1186180D01*
X1188212Y1305052D02*
Y1311148D01*
X1194308D01*
Y1305052D01*
X1188212D01*
X1174060Y1206500D02*
Y1216660D01*
X1184220D01*
Y1206500D01*
X1174060D01*
X1176092Y1208532D02*
Y1214628D01*
X1182188D01*
Y1208532D01*
X1176092D01*
X1163320Y1346200D02*
Y1356360D01*
X1173480D01*
Y1346200D01*
X1163320D01*
X1165352Y1348232D02*
Y1354328D01*
X1171448D01*
Y1348232D01*
X1165352D01*
X1206500Y1346200D02*
Y1356360D01*
X1216660D01*
Y1346200D01*
X1206500D01*
X1208532Y1348232D02*
Y1354328D01*
X1214628D01*
Y1348232D01*
X1208532D01*
X1358900Y1258570D02*
Y1268730D01*
X1369060D01*
Y1258570D01*
X1358900D01*
X1360932Y1260602D02*
Y1266698D01*
X1367028D01*
Y1260602D01*
X1360932D01*
X1334770Y1258570D02*
Y1268730D01*
X1344930D01*
Y1258570D01*
X1334770D01*
X1336802Y1260602D02*
Y1266698D01*
X1342898D01*
Y1260602D01*
X1336802D01*
X1309370Y1259840D02*
Y1270000D01*
X1319530D01*
Y1259840D01*
X1309370D01*
X1311402Y1261872D02*
Y1267968D01*
X1317498D01*
Y1261872D01*
X1311402D01*
X1278890Y1261110D02*
Y1271270D01*
X1289050D01*
Y1261110D01*
X1278890D01*
X1280922Y1263142D02*
Y1269238D01*
X1287018D01*
Y1263142D01*
X1280922D01*
X1353820Y1059180D02*
Y1069340D01*
X1363980D01*
Y1059180D01*
X1353820D01*
X1355852Y1061212D02*
Y1067308D01*
X1361948D01*
Y1061212D01*
X1355852D01*
X1400810Y844550D02*
Y854710D01*
X1410970D01*
Y844550D01*
X1400810D01*
X1402842Y846582D02*
Y852678D01*
X1408938D01*
Y846582D01*
X1402842D01*
X1120140Y1028700D02*
Y1038860D01*
X1130300D01*
Y1028700D01*
X1120140D01*
X1122172Y1030732D02*
Y1036828D01*
X1128268D01*
Y1030732D01*
X1122172D01*
X963930Y1009650D02*
Y1019810D01*
X974090D01*
Y1009650D01*
X963930D01*
X965962Y1011682D02*
Y1017778D01*
X972058D01*
Y1011682D01*
X965962D01*
X1318260Y996950D02*
Y1007110D01*
X1328420D01*
Y996950D01*
X1318260D01*
X1320292Y998982D02*
Y1005078D01*
X1326388D01*
Y998982D01*
X1320292D01*
D131*
X594350Y1342990D02*
X593768Y1345351D01*
X592156Y1347171D01*
X589882Y1348033D01*
X587469Y1347740D01*
X585468Y1346359D01*
X584338Y1344206D01*
Y1341774D01*
X585468Y1339621D01*
X587469Y1338240D01*
X589882Y1337947D01*
X592156Y1338809D01*
X593768Y1340629D01*
X594350Y1342990D01*
Y1062990D02*
X593768Y1065351D01*
X592156Y1067171D01*
X589882Y1068033D01*
X587469Y1067740D01*
X585468Y1066359D01*
X584338Y1064206D01*
Y1061774D01*
X585468Y1059621D01*
X587469Y1058240D01*
X589882Y1057947D01*
X592156Y1058809D01*
X593768Y1060629D01*
X594350Y1062990D01*
X554350Y1322990D02*
X553768Y1325351D01*
X552156Y1327171D01*
X549882Y1328033D01*
X547469Y1327740D01*
X545468Y1326359D01*
X544338Y1324206D01*
Y1321774D01*
X545468Y1319621D01*
X547469Y1318240D01*
X549882Y1317947D01*
X552156Y1318809D01*
X553768Y1320629D01*
X554350Y1322990D01*
Y1082990D02*
X553768Y1085351D01*
X552156Y1087171D01*
X549882Y1088033D01*
X547469Y1087740D01*
X545468Y1086359D01*
X544338Y1084206D01*
Y1081774D01*
X545468Y1079621D01*
X547469Y1078240D01*
X549882Y1077947D01*
X552156Y1078809D01*
X553768Y1080629D01*
X554350Y1082990D01*
X514350Y1342990D02*
X513768Y1345351D01*
X512156Y1347171D01*
X509882Y1348033D01*
X507469Y1347740D01*
X505468Y1346359D01*
X504338Y1344206D01*
Y1341774D01*
X505468Y1339621D01*
X507469Y1338240D01*
X509882Y1337947D01*
X512156Y1338809D01*
X513768Y1340629D01*
X514350Y1342990D01*
Y1062990D02*
X513768Y1065351D01*
X512156Y1067171D01*
X509882Y1068033D01*
X507469Y1067740D01*
X505468Y1066359D01*
X504338Y1064206D01*
Y1061774D01*
X505468Y1059621D01*
X507469Y1058240D01*
X509882Y1057947D01*
X512156Y1058809D01*
X513768Y1060629D01*
X514350Y1062990D01*
X594350Y1302990D02*
X593768Y1305351D01*
X592156Y1307171D01*
X589882Y1308033D01*
X587469Y1307740D01*
X585468Y1306359D01*
X584338Y1304206D01*
Y1301774D01*
X585468Y1299621D01*
X587469Y1298240D01*
X589882Y1297947D01*
X592156Y1298809D01*
X593768Y1300629D01*
X594350Y1302990D01*
Y1262990D02*
X593768Y1265351D01*
X592156Y1267171D01*
X589882Y1268033D01*
X587469Y1267740D01*
X585468Y1266359D01*
X584338Y1264206D01*
Y1261774D01*
X585468Y1259621D01*
X587469Y1258240D01*
X589882Y1257947D01*
X592156Y1258809D01*
X593768Y1260629D01*
X594350Y1262990D01*
Y1222990D02*
X593768Y1225351D01*
X592156Y1227171D01*
X589882Y1228033D01*
X587469Y1227740D01*
X585468Y1226359D01*
X584338Y1224206D01*
Y1221774D01*
X585468Y1219621D01*
X587469Y1218240D01*
X589882Y1217947D01*
X592156Y1218809D01*
X593768Y1220629D01*
X594350Y1222990D01*
Y1182990D02*
X593768Y1185351D01*
X592156Y1187171D01*
X589882Y1188033D01*
X587469Y1187740D01*
X585468Y1186359D01*
X584338Y1184206D01*
Y1181774D01*
X585468Y1179621D01*
X587469Y1178240D01*
X589882Y1177947D01*
X592156Y1178809D01*
X593768Y1180629D01*
X594350Y1182990D01*
Y1142990D02*
X593768Y1145351D01*
X592156Y1147171D01*
X589882Y1148033D01*
X587469Y1147740D01*
X585468Y1146359D01*
X584338Y1144206D01*
Y1141774D01*
X585468Y1139621D01*
X587469Y1138240D01*
X589882Y1137947D01*
X592156Y1138809D01*
X593768Y1140629D01*
X594350Y1142990D01*
Y1102990D02*
X593768Y1105351D01*
X592156Y1107171D01*
X589882Y1108033D01*
X587469Y1107740D01*
X585468Y1106359D01*
X584338Y1104206D01*
Y1101774D01*
X585468Y1099621D01*
X587469Y1098240D01*
X589882Y1097947D01*
X592156Y1098809D01*
X593768Y1100629D01*
X594350Y1102990D01*
X554350Y1282990D02*
X553768Y1285351D01*
X552156Y1287171D01*
X549882Y1288033D01*
X547469Y1287740D01*
X545468Y1286359D01*
X544338Y1284206D01*
Y1281774D01*
X545468Y1279621D01*
X547469Y1278240D01*
X549882Y1277947D01*
X552156Y1278809D01*
X553768Y1280629D01*
X554350Y1282990D01*
Y1242990D02*
X553768Y1245351D01*
X552156Y1247171D01*
X549882Y1248033D01*
X547469Y1247740D01*
X545468Y1246359D01*
X544338Y1244206D01*
Y1241774D01*
X545468Y1239621D01*
X547469Y1238240D01*
X549882Y1237947D01*
X552156Y1238809D01*
X553768Y1240629D01*
X554350Y1242990D01*
Y1202990D02*
X553768Y1205351D01*
X552156Y1207171D01*
X549882Y1208033D01*
X547469Y1207740D01*
X545468Y1206359D01*
X544338Y1204206D01*
Y1201774D01*
X545468Y1199621D01*
X547469Y1198240D01*
X549882Y1197947D01*
X552156Y1198809D01*
X553768Y1200629D01*
X554350Y1202990D01*
Y1162990D02*
X553768Y1165351D01*
X552156Y1167171D01*
X549882Y1168033D01*
X547469Y1167740D01*
X545468Y1166359D01*
X544338Y1164206D01*
Y1161774D01*
X545468Y1159621D01*
X547469Y1158240D01*
X549882Y1157947D01*
X552156Y1158809D01*
X553768Y1160629D01*
X554350Y1162990D01*
Y1122990D02*
X553768Y1125351D01*
X552156Y1127171D01*
X549882Y1128033D01*
X547469Y1127740D01*
X545468Y1126359D01*
X544338Y1124206D01*
Y1121774D01*
X545468Y1119621D01*
X547469Y1118240D01*
X549882Y1117947D01*
X552156Y1118809D01*
X553768Y1120629D01*
X554350Y1122990D01*
X514350Y1302990D02*
X513768Y1305351D01*
X512156Y1307171D01*
X509882Y1308033D01*
X507469Y1307740D01*
X505468Y1306359D01*
X504338Y1304206D01*
Y1301774D01*
X505468Y1299621D01*
X507469Y1298240D01*
X509882Y1297947D01*
X512156Y1298809D01*
X513768Y1300629D01*
X514350Y1302990D01*
Y1262990D02*
X513768Y1265351D01*
X512156Y1267171D01*
X509882Y1268033D01*
X507469Y1267740D01*
X505468Y1266359D01*
X504338Y1264206D01*
Y1261774D01*
X505468Y1259621D01*
X507469Y1258240D01*
X509882Y1257947D01*
X512156Y1258809D01*
X513768Y1260629D01*
X514350Y1262990D01*
Y1222990D02*
X513768Y1225351D01*
X512156Y1227171D01*
X509882Y1228033D01*
X507469Y1227740D01*
X505468Y1226359D01*
X504338Y1224206D01*
Y1221774D01*
X505468Y1219621D01*
X507469Y1218240D01*
X509882Y1217947D01*
X512156Y1218809D01*
X513768Y1220629D01*
X514350Y1222990D01*
Y1182990D02*
X513768Y1185351D01*
X512156Y1187171D01*
X509882Y1188033D01*
X507469Y1187740D01*
X505468Y1186359D01*
X504338Y1184206D01*
Y1181774D01*
X505468Y1179621D01*
X507469Y1178240D01*
X509882Y1177947D01*
X512156Y1178809D01*
X513768Y1180629D01*
X514350Y1182990D01*
Y1142990D02*
X513768Y1145351D01*
X512156Y1147171D01*
X509882Y1148033D01*
X507469Y1147740D01*
X505468Y1146359D01*
X504338Y1144206D01*
Y1141774D01*
X505468Y1139621D01*
X507469Y1138240D01*
X509882Y1137947D01*
X512156Y1138809D01*
X513768Y1140629D01*
X514350Y1142990D01*
Y1102990D02*
X513768Y1105351D01*
X512156Y1107171D01*
X509882Y1108033D01*
X507469Y1107740D01*
X505468Y1106359D01*
X504338Y1104206D01*
Y1101774D01*
X505468Y1099621D01*
X507469Y1098240D01*
X509882Y1097947D01*
X512156Y1098809D01*
X513768Y1100629D01*
X514350Y1102990D01*
Y486110D02*
X513768Y488471D01*
X512156Y490291D01*
X509882Y491153D01*
X507469Y490860D01*
X505468Y489479D01*
X504338Y487326D01*
Y484894D01*
X505468Y482741D01*
X507469Y481360D01*
X509882Y481067D01*
X512156Y481929D01*
X513768Y483749D01*
X514350Y486110D01*
Y526110D02*
X513768Y528471D01*
X512156Y530291D01*
X509882Y531153D01*
X507469Y530860D01*
X505468Y529479D01*
X504338Y527326D01*
Y524894D01*
X505468Y522741D01*
X507469Y521360D01*
X509882Y521067D01*
X512156Y521929D01*
X513768Y523749D01*
X514350Y526110D01*
Y566110D02*
X513768Y568471D01*
X512156Y570291D01*
X509882Y571153D01*
X507469Y570860D01*
X505468Y569479D01*
X504338Y567326D01*
Y564894D01*
X505468Y562741D01*
X507469Y561360D01*
X509882Y561067D01*
X512156Y561929D01*
X513768Y563749D01*
X514350Y566110D01*
Y606110D02*
X513768Y608471D01*
X512156Y610291D01*
X509882Y611153D01*
X507469Y610860D01*
X505468Y609479D01*
X504338Y607326D01*
Y604894D01*
X505468Y602741D01*
X507469Y601360D01*
X509882Y601067D01*
X512156Y601929D01*
X513768Y603749D01*
X514350Y606110D01*
Y646110D02*
X513768Y648471D01*
X512156Y650291D01*
X509882Y651153D01*
X507469Y650860D01*
X505468Y649479D01*
X504338Y647326D01*
Y644894D01*
X505468Y642741D01*
X507469Y641360D01*
X509882Y641067D01*
X512156Y641929D01*
X513768Y643749D01*
X514350Y646110D01*
Y686110D02*
X513768Y688471D01*
X512156Y690291D01*
X509882Y691153D01*
X507469Y690860D01*
X505468Y689479D01*
X504338Y687326D01*
Y684894D01*
X505468Y682741D01*
X507469Y681360D01*
X509882Y681067D01*
X512156Y681929D01*
X513768Y683749D01*
X514350Y686110D01*
X554350Y506110D02*
X553768Y508471D01*
X552156Y510291D01*
X549882Y511153D01*
X547469Y510860D01*
X545468Y509479D01*
X544338Y507326D01*
Y504894D01*
X545468Y502741D01*
X547469Y501360D01*
X549882Y501067D01*
X552156Y501929D01*
X553768Y503749D01*
X554350Y506110D01*
Y546110D02*
X553768Y548471D01*
X552156Y550291D01*
X549882Y551153D01*
X547469Y550860D01*
X545468Y549479D01*
X544338Y547326D01*
Y544894D01*
X545468Y542741D01*
X547469Y541360D01*
X549882Y541067D01*
X552156Y541929D01*
X553768Y543749D01*
X554350Y546110D01*
Y586110D02*
X553768Y588471D01*
X552156Y590291D01*
X549882Y591153D01*
X547469Y590860D01*
X545468Y589479D01*
X544338Y587326D01*
Y584894D01*
X545468Y582741D01*
X547469Y581360D01*
X549882Y581067D01*
X552156Y581929D01*
X553768Y583749D01*
X554350Y586110D01*
Y626110D02*
X553768Y628471D01*
X552156Y630291D01*
X549882Y631153D01*
X547469Y630860D01*
X545468Y629479D01*
X544338Y627326D01*
Y624894D01*
X545468Y622741D01*
X547469Y621360D01*
X549882Y621067D01*
X552156Y621929D01*
X553768Y623749D01*
X554350Y626110D01*
Y666110D02*
X553768Y668471D01*
X552156Y670291D01*
X549882Y671153D01*
X547469Y670860D01*
X545468Y669479D01*
X544338Y667326D01*
Y664894D01*
X545468Y662741D01*
X547469Y661360D01*
X549882Y661067D01*
X552156Y661929D01*
X553768Y663749D01*
X554350Y666110D01*
X594350Y486110D02*
X593768Y488471D01*
X592156Y490291D01*
X589882Y491153D01*
X587469Y490860D01*
X585468Y489479D01*
X584338Y487326D01*
Y484894D01*
X585468Y482741D01*
X587469Y481360D01*
X589882Y481067D01*
X592156Y481929D01*
X593768Y483749D01*
X594350Y486110D01*
Y526110D02*
X593768Y528471D01*
X592156Y530291D01*
X589882Y531153D01*
X587469Y530860D01*
X585468Y529479D01*
X584338Y527326D01*
Y524894D01*
X585468Y522741D01*
X587469Y521360D01*
X589882Y521067D01*
X592156Y521929D01*
X593768Y523749D01*
X594350Y526110D01*
Y566110D02*
X593768Y568471D01*
X592156Y570291D01*
X589882Y571153D01*
X587469Y570860D01*
X585468Y569479D01*
X584338Y567326D01*
Y564894D01*
X585468Y562741D01*
X587469Y561360D01*
X589882Y561067D01*
X592156Y561929D01*
X593768Y563749D01*
X594350Y566110D01*
Y606110D02*
X593768Y608471D01*
X592156Y610291D01*
X589882Y611153D01*
X587469Y610860D01*
X585468Y609479D01*
X584338Y607326D01*
Y604894D01*
X585468Y602741D01*
X587469Y601360D01*
X589882Y601067D01*
X592156Y601929D01*
X593768Y603749D01*
X594350Y606110D01*
Y646110D02*
X593768Y648471D01*
X592156Y650291D01*
X589882Y651153D01*
X587469Y650860D01*
X585468Y649479D01*
X584338Y647326D01*
Y644894D01*
X585468Y642741D01*
X587469Y641360D01*
X589882Y641067D01*
X592156Y641929D01*
X593768Y643749D01*
X594350Y646110D01*
Y686110D02*
X593768Y688471D01*
X592156Y690291D01*
X589882Y691153D01*
X587469Y690860D01*
X585468Y689479D01*
X584338Y687326D01*
Y684894D01*
X585468Y682741D01*
X587469Y681360D01*
X589882Y681067D01*
X592156Y681929D01*
X593768Y683749D01*
X594350Y686110D01*
X514350Y446110D02*
X513768Y448471D01*
X512156Y450291D01*
X509882Y451153D01*
X507469Y450860D01*
X505468Y449479D01*
X504338Y447326D01*
Y444894D01*
X505468Y442741D01*
X507469Y441360D01*
X509882Y441067D01*
X512156Y441929D01*
X513768Y443749D01*
X514350Y446110D01*
Y726110D02*
X513768Y728471D01*
X512156Y730291D01*
X509882Y731153D01*
X507469Y730860D01*
X505468Y729479D01*
X504338Y727326D01*
Y724894D01*
X505468Y722741D01*
X507469Y721360D01*
X509882Y721067D01*
X512156Y721929D01*
X513768Y723749D01*
X514350Y726110D01*
X554350Y466110D02*
X553768Y468471D01*
X552156Y470291D01*
X549882Y471153D01*
X547469Y470860D01*
X545468Y469479D01*
X544338Y467326D01*
Y464894D01*
X545468Y462741D01*
X547469Y461360D01*
X549882Y461067D01*
X552156Y461929D01*
X553768Y463749D01*
X554350Y466110D01*
Y706110D02*
X553768Y708471D01*
X552156Y710291D01*
X549882Y711153D01*
X547469Y710860D01*
X545468Y709479D01*
X544338Y707326D01*
Y704894D01*
X545468Y702741D01*
X547469Y701360D01*
X549882Y701067D01*
X552156Y701929D01*
X553768Y703749D01*
X554350Y706110D01*
X594350Y446110D02*
X593768Y448471D01*
X592156Y450291D01*
X589882Y451153D01*
X587469Y450860D01*
X585468Y449479D01*
X584338Y447326D01*
Y444894D01*
X585468Y442741D01*
X587469Y441360D01*
X589882Y441067D01*
X592156Y441929D01*
X593768Y443749D01*
X594350Y446110D01*
Y726110D02*
X593768Y728471D01*
X592156Y730291D01*
X589882Y731153D01*
X587469Y730860D01*
X585468Y729479D01*
X584338Y727326D01*
Y724894D01*
X585468Y722741D01*
X587469Y721360D01*
X589882Y721067D01*
X592156Y721929D01*
X593768Y723749D01*
X594350Y726110D01*
X1023620Y690880D02*
X1023038Y693241D01*
X1021426Y695061D01*
X1019152Y695923D01*
X1016739Y695630D01*
X1014738Y694249D01*
X1013608Y692096D01*
Y689664D01*
X1014738Y687511D01*
X1016739Y686130D01*
X1019152Y685837D01*
X1021426Y686699D01*
X1023038Y688519D01*
X1023620Y690880D01*
X1328420Y464820D02*
X1327838Y467181D01*
X1326226Y469001D01*
X1323952Y469863D01*
X1321539Y469570D01*
X1319538Y468189D01*
X1318408Y466036D01*
Y463604D01*
X1319538Y461451D01*
X1321539Y460070D01*
X1323952Y459777D01*
X1326226Y460639D01*
X1327838Y462459D01*
X1328420Y464820D01*
X1139190Y1156970D02*
X1138608Y1159331D01*
X1136996Y1161151D01*
X1134722Y1162013D01*
X1132309Y1161720D01*
X1130308Y1160339D01*
X1129178Y1158186D01*
Y1155754D01*
X1130308Y1153601D01*
X1132309Y1152220D01*
X1134722Y1151927D01*
X1136996Y1152789D01*
X1138608Y1154609D01*
X1139190Y1156970D01*
X948690Y542290D02*
X948108Y544651D01*
X946496Y546471D01*
X944222Y547333D01*
X941809Y547040D01*
X939808Y545659D01*
X938678Y543506D01*
Y541074D01*
X939808Y538921D01*
X941809Y537540D01*
X944222Y537247D01*
X946496Y538109D01*
X948108Y539929D01*
X948690Y542290D01*
X953035Y679450D02*
X952453Y681811D01*
X950841Y683631D01*
X948567Y684493D01*
X946154Y684200D01*
X944153Y682819D01*
X943023Y680666D01*
Y678234D01*
X944153Y676081D01*
X946154Y674700D01*
X948567Y674407D01*
X950841Y675269D01*
X952453Y677089D01*
X953035Y679450D01*
X956373Y691164D02*
X955791Y693525D01*
X954179Y695345D01*
X951906Y696207D01*
X949492Y695914D01*
X947491Y694533D01*
X946361Y692380D01*
Y689949D01*
X947491Y687796D01*
X949492Y686414D01*
X951906Y686121D01*
X954179Y686983D01*
X955791Y688803D01*
X956373Y691164D01*
X966470Y664550D02*
X965888Y666911D01*
X964276Y668731D01*
X962002Y669593D01*
X959589Y669300D01*
X957588Y667919D01*
X956458Y665766D01*
Y663334D01*
X957588Y661181D01*
X959589Y659800D01*
X962002Y659507D01*
X964276Y660369D01*
X965888Y662189D01*
X966470Y664550D01*
X875297Y601712D02*
X874716Y604073D01*
X873103Y605893D01*
X870830Y606755D01*
X868416Y606462D01*
X866415Y605081D01*
X865285Y602928D01*
Y600497D01*
X866415Y598344D01*
X868416Y596963D01*
X870830Y596670D01*
X873103Y597532D01*
X874716Y599352D01*
X875297Y601712D01*
X860925Y559935D02*
X860343Y562295D01*
X858730Y564115D01*
X856457Y564978D01*
X854043Y564685D01*
X852042Y563303D01*
X850912Y561150D01*
Y558719D01*
X852042Y556566D01*
X854043Y555185D01*
X856457Y554892D01*
X858730Y555754D01*
X860343Y557574D01*
X860925Y559935D01*
X876300Y577850D02*
X875718Y580211D01*
X874106Y582031D01*
X871832Y582893D01*
X869419Y582600D01*
X867418Y581219D01*
X866288Y579066D01*
Y576634D01*
X867418Y574481D01*
X869419Y573100D01*
X871832Y572807D01*
X874106Y573669D01*
X875718Y575489D01*
X876300Y577850D01*
X855980Y482470D02*
X855398Y484831D01*
X853786Y486651D01*
X851512Y487513D01*
X849099Y487220D01*
X847098Y485839D01*
X845968Y483686D01*
Y481254D01*
X847098Y479101D01*
X849099Y477720D01*
X851512Y477427D01*
X853786Y478289D01*
X855398Y480109D01*
X855980Y482470D01*
X652780Y467360D02*
X652198Y469721D01*
X650586Y471541D01*
X648312Y472403D01*
X645899Y472110D01*
X643898Y470729D01*
X642768Y468576D01*
Y466144D01*
X643898Y463991D01*
X645899Y462610D01*
X648312Y462317D01*
X650586Y463179D01*
X652198Y464999D01*
X652780Y467360D01*
X665480Y548640D02*
X664898Y551001D01*
X663286Y552821D01*
X661012Y553683D01*
X658599Y553390D01*
X656598Y552009D01*
X655468Y549856D01*
Y547424D01*
X656598Y545271D01*
X658599Y543890D01*
X661012Y543597D01*
X663286Y544459D01*
X664898Y546279D01*
X665480Y548640D01*
X728980Y539750D02*
X728398Y542111D01*
X726786Y543931D01*
X724512Y544793D01*
X722099Y544500D01*
X720098Y543119D01*
X718968Y540966D01*
Y538534D01*
X720098Y536381D01*
X722099Y535000D01*
X724512Y534707D01*
X726786Y535569D01*
X728398Y537389D01*
X728980Y539750D01*
X1149350Y506730D02*
X1148768Y509091D01*
X1147156Y510911D01*
X1144882Y511773D01*
X1142469Y511480D01*
X1140468Y510099D01*
X1139338Y507946D01*
Y505514D01*
X1140468Y503361D01*
X1142469Y501980D01*
X1144882Y501687D01*
X1147156Y502549D01*
X1148768Y504369D01*
X1149350Y506730D01*
X1130300Y528320D02*
X1129718Y530681D01*
X1128106Y532501D01*
X1125832Y533363D01*
X1123419Y533070D01*
X1121418Y531689D01*
X1120288Y529536D01*
Y527104D01*
X1121418Y524951D01*
X1123419Y523570D01*
X1125832Y523277D01*
X1128106Y524139D01*
X1129718Y525959D01*
X1130300Y528320D01*
X1253490Y467360D02*
X1252908Y469721D01*
X1251296Y471541D01*
X1249022Y472403D01*
X1246609Y472110D01*
X1244608Y470729D01*
X1243478Y468576D01*
Y466144D01*
X1244608Y463991D01*
X1246609Y462610D01*
X1249022Y462317D01*
X1251296Y463179D01*
X1252908Y464999D01*
X1253490Y467360D01*
X1286826Y497524D02*
X1286244Y499884D01*
X1284632Y501704D01*
X1282359Y502567D01*
X1279945Y502273D01*
X1277944Y500892D01*
X1276814Y498739D01*
Y496308D01*
X1277944Y494155D01*
X1279945Y492774D01*
X1282359Y492481D01*
X1284632Y493343D01*
X1286244Y495163D01*
X1286826Y497524D01*
X1370330Y518160D02*
X1369748Y520521D01*
X1368136Y522341D01*
X1365862Y523203D01*
X1363449Y522910D01*
X1361448Y521529D01*
X1360318Y519376D01*
Y516944D01*
X1361448Y514791D01*
X1363449Y513410D01*
X1365862Y513117D01*
X1368136Y513979D01*
X1369748Y515799D01*
X1370330Y518160D01*
X1173480Y501650D02*
X1172898Y504011D01*
X1171286Y505831D01*
X1169012Y506693D01*
X1166599Y506400D01*
X1164598Y505019D01*
X1163468Y502866D01*
Y500434D01*
X1164598Y498281D01*
X1166599Y496900D01*
X1169012Y496607D01*
X1171286Y497469D01*
X1172898Y499289D01*
X1173480Y501650D01*
X1219200Y464820D02*
X1218618Y467181D01*
X1217006Y469001D01*
X1214732Y469863D01*
X1212319Y469570D01*
X1210318Y468189D01*
X1209188Y466036D01*
Y463604D01*
X1210318Y461451D01*
X1212319Y460070D01*
X1214732Y459777D01*
X1217006Y460639D01*
X1218618Y462459D01*
X1219200Y464820D01*
X1272540Y601980D02*
X1271958Y604341D01*
X1270346Y606161D01*
X1268072Y607023D01*
X1265659Y606730D01*
X1263658Y605349D01*
X1262528Y603196D01*
Y600764D01*
X1263658Y598611D01*
X1265659Y597230D01*
X1268072Y596937D01*
X1270346Y597799D01*
X1271958Y599619D01*
X1272540Y601980D01*
X1247140D02*
X1246558Y604341D01*
X1244946Y606161D01*
X1242672Y607023D01*
X1240259Y606730D01*
X1238258Y605349D01*
X1237128Y603196D01*
Y600764D01*
X1238258Y598611D01*
X1240259Y597230D01*
X1242672Y596937D01*
X1244946Y597799D01*
X1246558Y599619D01*
X1247140Y601980D01*
X934720Y690880D02*
X934138Y693241D01*
X932526Y695061D01*
X930252Y695923D01*
X927839Y695630D01*
X925838Y694249D01*
X924708Y692096D01*
Y689664D01*
X925838Y687511D01*
X927839Y686130D01*
X930252Y685837D01*
X932526Y686699D01*
X934138Y688519D01*
X934720Y690880D01*
X853440Y687070D02*
X852858Y689431D01*
X851246Y691251D01*
X848972Y692113D01*
X846559Y691820D01*
X844558Y690439D01*
X843428Y688286D01*
Y685854D01*
X844558Y683701D01*
X846559Y682320D01*
X848972Y682027D01*
X851246Y682889D01*
X852858Y684709D01*
X853440Y687070D01*
X971550Y702310D02*
X970968Y704671D01*
X969356Y706491D01*
X967082Y707353D01*
X964669Y707060D01*
X962668Y705679D01*
X961538Y703526D01*
Y701094D01*
X962668Y698941D01*
X964669Y697560D01*
X967082Y697267D01*
X969356Y698129D01*
X970968Y699949D01*
X971550Y702310D01*
X1029970Y673100D02*
X1029388Y675461D01*
X1027776Y677281D01*
X1025502Y678143D01*
X1023089Y677850D01*
X1021088Y676469D01*
X1019958Y674316D01*
Y671884D01*
X1021088Y669731D01*
X1023089Y668350D01*
X1025502Y668057D01*
X1027776Y668919D01*
X1029388Y670739D01*
X1029970Y673100D01*
X784860Y637540D02*
X784278Y639901D01*
X782666Y641721D01*
X780392Y642583D01*
X777979Y642290D01*
X775978Y640909D01*
X774848Y638756D01*
Y636324D01*
X775978Y634171D01*
X777979Y632790D01*
X780392Y632497D01*
X782666Y633359D01*
X784278Y635179D01*
X784860Y637540D01*
X932180Y502920D02*
X931598Y505281D01*
X929986Y507101D01*
X927712Y507963D01*
X925299Y507670D01*
X923298Y506289D01*
X922168Y504136D01*
Y501704D01*
X923298Y499551D01*
X925299Y498170D01*
X927712Y497877D01*
X929986Y498739D01*
X931598Y500559D01*
X932180Y502920D01*
X810260Y554990D02*
X809678Y557351D01*
X808066Y559171D01*
X805792Y560033D01*
X803379Y559740D01*
X801378Y558359D01*
X800248Y556206D01*
Y553774D01*
X801378Y551621D01*
X803379Y550240D01*
X805792Y549947D01*
X808066Y550809D01*
X809678Y552629D01*
X810260Y554990D01*
X773430Y562610D02*
X772848Y564971D01*
X771236Y566791D01*
X768962Y567653D01*
X766549Y567360D01*
X764548Y565979D01*
X763418Y563826D01*
Y561394D01*
X764548Y559241D01*
X766549Y557860D01*
X768962Y557567D01*
X771236Y558429D01*
X772848Y560249D01*
X773430Y562610D01*
Y549910D02*
X772848Y552271D01*
X771236Y554091D01*
X768962Y554953D01*
X766549Y554660D01*
X764548Y553279D01*
X763418Y551126D01*
Y548694D01*
X764548Y546541D01*
X766549Y545160D01*
X768962Y544867D01*
X771236Y545729D01*
X772848Y547549D01*
X773430Y549910D01*
X862330Y547370D02*
X861748Y549731D01*
X860136Y551551D01*
X857862Y552413D01*
X855449Y552120D01*
X853448Y550739D01*
X852318Y548586D01*
Y546154D01*
X853448Y544001D01*
X855449Y542620D01*
X857862Y542327D01*
X860136Y543189D01*
X861748Y545009D01*
X862330Y547370D01*
X726440Y1337310D02*
X725858Y1339671D01*
X724246Y1341491D01*
X721972Y1342353D01*
X719559Y1342060D01*
X717558Y1340679D01*
X716428Y1338526D01*
Y1336094D01*
X717558Y1333941D01*
X719559Y1332560D01*
X721972Y1332267D01*
X724246Y1333129D01*
X725858Y1334949D01*
X726440Y1337310D01*
X805180D02*
X804598Y1339671D01*
X802986Y1341491D01*
X800712Y1342353D01*
X798299Y1342060D01*
X796298Y1340679D01*
X795168Y1338526D01*
Y1336094D01*
X796298Y1333941D01*
X798299Y1332560D01*
X800712Y1332267D01*
X802986Y1333129D01*
X804598Y1334949D01*
X805180Y1337310D01*
X886460Y1338580D02*
X885878Y1340941D01*
X884266Y1342761D01*
X881992Y1343623D01*
X879579Y1343330D01*
X877578Y1341949D01*
X876448Y1339796D01*
Y1337364D01*
X877578Y1335211D01*
X879579Y1333830D01*
X881992Y1333537D01*
X884266Y1334399D01*
X885878Y1336219D01*
X886460Y1338580D01*
X974090Y1352550D02*
X973508Y1354911D01*
X971896Y1356731D01*
X969622Y1357593D01*
X967209Y1357300D01*
X965208Y1355919D01*
X964078Y1353766D01*
Y1351334D01*
X965208Y1349181D01*
X967209Y1347800D01*
X969622Y1347507D01*
X971896Y1348369D01*
X973508Y1350189D01*
X974090Y1352550D01*
X1318260Y924560D02*
X1317678Y926921D01*
X1316066Y928741D01*
X1313792Y929603D01*
X1311379Y929310D01*
X1309378Y927929D01*
X1308248Y925776D01*
Y923344D01*
X1309378Y921191D01*
X1311379Y919810D01*
X1313792Y919517D01*
X1316066Y920379D01*
X1317678Y922199D01*
X1318260Y924560D01*
X1348740Y972820D02*
X1348158Y975181D01*
X1346546Y977001D01*
X1344272Y977863D01*
X1341859Y977570D01*
X1339858Y976189D01*
X1338728Y974036D01*
Y971604D01*
X1339858Y969451D01*
X1341859Y968070D01*
X1344272Y967777D01*
X1346546Y968639D01*
X1348158Y970459D01*
X1348740Y972820D01*
D132*
X1021588Y690880D02*
X1020695Y693035D01*
X1018540Y693928D01*
X1016385Y693035D01*
X1015492Y690880D01*
X1016385Y688725D01*
X1018540Y687832D01*
X1020695Y688725D01*
X1021588Y690880D01*
X1326388Y464820D02*
X1325495Y466975D01*
X1323340Y467868D01*
X1321185Y466975D01*
X1320292Y464820D01*
X1321185Y462665D01*
X1323340Y461772D01*
X1325495Y462665D01*
X1326388Y464820D01*
X1137158Y1156970D02*
X1136265Y1159125D01*
X1134110Y1160018D01*
X1131955Y1159125D01*
X1131062Y1156970D01*
X1131955Y1154815D01*
X1134110Y1153922D01*
X1136265Y1154815D01*
X1137158Y1156970D01*
X946658Y542290D02*
X945765Y544445D01*
X943610Y545338D01*
X941455Y544445D01*
X940562Y542290D01*
X941455Y540135D01*
X943610Y539242D01*
X945765Y540135D01*
X946658Y542290D01*
X951003Y679450D02*
X950110Y681605D01*
X947955Y682498D01*
X945800Y681605D01*
X944907Y679450D01*
X945800Y677295D01*
X947955Y676402D01*
X950110Y677295D01*
X951003Y679450D01*
X954341Y691164D02*
X953448Y693319D01*
X951293Y694212D01*
X949138Y693319D01*
X948245Y691164D01*
X949138Y689009D01*
X951293Y688116D01*
X953448Y689009D01*
X954341Y691164D01*
X964438Y664550D02*
X963545Y666705D01*
X961390Y667598D01*
X959235Y666705D01*
X958342Y664550D01*
X959235Y662395D01*
X961390Y661502D01*
X963545Y662395D01*
X964438Y664550D01*
X873266Y601712D02*
X872373Y603868D01*
X870218Y604761D01*
X868062Y603868D01*
X867169Y601712D01*
X868062Y599557D01*
X870218Y598665D01*
X872373Y599557D01*
X873266Y601712D01*
X858893Y559935D02*
X858000Y562090D01*
X855845Y562983D01*
X853689Y562090D01*
X852797Y559935D01*
X853689Y557780D01*
X855845Y556887D01*
X858000Y557780D01*
X858893Y559935D01*
X874268Y577850D02*
X873375Y580005D01*
X871220Y580898D01*
X869065Y580005D01*
X868172Y577850D01*
X869065Y575695D01*
X871220Y574802D01*
X873375Y575695D01*
X874268Y577850D01*
X853948Y482470D02*
X853055Y484625D01*
X850900Y485518D01*
X848745Y484625D01*
X847852Y482470D01*
X848745Y480315D01*
X850900Y479422D01*
X853055Y480315D01*
X853948Y482470D01*
X650748Y467360D02*
X649855Y469515D01*
X647700Y470408D01*
X645545Y469515D01*
X644652Y467360D01*
X645545Y465205D01*
X647700Y464312D01*
X649855Y465205D01*
X650748Y467360D01*
X663448Y548640D02*
X662555Y550795D01*
X660400Y551688D01*
X658245Y550795D01*
X657352Y548640D01*
X658245Y546485D01*
X660400Y545592D01*
X662555Y546485D01*
X663448Y548640D01*
X726948Y539750D02*
X726055Y541905D01*
X723900Y542798D01*
X721745Y541905D01*
X720852Y539750D01*
X721745Y537595D01*
X723900Y536702D01*
X726055Y537595D01*
X726948Y539750D01*
X1147318Y506730D02*
X1146425Y508885D01*
X1144270Y509778D01*
X1142115Y508885D01*
X1141222Y506730D01*
X1142115Y504575D01*
X1144270Y503682D01*
X1146425Y504575D01*
X1147318Y506730D01*
X1128268Y528320D02*
X1127375Y530475D01*
X1125220Y531368D01*
X1123065Y530475D01*
X1122172Y528320D01*
X1123065Y526165D01*
X1125220Y525272D01*
X1127375Y526165D01*
X1128268Y528320D01*
X1251458Y467360D02*
X1250565Y469515D01*
X1248410Y470408D01*
X1246255Y469515D01*
X1245362Y467360D01*
X1246255Y465205D01*
X1248410Y464312D01*
X1250565Y465205D01*
X1251458Y467360D01*
X1284794Y497524D02*
X1283902Y499679D01*
X1281746Y500572D01*
X1279591Y499679D01*
X1278698Y497524D01*
X1279591Y495368D01*
X1281746Y494476D01*
X1283902Y495368D01*
X1284794Y497524D01*
X1368298Y518160D02*
X1367405Y520315D01*
X1365250Y521208D01*
X1363095Y520315D01*
X1362202Y518160D01*
X1363095Y516005D01*
X1365250Y515112D01*
X1367405Y516005D01*
X1368298Y518160D01*
X1171448Y501650D02*
X1170555Y503805D01*
X1168400Y504698D01*
X1166245Y503805D01*
X1165352Y501650D01*
X1166245Y499495D01*
X1168400Y498602D01*
X1170555Y499495D01*
X1171448Y501650D01*
X1217168Y464820D02*
X1216275Y466975D01*
X1214120Y467868D01*
X1211965Y466975D01*
X1211072Y464820D01*
X1211965Y462665D01*
X1214120Y461772D01*
X1216275Y462665D01*
X1217168Y464820D01*
X1270508Y601980D02*
X1269615Y604135D01*
X1267460Y605028D01*
X1265305Y604135D01*
X1264412Y601980D01*
X1265305Y599825D01*
X1267460Y598932D01*
X1269615Y599825D01*
X1270508Y601980D01*
X1245108D02*
X1244215Y604135D01*
X1242060Y605028D01*
X1239905Y604135D01*
X1239012Y601980D01*
X1239905Y599825D01*
X1242060Y598932D01*
X1244215Y599825D01*
X1245108Y601980D01*
X932688Y690880D02*
X931795Y693035D01*
X929640Y693928D01*
X927485Y693035D01*
X926592Y690880D01*
X927485Y688725D01*
X929640Y687832D01*
X931795Y688725D01*
X932688Y690880D01*
X851408Y687070D02*
X850515Y689225D01*
X848360Y690118D01*
X846205Y689225D01*
X845312Y687070D01*
X846205Y684915D01*
X848360Y684022D01*
X850515Y684915D01*
X851408Y687070D01*
X969518Y702310D02*
X968625Y704465D01*
X966470Y705358D01*
X964315Y704465D01*
X963422Y702310D01*
X964315Y700155D01*
X966470Y699262D01*
X968625Y700155D01*
X969518Y702310D01*
X1027938Y673100D02*
X1027045Y675255D01*
X1024890Y676148D01*
X1022735Y675255D01*
X1021842Y673100D01*
X1022735Y670945D01*
X1024890Y670052D01*
X1027045Y670945D01*
X1027938Y673100D01*
X782828Y637540D02*
X781935Y639695D01*
X779780Y640588D01*
X777625Y639695D01*
X776732Y637540D01*
X777625Y635385D01*
X779780Y634492D01*
X781935Y635385D01*
X782828Y637540D01*
X930148Y502920D02*
X929255Y505075D01*
X927100Y505968D01*
X924945Y505075D01*
X924052Y502920D01*
X924945Y500765D01*
X927100Y499872D01*
X929255Y500765D01*
X930148Y502920D01*
X808228Y554990D02*
X807335Y557145D01*
X805180Y558038D01*
X803025Y557145D01*
X802132Y554990D01*
X803025Y552835D01*
X805180Y551942D01*
X807335Y552835D01*
X808228Y554990D01*
X771398Y562610D02*
X770505Y564765D01*
X768350Y565658D01*
X766195Y564765D01*
X765302Y562610D01*
X766195Y560455D01*
X768350Y559562D01*
X770505Y560455D01*
X771398Y562610D01*
Y549910D02*
X770505Y552065D01*
X768350Y552958D01*
X766195Y552065D01*
X765302Y549910D01*
X766195Y547755D01*
X768350Y546862D01*
X770505Y547755D01*
X771398Y549910D01*
X860298Y547370D02*
X859405Y549525D01*
X857250Y550418D01*
X855095Y549525D01*
X854202Y547370D01*
X855095Y545215D01*
X857250Y544322D01*
X859405Y545215D01*
X860298Y547370D01*
X724408Y1337310D02*
X723515Y1339465D01*
X721360Y1340358D01*
X719205Y1339465D01*
X718312Y1337310D01*
X719205Y1335155D01*
X721360Y1334262D01*
X723515Y1335155D01*
X724408Y1337310D01*
X803148D02*
X802255Y1339465D01*
X800100Y1340358D01*
X797945Y1339465D01*
X797052Y1337310D01*
X797945Y1335155D01*
X800100Y1334262D01*
X802255Y1335155D01*
X803148Y1337310D01*
X884428Y1338580D02*
X883535Y1340735D01*
X881380Y1341628D01*
X879225Y1340735D01*
X878332Y1338580D01*
X879225Y1336425D01*
X881380Y1335532D01*
X883535Y1336425D01*
X884428Y1338580D01*
X972058Y1352550D02*
X971165Y1354705D01*
X969010Y1355598D01*
X966855Y1354705D01*
X965962Y1352550D01*
X966855Y1350395D01*
X969010Y1349502D01*
X971165Y1350395D01*
X972058Y1352550D01*
X1316228Y924560D02*
X1315335Y926715D01*
X1313180Y927608D01*
X1311025Y926715D01*
X1310132Y924560D01*
X1311025Y922405D01*
X1313180Y921512D01*
X1315335Y922405D01*
X1316228Y924560D01*
X1346708Y972820D02*
X1345815Y974975D01*
X1343660Y975868D01*
X1341505Y974975D01*
X1340612Y972820D01*
X1341505Y970665D01*
X1343660Y969772D01*
X1345815Y970665D01*
X1346708Y972820D01*
M02*
