G04*
G04 #@! TF.GenerationSoftware,Altium Limited,Altium Designer,23.5.1 (21)*
G04*
G04 Layer_Color=16711935*
%FSLAX44Y44*%
%MOMM*%
G71*
G04*
G04 #@! TF.SameCoordinates,19FF910F-FD56-46C1-A6BE-D3D33EAEA19E*
G04*
G04*
G04 #@! TF.FilePolarity,Positive*
G04*
G01*
G75*
%ADD15C,0.2540*%
%ADD126C,0.0000*%
D15*
X1476250Y1350520D02*
X1476185Y1353093D01*
X1475989Y1355659D01*
X1475664Y1358212D01*
X1475210Y1360746D01*
X1474628Y1363253D01*
X1473920Y1365728D01*
X1473088Y1368163D01*
X1472133Y1370553D01*
X1471059Y1372892D01*
X1469867Y1375173D01*
X1468561Y1377391D01*
X1467145Y1379540D01*
X1465621Y1381615D01*
X1463995Y1383610D01*
X1462269Y1385520D01*
X1460450Y1387339D01*
X1458540Y1389065D01*
X1456545Y1390691D01*
X1454470Y1392215D01*
X1452321Y1393631D01*
X1450103Y1394937D01*
X1447822Y1396129D01*
X1445483Y1397203D01*
X1443093Y1398158D01*
X1440658Y1398990D01*
X1438183Y1399698D01*
X1435676Y1400280D01*
X1433143Y1400734D01*
X1430589Y1401059D01*
X1428023Y1401255D01*
X1425450Y1401320D01*
Y401320D02*
X1428023Y401385D01*
X1430589Y401581D01*
X1433143Y401906D01*
X1435676Y402360D01*
X1438183Y402942D01*
X1440658Y403650D01*
X1443093Y404482D01*
X1445483Y405437D01*
X1447822Y406511D01*
X1450103Y407703D01*
X1452321Y409009D01*
X1454470Y410425D01*
X1456545Y411949D01*
X1458540Y413575D01*
X1460450Y415300D01*
X1462269Y417121D01*
X1463995Y419030D01*
X1465621Y421025D01*
X1467145Y423100D01*
X1468561Y425249D01*
X1469867Y427467D01*
X1471059Y429748D01*
X1472133Y432087D01*
X1473088Y434477D01*
X1473920Y436912D01*
X1474628Y439387D01*
X1475210Y441894D01*
X1475664Y444427D01*
X1475989Y446981D01*
X1476185Y449547D01*
X1476250Y452120D01*
X527050Y1401320D02*
X524477Y1401255D01*
X521911Y1401059D01*
X519357Y1400734D01*
X516824Y1400280D01*
X514317Y1399698D01*
X511842Y1398990D01*
X509407Y1398158D01*
X507017Y1397203D01*
X504678Y1396129D01*
X502397Y1394937D01*
X500179Y1393631D01*
X498030Y1392215D01*
X495955Y1390691D01*
X493960Y1389065D01*
X492051Y1387339D01*
X490230Y1385520D01*
X488505Y1383610D01*
X486879Y1381615D01*
X485355Y1379540D01*
X483939Y1377391D01*
X482633Y1375173D01*
X481441Y1372892D01*
X480367Y1370553D01*
X479412Y1368163D01*
X478580Y1365728D01*
X477872Y1363253D01*
X477290Y1360746D01*
X476836Y1358212D01*
X476511Y1355659D01*
X476315Y1353093D01*
X476250Y1350520D01*
Y452120D02*
X476315Y449547D01*
X476511Y446981D01*
X476836Y444427D01*
X477290Y441894D01*
X477872Y439387D01*
X478580Y436912D01*
X479412Y434477D01*
X480367Y432087D01*
X481441Y429748D01*
X482633Y427467D01*
X483939Y425249D01*
X485355Y423100D01*
X486879Y421025D01*
X488505Y419030D01*
X490230Y417121D01*
X492051Y415300D01*
X493960Y413575D01*
X495955Y411949D01*
X498030Y410425D01*
X500179Y409009D01*
X502397Y407703D01*
X504678Y406511D01*
X507017Y405437D01*
X509407Y404482D01*
X511842Y403650D01*
X514317Y402942D01*
X516824Y402360D01*
X519357Y401906D01*
X521911Y401581D01*
X524477Y401385D01*
X527050Y401320D01*
X1425450D01*
X527050Y1401320D02*
X1425450D01*
X1476250Y452120D02*
Y1350520D01*
X476250Y452120D02*
Y1350520D01*
D126*
X1436198Y1146695D02*
X1437570Y1145322D01*
X1439445Y1144820D01*
Y1052320D02*
X1437570Y1051818D01*
X1436198Y1050445D01*
X1429200Y1052320D02*
X1429975Y1050037D01*
X1431979Y1048698D01*
X1434385Y1048855D01*
X1436198Y1050445D01*
Y1146695D02*
X1434385Y1148285D01*
X1431979Y1148442D01*
X1429975Y1147103D01*
X1429200Y1144820D01*
X1412600Y1134870D02*
X1411855Y1137162D01*
X1409905Y1138579D01*
X1407495D01*
X1405545Y1137162D01*
X1404800Y1134870D01*
Y1134270D02*
X1405545Y1131978D01*
X1407495Y1130561D01*
X1409905D01*
X1411855Y1131978D01*
X1412600Y1134270D01*
X1429200Y1052320D02*
Y1144820D01*
X1439445D02*
X1476700D01*
Y1052320D02*
Y1144820D01*
X1439445Y1052320D02*
X1476700D01*
X1404800Y1134270D02*
Y1134870D01*
X1412600Y1134270D02*
Y1134870D01*
M02*
