G04*
G04 #@! TF.GenerationSoftware,Altium Limited,Altium Designer,23.6.0 (18)*
G04*
G04 Layer_Color=8421504*
%FSLAX44Y44*%
%MOMM*%
G71*
G04*
G04 #@! TF.SameCoordinates,14B29CA8-F054-4B9D-9142-CABF167E231F*
G04*
G04*
G04 #@! TF.FilePolarity,Positive*
G04*
G01*
G75*
%ADD17R,1.4750X0.4500*%
G04:AMPARAMS|DCode=18|XSize=0.5mm|YSize=0.5mm|CornerRadius=0.0875mm|HoleSize=0mm|Usage=FLASHONLY|Rotation=90.000|XOffset=0mm|YOffset=0mm|HoleType=Round|Shape=RoundedRectangle|*
%AMROUNDEDRECTD18*
21,1,0.5000,0.3250,0,0,90.0*
21,1,0.3250,0.5000,0,0,90.0*
1,1,0.1750,0.1625,0.1625*
1,1,0.1750,0.1625,-0.1625*
1,1,0.1750,-0.1625,-0.1625*
1,1,0.1750,-0.1625,0.1625*
%
%ADD18ROUNDEDRECTD18*%
%ADD19R,1.0600X2.6000*%
%ADD20R,5.6320X5.7000*%
%ADD21R,3.2500X1.7500*%
%ADD22R,0.9500X1.7500*%
%ADD23R,0.8000X1.4000*%
%ADD24R,1.1500X0.4500*%
%ADD25R,1.3500X1.8000*%
%ADD26R,0.6500X2.1400*%
%ADD27R,0.6500X1.6000*%
%ADD28R,0.6500X1.3000*%
%ADD29R,0.6000X1.1500*%
%ADD30R,1.1600X1.5000*%
G04:AMPARAMS|DCode=31|XSize=1.4mm|YSize=1.7mm|CornerRadius=0mm|HoleSize=0mm|Usage=FLASHONLY|Rotation=315.000|XOffset=0mm|YOffset=0mm|HoleType=Round|Shape=Rectangle|*
%AMROTATEDRECTD31*
4,1,4,-1.0960,-0.1061,0.1061,1.0960,1.0960,0.1061,-0.1061,-1.0960,-1.0960,-0.1061,0.0*
%
%ADD31ROTATEDRECTD31*%

G04:AMPARAMS|DCode=32|XSize=2.4mm|YSize=1.9mm|CornerRadius=0mm|HoleSize=0mm|Usage=FLASHONLY|Rotation=45.000|XOffset=0mm|YOffset=0mm|HoleType=Round|Shape=Rectangle|*
%AMROTATEDRECTD32*
4,1,4,-0.1768,-1.5203,-1.5203,-0.1768,0.1768,1.5203,1.5203,0.1768,-0.1768,-1.5203,0.0*
%
%ADD32ROTATEDRECTD32*%

%ADD33R,0.9000X0.2540*%
%ADD34R,1.1000X2.0000*%
%ADD35R,0.3000X1.4750*%
%ADD36R,1.4750X0.3000*%
%ADD37R,1.4500X1.1000*%
%ADD38R,2.1800X1.6000*%
%ADD39R,1.6000X3.0000*%
%ADD40R,5.8000X6.2000*%
G04:AMPARAMS|DCode=41|XSize=0.5mm|YSize=0.5mm|CornerRadius=0.0875mm|HoleSize=0mm|Usage=FLASHONLY|Rotation=0.000|XOffset=0mm|YOffset=0mm|HoleType=Round|Shape=RoundedRectangle|*
%AMROUNDEDRECTD41*
21,1,0.5000,0.3250,0,0,0.0*
21,1,0.3250,0.5000,0,0,0.0*
1,1,0.1750,0.1625,-0.1625*
1,1,0.1750,-0.1625,-0.1625*
1,1,0.1750,-0.1625,0.1625*
1,1,0.1750,0.1625,0.1625*
%
%ADD41ROUNDEDRECTD41*%
%ADD42R,2.4000X1.6000*%
%ADD43R,0.3500X0.9000*%
%ADD44R,1.4000X1.7000*%
%ADD45R,1.7000X1.0000*%
%ADD46R,1.9000X1.9000*%
%ADD47R,1.3000X1.4500*%
%ADD48R,1.4000X1.6000*%
%ADD49R,1.3500X0.4000*%
%ADD50R,1.7000X1.4000*%
G04:AMPARAMS|DCode=51|XSize=1mm|YSize=1.7mm|CornerRadius=0mm|HoleSize=0mm|Usage=FLASHONLY|Rotation=225.000|XOffset=0mm|YOffset=0mm|HoleType=Round|Shape=Rectangle|*
%AMROTATEDRECTD51*
4,1,4,-0.2475,0.9546,0.9546,-0.2475,0.2475,-0.9546,-0.9546,0.2475,-0.2475,0.9546,0.0*
%
%ADD51ROTATEDRECTD51*%

%ADD52R,1.6000X2.1800*%
%ADD53R,1.1000X1.4500*%
%ADD54R,0.6500X1.5000*%
D17*
X1060620Y647810D02*
D03*
Y654310D02*
D03*
Y660810D02*
D03*
Y667310D02*
D03*
Y673810D02*
D03*
Y680310D02*
D03*
Y686810D02*
D03*
Y693310D02*
D03*
X1001860D02*
D03*
Y686810D02*
D03*
Y680310D02*
D03*
Y673810D02*
D03*
Y667310D02*
D03*
Y660810D02*
D03*
Y654310D02*
D03*
Y647810D02*
D03*
X1339680Y904690D02*
D03*
Y898190D02*
D03*
Y891690D02*
D03*
Y885190D02*
D03*
Y878690D02*
D03*
Y872190D02*
D03*
Y865690D02*
D03*
X1398440D02*
D03*
Y872190D02*
D03*
Y878690D02*
D03*
Y885190D02*
D03*
Y891690D02*
D03*
Y898190D02*
D03*
Y904690D02*
D03*
D18*
X988060Y721200D02*
D03*
Y711200D02*
D03*
D19*
X1214120Y481870D02*
D03*
X1168400D02*
D03*
X1277620D02*
D03*
X1323340D02*
D03*
X869950Y554450D02*
D03*
X915670D02*
D03*
X779780D02*
D03*
X825500D02*
D03*
D20*
X1191260Y547370D02*
D03*
X1300480D02*
D03*
X892810Y488950D02*
D03*
X802640D02*
D03*
D21*
X956310Y901700D02*
D03*
D22*
X979310Y838700D02*
D03*
X956310D02*
D03*
X933310D02*
D03*
D23*
X1145240Y1364120D02*
D03*
X1156250D02*
D03*
X1167250D02*
D03*
X1178250D02*
D03*
X1189250D02*
D03*
X1200250D02*
D03*
X1211250D02*
D03*
X1222250D02*
D03*
D24*
X1231900Y1245870D02*
D03*
Y1252470D02*
D03*
D25*
X1230890Y1384620D02*
D03*
D26*
X1234400Y1318320D02*
D03*
D27*
Y1267520D02*
D03*
D28*
X1095390Y1248120D02*
D03*
D29*
X1095140Y1307370D02*
D03*
D30*
X1097950Y1387120D02*
D03*
D31*
X1270346Y1215044D02*
D03*
X1286510Y1198880D02*
D03*
X1326342Y1159048D02*
D03*
X1310178Y1175212D02*
D03*
D32*
X1308844Y1228616D02*
D03*
X1337836Y1199624D02*
D03*
D33*
X1390700Y1127320D02*
D03*
Y1122320D02*
D03*
Y1117320D02*
D03*
Y1112320D02*
D03*
Y1107320D02*
D03*
Y1102320D02*
D03*
Y1097320D02*
D03*
Y1092320D02*
D03*
Y1087320D02*
D03*
Y1082320D02*
D03*
Y1077320D02*
D03*
Y1072320D02*
D03*
X1409700Y1069820D02*
D03*
Y1074820D02*
D03*
Y1079820D02*
D03*
Y1084820D02*
D03*
Y1089820D02*
D03*
Y1094820D02*
D03*
Y1099820D02*
D03*
Y1104820D02*
D03*
Y1109820D02*
D03*
Y1114820D02*
D03*
Y1119820D02*
D03*
Y1124820D02*
D03*
D34*
X751840Y1245150D02*
D03*
X726440D02*
D03*
X701040D02*
D03*
X675640D02*
D03*
Y1157150D02*
D03*
X701040D02*
D03*
X726440D02*
D03*
X751840D02*
D03*
D35*
X1127090Y1172440D02*
D03*
X1132090D02*
D03*
X1137090D02*
D03*
X1142090D02*
D03*
X1147090D02*
D03*
X1152090D02*
D03*
X1157090D02*
D03*
X1162090D02*
D03*
X1167090D02*
D03*
X1172090D02*
D03*
X1177090D02*
D03*
X1182090D02*
D03*
X1187090D02*
D03*
X1192090D02*
D03*
X1197090D02*
D03*
X1202090D02*
D03*
Y1057680D02*
D03*
X1197090D02*
D03*
X1192090D02*
D03*
X1187090D02*
D03*
X1182090D02*
D03*
X1177090D02*
D03*
X1172090D02*
D03*
X1167090D02*
D03*
X1162090D02*
D03*
X1157090D02*
D03*
X1152090D02*
D03*
X1147090D02*
D03*
X1142090D02*
D03*
X1137090D02*
D03*
X1132090D02*
D03*
X1127090D02*
D03*
D36*
X1221970Y1152560D02*
D03*
Y1147560D02*
D03*
Y1142560D02*
D03*
Y1137560D02*
D03*
Y1132560D02*
D03*
Y1127560D02*
D03*
Y1122560D02*
D03*
Y1117560D02*
D03*
Y1112560D02*
D03*
Y1107560D02*
D03*
Y1102560D02*
D03*
Y1097560D02*
D03*
Y1092560D02*
D03*
Y1087560D02*
D03*
Y1082560D02*
D03*
Y1077560D02*
D03*
X1107210D02*
D03*
Y1082560D02*
D03*
Y1087560D02*
D03*
Y1092560D02*
D03*
Y1097560D02*
D03*
Y1102560D02*
D03*
Y1107560D02*
D03*
Y1112560D02*
D03*
Y1117560D02*
D03*
Y1122560D02*
D03*
Y1127560D02*
D03*
Y1132560D02*
D03*
Y1137560D02*
D03*
Y1142560D02*
D03*
Y1147560D02*
D03*
Y1152560D02*
D03*
D37*
X1332230Y1298050D02*
D03*
Y1280050D02*
D03*
X1366520D02*
D03*
Y1298050D02*
D03*
X1120140Y560070D02*
D03*
Y542070D02*
D03*
X1363980Y550020D02*
D03*
Y532020D02*
D03*
X1297940Y1298050D02*
D03*
Y1280050D02*
D03*
X1400810Y1298050D02*
D03*
Y1280050D02*
D03*
D38*
X1255750Y1003300D02*
D03*
X1347750D02*
D03*
D39*
X781050Y617220D02*
D03*
X826750D02*
D03*
X918200Y622890D02*
D03*
X872500D02*
D03*
D40*
X803900Y689020D02*
D03*
X895350Y694690D02*
D03*
D41*
X1380410Y463550D02*
D03*
X1370410D02*
D03*
X1380490Y486410D02*
D03*
X1370490D02*
D03*
X1304210Y871220D02*
D03*
X1294210D02*
D03*
X1304290Y857250D02*
D03*
X1294290D02*
D03*
X681830Y467360D02*
D03*
X671830D02*
D03*
X681830Y518160D02*
D03*
X671830D02*
D03*
X681830Y568960D02*
D03*
X671830D02*
D03*
X681830Y619760D02*
D03*
X671830D02*
D03*
X681830Y670560D02*
D03*
X671830D02*
D03*
X681830Y721360D02*
D03*
X671830D02*
D03*
X1313340Y1059180D02*
D03*
X1323340D02*
D03*
X1091010Y679450D02*
D03*
X1101010D02*
D03*
X1089660Y659130D02*
D03*
X1099660D02*
D03*
X1121410Y468630D02*
D03*
X1111410D02*
D03*
X1121330Y490220D02*
D03*
X1111330D02*
D03*
D42*
X937260Y1301750D02*
D03*
X857250D02*
D03*
X777240D02*
D03*
X697230D02*
D03*
D43*
X947010Y1287250D02*
D03*
X940510D02*
D03*
X934010D02*
D03*
X927510D02*
D03*
Y1316250D02*
D03*
X934010D02*
D03*
X940510D02*
D03*
X947010D02*
D03*
X867000Y1287250D02*
D03*
X860500D02*
D03*
X854000D02*
D03*
X847500D02*
D03*
Y1316250D02*
D03*
X854000D02*
D03*
X860500D02*
D03*
X867000D02*
D03*
X786990Y1287250D02*
D03*
X780490D02*
D03*
X773990D02*
D03*
X767490D02*
D03*
Y1316250D02*
D03*
X773990D02*
D03*
X780490D02*
D03*
X786990D02*
D03*
X706980Y1287250D02*
D03*
X700480D02*
D03*
X693980D02*
D03*
X687480D02*
D03*
Y1316250D02*
D03*
X693980D02*
D03*
X700480D02*
D03*
X706980D02*
D03*
D44*
X1078230Y720090D02*
D03*
X1101090D02*
D03*
X1078230Y745490D02*
D03*
X1101090D02*
D03*
X1336040Y928370D02*
D03*
X1358900D02*
D03*
X988060Y803910D02*
D03*
X965200D02*
D03*
D45*
X1306830Y886460D02*
D03*
Y905460D02*
D03*
D46*
X1455500Y904610D02*
D03*
Y881610D02*
D03*
D47*
Y927360D02*
D03*
Y858860D02*
D03*
D48*
X1431000Y925110D02*
D03*
Y861110D02*
D03*
D49*
X1428750Y906110D02*
D03*
Y899610D02*
D03*
Y893110D02*
D03*
Y886610D02*
D03*
Y880110D02*
D03*
D50*
X1383030Y949960D02*
D03*
Y927100D02*
D03*
D51*
X1272540Y1177290D02*
D03*
X1259105Y1163855D02*
D03*
D52*
X991870Y1116890D02*
D03*
Y1024890D02*
D03*
D53*
X689830Y842010D02*
D03*
X671830D02*
D03*
D54*
X1271270Y693750D02*
D03*
X1258570D02*
D03*
X1245870D02*
D03*
X1233170D02*
D03*
Y639750D02*
D03*
X1245870D02*
D03*
X1258570D02*
D03*
X1271270D02*
D03*
M02*
