G04*
G04 #@! TF.GenerationSoftware,Altium Limited,Altium Designer,23.5.1 (21)*
G04*
G04 Layer_Color=128*
%FSLAX44Y44*%
%MOMM*%
G71*
G04*
G04 #@! TF.SameCoordinates,BDE5A72E-243D-4FE9-A7F5-F603F533516F*
G04*
G04*
G04 #@! TF.FilePolarity,Positive*
G04*
G01*
G75*
%ADD42R,1.4000X1.7000*%
%ADD43R,1.7000X1.0000*%
%ADD49R,1.7000X1.4000*%
%ADD115R,1.0000X1.7000*%
%ADD116R,1.2700X2.1000*%
%ADD117R,2.1000X1.2700*%
%ADD118R,1.8000X1.8400*%
%ADD119R,1.8400X1.8000*%
D42*
X1042670Y631190D02*
D03*
X1019810D02*
D03*
X704850Y1337310D02*
D03*
X681990D02*
D03*
X784860D02*
D03*
X762000D02*
D03*
X948690Y1338580D02*
D03*
X925830D02*
D03*
X866140D02*
D03*
X843280D02*
D03*
X1017270Y715010D02*
D03*
X1040130D02*
D03*
X1367790Y1003300D02*
D03*
X1344930D02*
D03*
X1174750Y1196340D02*
D03*
X1151890D02*
D03*
D43*
X1242060Y572820D02*
D03*
Y591820D02*
D03*
X1268730Y572820D02*
D03*
Y591820D02*
D03*
X1366520Y551790D02*
D03*
Y532790D02*
D03*
X1123950Y560070D02*
D03*
Y541070D02*
D03*
X671830Y1193580D02*
D03*
Y1212580D02*
D03*
X699347Y1193580D02*
D03*
Y1212580D02*
D03*
X726863Y1193580D02*
D03*
Y1212580D02*
D03*
X754380Y1193580D02*
D03*
Y1212580D02*
D03*
X796290Y1074470D02*
D03*
Y1093470D02*
D03*
X801370Y769620D02*
D03*
Y788620D02*
D03*
X845820Y826110D02*
D03*
Y807110D02*
D03*
Y979780D02*
D03*
Y960780D02*
D03*
X798830Y928420D02*
D03*
Y947420D02*
D03*
X1206500Y1341610D02*
D03*
Y1322610D02*
D03*
X1140460Y1341610D02*
D03*
Y1322610D02*
D03*
X1173480Y1341610D02*
D03*
Y1322610D02*
D03*
X1382607Y1331570D02*
D03*
Y1312570D02*
D03*
X1349163Y1331570D02*
D03*
Y1312570D02*
D03*
X1315720Y1331570D02*
D03*
Y1312570D02*
D03*
X1416050Y1331570D02*
D03*
Y1312570D02*
D03*
X1024545Y1023486D02*
D03*
Y1004486D02*
D03*
X1053755Y1023486D02*
D03*
Y1004486D02*
D03*
X1090930Y1024230D02*
D03*
Y1005230D02*
D03*
X1117600D02*
D03*
Y1024230D02*
D03*
D49*
X1111250Y1342390D02*
D03*
Y1319530D02*
D03*
X845820Y844550D02*
D03*
Y867410D02*
D03*
Y1003300D02*
D03*
Y1026160D02*
D03*
X979170Y659130D02*
D03*
Y681990D02*
D03*
X697230Y923290D02*
D03*
Y900430D02*
D03*
Y947420D02*
D03*
Y970280D02*
D03*
X905510Y1314450D02*
D03*
Y1291590D02*
D03*
X745490Y1311910D02*
D03*
Y1289050D02*
D03*
X665480Y1313180D02*
D03*
Y1290320D02*
D03*
X826770Y1313180D02*
D03*
Y1290320D02*
D03*
X796290Y1028700D02*
D03*
Y1051560D02*
D03*
X801370Y725170D02*
D03*
Y748030D02*
D03*
X798830Y883920D02*
D03*
Y906780D02*
D03*
X1150620Y1005840D02*
D03*
Y1028700D02*
D03*
X1176020D02*
D03*
Y1005840D02*
D03*
X969010Y1047750D02*
D03*
Y1024890D02*
D03*
X1111250Y1181100D02*
D03*
Y1158240D02*
D03*
X1085850Y1181100D02*
D03*
Y1158240D02*
D03*
X1080770Y1097280D02*
D03*
Y1120140D02*
D03*
X1250950Y1125220D02*
D03*
Y1102360D02*
D03*
D115*
X1289710Y476250D02*
D03*
X1308710D02*
D03*
X1180490Y467360D02*
D03*
X1199490D02*
D03*
X650240Y842010D02*
D03*
X631240D02*
D03*
X839420Y1064260D02*
D03*
X820420D02*
D03*
X824280Y760730D02*
D03*
X843280D02*
D03*
X868680Y835660D02*
D03*
X887680D02*
D03*
X823010Y914400D02*
D03*
X842010D02*
D03*
X870610Y991870D02*
D03*
X889610D02*
D03*
X1315060Y979170D02*
D03*
X1296060D02*
D03*
X1343050Y1121410D02*
D03*
X1362050D02*
D03*
X1362710Y1094740D02*
D03*
X1343710D02*
D03*
D116*
X532600Y943610D02*
D03*
X572300D02*
D03*
X1012660Y744220D02*
D03*
X1052360D02*
D03*
D117*
X1084580Y668820D02*
D03*
Y629120D02*
D03*
X805180Y539750D02*
D03*
Y500050D02*
D03*
X889000Y502120D02*
D03*
Y541820D02*
D03*
X801370Y647700D02*
D03*
Y687400D02*
D03*
X895350Y651390D02*
D03*
Y691090D02*
D03*
D118*
X1374380Y862330D02*
D03*
X1404380D02*
D03*
D119*
X1343660Y1031480D02*
D03*
Y1061480D02*
D03*
M02*
