G04*
G04 #@! TF.GenerationSoftware,Altium Limited,Altium Designer,23.5.1 (21)*
G04*
G04 Layer_Color=16711935*
%FSLAX44Y44*%
%MOMM*%
G71*
G04*
G04 #@! TF.SameCoordinates,BDE5A72E-243D-4FE9-A7F5-F603F533516F*
G04*
G04*
G04 #@! TF.FilePolarity,Negative*
G04*
G01*
G75*
%ADD78R,1.5500X1.8500*%
%ADD79R,1.8500X1.1500*%
%ADD85R,1.8500X1.5500*%
%ADD90R,2.7750X2.7750*%
%ADD91C,2.7750*%
%ADD92C,1.8750*%
%ADD93C,6.1500*%
%ADD94C,0.9300*%
%ADD95C,0.9900*%
%ADD96C,1.9400*%
%ADD97C,0.6500*%
%ADD121R,1.1500X1.8500*%
%ADD122R,1.4200X2.2500*%
%ADD123R,2.2500X1.4200*%
%ADD124R,1.9500X1.9900*%
%ADD125R,1.9900X1.9500*%
G36*
X1399790Y1048350D02*
X1399910Y1049130D01*
X1400120Y1049890D01*
X1400400Y1050620D01*
X1400750Y1051320D01*
X1401180Y1051980D01*
X1401680Y1052590D01*
X1402230Y1053140D01*
X1402840Y1053640D01*
X1403500Y1054070D01*
X1404200Y1054420D01*
X1404930Y1054700D01*
X1405690Y1054910D01*
X1406470Y1055030D01*
X1407250Y1055070D01*
X1417750D01*
X1418530Y1055030D01*
X1419310Y1054910D01*
X1420070Y1054700D01*
X1420800Y1054420D01*
X1421500Y1054070D01*
X1422160Y1053640D01*
X1422770Y1053140D01*
X1423320Y1052590D01*
X1423820Y1051980D01*
X1424250Y1051320D01*
X1424600Y1050620D01*
X1424880Y1049890D01*
X1425090Y1049130D01*
X1425210Y1048350D01*
X1425250Y1047570D01*
X1425210Y1046790D01*
X1425090Y1046010D01*
X1424880Y1045250D01*
X1424600Y1044520D01*
X1424250Y1043820D01*
X1423820Y1043160D01*
X1423320Y1042550D01*
X1422770Y1042000D01*
X1422160Y1041500D01*
X1421500Y1041070D01*
X1420800Y1040720D01*
X1420070Y1040440D01*
X1419310Y1040230D01*
X1418530Y1040110D01*
X1417750Y1040070D01*
X1407250D01*
X1406470Y1040110D01*
X1405690Y1040230D01*
X1404930Y1040440D01*
X1404200Y1040720D01*
X1403500Y1041070D01*
X1402840Y1041500D01*
X1402230Y1042000D01*
X1401680Y1042550D01*
X1401180Y1043160D01*
X1400750Y1043820D01*
X1400400Y1044520D01*
X1400120Y1045250D01*
X1399910Y1046010D01*
X1399790Y1046790D01*
X1399750Y1047570D01*
X1399790Y1048350D01*
D02*
G37*
G36*
X1446490Y1041350D02*
X1446610Y1042130D01*
X1446820Y1042890D01*
X1447100Y1043620D01*
X1447450Y1044320D01*
X1447880Y1044980D01*
X1448380Y1045590D01*
X1448930Y1046140D01*
X1449540Y1046640D01*
X1450200Y1047070D01*
X1450900Y1047420D01*
X1451630Y1047700D01*
X1452390Y1047910D01*
X1453170Y1048030D01*
X1453950Y1048070D01*
X1464450D01*
X1465230Y1048030D01*
X1466010Y1047910D01*
X1466770Y1047700D01*
X1467500Y1047420D01*
X1468200Y1047070D01*
X1468860Y1046640D01*
X1469470Y1046140D01*
X1470020Y1045590D01*
X1470520Y1044980D01*
X1470950Y1044320D01*
X1471300Y1043620D01*
X1471580Y1042890D01*
X1471790Y1042130D01*
X1471910Y1041350D01*
X1471950Y1040570D01*
X1471910Y1039790D01*
X1471790Y1039010D01*
X1471580Y1038250D01*
X1471300Y1037520D01*
X1470950Y1036820D01*
X1470520Y1036160D01*
X1470020Y1035550D01*
X1469470Y1035000D01*
X1468860Y1034500D01*
X1468200Y1034070D01*
X1467500Y1033720D01*
X1466770Y1033440D01*
X1466010Y1033230D01*
X1465230Y1033110D01*
X1464450Y1033070D01*
X1453950D01*
X1453170Y1033110D01*
X1452390Y1033230D01*
X1451630Y1033440D01*
X1450900Y1033720D01*
X1450200Y1034070D01*
X1449540Y1034500D01*
X1448930Y1035000D01*
X1448380Y1035550D01*
X1447880Y1036160D01*
X1447450Y1036820D01*
X1447100Y1037520D01*
X1446820Y1038250D01*
X1446610Y1039010D01*
X1446490Y1039790D01*
X1446450Y1040570D01*
X1446490Y1041350D01*
D02*
G37*
G36*
X1399790Y1150350D02*
X1399910Y1151130D01*
X1400120Y1151890D01*
X1400400Y1152620D01*
X1400750Y1153320D01*
X1401180Y1153980D01*
X1401680Y1154590D01*
X1402230Y1155140D01*
X1402840Y1155640D01*
X1403500Y1156070D01*
X1404200Y1156420D01*
X1404930Y1156700D01*
X1405690Y1156910D01*
X1406470Y1157030D01*
X1407250Y1157070D01*
X1417750D01*
X1418530Y1157030D01*
X1419310Y1156910D01*
X1420070Y1156700D01*
X1420800Y1156420D01*
X1421500Y1156070D01*
X1422160Y1155640D01*
X1422770Y1155140D01*
X1423320Y1154590D01*
X1423820Y1153980D01*
X1424250Y1153320D01*
X1424600Y1152620D01*
X1424880Y1151890D01*
X1425090Y1151130D01*
X1425210Y1150350D01*
X1425250Y1149570D01*
X1425210Y1148790D01*
X1425090Y1148010D01*
X1424880Y1147250D01*
X1424600Y1146520D01*
X1424250Y1145820D01*
X1423820Y1145160D01*
X1423320Y1144550D01*
X1422770Y1144000D01*
X1422160Y1143500D01*
X1421500Y1143070D01*
X1420800Y1142720D01*
X1420070Y1142440D01*
X1419310Y1142230D01*
X1418530Y1142110D01*
X1417750Y1142070D01*
X1407250D01*
X1406470Y1142110D01*
X1405690Y1142230D01*
X1404930Y1142440D01*
X1404200Y1142720D01*
X1403500Y1143070D01*
X1402840Y1143500D01*
X1402230Y1144000D01*
X1401680Y1144550D01*
X1401180Y1145160D01*
X1400750Y1145820D01*
X1400400Y1146520D01*
X1400120Y1147250D01*
X1399910Y1148010D01*
X1399790Y1148790D01*
X1399750Y1149570D01*
X1399790Y1150350D01*
D02*
G37*
G36*
X1446490Y1157350D02*
X1446610Y1158130D01*
X1446820Y1158890D01*
X1447100Y1159620D01*
X1447450Y1160320D01*
X1447880Y1160980D01*
X1448380Y1161590D01*
X1448930Y1162140D01*
X1449540Y1162640D01*
X1450200Y1163070D01*
X1450900Y1163420D01*
X1451630Y1163700D01*
X1452390Y1163910D01*
X1453170Y1164030D01*
X1453950Y1164070D01*
X1464450D01*
X1465230Y1164030D01*
X1466010Y1163910D01*
X1466770Y1163700D01*
X1467500Y1163420D01*
X1468200Y1163070D01*
X1468860Y1162640D01*
X1469470Y1162140D01*
X1470020Y1161590D01*
X1470520Y1160980D01*
X1470950Y1160320D01*
X1471300Y1159620D01*
X1471580Y1158890D01*
X1471790Y1158130D01*
X1471910Y1157350D01*
X1471950Y1156570D01*
X1471910Y1155790D01*
X1471790Y1155010D01*
X1471580Y1154250D01*
X1471300Y1153520D01*
X1470950Y1152820D01*
X1470520Y1152160D01*
X1470020Y1151550D01*
X1469470Y1151000D01*
X1468860Y1150500D01*
X1468200Y1150070D01*
X1467500Y1149720D01*
X1466770Y1149440D01*
X1466010Y1149230D01*
X1465230Y1149110D01*
X1464450Y1149070D01*
X1453950D01*
X1453170Y1149110D01*
X1452390Y1149230D01*
X1451630Y1149440D01*
X1450900Y1149720D01*
X1450200Y1150070D01*
X1449540Y1150500D01*
X1448930Y1151000D01*
X1448380Y1151550D01*
X1447880Y1152160D01*
X1447450Y1152820D01*
X1447100Y1153520D01*
X1446820Y1154250D01*
X1446610Y1155010D01*
X1446490Y1155790D01*
X1446450Y1156570D01*
X1446490Y1157350D01*
D02*
G37*
D78*
X1042670Y631190D02*
D03*
X1019810D02*
D03*
X704850Y1337310D02*
D03*
X681990D02*
D03*
X784860D02*
D03*
X762000D02*
D03*
X948690Y1338580D02*
D03*
X925830D02*
D03*
X866140D02*
D03*
X843280D02*
D03*
X1017270Y715010D02*
D03*
X1040130D02*
D03*
X1367790Y1003300D02*
D03*
X1344930D02*
D03*
X1174750Y1196340D02*
D03*
X1151890D02*
D03*
D79*
X1242060Y572820D02*
D03*
Y591820D02*
D03*
X1268730Y572820D02*
D03*
Y591820D02*
D03*
X1366520Y551790D02*
D03*
Y532790D02*
D03*
X1123950Y560070D02*
D03*
Y541070D02*
D03*
X671830Y1193580D02*
D03*
Y1212580D02*
D03*
X699347Y1193580D02*
D03*
Y1212580D02*
D03*
X726863Y1193580D02*
D03*
Y1212580D02*
D03*
X754380Y1193580D02*
D03*
Y1212580D02*
D03*
X796290Y1074470D02*
D03*
Y1093470D02*
D03*
X801370Y769620D02*
D03*
Y788620D02*
D03*
X845820Y826110D02*
D03*
Y807110D02*
D03*
Y979780D02*
D03*
Y960780D02*
D03*
X798830Y928420D02*
D03*
Y947420D02*
D03*
X1206500Y1341610D02*
D03*
Y1322610D02*
D03*
X1140460Y1341610D02*
D03*
Y1322610D02*
D03*
X1173480Y1341610D02*
D03*
Y1322610D02*
D03*
X1382607Y1331570D02*
D03*
Y1312570D02*
D03*
X1349163Y1331570D02*
D03*
Y1312570D02*
D03*
X1315720Y1331570D02*
D03*
Y1312570D02*
D03*
X1416050Y1331570D02*
D03*
Y1312570D02*
D03*
X1024545Y1023486D02*
D03*
Y1004486D02*
D03*
X1053755Y1023486D02*
D03*
Y1004486D02*
D03*
X1090930Y1024230D02*
D03*
Y1005230D02*
D03*
X1117600D02*
D03*
Y1024230D02*
D03*
D85*
X1111250Y1342390D02*
D03*
Y1319530D02*
D03*
X845820Y844550D02*
D03*
Y867410D02*
D03*
Y1003300D02*
D03*
Y1026160D02*
D03*
X979170Y659130D02*
D03*
Y681990D02*
D03*
X697230Y923290D02*
D03*
Y900430D02*
D03*
Y947420D02*
D03*
Y970280D02*
D03*
X905510Y1314450D02*
D03*
Y1291590D02*
D03*
X745490Y1311910D02*
D03*
Y1289050D02*
D03*
X665480Y1313180D02*
D03*
Y1290320D02*
D03*
X826770Y1313180D02*
D03*
Y1290320D02*
D03*
X796290Y1028700D02*
D03*
Y1051560D02*
D03*
X801370Y725170D02*
D03*
Y748030D02*
D03*
X798830Y883920D02*
D03*
Y906780D02*
D03*
X1150620Y1005840D02*
D03*
Y1028700D02*
D03*
X1176020D02*
D03*
Y1005840D02*
D03*
X969010Y1047750D02*
D03*
Y1024890D02*
D03*
X1111250Y1181100D02*
D03*
Y1158240D02*
D03*
X1085850Y1181100D02*
D03*
Y1158240D02*
D03*
X1080770Y1097280D02*
D03*
Y1120140D02*
D03*
X1250950Y1125220D02*
D03*
Y1102360D02*
D03*
D90*
X589270Y1342990D02*
D03*
Y726110D02*
D03*
D91*
Y1062990D02*
D03*
X549270Y1322990D02*
D03*
Y1082990D02*
D03*
X509270Y1342990D02*
D03*
Y1062990D02*
D03*
X589270Y1302990D02*
D03*
Y1262990D02*
D03*
Y1222990D02*
D03*
Y1182990D02*
D03*
Y1142990D02*
D03*
Y1102990D02*
D03*
X549270Y1282990D02*
D03*
Y1242990D02*
D03*
Y1202990D02*
D03*
Y1162990D02*
D03*
Y1122990D02*
D03*
X509270Y1302990D02*
D03*
Y1262990D02*
D03*
Y1222990D02*
D03*
Y1182990D02*
D03*
Y1142990D02*
D03*
Y1102990D02*
D03*
Y486110D02*
D03*
Y526110D02*
D03*
Y566110D02*
D03*
Y606110D02*
D03*
Y646110D02*
D03*
Y686110D02*
D03*
X549270Y506110D02*
D03*
Y546110D02*
D03*
Y586110D02*
D03*
Y626110D02*
D03*
Y666110D02*
D03*
X589270Y486110D02*
D03*
Y526110D02*
D03*
Y566110D02*
D03*
Y606110D02*
D03*
Y646110D02*
D03*
Y686110D02*
D03*
X509270Y446110D02*
D03*
Y726110D02*
D03*
X549270Y466110D02*
D03*
Y706110D02*
D03*
X589270Y446110D02*
D03*
D92*
X662940Y910590D02*
D03*
Y935990D02*
D03*
Y961390D02*
D03*
D93*
X896620Y1102360D02*
D03*
X1013460Y574040D02*
D03*
X1428750Y453390D02*
D03*
X1410970Y1225550D02*
D03*
D94*
X1408700Y1134570D02*
D03*
D95*
Y1062570D02*
D03*
D96*
X1029970Y1258570D02*
D03*
Y1283970D02*
D03*
Y1309370D02*
D03*
Y1334770D02*
D03*
Y1360170D02*
D03*
Y1385570D02*
D03*
X1441450Y792480D02*
D03*
Y767080D02*
D03*
Y741680D02*
D03*
Y716280D02*
D03*
Y690880D02*
D03*
Y665480D02*
D03*
D97*
X1055370Y808990D02*
D03*
X984250Y670410D02*
D03*
X567690Y528320D02*
D03*
X1455420Y554990D02*
D03*
X1268730Y425300D02*
D03*
X1250950Y422910D02*
D03*
X1437640Y546100D02*
D03*
X539750Y600710D02*
D03*
X912785Y1118524D02*
D03*
X919480Y1102360D02*
D03*
X912785Y1086196D02*
D03*
X896620Y1079500D02*
D03*
X880455Y1086196D02*
D03*
X873760Y1102360D02*
D03*
X880455Y1118524D02*
D03*
X896620Y1125220D02*
D03*
X1029624Y590205D02*
D03*
X1036320Y574040D02*
D03*
X1029624Y557876D02*
D03*
X1013460Y551180D02*
D03*
X997296Y557876D02*
D03*
X990600Y574040D02*
D03*
X997296Y590205D02*
D03*
X1013460Y596900D02*
D03*
X1444915Y469554D02*
D03*
X1451610Y453390D02*
D03*
X1444915Y437225D02*
D03*
X1428750Y430530D02*
D03*
X1412585Y437225D02*
D03*
X1405890Y453390D02*
D03*
X1412585Y469554D02*
D03*
X1428750Y476250D02*
D03*
X1427135Y1241714D02*
D03*
X1433830Y1225550D02*
D03*
X1427135Y1209386D02*
D03*
X1410970Y1202690D02*
D03*
X1394805Y1209386D02*
D03*
X1388110Y1225550D02*
D03*
X1394805Y1241714D02*
D03*
X1410970Y1248410D02*
D03*
D121*
X1289710Y476250D02*
D03*
X1308710D02*
D03*
X1180490Y467360D02*
D03*
X1199490D02*
D03*
X650240Y842010D02*
D03*
X631240D02*
D03*
X839420Y1064260D02*
D03*
X820420D02*
D03*
X824280Y760730D02*
D03*
X843280D02*
D03*
X868680Y835660D02*
D03*
X887680D02*
D03*
X823010Y914400D02*
D03*
X842010D02*
D03*
X870610Y991870D02*
D03*
X889610D02*
D03*
X1315060Y979170D02*
D03*
X1296060D02*
D03*
X1343050Y1121410D02*
D03*
X1362050D02*
D03*
X1362710Y1094740D02*
D03*
X1343710D02*
D03*
D122*
X532600Y943610D02*
D03*
X572300D02*
D03*
X1012660Y744220D02*
D03*
X1052360D02*
D03*
D123*
X1084580Y668820D02*
D03*
Y629120D02*
D03*
X805180Y539750D02*
D03*
Y500050D02*
D03*
X889000Y502120D02*
D03*
Y541820D02*
D03*
X801370Y647700D02*
D03*
Y687400D02*
D03*
X895350Y651390D02*
D03*
Y691090D02*
D03*
D124*
X1374380Y862330D02*
D03*
X1404380D02*
D03*
D125*
X1343660Y1031480D02*
D03*
Y1061480D02*
D03*
M02*
