G04*
G04 #@! TF.GenerationSoftware,Altium Limited,Altium Designer,23.5.1 (21)*
G04*
G04 Layer_Color=128*
%FSLAX44Y44*%
%MOMM*%
G71*
G04*
G04 #@! TF.SameCoordinates,BDE5A72E-243D-4FE9-A7F5-F603F533516F*
G04*
G04*
G04 #@! TF.FilePolarity,Positive*
G04*
G01*
G75*
%ADD16C,0.1270*%
D16*
X580520Y1342990D02*
X598020D01*
X589270Y1334240D02*
Y1351740D01*
X580520Y1062990D02*
X598020D01*
X589270Y1054240D02*
Y1071740D01*
X540520Y1322990D02*
X558020D01*
X549270Y1314240D02*
Y1331740D01*
X540520Y1082990D02*
X558020D01*
X549270Y1074240D02*
Y1091740D01*
X500520Y1342990D02*
X518020D01*
X509270Y1334240D02*
Y1351740D01*
X500520Y1062990D02*
X518020D01*
X509270Y1054240D02*
Y1071740D01*
X580520Y1302990D02*
X598020D01*
X589270Y1294240D02*
Y1311740D01*
X580520Y1262990D02*
X598020D01*
X589270Y1254240D02*
Y1271740D01*
X580520Y1222990D02*
X598020D01*
X589270Y1214240D02*
Y1231740D01*
X580520Y1182990D02*
X598020D01*
X589270Y1174240D02*
Y1191740D01*
X580520Y1142990D02*
X598020D01*
X589270Y1134240D02*
Y1151740D01*
X580520Y1102990D02*
X598020D01*
X589270Y1094240D02*
Y1111740D01*
X540520Y1282990D02*
X558020D01*
X549270Y1274240D02*
Y1291740D01*
X540520Y1242990D02*
X558020D01*
X549270Y1234240D02*
Y1251740D01*
X540520Y1202990D02*
X558020D01*
X549270Y1194240D02*
Y1211740D01*
X540520Y1162990D02*
X558020D01*
X549270Y1154240D02*
Y1171740D01*
X540520Y1122990D02*
X558020D01*
X549270Y1114240D02*
Y1131740D01*
X500520Y1302990D02*
X518020D01*
X509270Y1294240D02*
Y1311740D01*
X500520Y1262990D02*
X518020D01*
X509270Y1254240D02*
Y1271740D01*
X500520Y1222990D02*
X518020D01*
X509270Y1214240D02*
Y1231740D01*
X500520Y1182990D02*
X518020D01*
X509270Y1174240D02*
Y1191740D01*
X500520Y1142990D02*
X518020D01*
X509270Y1134240D02*
Y1151740D01*
X500520Y1102990D02*
X518020D01*
X509270Y1094240D02*
Y1111740D01*
X657190Y910590D02*
X668690D01*
X662940Y904840D02*
Y916340D01*
X657190Y935990D02*
X668690D01*
X662940Y930240D02*
Y941740D01*
X657190Y961390D02*
X668690D01*
X662940Y955640D02*
Y967140D01*
X879120Y1102360D02*
X914120D01*
X896620Y1084860D02*
Y1119860D01*
X995960Y574040D02*
X1030960D01*
X1013460Y556540D02*
Y591540D01*
X1411250Y453390D02*
X1446250D01*
X1428750Y435890D02*
Y470890D01*
X1393470Y1225550D02*
X1428470D01*
X1410970Y1208050D02*
Y1243050D01*
X500520Y486110D02*
X518020D01*
X509270Y477360D02*
Y494860D01*
X500520Y526110D02*
X518020D01*
X509270Y517360D02*
Y534860D01*
X500520Y566110D02*
X518020D01*
X509270Y557360D02*
Y574860D01*
X500520Y606110D02*
X518020D01*
X509270Y597360D02*
Y614860D01*
X500520Y646110D02*
X518020D01*
X509270Y637360D02*
Y654860D01*
X500520Y686110D02*
X518020D01*
X509270Y677360D02*
Y694860D01*
X540520Y506110D02*
X558020D01*
X549270Y497360D02*
Y514860D01*
X540520Y546110D02*
X558020D01*
X549270Y537360D02*
Y554860D01*
X540520Y586110D02*
X558020D01*
X549270Y577360D02*
Y594860D01*
X540520Y626110D02*
X558020D01*
X549270Y617360D02*
Y634860D01*
X540520Y666110D02*
X558020D01*
X549270Y657360D02*
Y674860D01*
X580520Y486110D02*
X598020D01*
X589270Y477360D02*
Y494860D01*
X580520Y526110D02*
X598020D01*
X589270Y517360D02*
Y534860D01*
X580520Y566110D02*
X598020D01*
X589270Y557360D02*
Y574860D01*
X580520Y606110D02*
X598020D01*
X589270Y597360D02*
Y614860D01*
X580520Y646110D02*
X598020D01*
X589270Y637360D02*
Y654860D01*
X580520Y686110D02*
X598020D01*
X589270Y677360D02*
Y694860D01*
X500520Y446110D02*
X518020D01*
X509270Y437360D02*
Y454860D01*
X500520Y726110D02*
X518020D01*
X509270Y717360D02*
Y734860D01*
X540520Y466110D02*
X558020D01*
X549270Y457360D02*
Y474860D01*
X540520Y706110D02*
X558020D01*
X549270Y697360D02*
Y714860D01*
X580520Y446110D02*
X598020D01*
X589270Y437360D02*
Y454860D01*
X580520Y726110D02*
X598020D01*
X589270Y717360D02*
Y734860D01*
X1404800Y1134570D02*
X1412600D01*
X1408700Y1130670D02*
Y1138470D01*
X1455950Y1156570D02*
X1462450D01*
X1459200Y1153320D02*
Y1159820D01*
X1455950Y1040570D02*
X1462450D01*
X1459200Y1037320D02*
Y1043820D01*
X1409750Y1149570D02*
X1415250D01*
X1412500Y1146820D02*
Y1152320D01*
X1409750Y1047570D02*
X1415250D01*
X1412500Y1044820D02*
Y1050320D01*
X1404500Y1062570D02*
X1412900D01*
X1408700Y1058370D02*
Y1066770D01*
X1024470Y1258570D02*
X1035470D01*
X1029970Y1253070D02*
Y1264070D01*
X1024470Y1283970D02*
X1035470D01*
X1029970Y1278470D02*
Y1289470D01*
X1024470Y1309370D02*
X1035470D01*
X1029970Y1303870D02*
Y1314870D01*
X1024470Y1334770D02*
X1035470D01*
X1029970Y1329270D02*
Y1340270D01*
X1024470Y1360170D02*
X1035470D01*
X1029970Y1354670D02*
Y1365670D01*
X1024470Y1385570D02*
X1035470D01*
X1029970Y1380070D02*
Y1391070D01*
X1435950Y792480D02*
X1446950D01*
X1441450Y786980D02*
Y797980D01*
X1435950Y767080D02*
X1446950D01*
X1441450Y761580D02*
Y772580D01*
X1435950Y741680D02*
X1446950D01*
X1441450Y736180D02*
Y747180D01*
X1435950Y716280D02*
X1446950D01*
X1441450Y710780D02*
Y721780D01*
X1435950Y690880D02*
X1446950D01*
X1441450Y685380D02*
Y696380D01*
X1435950Y665480D02*
X1446950D01*
X1441450Y659980D02*
Y670980D01*
X755420Y1278890D02*
X758420D01*
X756920Y1277390D02*
Y1280390D01*
X1053870Y808990D02*
X1056870D01*
X1055370Y807490D02*
Y810490D01*
X982750Y786130D02*
X985750D01*
X984250Y784630D02*
Y787630D01*
X1161130Y1071929D02*
X1164130D01*
X1162630Y1070429D02*
Y1073429D01*
X982750Y670410D02*
X985750D01*
X984250Y668910D02*
Y671910D01*
X1438500Y1380000D02*
X1441500D01*
X1440000Y1378500D02*
Y1381500D01*
X1453500Y1350000D02*
X1456500D01*
X1455000Y1348500D02*
Y1351500D01*
X1438500Y1320000D02*
X1441500D01*
X1440000Y1318500D02*
Y1321500D01*
X1453500Y1290000D02*
X1456500D01*
X1455000Y1288500D02*
Y1291500D01*
X1438500Y1260000D02*
X1441500D01*
X1440000Y1258500D02*
Y1261500D01*
X1453500Y1230000D02*
X1456500D01*
X1455000Y1228500D02*
Y1231500D01*
X1438500Y1200000D02*
X1441500D01*
X1440000Y1198500D02*
Y1201500D01*
X1453500Y1170000D02*
X1456500D01*
X1455000Y1168500D02*
Y1171500D01*
X1438500Y1140000D02*
X1441500D01*
X1440000Y1138500D02*
Y1141500D01*
X1453500Y1110000D02*
X1456500D01*
X1455000Y1108500D02*
Y1111500D01*
X1438500Y1080000D02*
X1441500D01*
X1440000Y1078500D02*
Y1081500D01*
X1438500Y1020000D02*
X1441500D01*
X1440000Y1018500D02*
Y1021500D01*
X1453500Y990000D02*
X1456500D01*
X1455000Y988500D02*
Y991500D01*
X1438500Y840000D02*
X1441500D01*
X1440000Y838500D02*
Y841500D01*
X1453500Y810000D02*
X1456500D01*
X1455000Y808500D02*
Y811500D01*
X1438500Y600000D02*
X1441500D01*
X1440000Y598500D02*
Y601500D01*
X1453500Y510000D02*
X1456500D01*
X1455000Y508500D02*
Y511500D01*
X1438500Y420000D02*
X1441500D01*
X1440000Y418500D02*
Y421500D01*
X1408500Y1380000D02*
X1411500D01*
X1410000Y1378500D02*
Y1381500D01*
X1423500Y1350000D02*
X1426500D01*
X1425000Y1348500D02*
Y1351500D01*
X1423500Y1290000D02*
X1426500D01*
X1425000Y1288500D02*
Y1291500D01*
X1408500Y1260000D02*
X1411500D01*
X1410000Y1258500D02*
Y1261500D01*
X1423500Y1170000D02*
X1426500D01*
X1425000Y1168500D02*
Y1171500D01*
X1423500Y1110000D02*
X1426500D01*
X1425000Y1108500D02*
Y1111500D01*
X1408500Y960000D02*
X1411500D01*
X1410000Y958500D02*
Y961500D01*
X1423500Y810000D02*
X1426500D01*
X1425000Y808500D02*
Y811500D01*
X1408500Y600000D02*
X1411500D01*
X1410000Y598500D02*
Y601500D01*
X1408500Y540000D02*
X1411500D01*
X1410000Y538500D02*
Y541500D01*
X1423500Y510000D02*
X1426500D01*
X1425000Y508500D02*
Y511500D01*
X1408500Y420000D02*
X1411500D01*
X1410000Y418500D02*
Y421500D01*
X1378500Y1380000D02*
X1381500D01*
X1380000Y1378500D02*
Y1381500D01*
X1378500Y1200000D02*
X1381500D01*
X1380000Y1198500D02*
Y1201500D01*
X1393500Y1170000D02*
X1396500D01*
X1395000Y1168500D02*
Y1171500D01*
X1378500Y1140000D02*
X1381500D01*
X1380000Y1138500D02*
Y1141500D01*
X1393500Y1050000D02*
X1396500D01*
X1395000Y1048500D02*
Y1051500D01*
X1378500Y1020000D02*
X1381500D01*
X1380000Y1018500D02*
Y1021500D01*
X1393500Y990000D02*
X1396500D01*
X1395000Y988500D02*
Y991500D01*
X1393500Y810000D02*
X1396500D01*
X1395000Y808500D02*
Y811500D01*
X1378500Y780000D02*
X1381500D01*
X1380000Y778500D02*
Y781500D01*
X1393500Y630000D02*
X1396500D01*
X1395000Y628500D02*
Y631500D01*
X1378500Y600000D02*
X1381500D01*
X1380000Y598500D02*
Y601500D01*
X1393500Y570000D02*
X1396500D01*
X1395000Y568500D02*
Y571500D01*
X1378500Y540000D02*
X1381500D01*
X1380000Y538500D02*
Y541500D01*
X1393500Y450000D02*
X1396500D01*
X1395000Y448500D02*
Y451500D01*
X1378500Y420000D02*
X1381500D01*
X1380000Y418500D02*
Y421500D01*
X1348500Y1380000D02*
X1351500D01*
X1350000Y1378500D02*
Y1381500D01*
X1348500Y1260000D02*
X1351500D01*
X1350000Y1258500D02*
Y1261500D01*
X1363500Y1230000D02*
X1366500D01*
X1365000Y1228500D02*
Y1231500D01*
X1363500Y1170000D02*
X1366500D01*
X1365000Y1168500D02*
Y1171500D01*
X1348500Y1140000D02*
X1351500D01*
X1350000Y1138500D02*
Y1141500D01*
X1348500Y960000D02*
X1351500D01*
X1350000Y958500D02*
Y961500D01*
X1348500Y720000D02*
X1351500D01*
X1350000Y718500D02*
Y721500D01*
X1348500Y660000D02*
X1351500D01*
X1350000Y658500D02*
Y661500D01*
X1348500Y600000D02*
X1351500D01*
X1350000Y598500D02*
Y601500D01*
X1363500Y570000D02*
X1366500D01*
X1365000Y568500D02*
Y571500D01*
X1348500Y540000D02*
X1351500D01*
X1350000Y538500D02*
Y541500D01*
X1348500Y420000D02*
X1351500D01*
X1350000Y418500D02*
Y421500D01*
X1318500Y1380000D02*
X1321500D01*
X1320000Y1378500D02*
Y1381500D01*
X1318500Y1260000D02*
X1321500D01*
X1320000Y1258500D02*
Y1261500D01*
X1333500Y1230000D02*
X1336500D01*
X1335000Y1228500D02*
Y1231500D01*
X1318500Y1140000D02*
X1321500D01*
X1320000Y1138500D02*
Y1141500D01*
X1333500Y1110000D02*
X1336500D01*
X1335000Y1108500D02*
Y1111500D01*
X1318500Y1080000D02*
X1321500D01*
X1320000Y1078500D02*
Y1081500D01*
X1318500Y1020000D02*
X1321500D01*
X1320000Y1018500D02*
Y1021500D01*
X1318500Y960000D02*
X1321500D01*
X1320000Y958500D02*
Y961500D01*
X1318500Y840000D02*
X1321500D01*
X1320000Y838500D02*
Y841500D01*
X1333500Y810000D02*
X1336500D01*
X1335000Y808500D02*
Y811500D01*
X1318500Y720000D02*
X1321500D01*
X1320000Y718500D02*
Y721500D01*
X1333500Y690000D02*
X1336500D01*
X1335000Y688500D02*
Y691500D01*
X1318500Y660000D02*
X1321500D01*
X1320000Y658500D02*
Y661500D01*
X1318500Y600000D02*
X1321500D01*
X1320000Y598500D02*
Y601500D01*
X1333500Y570000D02*
X1336500D01*
X1335000Y568500D02*
Y571500D01*
X1318500Y420000D02*
X1321500D01*
X1320000Y418500D02*
Y421500D01*
X1288500Y1260000D02*
X1291500D01*
X1290000Y1258500D02*
Y1261500D01*
X1288500Y1140000D02*
X1291500D01*
X1290000Y1138500D02*
Y1141500D01*
X1303500Y1110000D02*
X1306500D01*
X1305000Y1108500D02*
Y1111500D01*
X1303500Y1050000D02*
X1306500D01*
X1305000Y1048500D02*
Y1051500D01*
X1288500Y1020000D02*
X1291500D01*
X1290000Y1018500D02*
Y1021500D01*
X1288500Y960000D02*
X1291500D01*
X1290000Y958500D02*
Y961500D01*
X1303500Y930000D02*
X1306500D01*
X1305000Y928500D02*
Y931500D01*
X1288500Y900000D02*
X1291500D01*
X1290000Y898500D02*
Y901500D01*
X1288500Y840000D02*
X1291500D01*
X1290000Y838500D02*
Y841500D01*
X1288500Y720000D02*
X1291500D01*
X1290000Y718500D02*
Y721500D01*
X1303500Y690000D02*
X1306500D01*
X1305000Y688500D02*
Y691500D01*
X1288500Y660000D02*
X1291500D01*
X1290000Y658500D02*
Y661500D01*
X1288500Y600000D02*
X1291500D01*
X1290000Y598500D02*
Y601500D01*
X1303500Y510000D02*
X1306500D01*
X1305000Y508500D02*
Y511500D01*
X1288500Y420000D02*
X1291500D01*
X1290000Y418500D02*
Y421500D01*
X1273500Y1350000D02*
X1276500D01*
X1275000Y1348500D02*
Y1351500D01*
X1273500Y1290000D02*
X1276500D01*
X1275000Y1288500D02*
Y1291500D01*
X1273500Y1050000D02*
X1276500D01*
X1275000Y1048500D02*
Y1051500D01*
X1273500Y990000D02*
X1276500D01*
X1275000Y988500D02*
Y991500D01*
X1273500Y930000D02*
X1276500D01*
X1275000Y928500D02*
Y931500D01*
X1258500Y720000D02*
X1261500D01*
X1260000Y718500D02*
Y721500D01*
X1258500Y660000D02*
X1261500D01*
X1260000Y658500D02*
Y661500D01*
X1228500Y480000D02*
X1231500D01*
X1230000Y478500D02*
Y481500D01*
X1213500Y1290000D02*
X1216500D01*
X1215000Y1288500D02*
Y1291500D01*
X1213500Y1230000D02*
X1216500D01*
X1215000Y1228500D02*
Y1231500D01*
X1213500Y870000D02*
X1216500D01*
X1215000Y868500D02*
Y871500D01*
X1213500Y690000D02*
X1216500D01*
X1215000Y688500D02*
Y691500D01*
X1213500Y630000D02*
X1216500D01*
X1215000Y628500D02*
Y631500D01*
X1198500Y600000D02*
X1201500D01*
X1200000Y598500D02*
Y601500D01*
X1213500Y510000D02*
X1216500D01*
X1215000Y508500D02*
Y511500D01*
X1183500Y1290000D02*
X1186500D01*
X1185000Y1288500D02*
Y1291500D01*
X1168500Y900000D02*
X1171500D01*
X1170000Y898500D02*
Y901500D01*
X1183500Y870000D02*
X1186500D01*
X1185000Y868500D02*
Y871500D01*
X1168500Y840000D02*
X1171500D01*
X1170000Y838500D02*
Y841500D01*
X1183500Y690000D02*
X1186500D01*
X1185000Y688500D02*
Y691500D01*
X1183500Y630000D02*
X1186500D01*
X1185000Y628500D02*
Y631500D01*
X1168500Y600000D02*
X1171500D01*
X1170000Y598500D02*
Y601500D01*
X1138500Y1260000D02*
X1141500D01*
X1140000Y1258500D02*
Y1261500D01*
X1138500Y960000D02*
X1141500D01*
X1140000Y958500D02*
Y961500D01*
X1153500Y930000D02*
X1156500D01*
X1155000Y928500D02*
Y931500D01*
X1153500Y870000D02*
X1156500D01*
X1155000Y868500D02*
Y871500D01*
X1138500Y720000D02*
X1141500D01*
X1140000Y718500D02*
Y721500D01*
X1153500Y690000D02*
X1156500D01*
X1155000Y688500D02*
Y691500D01*
X1153500Y630000D02*
X1156500D01*
X1155000Y628500D02*
Y631500D01*
X1138500Y600000D02*
X1141500D01*
X1140000Y598500D02*
Y601500D01*
X1153500Y570000D02*
X1156500D01*
X1155000Y568500D02*
Y571500D01*
X1138500Y540000D02*
X1141500D01*
X1140000Y538500D02*
Y541500D01*
X1138500Y480000D02*
X1141500D01*
X1140000Y478500D02*
Y481500D01*
X1123500Y1350000D02*
X1126500D01*
X1125000Y1348500D02*
Y1351500D01*
X1123500Y1290000D02*
X1126500D01*
X1125000Y1288500D02*
Y1291500D01*
X1108500Y1260000D02*
X1111500D01*
X1110000Y1258500D02*
Y1261500D01*
X1108500Y900000D02*
X1111500D01*
X1110000Y898500D02*
Y901500D01*
X1123500Y630000D02*
X1126500D01*
X1125000Y628500D02*
Y631500D01*
X1108500Y600000D02*
X1111500D01*
X1110000Y598500D02*
Y601500D01*
X1123500Y510000D02*
X1126500D01*
X1125000Y508500D02*
Y511500D01*
X1093500Y1350000D02*
X1096500D01*
X1095000Y1348500D02*
Y1351500D01*
X1093500Y1290000D02*
X1096500D01*
X1095000Y1288500D02*
Y1291500D01*
X1078500Y1260000D02*
X1081500D01*
X1080000Y1258500D02*
Y1261500D01*
X1093500Y1230000D02*
X1096500D01*
X1095000Y1228500D02*
Y1231500D01*
X1078500Y840000D02*
X1081500D01*
X1080000Y838500D02*
Y841500D01*
X1093500Y690000D02*
X1096500D01*
X1095000Y688500D02*
Y691500D01*
X1078500Y600000D02*
X1081500D01*
X1080000Y598500D02*
Y601500D01*
X1078500Y540000D02*
X1081500D01*
X1080000Y538500D02*
Y541500D01*
X1078500Y480000D02*
X1081500D01*
X1080000Y478500D02*
Y481500D01*
X1063500Y870000D02*
X1066500D01*
X1065000Y868500D02*
Y871500D01*
X1048500Y840000D02*
X1051500D01*
X1050000Y838500D02*
Y841500D01*
X1048500Y600000D02*
X1051500D01*
X1050000Y598500D02*
Y601500D01*
X1063500Y570000D02*
X1066500D01*
X1065000Y568500D02*
Y571500D01*
X1048500Y540000D02*
X1051500D01*
X1050000Y538500D02*
Y541500D01*
X1063500Y510000D02*
X1066500D01*
X1065000Y508500D02*
Y511500D01*
X1048500Y480000D02*
X1051500D01*
X1050000Y478500D02*
Y481500D01*
X1033500Y1170000D02*
X1036500D01*
X1035000Y1168500D02*
Y1171500D01*
X1018500Y900000D02*
X1021500D01*
X1020000Y898500D02*
Y901500D01*
X1033500Y870000D02*
X1036500D01*
X1035000Y868500D02*
Y871500D01*
X1018500Y540000D02*
X1021500D01*
X1020000Y538500D02*
Y541500D01*
X1018500Y480000D02*
X1021500D01*
X1020000Y478500D02*
Y481500D01*
X988500Y1320000D02*
X991500D01*
X990000Y1318500D02*
Y1321500D01*
X1003500Y1110000D02*
X1006500D01*
X1005000Y1108500D02*
Y1111500D01*
X988500Y1080000D02*
X991500D01*
X990000Y1078500D02*
Y1081500D01*
X1003500Y1050000D02*
X1006500D01*
X1005000Y1048500D02*
Y1051500D01*
X1003500Y930000D02*
X1006500D01*
X1005000Y928500D02*
Y931500D01*
X988500Y900000D02*
X991500D01*
X990000Y898500D02*
Y901500D01*
X1003500Y870000D02*
X1006500D01*
X1005000Y868500D02*
Y871500D01*
X988500Y840000D02*
X991500D01*
X990000Y838500D02*
Y841500D01*
X988500Y600000D02*
X991500D01*
X990000Y598500D02*
Y601500D01*
X988500Y540000D02*
X991500D01*
X990000Y538500D02*
Y541500D01*
X1003500Y510000D02*
X1006500D01*
X1005000Y508500D02*
Y511500D01*
X973500Y1290000D02*
X976500D01*
X975000Y1288500D02*
Y1291500D01*
X973500Y1230000D02*
X976500D01*
X975000Y1228500D02*
Y1231500D01*
X958500Y1140000D02*
X961500D01*
X960000Y1138500D02*
Y1141500D01*
X973500Y1110000D02*
X976500D01*
X975000Y1108500D02*
Y1111500D01*
X958500Y1080000D02*
X961500D01*
X960000Y1078500D02*
Y1081500D01*
X973500Y990000D02*
X976500D01*
X975000Y988500D02*
Y991500D01*
X973500Y930000D02*
X976500D01*
X975000Y928500D02*
Y931500D01*
X973500Y870000D02*
X976500D01*
X975000Y868500D02*
Y871500D01*
X973500Y570000D02*
X976500D01*
X975000Y568500D02*
Y571500D01*
X958500Y540000D02*
X961500D01*
X960000Y538500D02*
Y541500D01*
X973500Y510000D02*
X976500D01*
X975000Y508500D02*
Y511500D01*
X943500Y1170000D02*
X946500D01*
X945000Y1168500D02*
Y1171500D01*
X928500Y1140000D02*
X931500D01*
X930000Y1138500D02*
Y1141500D01*
X943500Y1110000D02*
X946500D01*
X945000Y1108500D02*
Y1111500D01*
X928500Y1080000D02*
X931500D01*
X930000Y1078500D02*
Y1081500D01*
X928500Y1020000D02*
X931500D01*
X930000Y1018500D02*
Y1021500D01*
X943500Y990000D02*
X946500D01*
X945000Y988500D02*
Y991500D01*
X943500Y930000D02*
X946500D01*
X945000Y928500D02*
Y931500D01*
X943500Y870000D02*
X946500D01*
X945000Y868500D02*
Y871500D01*
X943500Y810000D02*
X946500D01*
X945000Y808500D02*
Y811500D01*
X928500Y660000D02*
X931500D01*
X930000Y658500D02*
Y661500D01*
X928500Y600000D02*
X931500D01*
X930000Y598500D02*
Y601500D01*
X943500Y510000D02*
X946500D01*
X945000Y508500D02*
Y511500D01*
X913500Y1170000D02*
X916500D01*
X915000Y1168500D02*
Y1171500D01*
X898500Y1140000D02*
X901500D01*
X900000Y1138500D02*
Y1141500D01*
X898500Y1020000D02*
X901500D01*
X900000Y1018500D02*
Y1021500D01*
X913500Y930000D02*
X916500D01*
X915000Y928500D02*
Y931500D01*
X898500Y900000D02*
X901500D01*
X900000Y898500D02*
Y901500D01*
X913500Y870000D02*
X916500D01*
X915000Y868500D02*
Y871500D01*
X883500Y1170000D02*
X886500D01*
X885000Y1168500D02*
Y1171500D01*
X868500Y1140000D02*
X871500D01*
X870000Y1138500D02*
Y1141500D01*
X868500Y1080000D02*
X871500D01*
X870000Y1078500D02*
Y1081500D01*
X868500Y900000D02*
X871500D01*
X870000Y898500D02*
Y901500D01*
X853500Y1170000D02*
X856500D01*
X855000Y1168500D02*
Y1171500D01*
X838500Y1140000D02*
X841500D01*
X840000Y1138500D02*
Y1141500D01*
X853500Y1110000D02*
X856500D01*
X855000Y1108500D02*
Y1111500D01*
X838500Y1080000D02*
X841500D01*
X840000Y1078500D02*
Y1081500D01*
X853500Y930000D02*
X856500D01*
X855000Y928500D02*
Y931500D01*
X838500Y900000D02*
X841500D01*
X840000Y898500D02*
Y901500D01*
X838500Y660000D02*
X841500D01*
X840000Y658500D02*
Y661500D01*
X853500Y630000D02*
X856500D01*
X855000Y628500D02*
Y631500D01*
X838500Y600000D02*
X841500D01*
X840000Y598500D02*
Y601500D01*
X838500Y540000D02*
X841500D01*
X840000Y538500D02*
Y541500D01*
X823500Y1170000D02*
X826500D01*
X825000Y1168500D02*
Y1171500D01*
X808500Y1140000D02*
X811500D01*
X810000Y1138500D02*
Y1141500D01*
X823500Y1110000D02*
X826500D01*
X825000Y1108500D02*
Y1111500D01*
X823500Y990000D02*
X826500D01*
X825000Y988500D02*
Y991500D01*
X823500Y870000D02*
X826500D01*
X825000Y868500D02*
Y871500D01*
X778500Y1140000D02*
X781500D01*
X780000Y1138500D02*
Y1141500D01*
X793500Y990000D02*
X796500D01*
X795000Y988500D02*
Y991500D01*
X793500Y870000D02*
X796500D01*
X795000Y868500D02*
Y871500D01*
X793500Y810000D02*
X796500D01*
X795000Y808500D02*
Y811500D01*
X748500Y1140000D02*
X751500D01*
X750000Y1138500D02*
Y1141500D01*
X748500Y1020000D02*
X751500D01*
X750000Y1018500D02*
Y1021500D01*
X748500Y840000D02*
X751500D01*
X750000Y838500D02*
Y841500D01*
X763500Y690000D02*
X766500D01*
X765000Y688500D02*
Y691500D01*
X763500Y630000D02*
X766500D01*
X765000Y628500D02*
Y631500D01*
X748500Y600000D02*
X751500D01*
X750000Y598500D02*
Y601500D01*
X733500Y1050000D02*
X736500D01*
X735000Y1048500D02*
Y1051500D01*
X718500Y1020000D02*
X721500D01*
X720000Y1018500D02*
Y1021500D01*
X733500Y930000D02*
X736500D01*
X735000Y928500D02*
Y931500D01*
X703500Y1050000D02*
X706500D01*
X705000Y1048500D02*
Y1051500D01*
X688500Y1020000D02*
X691500D01*
X690000Y1018500D02*
Y1021500D01*
X703500Y990000D02*
X706500D01*
X705000Y988500D02*
Y991500D01*
X658500Y1260000D02*
X661500D01*
X660000Y1258500D02*
Y1261500D01*
X673500Y1050000D02*
X676500D01*
X675000Y1048500D02*
Y1051500D01*
X658500Y1020000D02*
X661500D01*
X660000Y1018500D02*
Y1021500D01*
X673500Y990000D02*
X676500D01*
X675000Y988500D02*
Y991500D01*
X673500Y930000D02*
X676500D01*
X675000Y928500D02*
Y931500D01*
X673500Y870000D02*
X676500D01*
X675000Y868500D02*
Y871500D01*
X673500Y750000D02*
X676500D01*
X675000Y748500D02*
Y751500D01*
X658500Y720000D02*
X661500D01*
X660000Y718500D02*
Y721500D01*
X643500Y1350000D02*
X646500D01*
X645000Y1348500D02*
Y1351500D01*
X628500Y1320000D02*
X631500D01*
X630000Y1318500D02*
Y1321500D01*
X643500Y1290000D02*
X646500D01*
X645000Y1288500D02*
Y1291500D01*
X628500Y1260000D02*
X631500D01*
X630000Y1258500D02*
Y1261500D01*
X643500Y1230000D02*
X646500D01*
X645000Y1228500D02*
Y1231500D01*
X628500Y1140000D02*
X631500D01*
X630000Y1138500D02*
Y1141500D01*
X643500Y1110000D02*
X646500D01*
X645000Y1108500D02*
Y1111500D01*
X628500Y1020000D02*
X631500D01*
X630000Y1018500D02*
Y1021500D01*
X643500Y990000D02*
X646500D01*
X645000Y988500D02*
Y991500D01*
X628500Y900000D02*
X631500D01*
X630000Y898500D02*
Y901500D01*
X643500Y870000D02*
X646500D01*
X645000Y868500D02*
Y871500D01*
X643500Y750000D02*
X646500D01*
X645000Y748500D02*
Y751500D01*
X628500Y720000D02*
X631500D01*
X630000Y718500D02*
Y721500D01*
X613500Y1350000D02*
X616500D01*
X615000Y1348500D02*
Y1351500D01*
X613500Y1290000D02*
X616500D01*
X615000Y1288500D02*
Y1291500D01*
X613500Y1110000D02*
X616500D01*
X615000Y1108500D02*
Y1111500D01*
X613500Y1050000D02*
X616500D01*
X615000Y1048500D02*
Y1051500D01*
X598500Y1020000D02*
X601500D01*
X600000Y1018500D02*
Y1021500D01*
X613500Y990000D02*
X616500D01*
X615000Y988500D02*
Y991500D01*
X613500Y930000D02*
X616500D01*
X615000Y928500D02*
Y931500D01*
X613500Y870000D02*
X616500D01*
X615000Y868500D02*
Y871500D01*
X598500Y840000D02*
X601500D01*
X600000Y838500D02*
Y841500D01*
X613500Y750000D02*
X616500D01*
X615000Y748500D02*
Y751500D01*
X613500Y690000D02*
X616500D01*
X615000Y688500D02*
Y691500D01*
X613500Y450000D02*
X616500D01*
X615000Y448500D02*
Y451500D01*
X568500Y1140000D02*
X571500D01*
X570000Y1138500D02*
Y1141500D01*
X568500Y1020000D02*
X571500D01*
X570000Y1018500D02*
Y1021500D01*
X583500Y810000D02*
X586500D01*
X585000Y808500D02*
Y811500D01*
X568500Y660000D02*
X571500D01*
X570000Y658500D02*
Y661500D01*
X538500Y1020000D02*
X541500D01*
X540000Y1018500D02*
Y1021500D01*
X538500Y900000D02*
X541500D01*
X540000Y898500D02*
Y901500D01*
X553500Y870000D02*
X556500D01*
X555000Y868500D02*
Y871500D01*
X538500Y840000D02*
X541500D01*
X540000Y838500D02*
Y841500D01*
X553500Y810000D02*
X556500D01*
X555000Y808500D02*
Y811500D01*
X538500Y780000D02*
X541500D01*
X540000Y778500D02*
Y781500D01*
X553500Y690000D02*
X556500D01*
X555000Y688500D02*
Y691500D01*
X508500Y1380000D02*
X511500D01*
X510000Y1378500D02*
Y1381500D01*
X508500Y1320000D02*
X511500D01*
X510000Y1318500D02*
Y1321500D01*
X523500Y1290000D02*
X526500D01*
X525000Y1288500D02*
Y1291500D01*
X523500Y990000D02*
X526500D01*
X525000Y988500D02*
Y991500D01*
X508500Y900000D02*
X511500D01*
X510000Y898500D02*
Y901500D01*
X523500Y870000D02*
X526500D01*
X525000Y868500D02*
Y871500D01*
X508500Y840000D02*
X511500D01*
X510000Y838500D02*
Y841500D01*
X523500Y810000D02*
X526500D01*
X525000Y808500D02*
Y811500D01*
X508500Y780000D02*
X511500D01*
X510000Y778500D02*
Y781500D01*
X566190Y528320D02*
X569190D01*
X567690Y526820D02*
Y529820D01*
X999260Y1243330D02*
X1002260D01*
X1000760Y1241830D02*
Y1244830D01*
X993490Y1211580D02*
X996490D01*
X994990Y1210080D02*
Y1213080D01*
X1004340Y1296670D02*
X1007340D01*
X1005840Y1295170D02*
Y1298170D01*
X1453920Y554990D02*
X1456920D01*
X1455420Y553490D02*
Y556490D01*
X1320840Y464820D02*
X1325840D01*
X1323340Y462320D02*
Y467320D01*
X1267230Y425300D02*
X1270230D01*
X1268730Y423800D02*
Y426800D01*
X1249450Y422910D02*
X1252450D01*
X1250950Y421410D02*
Y424410D01*
X1436140Y546100D02*
X1439140D01*
X1437640Y544600D02*
Y547600D01*
X1011355Y654180D02*
X1014355D01*
X1012855Y652680D02*
Y655680D01*
X538250Y600710D02*
X541250D01*
X539750Y599210D02*
Y602210D01*
X1104670Y560070D02*
X1107670D01*
X1106170Y558570D02*
Y561570D01*
X1118640Y570230D02*
X1121640D01*
X1120140Y568730D02*
Y571730D01*
X911284Y1118524D02*
X914285D01*
X912785Y1117025D02*
Y1120024D01*
X917980Y1102360D02*
X920980D01*
X919480Y1100860D02*
Y1103860D01*
X911284Y1086196D02*
X914285D01*
X912785Y1084696D02*
Y1087695D01*
X895120Y1079500D02*
X898120D01*
X896620Y1078000D02*
Y1081000D01*
X878956Y1086196D02*
X881955D01*
X880455Y1084696D02*
Y1087695D01*
X872260Y1102360D02*
X875260D01*
X873760Y1100860D02*
Y1103860D01*
X878956Y1118524D02*
X881955D01*
X880455Y1117025D02*
Y1120024D01*
X895120Y1125220D02*
X898120D01*
X896620Y1123720D02*
Y1126720D01*
X1028124Y590205D02*
X1031124D01*
X1029624Y588704D02*
Y591704D01*
X1034820Y574040D02*
X1037820D01*
X1036320Y572540D02*
Y575540D01*
X1028124Y557876D02*
X1031124D01*
X1029624Y556376D02*
Y559375D01*
X1011960Y551180D02*
X1014960D01*
X1013460Y549680D02*
Y552680D01*
X995796Y557876D02*
X998795D01*
X997296Y556376D02*
Y559375D01*
X989100Y574040D02*
X992100D01*
X990600Y572540D02*
Y575540D01*
X995796Y590205D02*
X998795D01*
X997296Y588704D02*
Y591704D01*
X1011960Y596900D02*
X1014960D01*
X1013460Y595400D02*
Y598400D01*
X1443414Y469554D02*
X1446414D01*
X1444915Y468055D02*
Y471054D01*
X1450110Y453390D02*
X1453110D01*
X1451610Y451890D02*
Y454890D01*
X1443414Y437225D02*
X1446414D01*
X1444915Y435726D02*
Y438726D01*
X1427250Y430530D02*
X1430250D01*
X1428750Y429030D02*
Y432030D01*
X1411086Y437225D02*
X1414086D01*
X1412585Y435726D02*
Y438726D01*
X1404390Y453390D02*
X1407390D01*
X1405890Y451890D02*
Y454890D01*
X1411086Y469554D02*
X1414086D01*
X1412585Y468055D02*
Y471054D01*
X1427250Y476250D02*
X1430250D01*
X1428750Y474750D02*
Y477750D01*
X1425634Y1241714D02*
X1428634D01*
X1427135Y1240214D02*
Y1243214D01*
X1432330Y1225550D02*
X1435330D01*
X1433830Y1224050D02*
Y1227050D01*
X1425634Y1209386D02*
X1428634D01*
X1427135Y1207886D02*
Y1210885D01*
X1409470Y1202690D02*
X1412470D01*
X1410970Y1201190D02*
Y1204190D01*
X1393306Y1209386D02*
X1396306D01*
X1394805Y1207886D02*
Y1210885D01*
X1386610Y1225550D02*
X1389610D01*
X1388110Y1224050D02*
Y1227050D01*
X1393306Y1241714D02*
X1396306D01*
X1394805Y1240214D02*
Y1243214D01*
X1409470Y1248410D02*
X1412470D01*
X1410970Y1246910D02*
Y1249910D01*
X1399310Y1313180D02*
X1402310D01*
X1400810Y1311680D02*
Y1314680D01*
X1365020Y1313180D02*
X1368020D01*
X1366520Y1311680D02*
Y1314680D01*
X1330730Y1313180D02*
X1333730D01*
X1332230Y1311680D02*
Y1314680D01*
X1291360Y1309370D02*
X1294360D01*
X1292860Y1307870D02*
Y1310870D01*
X1399742Y1105332D02*
X1402742D01*
X1401242Y1103832D02*
Y1106832D01*
X1377720Y1096010D02*
X1380720D01*
X1379220Y1094510D02*
Y1097510D01*
X1417090Y1099820D02*
X1420090D01*
X1418590Y1098320D02*
Y1101320D01*
X1273580Y1104280D02*
X1276580D01*
X1275080Y1102780D02*
Y1105780D01*
X1273580Y1097280D02*
X1276580D01*
X1275080Y1095780D02*
Y1098780D01*
X1289440Y1092200D02*
X1292440D01*
X1290940Y1090700D02*
Y1093700D01*
X1296440Y1092200D02*
X1299440D01*
X1297940Y1090700D02*
Y1093700D01*
X1236863Y1104268D02*
X1239863D01*
X1238363Y1102768D02*
Y1105768D01*
X1332000Y1116330D02*
X1335000D01*
X1333500Y1114830D02*
Y1117830D01*
X1332000Y1125220D02*
X1335000D01*
X1333500Y1123720D02*
Y1126720D01*
X630960Y855980D02*
X633960D01*
X632460Y854480D02*
Y857480D01*
X1237452Y764951D02*
X1240452D01*
X1238952Y763451D02*
Y766451D01*
X1230400Y776630D02*
X1233400D01*
X1231900Y775130D02*
Y778130D01*
X1005150Y801980D02*
X1008150D01*
X1006650Y800480D02*
Y803480D01*
X1055140Y824230D02*
X1058140D01*
X1056640Y822730D02*
Y825730D01*
X1208810Y840740D02*
X1211810D01*
X1210310Y839240D02*
Y842240D01*
X1222780Y810260D02*
X1225780D01*
X1224280Y808760D02*
Y811760D01*
X1265960Y759460D02*
X1268960D01*
X1267460Y757960D02*
Y760960D01*
X1338350Y765810D02*
X1341350D01*
X1339850Y764310D02*
Y767310D01*
X1365020Y562610D02*
X1368020D01*
X1366520Y561110D02*
Y564110D01*
X1181980Y1322070D02*
X1184980D01*
X1183480Y1320570D02*
Y1323570D01*
X1151660Y1214120D02*
X1154660D01*
X1153160Y1212620D02*
Y1215620D01*
X1082470Y1134740D02*
X1085470D01*
X1083970Y1133240D02*
Y1136240D01*
X1121180Y1139190D02*
X1124180D01*
X1122680Y1137690D02*
Y1140690D01*
X1131610Y1156970D02*
X1136610D01*
X1134110Y1154470D02*
Y1159470D01*
X1051330Y1149350D02*
X1054330D01*
X1052830Y1147850D02*
Y1150850D01*
X1053870Y1160780D02*
X1056870D01*
X1055370Y1159280D02*
Y1162280D01*
X1063770Y1195225D02*
X1066769D01*
X1065269Y1193725D02*
Y1196724D01*
X1057680Y1101090D02*
X1060680D01*
X1059180Y1099590D02*
Y1102590D01*
X1133880Y1024890D02*
X1136880D01*
X1135380Y1023390D02*
Y1026390D01*
X870990Y967740D02*
X873990D01*
X872490Y966240D02*
Y969240D01*
X1036090Y967740D02*
X1039090D01*
X1037590Y966240D02*
Y969240D01*
X1089430Y1033780D02*
X1092430D01*
X1090930Y1032280D02*
Y1035280D01*
X1070380Y1068070D02*
X1073380D01*
X1071880Y1066570D02*
Y1069570D01*
X1064030Y1076960D02*
X1067030D01*
X1065530Y1075460D02*
Y1078460D01*
X1169440Y1041400D02*
X1172440D01*
X1170940Y1039900D02*
Y1042900D01*
X1348510Y1083310D02*
X1351510D01*
X1350010Y1081810D02*
Y1084810D01*
X826540Y1323340D02*
X829540D01*
X828040Y1321840D02*
Y1324840D01*
X891310Y1311910D02*
X894310D01*
X892810Y1310410D02*
Y1313410D01*
X730020Y1308100D02*
X733020D01*
X731520Y1306600D02*
Y1309600D01*
X731290Y1315720D02*
X734290D01*
X732790Y1314220D02*
Y1317220D01*
X650010Y1309370D02*
X653010D01*
X651510Y1307870D02*
Y1310870D01*
X650010Y1316990D02*
X653010D01*
X651510Y1315490D02*
Y1318490D01*
X1361210Y1082040D02*
X1364210D01*
X1362710Y1080540D02*
Y1083540D01*
X1264690Y1117600D02*
X1267690D01*
X1266190Y1116100D02*
Y1119100D01*
X1198650Y1130300D02*
X1201650D01*
X1200150Y1128800D02*
Y1131800D01*
X1264690Y1125220D02*
X1267690D01*
X1266190Y1123720D02*
Y1126720D01*
X1121180Y1117600D02*
X1124180D01*
X1122680Y1116100D02*
Y1119100D01*
X1061490Y1123950D02*
X1064490D01*
X1062990Y1122450D02*
Y1125450D01*
X977670Y1116330D02*
X980670D01*
X979170Y1114830D02*
Y1117830D01*
X994180Y1102360D02*
X997180D01*
X995680Y1100860D02*
Y1103860D01*
X962430Y889000D02*
X965430D01*
X963930Y887500D02*
Y890500D01*
X952270Y889000D02*
X955270D01*
X953770Y887500D02*
Y890500D01*
X943380Y889000D02*
X946380D01*
X944880Y887500D02*
Y890500D01*
X843050Y881380D02*
X846050D01*
X844550Y879880D02*
Y882880D01*
X810030Y882650D02*
X813030D01*
X811530Y881150D02*
Y884150D01*
X681760Y927100D02*
X684760D01*
X683260Y925600D02*
Y928600D01*
X681760Y935990D02*
X684760D01*
X683260Y934490D02*
Y937490D01*
X681760Y946150D02*
X684760D01*
X683260Y944650D02*
Y947650D01*
X647470Y939800D02*
X650470D01*
X648970Y938300D02*
Y941300D01*
X647470Y929640D02*
X650470D01*
X648970Y928140D02*
Y931140D01*
X558570Y722630D02*
X561570D01*
X560070Y721130D02*
Y724130D01*
X550950Y725170D02*
X553950D01*
X552450Y723670D02*
Y726670D01*
X517930Y463550D02*
X520930D01*
X519430Y462050D02*
Y465050D01*
X528090Y444500D02*
X531090D01*
X529590Y443000D02*
Y446000D01*
X839240Y608330D02*
X842240D01*
X840740Y606830D02*
Y609830D01*
X839240Y617220D02*
X842240D01*
X840740Y615720D02*
Y618720D01*
X839240Y626110D02*
X842240D01*
X840740Y624610D02*
Y627610D01*
X909090Y650240D02*
X912090D01*
X910590Y648740D02*
Y651740D01*
X930680Y631190D02*
X933680D01*
X932180Y629690D02*
Y632690D01*
X972590Y645160D02*
X975590D01*
X974090Y643660D02*
Y646660D01*
X1041170Y741680D02*
X1044170D01*
X1042670Y740180D02*
Y743180D01*
X1099590Y732790D02*
X1102590D01*
X1101090Y731290D02*
Y734290D01*
X1099590Y706120D02*
X1102590D01*
X1101090Y704620D02*
Y707620D01*
X1097050Y669290D02*
X1100050D01*
X1098550Y667790D02*
Y670790D01*
X1243100Y707390D02*
X1246100D01*
X1244600Y705890D02*
Y708890D01*
X1381530Y551180D02*
X1384530D01*
X1383030Y549680D02*
Y552680D01*
X1428520Y844550D02*
X1431520D01*
X1430020Y843050D02*
Y846050D01*
X1376450Y772160D02*
X1379450D01*
X1377950Y770660D02*
Y773660D01*
X1368830Y953770D02*
X1371830D01*
X1370330Y952270D02*
Y955270D01*
X1368830Y946150D02*
X1371830D01*
X1370330Y944650D02*
Y947650D01*
X1361210Y941070D02*
X1364210D01*
X1362710Y939570D02*
Y942570D01*
X1353590Y941070D02*
X1356590D01*
X1355090Y939570D02*
Y942570D01*
X1312950Y965200D02*
X1315950D01*
X1314450Y963700D02*
Y966700D01*
X1368830Y990600D02*
X1371830D01*
X1370330Y989100D02*
Y992100D01*
X1412010Y1035050D02*
X1415010D01*
X1413510Y1033550D02*
Y1036550D01*
X1410740Y1160780D02*
X1413740D01*
X1412240Y1159280D02*
Y1162280D01*
X1262150Y1202690D02*
X1265150D01*
X1263650Y1201190D02*
Y1204190D01*
X1281200Y1220470D02*
X1284200D01*
X1282700Y1218970D02*
Y1221970D01*
X1311680Y1153160D02*
X1314680D01*
X1313180Y1151660D02*
Y1154660D01*
X1332000Y1170940D02*
X1335000D01*
X1333500Y1169440D02*
Y1172440D01*
X1414550Y1342390D02*
X1417550D01*
X1416050Y1340890D02*
Y1343890D01*
X1380260Y1343660D02*
X1383260D01*
X1381760Y1342160D02*
Y1345160D01*
X1347240Y1342390D02*
X1350240D01*
X1348740Y1340890D02*
Y1343890D01*
X1314220Y1341120D02*
X1317220D01*
X1315720Y1339620D02*
Y1342620D01*
X1232940Y1290320D02*
X1235940D01*
X1234440Y1288820D02*
Y1291820D01*
X1100860Y1313180D02*
X1103860D01*
X1102360Y1311680D02*
Y1314680D01*
X1093240Y1236980D02*
X1096240D01*
X1094740Y1235480D02*
Y1238480D01*
X1161820Y1225550D02*
X1164820D01*
X1163320Y1224050D02*
Y1227050D01*
X1128800Y1250950D02*
X1131800D01*
X1130300Y1249450D02*
Y1252450D01*
X1023390Y1009446D02*
X1026390D01*
X1024890Y1007946D02*
Y1010946D01*
X1095475Y860755D02*
X1098475D01*
X1096975Y859255D02*
Y862255D01*
X1084350Y1065530D02*
X1087350D01*
X1085850Y1064030D02*
Y1067030D01*
X1121180Y1101090D02*
X1124180D01*
X1122680Y1099590D02*
Y1102590D01*
X941110Y542290D02*
X946110D01*
X943610Y539790D02*
Y544790D01*
X1044980Y647700D02*
X1047980D01*
X1046480Y646200D02*
Y649200D01*
X1058950Y430670D02*
X1061950D01*
X1060450Y429170D02*
Y432170D01*
X1164360Y1083310D02*
X1167360D01*
X1165860Y1081810D02*
Y1084810D01*
X1210500Y1160690D02*
X1213500D01*
X1212000Y1159190D02*
Y1162190D01*
X1201577Y1151767D02*
X1204577D01*
X1203077Y1150267D02*
Y1153267D01*
X945455Y679450D02*
X950455D01*
X947955Y676950D02*
Y681950D01*
X948793Y691164D02*
X953793D01*
X951293Y688664D02*
Y693664D01*
X1136420Y1206500D02*
X1139420D01*
X1137920Y1205000D02*
Y1208000D01*
X931585Y1190895D02*
X934585D01*
X933085Y1189395D02*
Y1192395D01*
X577620Y981710D02*
X580620D01*
X579120Y980210D02*
Y983210D01*
X568730Y976630D02*
X571730D01*
X570230Y975130D02*
Y978130D01*
X587780Y886460D02*
X590780D01*
X589280Y884960D02*
Y887960D01*
X595881Y883628D02*
X598881D01*
X597381Y882128D02*
Y885128D01*
X958890Y664550D02*
X963890D01*
X961390Y662050D02*
Y667050D01*
X867718Y601712D02*
X872718D01*
X870218Y599212D02*
Y604212D01*
X853345Y559935D02*
X858345D01*
X855845Y557435D02*
Y562435D01*
X868720Y577850D02*
X873720D01*
X871220Y575350D02*
Y580350D01*
X1133880Y1197610D02*
X1136880D01*
X1135380Y1196110D02*
Y1199110D01*
X985290Y1205230D02*
X988290D01*
X986790Y1203730D02*
Y1206730D01*
X1014500Y1234440D02*
X1017500D01*
X1016000Y1232940D02*
Y1235940D01*
X931950Y1182370D02*
X934950D01*
X933450Y1180870D02*
Y1183870D01*
X821460Y1187810D02*
X824460D01*
X822960Y1186310D02*
Y1189310D01*
X1206270Y947420D02*
X1209270D01*
X1207770Y945920D02*
Y948920D01*
X1199797Y950083D02*
X1202796D01*
X1201296Y948583D02*
Y951583D01*
X1180870Y915670D02*
X1183870D01*
X1182370Y914170D02*
Y917170D01*
X1095780Y852170D02*
X1098780D01*
X1097280Y850670D02*
Y853670D01*
X916710Y800100D02*
X919710D01*
X918210Y798600D02*
Y801600D01*
X778210Y788670D02*
X781209D01*
X779709Y787170D02*
Y790170D01*
X841780Y776650D02*
X844780D01*
X843280Y775150D02*
Y778150D01*
X909090Y807720D02*
X912090D01*
X910590Y806220D02*
Y809220D01*
X1182140Y923290D02*
X1185140D01*
X1183640Y921790D02*
Y924790D01*
X1222780Y920750D02*
X1225780D01*
X1224280Y919250D02*
Y922250D01*
X1225320Y913130D02*
X1228320D01*
X1226820Y911630D02*
Y914630D01*
X738910Y636270D02*
X741910D01*
X740410Y634770D02*
Y637770D01*
X738910Y643270D02*
X741910D01*
X740410Y641770D02*
Y644770D01*
X622070Y575310D02*
X625070D01*
X623570Y573810D02*
Y576810D01*
X610640Y586163D02*
X613640D01*
X612140Y584663D02*
Y587663D01*
X1279930Y880110D02*
X1282930D01*
X1281430Y878610D02*
Y881610D01*
X1349780Y843280D02*
X1352780D01*
X1351280Y841780D02*
Y844780D01*
X1100330Y432330D02*
X1103330D01*
X1101830Y430830D02*
Y433830D01*
X848400Y482470D02*
X853400D01*
X850900Y479970D02*
Y484970D01*
X644930Y435485D02*
X647930D01*
X646430Y433985D02*
Y436985D01*
X650464Y439772D02*
X653464D01*
X651964Y438272D02*
Y441272D01*
X653552Y532398D02*
X656552D01*
X655052Y530898D02*
Y533898D01*
X597940Y624840D02*
X600940D01*
X599440Y623340D02*
Y626340D01*
X645200Y467360D02*
X650200D01*
X647700Y464860D02*
Y469860D01*
X1229130Y674370D02*
X1232130D01*
X1230630Y672870D02*
Y675870D01*
X1111020Y683260D02*
X1114020D01*
X1112520Y681760D02*
Y684760D01*
X775740Y585470D02*
X778740D01*
X777240Y583970D02*
Y586970D01*
X696726Y489224D02*
X699726D01*
X698226Y487724D02*
Y490724D01*
X1190656Y1110876D02*
X1193656D01*
X1192156Y1109376D02*
Y1112376D01*
X1257070Y763270D02*
X1260070D01*
X1258570Y761770D02*
Y764770D01*
X1177060Y1116312D02*
X1180060D01*
X1178560Y1114812D02*
Y1117812D01*
X1246910Y763270D02*
X1249910D01*
X1248410Y761770D02*
Y764770D01*
X1181360Y1144270D02*
X1184360D01*
X1182860Y1142770D02*
Y1145770D01*
X1177060Y1136650D02*
X1180060D01*
X1178560Y1135150D02*
Y1138150D01*
X1177060Y1126490D02*
X1180060D01*
X1178560Y1124990D02*
Y1127990D01*
X1116100Y659130D02*
X1119100D01*
X1117600Y657630D02*
Y660630D01*
X862100Y855700D02*
X865100D01*
X863600Y854200D02*
Y857200D01*
X884960Y858520D02*
X887960D01*
X886460Y857020D02*
Y860020D01*
X1124990Y919480D02*
X1127990D01*
X1126490Y917980D02*
Y920980D01*
X1175790Y967740D02*
X1178790D01*
X1177290Y966240D02*
Y969240D01*
X1095780Y915670D02*
X1098780D01*
X1097280Y914170D02*
Y917170D01*
X1165630Y976630D02*
X1168630D01*
X1167130Y975130D02*
Y978130D01*
X657900Y548640D02*
X662900D01*
X660400Y546140D02*
Y551140D01*
X661440Y568960D02*
X664440D01*
X662940Y567460D02*
Y570460D01*
X721400Y539750D02*
X726400D01*
X723900Y537250D02*
Y542250D01*
X1141770Y506730D02*
X1146770D01*
X1144270Y504230D02*
Y509230D01*
X1122720Y528320D02*
X1127720D01*
X1125220Y525820D02*
Y530820D01*
X1245910Y467360D02*
X1250910D01*
X1248410Y464860D02*
Y469860D01*
X1279246Y497524D02*
X1284246D01*
X1281746Y495024D02*
Y500024D01*
X1362750Y518160D02*
X1367750D01*
X1365250Y515660D02*
Y520660D01*
X1165900Y501650D02*
X1170900D01*
X1168400Y499150D02*
Y504150D01*
X1211620Y464820D02*
X1216620D01*
X1214120Y462320D02*
Y467320D01*
X1264960Y601980D02*
X1269960D01*
X1267460Y599480D02*
Y604480D01*
X1239560Y601980D02*
X1244560D01*
X1242060Y599480D02*
Y604480D01*
X927140Y690880D02*
X932140D01*
X929640Y688380D02*
Y693380D01*
X845860Y687070D02*
X850860D01*
X848360Y684570D02*
Y689570D01*
X1038630Y1073150D02*
X1041630D01*
X1040130Y1071650D02*
Y1074650D01*
X1126624Y1093632D02*
X1129623D01*
X1128123Y1092132D02*
Y1095132D01*
X876070Y1283970D02*
X879070D01*
X877570Y1282470D02*
Y1285470D01*
X837970Y1324610D02*
X840970D01*
X839470Y1323110D02*
Y1326110D01*
X807490Y1296670D02*
X810490D01*
X808990Y1295170D02*
Y1298170D01*
X792250Y1277620D02*
X795250D01*
X793750Y1276120D02*
Y1279120D01*
X699540Y1270000D02*
X702540D01*
X701040Y1268500D02*
Y1271500D01*
X765580Y1258570D02*
X768580D01*
X767080Y1257070D02*
Y1260070D01*
X726480Y1224010D02*
X729480D01*
X727980Y1222510D02*
Y1225510D01*
X812570Y1258570D02*
X815570D01*
X814070Y1257070D02*
Y1260070D01*
X810030Y1247140D02*
X813030D01*
X811530Y1245640D02*
Y1248640D01*
X867180Y1266230D02*
X870180D01*
X868680Y1264730D02*
Y1267730D01*
X658900Y840740D02*
X661900D01*
X660400Y839240D02*
Y842240D01*
X680490Y815340D02*
X683490D01*
X681990Y813840D02*
Y816840D01*
X662710Y669290D02*
X665710D01*
X664210Y667790D02*
Y670790D01*
X839240Y930910D02*
X842240D01*
X840740Y929410D02*
Y932410D01*
X886230Y1005840D02*
X889230D01*
X887730Y1004340D02*
Y1007340D01*
X818920Y1080770D02*
X821920D01*
X820420Y1079270D02*
Y1082270D01*
X963970Y702310D02*
X968970D01*
X966470Y699810D02*
Y704810D01*
X1016040Y690880D02*
X1021040D01*
X1018540Y688380D02*
Y693380D01*
X1046250Y693420D02*
X1049250D01*
X1047750Y691920D02*
Y694920D01*
X1022390Y673100D02*
X1027390D01*
X1024890Y670600D02*
Y675600D01*
X777280Y637540D02*
X782280D01*
X779780Y635040D02*
Y640040D01*
X924600Y502920D02*
X929600D01*
X927100Y500420D02*
Y505420D01*
X802680Y554990D02*
X807680D01*
X805180Y552490D02*
Y557490D01*
X765850Y562610D02*
X770850D01*
X768350Y560110D02*
Y565110D01*
X765850Y549910D02*
X770850D01*
X768350Y547410D02*
Y552410D01*
X854750Y547370D02*
X859750D01*
X857250Y544870D02*
Y549870D01*
X1154200Y1352550D02*
X1157200D01*
X1155700Y1351050D02*
Y1354050D01*
X601750Y1377155D02*
X604750D01*
X603250Y1375655D02*
Y1378655D01*
X1062760Y1322070D02*
X1065760D01*
X1064260Y1320570D02*
Y1323570D01*
X1071920Y1321070D02*
X1074920D01*
X1073420Y1319570D02*
Y1322570D01*
X1068131Y1262706D02*
X1071131D01*
X1069631Y1261206D02*
Y1264206D01*
X1061490Y1264920D02*
X1064490D01*
X1062990Y1263420D02*
Y1266420D01*
X1020850Y1085850D02*
X1023850D01*
X1022350Y1084350D02*
Y1087350D01*
X1198650Y1201420D02*
X1201650D01*
X1200150Y1199920D02*
Y1202920D01*
X1201190Y1216660D02*
X1204190D01*
X1202690Y1215160D02*
Y1218160D01*
X1028470Y1130300D02*
X1031470D01*
X1029970Y1128800D02*
Y1131800D01*
X1080380Y1106270D02*
X1083380D01*
X1081880Y1104770D02*
Y1107770D01*
X662710Y1390650D02*
X665710D01*
X664210Y1389150D02*
Y1392150D01*
X1283740Y1375410D02*
X1286740D01*
X1285240Y1373910D02*
Y1376910D01*
X1242730Y1341550D02*
X1245730D01*
X1244230Y1340050D02*
Y1343050D01*
X1268500Y1372870D02*
X1271500D01*
X1270000Y1371370D02*
Y1374370D01*
X1253260Y1363980D02*
X1256260D01*
X1254760Y1362480D02*
Y1365480D01*
X893692Y1231742D02*
X896692D01*
X895192Y1230242D02*
Y1233242D01*
X837970Y1283230D02*
X840970D01*
X839470Y1281730D02*
Y1284730D01*
X755420Y1323340D02*
X758420D01*
X756920Y1321840D02*
Y1324840D01*
X799870Y1322070D02*
X802870D01*
X801370Y1320570D02*
Y1323570D01*
X917980Y1323340D02*
X920980D01*
X919480Y1321840D02*
Y1324840D01*
X919250Y1278890D02*
X922250D01*
X920750Y1277390D02*
Y1280390D01*
X685570Y1277620D02*
X688570D01*
X687070Y1276120D02*
Y1279120D01*
X667790Y1334770D02*
X670790D01*
X669290Y1333270D02*
Y1336270D01*
X912900Y1336040D02*
X915900D01*
X914400Y1334540D02*
Y1337540D01*
X749070Y1336040D02*
X752070D01*
X750570Y1334540D02*
Y1337540D01*
X829080Y1338580D02*
X832080D01*
X830580Y1337080D02*
Y1340080D01*
X718860Y1337310D02*
X723860D01*
X721360Y1334810D02*
Y1339810D01*
X797600Y1337310D02*
X802600D01*
X800100Y1334810D02*
Y1339810D01*
X878880Y1338580D02*
X883880D01*
X881380Y1336080D02*
Y1341080D01*
X966510Y1352550D02*
X971510D01*
X969010Y1350050D02*
Y1355050D01*
X608100Y1212850D02*
X611100D01*
X609600Y1211350D02*
Y1214350D01*
X674140Y1176020D02*
X677140D01*
X675640Y1174520D02*
Y1177520D01*
X653820Y1182370D02*
X656820D01*
X655320Y1180870D02*
Y1183870D01*
X663980Y1135380D02*
X666980D01*
X665480Y1133880D02*
Y1136880D01*
X691920Y1140460D02*
X694920D01*
X693420Y1138960D02*
Y1141960D01*
X628420Y1148080D02*
X631420D01*
X629920Y1146580D02*
Y1149580D01*
X752880Y1225550D02*
X755880D01*
X754380Y1224050D02*
Y1227050D01*
X698270Y1225550D02*
X701270D01*
X699770Y1224050D02*
Y1227050D01*
X672870Y1225550D02*
X675870D01*
X674370Y1224050D02*
Y1227050D01*
X1205000Y1235710D02*
X1208000D01*
X1206500Y1234210D02*
Y1237210D01*
X1189760Y1308100D02*
X1192760D01*
X1191260Y1306600D02*
Y1309600D01*
X1177640Y1211580D02*
X1180640D01*
X1179140Y1210080D02*
Y1213080D01*
X1166900Y1351280D02*
X1169900D01*
X1168400Y1349780D02*
Y1352780D01*
X1210080Y1351280D02*
X1213080D01*
X1211580Y1349780D02*
Y1352780D01*
X1362480Y1263650D02*
X1365480D01*
X1363980Y1262150D02*
Y1265150D01*
X1338350Y1263650D02*
X1341350D01*
X1339850Y1262150D02*
Y1265150D01*
X1312950Y1264920D02*
X1315950D01*
X1314450Y1263420D02*
Y1266420D01*
X1282470Y1266190D02*
X1285470D01*
X1283970Y1264690D02*
Y1267690D01*
X1357400Y1064260D02*
X1360400D01*
X1358900Y1062760D02*
Y1065760D01*
X1404390Y849630D02*
X1407390D01*
X1405890Y848130D02*
Y851130D01*
X1123720Y1033780D02*
X1126720D01*
X1125220Y1032280D02*
Y1035280D01*
X967510Y1014730D02*
X970510D01*
X969010Y1013230D02*
Y1016230D01*
X1310680Y924560D02*
X1315680D01*
X1313180Y922060D02*
Y927060D01*
X1341160Y972820D02*
X1346160D01*
X1343660Y970320D02*
Y975320D01*
X1321840Y1002030D02*
X1324840D01*
X1323340Y1000530D02*
Y1003530D01*
M02*
