M48
;Layer_Color=9474304
;FILE_FORMAT=4:3
METRIC,TZ
;TYPE=PLATED
T1F00S00C0.300
T2F00S00C0.500
T5F00S00C1.100
T6F00S00C1.150
T7F00S00C1.750
T8F00S00C3.500
;TYPE=NON_PLATED
T9F00S00C0.780
T10F00S00C0.840
%
T01
X125095Y42291
X126873Y42530
X129000Y42000
X132000
X135000
X138000
X141000
X141259Y43723
X142875Y43053
X144000Y42000
X144491Y43723
X145161Y45339
X144491Y46955
X142875Y47625
X141259Y46955
X140589Y45339
X139500Y45000
X142500Y51000
X145500
X145542Y55499
X143764Y54610
X141000Y54000
X138000
X138303Y55118
X136652Y56261
X136500Y57000
X139500
X141000Y60000
X144000
X138000
X135000
X132000
X129000
Y66000
X132000
X135000
X133500Y69000
X130500
X132000Y72000
X135000
X133985Y76581
X137795Y77216
X138000Y78000
X126746Y75946
X125857Y76327
X124841
X123895Y76495
X123190Y77663
X124460Y70739
X126000Y72000
X129000
X126000Y66000
X123063Y67437
X121500Y69000
Y63000
X120000Y60000
X121500Y51000
X123000Y48000
X130500Y51000
X135000Y54000
X133500Y57000
X139500Y63000
X118500
X115500
X112500
X111760Y65913
X109855Y66929
X109500Y69000
X110109Y70612
Y73279
X114000Y72000
X115500Y69000
X118500
X111252Y68326
X104775Y69342
X104648Y64770
X101285Y65418
X98425Y67041
X97409Y64516
X93218Y63119
X93000Y66000
X91059Y65024
X93000Y60000
X99000
X99730Y59020
X99060Y57404
X97500Y57000
X99730Y55788
X101346Y55118
X102000Y54000
X102962Y55788
X103632Y57404
X102962Y59020
X101346Y59690
X105000Y60000
X108000
X111000
X114000
X117000
X115500Y57000
X112014Y57023
X110617Y56007
X108000Y54000
X105000
X106500Y57000
Y51000
X108000Y48000
X105000
X102000
X100500Y51000
X97500
X94500
X96000Y54000
X99000
X114000
X112500Y51000
X114000Y48000
X110183Y43233
X106045Y43067
X104267Y74168
X102997Y73660
Y77216
X98425Y78613
X84328Y77665
X84000Y66000
X84074Y62611
Y61722
Y60833
X84000Y60000
X85500Y63000
X84000Y54000
X77724Y58547
X75000Y60000
X76500Y63000
X74041Y63627
Y64327
X76500Y69000
X77971Y78867
X67500Y75000
X64500
X61500
X63000Y72000
X66000
X66421Y66929
X61500Y69000
X55500
X56007Y72263
X55245Y72517
X54000Y78000
X51000
X57000Y66000
X59944Y62484
X61214Y58616
X62357Y57531
X66294Y56896
X65505Y53240
X69823Y48922
X65196Y43977
X64643Y43549
X61500Y45000
X52959Y44450
X51943Y46355
X56769Y52832
X53975Y60071
X52500Y81000
X55500
X58500
X60000Y84000
X61500Y87000
X64500
X63246Y85598
X66040Y84074
X67500Y87000
Y93000
X68326Y92710
Y93599
Y94615
X64897Y93980
Y92964
X61500Y93000
X63000Y90000
X59738Y88363
X58928Y88646
X55500Y87000
X52500
X54000Y90000
X51000
Y84000
X54000
X52500Y99000
X54000Y102000
X57000
X60000
X63000
X66000
X69000
X72000
X75000
X73500Y105000
X70500
X67500
Y99000
X70500
X64500
X61500
X57912Y98171
X57023Y97663
X61500Y105000
Y111000
X64500
X63000Y114000
X62992Y114808
X66548Y113538
X69342Y114046
X67564Y117602
X65532Y118237
X57000Y114000
X75000
X78000
X73500Y93000
X75000Y84000
X68199Y81534
X79500Y81000
Y87000
X81153Y88265
X82500Y87000
X84455Y88138
X84000Y90000
X87000
X90000
X91500Y93000
X94500
X97500
X100500
X102000Y90000
X99000
X96393Y88900
X95377
X94488
X94500Y87000
X97500
X100500
X103500
X106500
X109697Y86075
X109728Y85217
X108000Y84000
X105000
X105664Y82423
X105537Y80899
X100665Y80198
X99000Y84000
X94500Y81000
X91821Y80010
X91059Y80772
X91500Y87000
X88646Y85852
X86360Y85570
X85500Y93000
X84074Y93091
X87249Y96774
X88773Y100584
X90000Y102000
X93000
X96901Y101473
X97500Y99000
X94500
X102489Y100945
X103759Y96774
X104013Y107315
X106553Y107696
X107188Y106807
X108585Y106553
X109093Y103378
X112522
X113538Y102489
X117094Y104140
X116263Y107193
X116586Y108331
X117856Y111631
Y112649
Y113665
X118286Y114427
X112268Y113919
Y111760
Y110109
X112812Y109363
X108188Y110627
X105918Y110109
X106299Y112395
X108397Y113474
X105283Y114935
X105537Y116078
X103500Y117000
X102997Y113030
X100500Y111000
X99568Y110236
X99000Y108000
X96000
X93000
X91278Y108620
X91948Y110236
X91278Y111852
X89662Y112522
X90000Y114000
X93000
X96000
X97917Y111633
X97500Y111000
X94500
Y117000
X93345Y118237
X91500Y117000
X88500
X85500
X82500
X82296Y118781
X81000Y114000
X84000
X87000
X88046Y111852
X87376Y110236
X88046Y108620
X87000Y108000
X89662Y107950
X84000Y108000
X82042Y108077
X82500Y111000
X85500
X82500Y99000
X79500
X100500Y105000
X102235Y108585
X114000Y96000
X116713Y97663
X117729Y96774
X118364Y92329
X118237Y91567
X117000Y90000
X118500Y87000
X115500
X117000Y84000
X115500Y93000
X112649Y91948
X109728Y91567
X111000Y90000
X122682Y91313
X122428Y92075
X120777Y94742
X120130Y95008
X127500Y93000
X130500
X131445Y96520
X132000Y96000
X135000
X135509Y94107
X136271
X137033Y94615
Y95377
Y99060
X139500Y99000
X141000Y96000
X145500Y99000
X144000Y102000
X141351Y103505
X139500Y105000
X138000Y102000
X132000
X132334Y100203
X129000Y102000
X130500Y105000
X127500
X127508Y109728
Y110428
X126619Y111760
Y112522
X129000Y114000
X132000
X131318Y115316
X133350Y117094
X136500Y117000
X139500
X141224Y116078
X142500Y117000
X145500
X144000Y114000
X145500Y111000
X142500
X141859Y109982
X140124Y110533
X137922Y109601
X136271Y108204
X135001Y108331
X135890Y106426
X132000Y108000
X129794Y109220
X129094
X130500Y111000
X133500
X133350Y111633
Y112522
X135000Y114000
X138000
X144000Y108000
X123836Y110427
X119216Y111088
X120015Y113030
X120308Y115177
X121200Y116069
X127500Y99000
X129000Y96000
Y90000
X128143Y88011
X129000Y84000
X132000
X135128Y84328
X133500Y81000
X139500
X142500
X145500
X144000Y84000
X143002Y84455
X140589Y84963
X121031Y84074
X121500Y87000
X122428Y81026
X120015Y120142
X120269Y121666
X120650Y123571
X121500Y123000
Y129000
X123444Y129032
X127500Y129000
X128397Y126619
X129000Y126000
X131445Y126492
X132000Y126000
X133985Y126365
X135000Y126000
X136398Y126365
X136500Y123000
X138811Y122555
X139481Y120939
X141097Y120269
X142713Y120939
X144000Y120000
X143383Y122555
X142713Y124171
X141097Y124841
X141000Y126000
X144000
X145500Y129000
X142500
X144000Y132000
X145500Y135000
X142500
X141605Y134239
X138176Y134366
X134874Y134239
X131572Y134112
X132000Y138000
X135000
X138000
X141000
X144000
X140081Y131318
X136652
X133223
X129286Y130937
X127500Y135000
X127000Y137287
X128524Y137541
X125476Y136398
X124423Y134155
X121158Y135128
X119126Y130810
X126365Y120269
X128270Y122047
X133500Y123000
X139481Y124171
X138000Y120000
X145500Y123000
X117914Y121158
X115316Y121412
X116332Y122555
X113792Y120650
X113538Y119761
X113030Y125095
X114000Y126000
X111000
X108000
X106963Y126271
X106299Y126492
X109500Y129000
X112500
X110236Y131318
X107342Y132107
X106426Y132207
X109500Y135000
X112500
X115570Y135255
X116840Y135128
X118348Y132207
X118500Y129000
X109474Y123698
X109500Y123000
X106527Y119522
X99499Y121158
X98679Y120523
X97500Y123000
X100076Y124333
X101600Y123444
X100584Y129667
X97500Y129000
X99000Y132000
X91948Y132334
X91440Y133604
X89281Y131191
X87757Y128397
X86868Y126623
X83947Y128323
Y132461
X82804Y132334
X83058Y133858
X80137Y132207
X80899Y129667
X79375Y127762
X81407Y125857
X81153Y124714
X89519Y123174
X92075Y127889
X93309Y119090
X75438Y122555
X72798Y122401
X69977Y122555
X67437
X64500Y123000
X66000Y126000
X63000
X64500Y129000
X65151Y130937
Y131699
X63000Y132000
X64500Y135000
X61500
X60325Y137715
X66421Y139065
X66929Y133477
X68707Y127762
X70104Y127000
X75692Y127889
X76708Y125857
X75692Y132334
X75057Y133604
X73279Y131572
X73152Y130810
X61500Y129000
X60960Y121285
X52500Y129000
X51000Y132000
Y138000
T02
X121412Y46482
X124841Y46736
X128175Y49752
X132334Y46482
X136525Y51816
X126746Y60198
X124206
X116840Y50165
X114427Y50673
X112522Y52832
X94361Y54229
X92710Y50292
X85090Y48247
X85725Y54737
X85584Y55993
X87122Y57785
X87022Y60171
X84836Y68707
X92964Y69088
X95129Y69116
X94796Y67945
X96139Y66455
X96647Y70231
X101854Y69088
X102489Y67310
X80518Y55499
X76835Y54991
Y56261
X72390Y53975
X66040Y54864
X64770Y46736
X77978Y63754
X113411Y115697
X134366Y97282
X131318Y92456
X96901Y135255
X88138Y133858
X80010Y133731
X72136
T05
X144145Y66548
Y69088
Y71628
Y74168
Y76708
Y79248
X102997Y125857
Y128397
Y130937
Y133477
Y136017
Y138557
T06
X66294Y91059
Y93599
Y96139
T07
X50927Y44611
Y48611
Y52611
Y56611
Y60611
Y64611
Y68611
Y72611
X54927Y70611
Y66611
Y62611
Y58611
Y54611
Y50611
Y46611
X58927Y48611
Y52611
Y56611
Y60611
Y64611
Y68611
Y72611
Y44611
Y106299
Y110299
Y114299
Y118299
X54927Y116299
Y112299
Y108299
X50927Y110299
Y106299
Y114299
Y118299
Y122299
Y126299
Y130299
Y134299
X54927Y132299
Y128299
Y124299
Y120299
X58927Y122299
Y126299
Y130299
Y134299
T08
X142875Y45339
X101346Y57404
X89662Y110236
X141097Y122555
T09
X140870Y113457
T10
X140870Y106257
M30
